<?xml version="1.0" encoding="utf-8"?>
<!-- Generator: Adobe Illustrator 16.0.0, SVG Export Plug-In . SVG Version: 6.00 Build 0)  -->
<!DOCTYPE svg PUBLIC "-//W3C//DTD SVG 1.1//EN" "http://www.w3.org/Graphics/SVG/1.1/DTD/svg11.dtd">
<svg version="1.1" id="Capa_1" xmlns="http://www.w3.org/2000/svg" xmlns:xlink="http://www.w3.org/1999/xlink" x="0px" y="0px"
	 width="43.531px" height="43.754px" viewBox="0 0 43.531 43.754" enable-background="new 0 0 43.531 43.754" xml:space="preserve">
<path fill="#339999" d="M22.644,26.817l-1.16-2.662c1.146-0.82,2.136-1.848,2.913-3.022l2.703,1.063
	c0.517,0.202,1.101-0.052,1.303-0.569l1.03-2.621c0.098-0.248,0.093-0.524-0.016-0.77c-0.105-0.244-0.306-0.437-0.555-0.533
	l-2.702-1.063c0.23-1.39,0.205-2.814-0.077-4.197l2.661-1.16c0.245-0.106,0.438-0.305,0.534-0.554
	c0.099-0.248,0.093-0.524-0.014-0.769L28.14,7.378c-0.223-0.51-0.814-0.741-1.323-0.52l-2.661,1.16
	c-0.821-1.146-1.847-2.137-3.023-2.913l1.063-2.703c0.202-0.516-0.052-1.1-0.568-1.303l-2.622-1.03
	c-0.248-0.098-0.523-0.092-0.77,0.014c-0.244,0.107-0.438,0.307-0.533,0.555L16.64,3.341c-1.392-0.232-2.818-0.205-4.196,0.076
	l-1.159-2.661c-0.106-0.245-0.308-0.437-0.556-0.533c-0.248-0.099-0.524-0.093-0.771,0.015L7.378,1.362
	c-0.51,0.223-0.74,0.814-0.52,1.322l1.16,2.662c-1.146,0.82-2.138,1.847-2.913,3.021L2.402,7.308
	C2.154,7.21,1.878,7.216,1.634,7.321C1.39,7.428,1.197,7.628,1.1,7.876l-1.03,2.621c-0.203,0.518,0.051,1.1,0.567,1.303l2.702,1.062
	c-0.23,1.392-0.205,2.815,0.077,4.197l-2.661,1.159c-0.244,0.107-0.437,0.307-0.534,0.555c-0.098,0.25-0.092,0.525,0.015,0.77
	l1.126,2.582c0.105,0.244,0.306,0.437,0.554,0.536c0.249,0.096,0.524,0.092,0.771-0.017l2.661-1.16
	c0.819,1.146,1.847,2.138,3.021,2.913l-1.063,2.702c-0.202,0.519,0.052,1.101,0.567,1.303l2.622,1.031
	c0.114,0.044,0.235,0.067,0.354,0.067c0.142,0.002,0.282-0.024,0.414-0.082c0.244-0.106,0.437-0.307,0.534-0.555l1.063-2.703
	c1.391,0.232,2.818,0.205,4.196-0.076l1.159,2.66c0.106,0.244,0.308,0.438,0.555,0.534c0.248,0.099,0.524,0.093,0.77-0.014
	l2.582-1.126C22.634,27.918,22.865,27.327,22.644,26.817z M21.094,17.243c-1.029,2.621-3.611,4.359-6.428,4.324
	c-0.822-0.01-1.633-0.169-2.408-0.473c-1.692-0.666-3.026-1.951-3.755-3.621c-0.728-1.668-0.762-3.52-0.097-5.215
	c1.03-2.621,3.613-4.359,6.428-4.324c0.823,0.009,1.635,0.168,2.407,0.474c1.695,0.665,3.029,1.95,3.756,3.618
	C21.727,13.696,21.76,15.548,21.094,17.243z M43.275,31.238c-0.178-0.198-0.428-0.317-0.693-0.333l-1.893-0.104
	c-0.164-0.896-0.469-1.764-0.9-2.564l1.412-1.264c0.414-0.371,0.447-1.008,0.078-1.42l-1.369-1.527
	c-0.178-0.199-0.427-0.318-0.694-0.333c-0.265-0.013-0.525,0.077-0.725,0.255l-1.411,1.266c-0.749-0.52-1.578-0.918-2.45-1.178
	l0.104-1.892c0.03-0.555-0.396-1.028-0.948-1.06l-2.047-0.111c-0.552-0.028-1.028,0.393-1.06,0.947l-0.104,1.893
	c-0.896,0.164-1.762,0.469-2.563,0.9l-1.265-1.412c-0.179-0.198-0.428-0.318-0.693-0.334c-0.267-0.014-0.527,0.078-0.728,0.256
	l-1.526,1.367c-0.412,0.371-0.448,1.007-0.077,1.42l1.265,1.412c-0.519,0.75-0.916,1.576-1.177,2.449l-1.893-0.104
	c-0.553-0.029-1.028,0.394-1.059,0.946l-0.113,2.049c-0.014,0.266,0.077,0.525,0.255,0.725c0.179,0.2,0.429,0.318,0.693,0.336
	l1.893,0.102c0.163,0.896,0.469,1.764,0.9,2.564l-1.412,1.264c-0.198,0.179-0.317,0.428-0.333,0.695
	c-0.014,0.266,0.077,0.525,0.256,0.725l1.367,1.527c0.178,0.198,0.428,0.317,0.694,0.334c0.265,0.014,0.525-0.078,0.725-0.257
	l1.411-1.264c0.75,0.519,1.578,0.915,2.45,1.176l-0.104,1.894c-0.029,0.555,0.396,1.027,0.949,1.059l2.046,0.113
	c0.015,0,0.029,0,0.043,0c0.252,0.002,0.495-0.088,0.685-0.256c0.197-0.179,0.318-0.429,0.333-0.693l0.104-1.893
	c0.896-0.164,1.762-0.469,2.563-0.9l1.264,1.412c0.178,0.199,0.428,0.318,0.693,0.332c0.268,0.016,0.527-0.076,0.727-0.254
	l1.527-1.369c0.414-0.369,0.448-1.004,0.078-1.418l-1.265-1.412c0.519-0.749,0.915-1.576,1.176-2.449l1.892,0.104
	c0.555,0.028,1.028-0.394,1.061-0.947l0.111-2.047C43.544,31.698,43.453,31.437,43.275,31.238z M31.881,37.043
	c-2.58-0.143-4.563-2.356-4.422-4.938c0.139-2.516,2.217-4.46,4.732-4.43c0.067,0.002,0.136,0.003,0.205,0.007
	c2.58,0.144,4.563,2.356,4.422,4.938C36.676,35.204,34.482,37.185,31.881,37.043z"/>
</svg>
