<?xml version="1.0" encoding="utf-8"?>
<!-- Generator: Adobe Illustrator 16.0.0, SVG Export Plug-In . SVG Version: 6.00 Build 0)  -->
<!DOCTYPE svg PUBLIC "-//W3C//DTD SVG 1.1//EN" "http://www.w3.org/Graphics/SVG/1.1/DTD/svg11.dtd">
<svg version="1.1" id="Capa_1" xmlns="http://www.w3.org/2000/svg" xmlns:xlink="http://www.w3.org/1999/xlink" x="0px" y="0px"
	 width="45.315px" height="45.315px" viewBox="0 0 45.315 45.315" enable-background="new 0 0 45.315 45.315" xml:space="preserve">
<g>
	<g>
		<path fill="#FFFFFF" d="M22.658,0C10.165,0,0,10.165,0,22.657s10.165,22.658,22.658,22.658c12.493,0,22.657-10.166,22.657-22.658
			S35.153,0,22.658,0z M35.723,35.146c0-0.523,0-0.894,0-0.894c0-3.09-3.57-4.218-5.481-5.034c-0.693-0.295-1.996-0.924-3.335-1.578
			c-0.452-0.222-0.859-0.809-0.909-1.313l-0.148-1.463c1.024-0.955,1.946-2.281,2.103-3.763h0.231c0.364,0,0.705-0.272,0.758-0.604
			l0.363-2.24c0.048-0.477-0.404-0.768-0.77-0.768c0.011-0.047,0.019-0.095,0.021-0.136c0.048-0.27,0.076-0.528,0.096-0.782
			c0.021-0.204,0.04-0.414,0.05-0.632c0.039-1.057-0.142-1.982-0.438-2.499c-0.301-0.723-0.757-1.427-1.394-2.029
			c-1.77-1.676-3.821-2.327-5.572-0.98c-1.191-0.206-2.607,0.338-3.631,1.535c-0.559,0.654-0.906,1.404-1.056,2.141
			c-0.133,0.458-0.222,1.015-0.244,1.617c-0.023,0.668,0.043,1.279,0.167,1.775c-0.349,0.021-0.698,0.309-0.698,0.76l0.361,2.239
			c0.054,0.334,0.396,0.606,0.758,0.606h0.208c0.327,1.6,1.179,2.915,2.119,3.83l-0.142,1.415c-0.052,0.503-0.459,1.091-0.912,1.312
			c-1.292,0.633-2.568,1.24-3.332,1.557c-1.796,0.739-5.48,1.944-5.48,5.034v0.698c-3.001-3.232-4.853-7.543-4.853-12.289
			c0-9.978,8.118-18.095,18.094-18.095c9.979,0,18.095,8.117,18.095,18.095C40.752,27.499,38.831,31.894,35.723,35.146z"/>
	</g>
</g>
</svg>
