<?xml version="1.0" encoding="utf-8"?>
<!-- Generator: Adobe Illustrator 16.0.0, SVG Export Plug-In . SVG Version: 6.00 Build 0)  -->
<!DOCTYPE svg PUBLIC "-//W3C//DTD SVG 1.1//EN" "http://www.w3.org/Graphics/SVG/1.1/DTD/svg11.dtd">
<svg version="1.1" id="Capa_1" xmlns="http://www.w3.org/2000/svg" xmlns:xlink="http://www.w3.org/1999/xlink" x="0px" y="0px"
	 width="106.471px" height="181.953px" viewBox="0 0 106.471 181.953" enable-background="new 0 0 106.471 181.953"
	 xml:space="preserve">
<g>
	<path fill="#336535" d="M0,154.718c0.166,8.422,12.117,9.845,12.117,9.845s6.719,17.391,38.873,17.391
		c32.151,0,42.09-16.804,42.09-16.804c11.836-2.049,13.387-10.432,13.387-10.432H0z M35.035,167.735h7.893v2.812h-1.662
		c0,0-0.311,2.287,2.659,2.287c2.973,0,2.887-2.287,2.887-2.287h-1.673v-2.812h6.08v3.774h-2.652c0,0-0.5,3.649,4.237,3.649
		c4.739,0,4.599-3.649,4.599-3.649H54.74v-3.774h6.081v2.812h-1.669c0,0-0.305,2.287,2.664,2.287s2.883-2.287,2.883-2.287h-1.672
		v-2.812h7.248c0,0,0.543,10.971-18.339,10.971C33.058,178.706,35.035,167.735,35.035,167.735"/>
	<path fill="#336535" d="M0.078,20.391c0,11.258,23.814,20.383,53.195,20.383s53.197-9.125,53.197-20.383
		C106.471,9.132,82.654,0,53.273,0S0.078,9.132,0.078,20.391"/>
	<path fill="#69A86A" d="M0,154.715c0,0,18.105,5.603,53.621,5.603c35.514,0,52.848-5.603,52.848-5.603V19.662H0V154.715z"/>
	<path fill="#EEEDED" stroke="#C2C3C9" stroke-miterlimit="10" d="M53.236,39.734c2.876,0,5.51,1.028,7.563,2.729L49.449,53.938
		l1.87,1.847l11.298-11.415c1.536,1.999,2.457,4.49,2.457,7.205c0,6.534-5.299,11.833-11.838,11.833S41.4,58.108,41.4,51.574
		C41.4,45.032,46.697,39.734,53.236,39.734"/>
</g>
</svg>
