<?xml version="1.0" encoding="utf-8"?>
<!-- Generator: Adobe Illustrator 16.0.0, SVG Export Plug-In . SVG Version: 6.00 Build 0)  -->
<!DOCTYPE svg PUBLIC "-//W3C//DTD SVG 1.1//EN" "http://www.w3.org/Graphics/SVG/1.1/DTD/svg11.dtd">
<svg version="1.1" id="Capa_1" xmlns="http://www.w3.org/2000/svg" xmlns:xlink="http://www.w3.org/1999/xlink" x="0px" y="0px"
	 width="163.245px" height="124.241px" viewBox="0 0 163.245 124.241" enable-background="new 0 0 163.245 124.241"
	 xml:space="preserve">
<g>
	<path fill="#CBCFD0" d="M0,81.03c0,2.516,2.039,4.553,4.554,4.553h34.261c2.518,0,4.553-2.037,4.553-4.553
		c0-2.515-2.035-4.552-4.553-4.552H4.554C2.039,76.479,0,78.516,0,81.03"/>
	<path fill="#69A86A" d="M0,81.03c0,2.516,2.039,4.553,4.554,4.553h34.261c2.518,0,4.553-2.037,4.553-4.553
		c0-2.515-2.035-4.552-4.553-4.552H4.554C2.039,76.479,0,78.516,0,81.03"/>
	<path fill="#4A833D" d="M1.209,82.937c0,1.159,0.939,2.101,2.101,2.101h37.96c1.156,0,2.098-0.941,2.098-2.101
		c0-1.16-0.941-2.1-2.098-2.1H3.31C2.148,80.837,1.209,81.776,1.209,82.937"/>
	<rect x="54.855" fill="#2C4F29" width="54.219" height="30.3"/>
	<rect x="59.239" y="32.132" fill="#2C4F29" width="45.451" height="7.174"/>
	<path fill="#69A86A" d="M52.17,42.002c-0.397,0-0.783,0.031-1.172,0.056v77.947c0.389,0.021,0.774,0.054,1.172,0.054h91.319V42.002
		H52.17"/>
	<path fill="#336535" d="M34.074,55.913v50.235c0,9.599,7.479,17.431,16.922,18.036V37.88
		C41.553,38.484,34.074,46.316,34.074,55.913"/>
	<path fill="#0A5375" d="M145.151,37.818h-1.662v86.423h1.662c9.998,0,18.094-8.104,18.094-18.093V55.913
		C163.245,45.92,155.149,37.818,145.151,37.818"/>
	<path fill="#FFFFFF" d="M135.958,55.941h-76.59c-0.924,0-1.672-0.749-1.672-1.673c0-0.927,0.748-1.676,1.672-1.676h76.59
		c0.924,0,1.676,0.749,1.676,1.676C137.633,55.192,136.881,55.941,135.958,55.941"/>
	<path fill="#FFFFFF" d="M135.958,63.838h-76.59c-0.924,0-1.672-0.751-1.672-1.673c0-0.924,0.748-1.677,1.672-1.677h76.59
		c0.924,0,1.676,0.753,1.676,1.677C137.633,63.087,136.881,63.838,135.958,63.838"/>
	<path fill="#FFFFFF" d="M135.958,71.737h-76.59c-0.924,0-1.672-0.751-1.672-1.677c0-0.922,0.748-1.676,1.672-1.676h76.59
		c0.924,0,1.676,0.754,1.676,1.676C137.633,70.986,136.881,71.737,135.958,71.737"/>
	<path fill="#FFFFFF" d="M135.958,79.634h-76.59c-0.924,0-1.672-0.753-1.672-1.674c0-0.927,0.748-1.675,1.672-1.675h76.59
		c0.924,0,1.676,0.748,1.676,1.675C137.633,78.881,136.881,79.634,135.958,79.634"/>
	<path fill="#FFFFFF" d="M135.958,87.53h-76.59c-0.924,0-1.672-0.75-1.672-1.673c0-0.928,0.748-1.675,1.672-1.675h76.59
		c0.924,0,1.676,0.747,1.676,1.675C137.633,86.78,136.881,87.53,135.958,87.53"/>
	<path fill="#FFFFFF" d="M135.958,95.427h-76.59c-0.924,0-1.672-0.749-1.672-1.672c0-0.928,0.748-1.676,1.672-1.676h76.59
		c0.924,0,1.676,0.748,1.676,1.676C137.633,94.678,136.881,95.427,135.958,95.427"/>
	<path fill="#0A5375" d="M135.958,103.324h-76.59c-0.924,0-1.672-0.749-1.672-1.675c0-0.925,0.748-1.674,1.672-1.674h76.59
		c0.924,0,1.676,0.749,1.676,1.674C137.633,102.575,136.881,103.324,135.958,103.324"/>
	<path fill="#0A5375" d="M135.958,111.221h-76.59c-0.924,0-1.672-0.747-1.672-1.675c0-0.92,0.748-1.673,1.672-1.673h76.59
		c0.924,0,1.676,0.753,1.676,1.673C137.633,110.474,136.881,111.221,135.958,111.221"/>
	<path fill="#69A86A" d="M89.361,13.112c0-3.24,2.625-5.86,5.862-5.86s5.857,2.62,5.857,5.86c0,3.237-2.621,5.859-5.857,5.859
		S89.361,16.35,89.361,13.112"/>
	<path fill="#A2ADBF" d="M162.489,50.72c-2.23-7.463-9.15-12.901-17.338-12.901C153.338,37.818,160.258,43.257,162.489,50.72
		 M50.765,124.166L50.765,124.166 M50.848,124.17h-0.012H50.848 M50.881,124.177h-0.002H50.881 M50.925,124.181
		c-0.005,0-0.005-0.004-0.009-0.004C50.92,124.177,50.92,124.181,50.925,124.181 M50.965,124.181h-0.012H50.965 M145.151,124.241
		h-1.662H145.151c9.998,0,18.094-8.099,18.094-18.093V55.913v50.235C163.245,116.143,155.149,124.241,145.151,124.241"/>
	<path fill="#4A833D" d="M59.367,99.978c-0.924,0-1.672,0.747-1.672,1.675c0,0.923,0.748,1.672,1.672,1.672h76.59
		c0.924,0,1.676-0.749,1.676-1.672c0-0.928-0.752-1.675-1.676-1.675H59.367 M59.367,107.874c-0.924,0-1.672,0.752-1.672,1.675
		c0,0.925,0.748,1.672,1.672,1.672h76.59c0.924,0,1.676-0.747,1.676-1.672c0-0.923-0.752-1.675-1.676-1.675H59.367 M143.489,120.059
		H52.17c-0.396,0-0.783-0.032-1.17-0.054v-17.333l9.479-7.245h75.479c0.924,0,1.676-0.747,1.676-1.672
		c0-0.926-0.752-1.676-1.676-1.676H64.861l5.953-4.549h65.143c0.924,0,1.676-0.747,1.676-1.676c0-0.925-0.752-1.672-1.676-1.672
		H75.195l5.953-4.549h54.809c0.924,0,1.676-0.75,1.676-1.678c0-0.923-0.752-1.671-1.676-1.671H85.531l5.95-4.551h44.477
		c0.924,0,1.676-0.747,1.676-1.674c0-0.922-0.752-1.672-1.676-1.672H95.864l5.957-4.551h34.137c0.924,0,1.676-0.751,1.676-1.673
		c0-0.924-0.752-1.674-1.676-1.674h-29.756l5.951-4.55h23.805c0.924,0,1.676-0.749,1.676-1.673c0-0.927-0.752-1.675-1.676-1.675
		h-19.422l13.861-10.592h13.092V120.059"/>
	<path fill="#2C4F29" d="M50.998,124.185L50.998,124.185c-0.012-0.004-0.023-0.004-0.037-0.004h-0.01h-0.026
		c-0.002,0-0.005-0.004-0.009-0.004h-0.035h-0.004c-0.009,0-0.018-0.007-0.029-0.007h-0.004c-0.028,0-0.055,0-0.078-0.004
		c-6.51-0.502-12.045-4.439-14.807-10.002l15.039-11.492v17.331V124.185"/>
	<path fill="#336535" d="M145.151,124.241h-1.662v-4.183V42.002v-4.184h1.662c8.188,0,15.107,5.438,17.338,12.901
		c0.492,1.644,0.756,3.387,0.756,5.193v50.235C163.245,116.143,155.149,124.241,145.151,124.241"/>
	<path fill="#C2C3C9" d="M135.958,55.941h-23.801l4.379-3.349h19.422c0.924,0,1.676,0.749,1.676,1.676
		C137.633,55.192,136.881,55.941,135.958,55.941"/>
	<path fill="#C2C3C9" d="M135.958,63.838h-34.137l4.381-3.35h29.756c0.924,0,1.676,0.753,1.676,1.677
		C137.633,63.087,136.881,63.838,135.958,63.838"/>
	<path fill="#C2C3C9" d="M135.958,71.737H91.481l4.387-3.353h40.09c0.924,0,1.676,0.754,1.676,1.676
		C137.633,70.986,136.881,71.737,135.958,71.737"/>
	<path fill="#C2C3C9" d="M135.958,79.634H81.148l4.381-3.349h50.428c0.924,0,1.676,0.748,1.676,1.675
		C137.633,78.881,136.881,79.634,135.958,79.634"/>
	<path fill="#C2C3C9" d="M135.958,87.53H70.814l4.381-3.348h60.762c0.924,0,1.676,0.747,1.676,1.675
		C137.633,86.78,136.881,87.53,135.958,87.53"/>
	<path fill="#C2C3C9" d="M135.958,95.427H60.48l4.379-3.348h71.098c0.924,0,1.676,0.748,1.676,1.676
		C137.633,94.678,136.881,95.427,135.958,95.427"/>
	<path fill="#C2C3C9" d="M135.958,103.324h-76.59c-0.924,0-1.672-0.749-1.672-1.675c0-0.925,0.748-1.674,1.672-1.674h76.59
		c0.924,0,1.676,0.749,1.676,1.674C137.633,102.575,136.881,103.324,135.958,103.324"/>
	<path fill="#C2C3C9" d="M135.958,111.221h-76.59c-0.924,0-1.672-0.747-1.672-1.675c0-0.92,0.748-1.673,1.672-1.673h76.59
		c0.924,0,1.676,0.753,1.676,1.673C137.633,110.474,136.881,111.221,135.958,111.221"/>
	<path fill="#69A86A" d="M63.098,13.112c0-3.24,2.622-5.86,5.861-5.86c3.232,0,5.857,2.62,5.857,5.86
		c0,3.237-2.625,5.859-5.857,5.859C65.72,18.972,63.098,16.35,63.098,13.112"/>
</g>
</svg>
