<?xml version="1.0" encoding="utf-8"?>
<!-- Generator: Adobe Illustrator 16.0.0, SVG Export Plug-In . SVG Version: 6.00 Build 0)  -->
<!DOCTYPE svg PUBLIC "-//W3C//DTD SVG 1.1//EN" "http://www.w3.org/Graphics/SVG/1.1/DTD/svg11.dtd">
<svg version="1.1" id="Capa_1" xmlns="http://www.w3.org/2000/svg" xmlns:xlink="http://www.w3.org/1999/xlink" x="0px" y="0px"
	 width="990.125px" height="1016.317px" viewBox="0 0 990.125 1016.317" enable-background="new 0 0 990.125 1016.317"
	 xml:space="preserve">
<g>
	<polygon fill="#FCF7D9" points="0.123,285.688 0.123,730.586 495.133,443.922 495.133,0 	"/>
	<polygon fill="#FAF0C7" points="990.063,285.815 495.133,0 495.133,443.922 990.063,730.649 	"/>
	<g>
		
			<line fill="none" stroke="#F5E2B4" stroke-width="0.25" stroke-miterlimit="10" x1="953.391" y1="261.301" x2="953.391" y2="708.952"/>
		
			<line fill="none" stroke="#F5E2B4" stroke-width="0.25" stroke-miterlimit="10" x1="971.727" y1="272.334" x2="971.727" y2="719.985"/>
		
			<line fill="none" stroke="#F5E2B4" stroke-width="0.25" stroke-miterlimit="10" x1="916.719" y1="239.777" x2="916.719" y2="687.428"/>
		
			<line fill="none" stroke="#F5E2B4" stroke-width="0.25" stroke-miterlimit="10" x1="935.055" y1="250.812" x2="935.055" y2="698.461"/>
		
			<line fill="none" stroke="#F5E2B4" stroke-width="0.25" stroke-miterlimit="10" x1="880.049" y1="218.641" x2="880.049" y2="666.292"/>
		
			<line fill="none" stroke="#F5E2B4" stroke-width="0.25" stroke-miterlimit="10" x1="898.385" y1="229.674" x2="898.385" y2="677.325"/>
		
			<line fill="none" stroke="#F5E2B4" stroke-width="0.25" stroke-miterlimit="10" x1="861.713" y1="208.792" x2="861.713" y2="656.442"/>
		
			<line fill="none" stroke="#F5E2B4" stroke-width="0.25" stroke-miterlimit="10" x1="825.041" y1="187.059" x2="825.041" y2="634.709"/>
		
			<line fill="none" stroke="#F5E2B4" stroke-width="0.25" stroke-miterlimit="10" x1="843.377" y1="198.18" x2="843.377" y2="645.831"/>
		
			<line fill="none" stroke="#F5E2B4" stroke-width="0.25" stroke-miterlimit="10" x1="806.705" y1="176.704" x2="806.705" y2="624.356"/>
		
			<line fill="none" stroke="#F5E2B4" stroke-width="0.25" stroke-miterlimit="10" x1="770.033" y1="155.65" x2="770.033" y2="603.301"/>
		
			<line fill="none" stroke="#F5E2B4" stroke-width="0.25" stroke-miterlimit="10" x1="788.369" y1="166.092" x2="788.369" y2="613.743"/>
		
			<line fill="none" stroke="#F5E2B4" stroke-width="0.25" stroke-miterlimit="10" x1="733.361" y1="134.598" x2="733.361" y2="582.249"/>
		
			<line fill="none" stroke="#F5E2B4" stroke-width="0.25" stroke-miterlimit="10" x1="751.697" y1="145.039" x2="751.697" y2="592.69"/>
		
			<line fill="none" stroke="#F5E2B4" stroke-width="0.25" stroke-miterlimit="10" x1="696.695" y1="113.118" x2="696.695" y2="560.768"/>
		
			<line fill="none" stroke="#F5E2B4" stroke-width="0.25" stroke-miterlimit="10" x1="715.031" y1="123.559" x2="715.031" y2="571.209"/>
		
			<line fill="none" stroke="#F5E2B4" stroke-width="0.25" stroke-miterlimit="10" x1="678.359" y1="102.426" x2="678.359" y2="550.077"/>
		
			<line fill="none" stroke="#F5E2B4" stroke-width="0.25" stroke-miterlimit="10" x1="641.688" y1="80.947" x2="641.688" y2="528.598"/>
		
			<line fill="none" stroke="#F5E2B4" stroke-width="0.25" stroke-miterlimit="10" x1="660.023" y1="91.389" x2="660.023" y2="539.04"/>
		
			<line fill="none" stroke="#F5E2B4" stroke-width="0.25" stroke-miterlimit="10" x1="623.352" y1="70.681" x2="623.352" y2="518.331"/>
		
			<line fill="none" stroke="#F5E2B4" stroke-width="0.25" stroke-miterlimit="10" x1="586.68" y1="49.201" x2="586.68" y2="496.852"/>
		
			<line fill="none" stroke="#F5E2B4" stroke-width="0.25" stroke-miterlimit="10" x1="605.016" y1="59.643" x2="605.016" y2="507.293"/>
		
			<line fill="none" stroke="#F5E2B4" stroke-width="0.25" stroke-miterlimit="10" x1="568.344" y1="38.764" x2="568.344" y2="486.414"/>
		
			<line fill="none" stroke="#F5E2B4" stroke-width="0.25" stroke-miterlimit="10" x1="531.672" y1="17.285" x2="531.672" y2="464.936"/>
		
			<line fill="none" stroke="#F5E2B4" stroke-width="0.25" stroke-miterlimit="10" x1="513.336" y1="6.76" x2="513.336" y2="454.41"/>
		
			<line fill="none" stroke="#F5E2B4" stroke-width="0.25" stroke-miterlimit="10" x1="550.008" y1="27.727" x2="550.008" y2="475.377"/>
		
			<line fill="none" stroke="#F5E2B4" stroke-width="0.25" stroke-miterlimit="10" x1="990.063" y1="709.377" x2="495.133" y2="423.676"/>
		
			<line fill="none" stroke="#F5E2B4" stroke-width="0.25" stroke-miterlimit="10" x1="990.063" y1="688.108" x2="495.133" y2="402.408"/>
		
			<line fill="none" stroke="#F5E2B4" stroke-width="0.25" stroke-miterlimit="10" x1="990.063" y1="666.928" x2="495.133" y2="381.227"/>
		
			<line fill="none" stroke="#F5E2B4" stroke-width="0.25" stroke-miterlimit="10" x1="990.063" y1="645.659" x2="495.133" y2="359.959"/>
		
			<line fill="none" stroke="#F5E2B4" stroke-width="0.25" stroke-miterlimit="10" x1="990.063" y1="624.641" x2="495.133" y2="338.941"/>
		
			<line fill="none" stroke="#F5E2B4" stroke-width="0.25" stroke-miterlimit="10" x1="990.063" y1="603.374" x2="495.133" y2="317.672"/>
		
			<line fill="none" stroke="#F5E2B4" stroke-width="0.25" stroke-miterlimit="10" x1="990.063" y1="582.192" x2="495.133" y2="296.492"/>
		
			<line fill="none" stroke="#F5E2B4" stroke-width="0.25" stroke-miterlimit="10" x1="990.063" y1="560.924" x2="495.133" y2="275.223"/>
		
			<line fill="none" stroke="#F5E2B4" stroke-width="0.25" stroke-miterlimit="10" x1="990.063" y1="539.926" x2="495.133" y2="254.226"/>
		
			<line fill="none" stroke="#F5E2B4" stroke-width="0.25" stroke-miterlimit="10" x1="990.063" y1="518.659" x2="495.133" y2="232.957"/>
		
			<line fill="none" stroke="#F5E2B4" stroke-width="0.25" stroke-miterlimit="10" x1="990.063" y1="497.477" x2="495.133" y2="211.776"/>
		
			<line fill="none" stroke="#F5E2B4" stroke-width="0.25" stroke-miterlimit="10" x1="990.063" y1="476.209" x2="495.133" y2="190.508"/>
		
			<line fill="none" stroke="#F5E2B4" stroke-width="0.25" stroke-miterlimit="10" x1="990.063" y1="455.357" x2="495.133" y2="169.657"/>
		
			<line fill="none" stroke="#F5E2B4" stroke-width="0.25" stroke-miterlimit="10" x1="990.063" y1="434.09" x2="495.133" y2="148.389"/>
		
			<line fill="none" stroke="#F5E2B4" stroke-width="0.25" stroke-miterlimit="10" x1="990.063" y1="412.908" x2="495.133" y2="127.208"/>
		
			<line fill="none" stroke="#F5E2B4" stroke-width="0.25" stroke-miterlimit="10" x1="990.063" y1="391.641" x2="495.133" y2="105.939"/>
		
			<line fill="none" stroke="#F5E2B4" stroke-width="0.25" stroke-miterlimit="10" x1="990.063" y1="370.615" x2="495.133" y2="84.914"/>
		
			<line fill="none" stroke="#F5E2B4" stroke-width="0.25" stroke-miterlimit="10" x1="990.063" y1="349.346" x2="495.133" y2="63.646"/>
		
			<line fill="none" stroke="#F5E2B4" stroke-width="0.25" stroke-miterlimit="10" x1="990.063" y1="328.166" x2="495.133" y2="42.465"/>
		
			<line fill="none" stroke="#F5E2B4" stroke-width="0.25" stroke-miterlimit="10" x1="990.063" y1="306.896" x2="495.133" y2="21.197"/>
	</g>
	<g>
		
			<line fill="none" stroke="#F7E8C7" stroke-width="0.25" stroke-miterlimit="10" x1="36.734" y1="261.301" x2="36.734" y2="708.952"/>
		
			<line fill="none" stroke="#F7E8C7" stroke-width="0.25" stroke-miterlimit="10" x1="18.398" y1="272.334" x2="18.398" y2="719.985"/>
		
			<line fill="none" stroke="#F7E8C7" stroke-width="0.25" stroke-miterlimit="10" x1="73.406" y1="239.777" x2="73.406" y2="687.428"/>
		
			<line fill="none" stroke="#F7E8C7" stroke-width="0.25" stroke-miterlimit="10" x1="55.07" y1="250.812" x2="55.07" y2="698.461"/>
		
			<line fill="none" stroke="#F7E8C7" stroke-width="0.25" stroke-miterlimit="10" x1="110.078" y1="218.641" x2="110.078" y2="666.292"/>
		
			<line fill="none" stroke="#F7E8C7" stroke-width="0.25" stroke-miterlimit="10" x1="91.742" y1="229.674" x2="91.742" y2="677.325"/>
		
			<line fill="none" stroke="#F7E8C7" stroke-width="0.25" stroke-miterlimit="10" x1="128.414" y1="208.792" x2="128.414" y2="656.442"/>
		
			<line fill="none" stroke="#F7E8C7" stroke-width="0.25" stroke-miterlimit="10" x1="165.084" y1="187.059" x2="165.084" y2="634.709"/>
		
			<line fill="none" stroke="#F7E8C7" stroke-width="0.25" stroke-miterlimit="10" x1="146.748" y1="198.18" x2="146.748" y2="645.831"/>
		
			<line fill="none" stroke="#F7E8C7" stroke-width="0.25" stroke-miterlimit="10" x1="183.42" y1="176.704" x2="183.42" y2="624.356"/>
		
			<line fill="none" stroke="#F7E8C7" stroke-width="0.25" stroke-miterlimit="10" x1="220.092" y1="155.65" x2="220.092" y2="603.301"/>
		
			<line fill="none" stroke="#F7E8C7" stroke-width="0.25" stroke-miterlimit="10" x1="201.756" y1="166.092" x2="201.756" y2="613.743"/>
		
			<line fill="none" stroke="#F7E8C7" stroke-width="0.25" stroke-miterlimit="10" x1="256.764" y1="134.598" x2="256.764" y2="582.249"/>
		
			<line fill="none" stroke="#F7E8C7" stroke-width="0.25" stroke-miterlimit="10" x1="238.428" y1="145.039" x2="238.428" y2="592.69"/>
		
			<line fill="none" stroke="#F7E8C7" stroke-width="0.25" stroke-miterlimit="10" x1="293.432" y1="113.118" x2="293.432" y2="560.768"/>
		
			<line fill="none" stroke="#F7E8C7" stroke-width="0.25" stroke-miterlimit="10" x1="275.096" y1="123.559" x2="275.096" y2="571.209"/>
		
			<line fill="none" stroke="#F7E8C7" stroke-width="0.25" stroke-miterlimit="10" x1="311.768" y1="102.426" x2="311.768" y2="550.077"/>
		
			<line fill="none" stroke="#F7E8C7" stroke-width="0.25" stroke-miterlimit="10" x1="348.438" y1="80.947" x2="348.438" y2="528.598"/>
		
			<line fill="none" stroke="#F7E8C7" stroke-width="0.25" stroke-miterlimit="10" x1="330.104" y1="91.389" x2="330.104" y2="539.04"/>
		
			<line fill="none" stroke="#F7E8C7" stroke-width="0.25" stroke-miterlimit="10" x1="366.773" y1="70.681" x2="366.773" y2="518.331"/>
		
			<line fill="none" stroke="#F7E8C7" stroke-width="0.25" stroke-miterlimit="10" x1="403.445" y1="49.201" x2="403.445" y2="496.852"/>
		
			<line fill="none" stroke="#F7E8C7" stroke-width="0.25" stroke-miterlimit="10" x1="385.109" y1="59.643" x2="385.109" y2="507.293"/>
		
			<line fill="none" stroke="#F7E8C7" stroke-width="0.25" stroke-miterlimit="10" x1="421.781" y1="38.764" x2="421.781" y2="486.414"/>
		
			<line fill="none" stroke="#F7E8C7" stroke-width="0.25" stroke-miterlimit="10" x1="458.453" y1="17.285" x2="458.453" y2="464.936"/>
		
			<line fill="none" stroke="#F7E8C7" stroke-width="0.25" stroke-miterlimit="10" x1="476.789" y1="6.76" x2="476.789" y2="454.41"/>
		
			<line fill="none" stroke="#F7E8C7" stroke-width="0.25" stroke-miterlimit="10" x1="440.117" y1="27.727" x2="440.117" y2="475.377"/>
		
			<line fill="none" stroke="#F7E8C7" stroke-width="0.25" stroke-miterlimit="10" x1="0.063" y1="709.377" x2="494.992" y2="423.676"/>
		
			<line fill="none" stroke="#F7E8C7" stroke-width="0.25" stroke-miterlimit="10" x1="0.063" y1="688.108" x2="494.992" y2="402.408"/>
		
			<line fill="none" stroke="#F7E8C7" stroke-width="0.25" stroke-miterlimit="10" x1="0.063" y1="666.928" x2="494.992" y2="381.227"/>
		
			<line fill="none" stroke="#F7E8C7" stroke-width="0.25" stroke-miterlimit="10" x1="0.063" y1="645.659" x2="494.992" y2="359.959"/>
		
			<line fill="none" stroke="#F7E8C7" stroke-width="0.25" stroke-miterlimit="10" x1="0.063" y1="624.641" x2="494.992" y2="338.941"/>
		
			<line fill="none" stroke="#F7E8C7" stroke-width="0.25" stroke-miterlimit="10" x1="0.063" y1="603.374" x2="494.992" y2="317.672"/>
		
			<line fill="none" stroke="#F7E8C7" stroke-width="0.25" stroke-miterlimit="10" x1="0.063" y1="582.192" x2="494.992" y2="296.492"/>
		
			<line fill="none" stroke="#F7E8C7" stroke-width="0.25" stroke-miterlimit="10" x1="0.063" y1="560.924" x2="494.992" y2="275.223"/>
		
			<line fill="none" stroke="#F7E8C7" stroke-width="0.25" stroke-miterlimit="10" x1="0.063" y1="539.926" x2="494.992" y2="254.226"/>
		
			<line fill="none" stroke="#F7E8C7" stroke-width="0.25" stroke-miterlimit="10" x1="0.063" y1="518.659" x2="494.992" y2="232.957"/>
		
			<line fill="none" stroke="#F7E8C7" stroke-width="0.25" stroke-miterlimit="10" x1="0.063" y1="497.477" x2="494.992" y2="211.776"/>
		
			<line fill="none" stroke="#F7E8C7" stroke-width="0.25" stroke-miterlimit="10" x1="0.063" y1="476.209" x2="494.992" y2="190.508"/>
		
			<line fill="none" stroke="#F7E8C7" stroke-width="0.25" stroke-miterlimit="10" x1="0.063" y1="455.357" x2="494.992" y2="169.657"/>
		
			<line fill="none" stroke="#F7E8C7" stroke-width="0.25" stroke-miterlimit="10" x1="0.063" y1="434.09" x2="494.992" y2="148.389"/>
		
			<line fill="none" stroke="#F7E8C7" stroke-width="0.25" stroke-miterlimit="10" x1="0.063" y1="412.908" x2="494.992" y2="127.208"/>
		
			<line fill="none" stroke="#F7E8C7" stroke-width="0.25" stroke-miterlimit="10" x1="0.063" y1="391.641" x2="494.992" y2="105.939"/>
		
			<line fill="none" stroke="#F7E8C7" stroke-width="0.25" stroke-miterlimit="10" x1="0.063" y1="370.615" x2="494.992" y2="84.914"/>
		
			<line fill="none" stroke="#F7E8C7" stroke-width="0.25" stroke-miterlimit="10" x1="0.063" y1="349.346" x2="494.992" y2="63.646"/>
		
			<line fill="none" stroke="#F7E8C7" stroke-width="0.25" stroke-miterlimit="10" x1="0.063" y1="328.166" x2="494.992" y2="42.465"/>
		
			<line fill="none" stroke="#F7E8C7" stroke-width="0.25" stroke-miterlimit="10" x1="0.063" y1="306.896" x2="494.992" y2="21.197"/>
	</g>
	<polygon fill="#A8B7BC" points="495.133,443.938 0.123,730.586 495.133,1016.317 990.063,730.649 	"/>
	<polygon fill="#889C9E" points="990.063,720.241 495.133,433.512 495.133,443.922 990.063,730.649 	"/>
	<polygon fill="#94A6AB" points="0.123,719.762 0.123,730.586 495.133,443.922 495.133,433.512 	"/>
	<g>
		
			<line fill="none" stroke="#91A3A8" stroke-width="0.5" stroke-miterlimit="10" x1="55.869" y1="698.461" x2="550.852" y2="984.071"/>
		
			<line fill="none" stroke="#91A3A8" stroke-width="0.5" stroke-miterlimit="10" x1="110.32" y1="667.016" x2="605.303" y2="952.624"/>
		
			<line fill="none" stroke="#91A3A8" stroke-width="0.5" stroke-miterlimit="10" x1="164.254" y1="634.131" x2="659.234" y2="919.741"/>
		
			<line fill="none" stroke="#91A3A8" stroke-width="0.5" stroke-miterlimit="10" x1="218.703" y1="602.684" x2="713.686" y2="888.293"/>
		
			<line fill="none" stroke="#91A3A8" stroke-width="0.5" stroke-miterlimit="10" x1="274.244" y1="570.764" x2="769.227" y2="856.374"/>
		
			<line fill="none" stroke="#91A3A8" stroke-width="0.5" stroke-miterlimit="10" x1="328.693" y1="539.317" x2="823.676" y2="824.926"/>
		
			<line fill="none" stroke="#91A3A8" stroke-width="0.5" stroke-miterlimit="10" x1="386.889" y1="508.531" x2="881.871" y2="794.139"/>
		
			<line fill="none" stroke="#91A3A8" stroke-width="0.5" stroke-miterlimit="10" x1="440.439" y1="475.767" x2="935.422" y2="761.375"/>
	</g>
	<g>
		
			<line fill="none" stroke="#91A3A8" stroke-width="0.5" stroke-miterlimit="10" x1="935.422" y1="698.461" x2="439.484" y2="984.334"/>
		
			<line fill="none" stroke="#91A3A8" stroke-width="0.5" stroke-miterlimit="10" x1="880.971" y1="667.016" x2="385.035" y2="952.887"/>
		
			<line fill="none" stroke="#91A3A8" stroke-width="0.5" stroke-miterlimit="10" x1="827.039" y1="634.131" x2="331.102" y2="920.002"/>
		
			<line fill="none" stroke="#91A3A8" stroke-width="0.5" stroke-miterlimit="10" x1="772.588" y1="602.684" x2="276.65" y2="888.557"/>
		
			<line fill="none" stroke="#91A3A8" stroke-width="0.5" stroke-miterlimit="10" x1="717.047" y1="570.764" x2="221.111" y2="856.635"/>
		
			<line fill="none" stroke="#91A3A8" stroke-width="0.5" stroke-miterlimit="10" x1="662.598" y1="539.317" x2="166.66" y2="825.19"/>
		
			<line fill="none" stroke="#91A3A8" stroke-width="0.5" stroke-miterlimit="10" x1="604.402" y1="508.531" x2="108.465" y2="794.403"/>
		
			<line fill="none" stroke="#91A3A8" stroke-width="0.5" stroke-miterlimit="10" x1="550.852" y1="475.767" x2="54.914" y2="761.639"/>
	</g>
	<g>
		<polygon fill="#B4CACC" points="687.928,684.073 816.805,609.323 825.209,614.161 696.854,688.157 		"/>
		<polygon fill="#94A8AB" points="696.854,688.114 825.209,614.161 825.209,635.131 696.854,709.405 		"/>
		<polygon fill="#B4CACC" points="704.801,683.557 374.879,493.422 366.984,497.596 696.906,688.141 		"/>
		<polygon fill="#899DA1" points="696.906,688.141 366.984,497.596 366.984,518.917 696.906,709.405 		"/>
	</g>
	<g>
		<polygon fill="#474846" points="18.725,338.313 128.537,274.9 128.537,444.252 18.725,507.854 		"/>
		<polygon fill="#646665" points="27.977,348.873 119.289,296.146 119.289,436.967 27.977,489.857 		"/>
		<polygon fill="#A3C7C6" points="27.977,349.012 117.947,297.061 117.947,435.813 27.977,487.927 		"/>
		<path fill="#B3D2D1" d="M27.977,380.889v37.121c3.574-3.577,7.15-7.15,10.727-10.728l79.244-79.244v-30.978l-14.531,8.393
			C78.271,330.597,53.125,355.744,27.977,380.889z"/>
		<path fill="#B3D2D1" d="M27.977,448.123v39.804l9.752-5.65l80.219-80.219v-43.904C87.957,388.143,57.967,418.133,27.977,448.123z"
			/>
	</g>
	<g>
		<polygon fill="#D7D9D9" points="259.74,469.166 259.74,580.186 357.773,637.053 357.773,526.036 		"/>
		<path fill="#EFF0EF" d="M366.596,535.53v19.549h-11.127v71.178h0.049c-0.156,1.406-0.195,2.822,0.008,4.266
			c2.141,15.24,24.094,26.471,49.018,25.09c23.537-1.322,41.305-13.418,41.396-27.596l0.027-0.004V516.995L366.596,535.53z"/>
		<polygon fill="#F6F7F6" points="366.596,535.903 256.584,472.086 322.789,434.141 432.799,497.963 		"/>
		<polygon fill="#E6E7E7" points="278.342,510.624 234.83,485.225 234.83,412.033 278.342,437.428 		"/>
		<polygon fill="#EFF0EF" points="278.342,510.624 385.715,450.182 385.715,376.989 278.342,437.428 		"/>
		<polygon fill="#869158" points="234.83,412.033 342.203,351.59 385.715,376.989 278.342,437.428 		"/>
		<polygon fill="#99A969" points="239.756,408.046 338.424,352.506 378.408,375.844 279.738,431.384 		"/>
		<path fill="#D1D2D3" d="M474.791,549.217c-38.406,50.801-152.523,17.186-160.549-32.361
			c-4.564-28.268,31.156-46.334,66.324-46.334c15.871,0,37.352,13.705,48.285,20.096
			C477.637,519.104,479.848,542.52,474.791,549.217z"/>
		<path fill="#F1F2F1" d="M471.469,553.192c-48.533,25.184-109.943-1.941-130.57-11.945c-15.742-7.635-22.666-23.762-22.666-34.328
			c0-21.992,32.793-47.458,69.094-36.397c15.176,4.629,30.592,3.244,41.525,9.635C477.637,508.646,482.309,547.567,471.469,553.192z
			"/>
		<path fill="#869158" d="M471.469,547.897c-48.533,25.18-111.391,0.607-130.57-11.945c-10.768-7.047-23.891-22.076-16.764-41.491
			c7.572-20.648,28.023-29.234,63.191-29.234c15.873,0,30.592,3.242,41.525,9.637C477.637,503.35,482.309,542.274,471.469,547.897z"
			/>
		<path fill="#99A969" d="M471.469,542.194c-48.533,25.18-111.391,0.609-130.57-11.945c-10.768-7.047-17.254-20.344-17.254-30.902
			c0-22.001,28.514-39.827,63.682-39.827c15.873,0,30.592,3.243,41.525,9.638C477.637,497.645,482.309,536.567,471.469,542.194z"/>
		<path fill="#C0C1C1" d="M318.754,386.714c0.338,2.415-2.594,4.556-6.549,4.774c-3.955,0.224-7.438-1.559-7.779-3.979
			c-0.338-2.42,2.59-4.561,6.549-4.779C314.93,382.512,318.412,384.295,318.754,386.714z"/>
	</g>
	<g>
		<polygon fill="#393A36" points="202.305,529.438 91.957,592.852 91.957,762.036 202.305,698.622 		"/>
		<polygon fill="#535553" points="202.305,529.438 91.957,592.852 18.725,550.77 128.664,486.873 		"/>
		<polygon fill="#CDDDDF" points="120.57,509 61.484,542.954 49.678,536.006 108.545,501.794 		"/>
		<polygon fill="#474846" points="18.725,550.77 18.725,719.954 91.957,762.036 91.957,592.852 		"/>
		<g>
			<polygon fill="#99A969" points="203.686,599.139 104.631,656.065 104.631,758.522 203.686,701.598 			"/>
			<polygon fill="#D2DD95" points="203.686,599.139 104.631,656.065 99.48,653.104 198.537,596.178 			"/>
			<polygon fill="#B2C17B" points="99.48,653.104 99.48,755.563 104.631,758.522 104.631,656.065 			"/>
			<path fill="#B6C2C6" d="M200.352,670.784c-0.258,0-0.518-0.068-0.752-0.199l-5.412-3.055c-0.732-0.416-0.994-1.346-0.576-2.082
				c0.414-0.736,1.344-0.996,2.08-0.578l3.133,1.768v-17.684l-4.625-2.555c-0.736-0.41-1.006-1.336-0.596-2.076
				c0.41-0.744,1.336-1.012,2.076-0.598l5.412,2.992c0.484,0.271,0.787,0.781,0.787,1.338v21.201c0,0.545-0.289,1.045-0.756,1.32
				C200.885,670.715,200.617,670.784,200.352,670.784z"/>
		</g>
		<g>
			<polygon fill="#99A969" points="203.686,557.649 104.631,614.575 104.631,647.76 203.686,590.834 			"/>
			<polygon fill="#D2DD95" points="203.686,557.649 104.631,614.575 99.48,611.614 198.537,554.688 			"/>
			<polygon fill="#B2C17B" points="99.48,611.614 99.48,644.799 104.631,647.76 104.631,614.575 			"/>
			<path fill="#B6C2C6" d="M152.543,602.522c-0.26,0-0.518-0.068-0.752-0.199l-5.412-3.057c-0.732-0.414-0.994-1.344-0.576-2.08
				c0.408-0.732,1.344-0.99,2.08-0.578l4.641,2.619l14.697-8.781l-3.088-1.707c-0.734-0.41-1.006-1.338-0.596-2.078
				c0.41-0.744,1.34-1.01,2.076-0.596l5.412,2.992c0.479,0.262,0.779,0.764,0.787,1.313c0.01,0.545-0.273,1.055-0.744,1.336
				l-17.742,10.602C153.084,602.45,152.813,602.522,152.543,602.522z"/>
		</g>
		<g>
			<path fill="#FFFFFF" d="M167.086,512.952c13.906,7.648,14.055,20.281,0.33,28.252l-52.174,30.293
				c-13.725,7.971-36.094,8.236-49.998,0.605l0,0c-13.902-7.633-14.045-20.273-0.326-28.24l52.166-30.289
				C130.813,505.598,153.199,505.34,167.086,512.952L167.086,512.952z"/>
			<path fill="#E8F1F3" d="M161.141,518.745c11.734,6.455,11.859,17.119,0.283,23.84l-44.025,25.563
				c-11.578,6.721-30.451,6.947-42.182,0.508l0,0c-11.73-6.438-11.854-17.105-0.279-23.826l44.018-25.555
				C130.533,512.545,149.428,512.327,161.141,518.745L161.141,518.745z"/>
			<path fill="#98A3A5" stroke="#ECEDEC" stroke-width="0.25" stroke-miterlimit="10" d="M132.67,550.108
				c0,2.338-4.074,5.715-9.104,7.557c-5.029,1.838-9.104,1.449-9.104-0.883c0-2.336,4.074-5.719,9.104-7.561
				C128.596,547.383,132.67,547.778,132.67,550.108z"/>
		</g>
		<g>
			<path fill="#A2ADB1" d="M77.859,516.016v6.764c0,1.771,2.732,3.211,6.1,3.211c3.369,0,6.096-1.439,6.096-3.211v-6.764H77.859z"/>
			<path fill="#BCC8CB" d="M90.055,516.016c0,1.773-2.727,3.207-6.096,3.207c-3.367,0-6.1-1.434-6.1-3.207
				c0-1.775,2.732-3.215,6.1-3.215C87.328,512.801,90.055,514.241,90.055,516.016z"/>
			<path fill="#A2ADB1" d="M101.391,501.818v4.094c0,1.07,1.652,1.941,3.693,1.941c2.037,0,3.688-0.871,3.688-1.941v-4.094H101.391z
				"/>
			<path fill="#BCC8CB" d="M108.771,501.818c0,1.074-1.65,1.938-3.688,1.938c-2.041,0-3.693-0.863-3.693-1.938
				s1.652-1.946,3.693-1.946C107.121,499.872,108.771,500.744,108.771,501.818z"/>
			<path fill="#A2ADB1" d="M83.959,517.198c-1.293,0-2.336-1.047-2.336-2.336v-20.875c-0.061-0.752-0.482-8.869,4.143-12.454
				c1.563-1.218,4.361-2.376,8.705-0.915c4.648,1.492,13.375,7.621,12.988,20.099c-0.039,1.285-1.113,2.28-2.408,2.261
				c-1.293-0.041-2.303-1.114-2.264-2.408c0.379-12.116-9.66-15.479-9.76-15.51c-2.957-0.986-4.039-0.124-4.396,0.166
				c-2.262,1.743-2.451,6.929-2.34,8.604l0.004,21.034C86.295,516.151,85.248,517.198,83.959,517.198z"/>
			<path fill="#8B9698" d="M84.941,513.676c0,0-0.123-3.586-0.303-8.969c-0.047-2.694-0.107-5.834-0.166-9.195
				c-0.006-1.607-0.125-3.486,0.17-5.258c0.256-1.781,0.756-3.648,1.949-5.204c1.184-1.591,3.332-2.368,5.189-2.104
				c1.867,0.183,3.594,0.855,5.033,1.818c0.76,0.414,1.43,0.939,2.059,1.488c0.668,0.497,1.229,1.086,1.723,1.711
				c1.125,1.126,1.785,2.475,2.451,3.672c0.688,1.194,0.811,2.492,1.17,3.534c0.4,1.042,0.193,2.05,0.297,2.821
				c0.064,1.572,0.096,2.471,0.096,2.471s-0.1-0.891-0.273-2.451c-0.164-0.76-0.027-1.75-0.506-2.75
				c-0.43-0.99-0.629-2.228-1.328-3.346c-0.689-1.127-1.365-2.388-2.488-3.418c-0.492-0.577-1.047-1.11-1.707-1.553
				c-0.621-0.488-1.244-0.994-1.973-1.376c-1.369-0.892-2.98-1.468-4.637-1.616c-1.646-0.183-3.266,0.45-4.25,1.771
				c-1.025,1.285-1.547,3-1.805,4.688c-0.303,1.73-0.217,3.342-0.232,5.102c-0.059,3.361-0.115,6.501-0.162,9.195
				C85.064,510.09,84.941,513.676,84.941,513.676z"/>
			<path fill="#DEE5E6" d="M82.789,491.433c0,0-0.152-1.21,0.115-3.028c0.311-1.771,1.098-4.301,3.123-5.996
				c0.49-0.426,1.051-0.74,1.635-1.003c0.551-0.327,1.195-0.374,1.76-0.558c1.178-0.187,2.279-0.1,3.184,0.088
				c0.926,0.084,1.607,0.498,2.113,0.645c0.488,0.188,0.771,0.291,0.771,0.291s-1.205-0.231-2.957-0.283
				c-0.875-0.088-1.873,0.057-2.904,0.251c-0.486,0.19-1.047,0.239-1.496,0.554c-0.49,0.242-0.955,0.528-1.357,0.91
				c-1.775,1.357-2.646,3.633-3.234,5.257C82.988,490.23,82.789,491.433,82.789,491.433z"/>
			<g>
				<path fill="#A2ADB1" d="M65.777,526.047v4.768c0,1.248,1.926,2.264,4.299,2.264c2.375,0,4.297-1.016,4.297-2.264v-4.768H65.777z
					"/>
				<ellipse fill="#BCC8CB" cx="70.075" cy="526.047" rx="4.298" ry="2.26"/>
				<path fill="#808F8E" d="M73.594,524.102c1.193,0.787,0.5,2.16-1.557,3.078c-2.057,0.904-12.766,4.906-14.557,3.352
					c-1.082-0.939,8.174-5.316,10.23-6.229C69.762,523.401,72.398,523.305,73.594,524.102z"/>
				<path fill="#E7EFEF" d="M73.594,523.401c1.193,0.787,0.5,2.16-1.557,3.08c-2.057,0.902-13.361,4.846-14.557,4.051
					c-1.193-0.793,8.174-6.018,10.23-6.928C69.762,522.7,72.398,522.606,73.594,523.401z"/>
			</g>
			<g>
				<path fill="#A2ADB1" d="M102.588,510.696v4.768c0,1.248-1.926,2.264-4.297,2.264c-2.375,0-4.297-1.016-4.297-2.264v-4.768
					H102.588z"/>
				<ellipse fill="#BCC8CB" cx="98.291" cy="510.696" rx="4.297" ry="2.26"/>
				<path fill="#808F8E" d="M94.773,509.096c-1.193,0.788-0.502,2.161,1.557,3.081c2.057,0.902,12.764,4.906,14.555,3.35
					c1.082-0.939-8.172-5.316-10.23-6.227C98.605,508.396,95.967,508.3,94.773,509.096z"/>
				<path fill="#E7EFEF" d="M94.773,508.396c-1.193,0.788-0.502,2.162,1.557,3.08c2.057,0.904,13.361,4.848,14.555,4.051
					c1.193-0.791-8.172-6.016-10.23-6.928C98.605,507.695,95.967,507.6,94.773,508.396z"/>
			</g>
		</g>
	</g>
	<g>
		<polygon fill="#252724" points="347.918,149.025 201.426,233.697 201.426,403.132 347.918,318.27 		"/>
		<polygon fill="#474846" points="366.377,159.781 347.918,149.025 347.918,318.139 366.377,328.918 		"/>
		<polygon fill="#535553" points="347.918,149.025 201.426,233.697 219.885,244.48 366.377,159.781 		"/>
		<polygon fill="#626463" points="366.377,159.721 219.885,244.393 219.885,328.918 366.377,244.48 		"/>
		<polygon fill="#3B3D3A" points="296.072,207.937 296.072,278.805 360.471,241.688 360.471,170.716 		"/>
		<polygon fill="#3B3D3A" points="291.998,210.292 225.785,248.563 225.785,319.32 291.998,281.156 		"/>
		<polygon fill="#424441" points="347.918,312.627 201.426,397.299 219.885,407.712 366.377,323.172 		"/>
		<polygon fill="#626463" points="366.377,323.04 219.885,407.712 219.885,413.7 366.377,329.264 		"/>
		<polygon fill="#474846" points="219.885,244.48 201.426,233.697 201.426,403.132 219.885,413.7 		"/>
		<path fill="#B6C2C6" d="M290.682,268.415c-0.26,0-0.518-0.067-0.752-0.199l-5.412-3.056c-0.732-0.414-0.994-1.346-0.576-2.081
			c0.414-0.736,1.344-0.995,2.08-0.577l3.133,1.767v-17.683l-4.625-2.555c-0.736-0.41-1.006-1.338-0.596-2.078
			c0.408-0.743,1.336-1.01,2.076-0.596l5.412,2.992c0.484,0.27,0.787,0.779,0.787,1.336v21.201c0,0.545-0.289,1.047-0.756,1.321
			C291.215,268.348,290.947,268.415,290.682,268.415z"/>
		<path fill="#B6C2C6" d="M307.104,260.95c-0.26,0-0.518-0.067-0.752-0.199l-5.412-3.056c-0.732-0.414-0.994-1.346-0.576-2.081
			c0.414-0.736,1.344-0.995,2.08-0.577l3.133,1.767v-17.683l-4.625-2.555c-0.736-0.41-1.006-1.338-0.596-2.078
			c0.408-0.743,1.336-1.01,2.076-0.596l5.412,2.992c0.484,0.27,0.787,0.779,0.787,1.336v21.201c0,0.545-0.291,1.047-0.756,1.321
			C307.637,260.883,307.369,260.95,307.104,260.95z"/>
		<g>
			<path fill="#EFF0EF" d="M247.051,371.136c-1.09-1.46-3.82-2.503-7.023-2.503c-3.207,0-5.938,1.043-7.027,2.503h-0.51v12.701
				c0,2.165,3.375,3.915,7.537,3.915s7.537-1.75,7.537-3.915v-12.701H247.051z"/>
			<path fill="#C9B1D1" d="M247.592,368.904c-1.174-1.576-4.115-2.695-7.564-2.695s-6.391,1.119-7.564,2.695h-0.553v1.516
				c0,2.328,3.633,4.217,8.117,4.217c4.48,0,8.117-1.889,8.117-4.217v-1.516H247.592z"/>
			<path fill="#E4D0E4" d="M231.91,369.086c0,2.328,3.633,4.211,8.117,4.211c4.48,0,8.117-1.883,8.117-4.211
				c0-2.331-3.637-4.217-8.117-4.217C235.543,364.869,231.91,366.755,231.91,369.086z"/>
		</g>
		<g>
			<path fill="#EFF0EF" d="M299.328,338.723c-1.416-1.898-4.959-3.252-9.111-3.252c-4.162,0-7.701,1.354-9.113,3.252h-0.664v16.477
				c0,2.806,4.377,5.079,9.777,5.079c5.395,0,9.771-2.273,9.771-5.079v-16.477H299.328z"/>
			<path fill="#BBA17C" d="M295.66,336.824c-0.848-1.139-2.961-1.941-5.443-1.941c-2.488,0-4.602,0.803-5.449,1.941h-0.396v1.09
				c0,1.676,2.613,3.036,5.846,3.036c3.223,0,5.84-1.36,5.84-3.036v-1.09H295.66z"/>
			<path fill="#DCC4A1" d="M284.371,336.955c0,1.672,2.613,3.028,5.846,3.028c3.223,0,5.84-1.356,5.84-3.028
				c0-1.68-2.617-3.036-5.84-3.036C286.984,333.919,284.371,335.275,284.371,336.955z"/>
		</g>
		<g>
			<path fill="#EFF0EF" d="M268.004,356.799c-1.416-1.898-4.957-3.25-9.111-3.25c-4.162,0-7.699,1.352-9.113,3.25h-0.664v16.478
				c0,2.806,4.377,5.077,9.777,5.077c5.395,0,9.771-2.271,9.771-5.077v-16.478H268.004z"/>
			<path fill="#BBA17C" d="M264.336,354.9c-0.848-1.137-2.961-1.941-5.443-1.941c-2.486,0-4.6,0.805-5.447,1.941h-0.398v1.091
				c0,1.675,2.615,3.037,5.846,3.037c3.223,0,5.842-1.362,5.842-3.037V354.9H264.336z"/>
			<path fill="#DCC4A1" d="M253.047,355.032c0,1.671,2.615,3.028,5.846,3.028c3.223,0,5.842-1.357,5.842-3.028
				c0-1.679-2.619-3.036-5.842-3.036C255.662,351.996,253.047,353.354,253.047,355.032z"/>
		</g>
		<g>
			<path fill="#EFF0EF" d="M286.34,352.023c-1.09-1.459-3.82-2.502-7.023-2.502c-3.207,0-5.936,1.043-7.027,2.502h-0.508v12.702
				c0,2.165,3.373,3.915,7.535,3.915s7.537-1.75,7.537-3.915v-12.702H286.34z"/>
			<path fill="#C9B1D1" d="M286.881,349.792c-1.174-1.575-4.113-2.694-7.564-2.694c-3.449,0-6.391,1.119-7.564,2.694h-0.553v1.517
				c0,2.327,3.633,4.217,8.117,4.217c4.48,0,8.117-1.89,8.117-4.217v-1.517H286.881z"/>
			<path fill="#E4D0E4" d="M271.199,349.975c0,2.328,3.633,4.21,8.117,4.21c4.48,0,8.117-1.882,8.117-4.21
				c0-2.332-3.637-4.218-8.117-4.218C274.832,345.757,271.199,347.643,271.199,349.975z"/>
		</g>
		<g>
			<polygon fill="#84BEDC" points="321.646,346.286 308.691,353.851 308.691,331.154 321.646,323.586 			"/>
			<polygon fill="#E1EEF0" points="321.646,339.959 308.691,347.52 308.691,337.48 321.646,329.916 			"/>
			<polygon fill="#9CCAE3" points="317.354,321.078 304.398,328.646 308.691,331.154 321.646,323.586 			"/>
			<polygon fill="#70A3BB" points="304.398,328.646 304.398,351.344 308.691,353.851 308.691,331.154 			"/>
			<polygon fill="#CCE0E3" points="304.398,334.887 304.398,345.021 308.691,347.52 308.691,337.389 			"/>
			<path fill="#474846" d="M316.303,320.688c-0.51-0.685-1.787-1.17-3.283-1.17s-2.77,0.485-3.277,1.17h-0.24v5.113
				c0,1.011,1.572,1.835,3.518,1.835c1.947,0,3.521-0.824,3.521-1.835v-5.113H316.303z"/>
			<path fill="#646665" d="M309.502,320.768c0,1.012,1.572,1.827,3.518,1.827c1.947,0,3.521-0.815,3.521-1.827
				c0-1.01-1.574-1.83-3.521-1.83C311.074,318.938,309.502,319.758,309.502,320.768z"/>
		</g>
		<g>
			<polygon fill="#84BEDC" points="321.018,331.938 333.975,339.502 333.975,316.805 321.018,309.236 			"/>
			<polygon fill="#E1EEF0" points="321.018,325.612 333.975,333.171 333.975,323.132 321.018,315.567 			"/>
			<polygon fill="#9CCAE3" points="325.313,306.73 338.268,314.299 333.975,316.805 321.018,309.236 			"/>
			<polygon fill="#70A3BB" points="338.268,314.299 338.268,336.995 333.975,339.502 333.975,316.805 			"/>
			<polygon fill="#CCE0E3" points="338.268,320.537 338.268,330.672 333.975,333.171 333.975,323.04 			"/>
			<path fill="#474846" d="M326.361,306.34c0.51-0.685,1.787-1.17,3.283-1.17s2.77,0.485,3.279,1.17h0.238v5.113
				c0,1.011-1.572,1.834-3.518,1.834s-3.521-0.823-3.521-1.834v-5.113H326.361z"/>
			<path fill="#646665" d="M333.162,306.42c0,1.01-1.572,1.826-3.518,1.826s-3.521-0.816-3.521-1.826
				c0-1.012,1.576-1.831,3.521-1.831S333.162,305.408,333.162,306.42z"/>
		</g>
		<polygon fill="#424441" points="347.918,270.09 201.426,354.762 219.885,365.176 366.377,280.635 		"/>
		<polygon fill="#626463" points="366.377,280.504 219.885,365.176 219.885,371.164 366.377,286.727 		"/>
		<rect x="219.885" y="324.529" fill="#626463" width="5.9" height="83.699"/>
		<rect x="360.471" y="242.937" fill="#626463" width="5.906" height="83.7"/>
	</g>
	<g>
		<polygon fill="#E2BE76" points="383.729,699.094 496.15,635.489 587.957,688.352 475.281,751.938 		"/>
		<path fill="#C79D57" d="M475.281,753.975c-0.352,0-0.705-0.092-1.02-0.275l-91.551-52.842c-0.629-0.363-1.02-1.035-1.02-1.764
			s0.387-1.4,1.02-1.762l112.422-63.607c0.625-0.361,1.4-0.365,2.033-0.004l91.807,52.863c0.633,0.365,1.021,1.039,1.021,1.768
			c0,0.727-0.389,1.4-1.018,1.762L476.299,753.7C475.984,753.883,475.631,753.975,475.281,753.975z M387.805,699.094l87.477,50.492
			l108.598-61.23l-87.725-50.516L387.805,699.094z"/>
	</g>
	<g>
		<g>
			<path fill="#E6B75E" d="M834.094,204.63l9.123-3.725v403.494c-5.729,7.641-13.338,4.545-13.338,4.545l-14.42-8.332v-403.94
				L834.094,204.63z"/>
			<path fill="#D69C3E" d="M830.834,203.236v405.995c-0.596-0.148-0.955-0.287-0.955-0.287l-14.42-8.332v-403.94L830.834,203.236z"
				/>
			<path fill="#C88926" d="M826.699,191.463l16.518,9.442c-5.729,7.64-13.338,4.544-13.338,4.544l-14.42-8.332v-0.445
				L826.699,191.463z"/>
			<path fill="#E6B75E" d="M817.223,214.793l9.123-3.725v403.495c-5.73,7.639-13.338,4.543-13.338,4.543l-14.42-8.332v-403.94
				L817.223,214.793z"/>
			<path fill="#D69C3E" d="M813.963,213.4v405.993c-0.598-0.146-0.955-0.287-0.955-0.287l-14.42-8.332v-403.94L813.963,213.4z"/>
			<path fill="#C88926" d="M809.828,201.625l16.518,9.443c-5.73,7.64-13.338,4.545-13.338,4.545l-14.42-8.334v-0.445
				L809.828,201.625z"/>
			<path fill="#E6B75E" d="M800.35,224.127l9.125-3.725v403.495c-5.73,7.641-13.338,4.545-13.338,4.545l-14.42-8.332V216.169
				L800.35,224.127z"/>
			<path fill="#D69C3E" d="M797.092,222.734v405.995c-0.598-0.148-0.955-0.287-0.955-0.287l-14.42-8.332V216.169L797.092,222.734z"
				/>
			<path fill="#C88926" d="M792.957,210.961l16.518,9.441c-5.73,7.641-13.338,4.545-13.338,4.545l-14.42-8.332v-0.446
				L792.957,210.961z"/>
			<path fill="#E6B75E" d="M783.256,233.889l9.125-3.725v403.495c-5.73,7.639-13.338,4.543-13.338,4.543l-14.422-8.332V225.93
				L783.256,233.889z"/>
			<path fill="#D69C3E" d="M779.998,232.496v405.993c-0.598-0.146-0.955-0.287-0.955-0.287l-14.422-8.332V225.93L779.998,232.496z"
				/>
			<path fill="#C88926" d="M775.863,220.721l16.518,9.443c-5.73,7.64-13.338,4.544-13.338,4.544l-14.422-8.333v-0.445
				L775.863,220.721z"/>
			<path fill="#E6B75E" d="M766.109,243.732l9.125-3.725v403.495c-5.73,7.641-13.338,4.545-13.338,4.545l-14.42-8.332V235.774
				L766.109,243.732z"/>
			<path fill="#C88926" d="M758.717,230.565l16.518,9.442c-5.73,7.641-13.338,4.545-13.338,4.545l-14.42-8.333v-0.445
				L758.717,230.565z"/>
		</g>
		<ellipse fill="#C88926" cx="754.101" cy="253.23" rx="3.565" ry="5.221"/>
		<ellipse fill="#98A6AB" cx="367.411" cy="96.004" rx="3.565" ry="5.221"/>
		<path fill="#AEBAC1" d="M696.865,287.471c-0.35,0-0.703-0.092-1.018-0.273L367.682,97.767c-0.975-0.562-1.309-1.807-0.744-2.781
			c0.561-0.976,1.811-1.306,2.781-0.744l327.154,188.845l55.525-31.463c0.959-0.568,2.217-0.219,2.773,0.768
			c0.557,0.979,0.211,2.222-0.768,2.773l-56.535,32.04C697.559,287.383,697.211,287.471,696.865,287.471z"/>
	</g>
	<path fill="#D9DBDB" d="M563.123,538.315c0.621,4.42-4.75,8.34-11.992,8.742c-7.242,0.41-13.617-2.857-14.242-7.287
		c-0.621-4.428,4.744-8.348,11.99-8.75C556.125,530.62,562.498,533.881,563.123,538.315z"/>
	<g>
		<path fill="#D9DBDB" d="M447.307,179.283c0,4.281-3.074,8.916-6.875,10.342c-3.789,1.424-6.867-0.893-6.867-5.178
			c0-4.281,3.078-8.913,6.867-10.338C444.232,172.682,447.307,175.001,447.307,179.283z"/>
		<path fill="#BAC7CD" d="M445.99,180.02c0,3.063-2.205,6.382-4.922,7.4c-2.711,1.023-4.918-0.637-4.918-3.705
			c0-3.063,2.207-6.382,4.918-7.4C443.785,175.291,445.99,176.955,445.99,180.02z"/>
		<path fill="#C3D3DB" d="M468.143,209.663c-1.107,0-2.182-0.604-2.727-1.655l-6.068-11.698l-19.314-11.138
			c-1.469-0.844-1.973-2.718-1.125-4.186c0.844-1.469,2.721-1.975,4.186-1.127l20.094,11.584c0.51,0.295,0.924,0.724,1.193,1.241
			l6.482,12.494c0.781,1.505,0.195,3.358-1.309,4.138C469.102,209.552,468.619,209.663,468.143,209.663z"/>
		<path fill="#BAC7CB" d="M471.83,203.877c0.479,1.183-1.006,2.897-3.311,3.824c-2.307,0.928-4.559,0.713-5.037-0.469
			c-0.477-1.182,1.006-2.896,3.314-3.824C469.102,202.48,471.354,202.691,471.83,203.877z"/>
		<path fill="#727D81" d="M486.502,219.416c0.852,2.574-4.051,6.518-10.955,8.802c-6.904,2.288-13.186,2.069-14.047-0.513
			c-0.852-2.575,4.051-6.514,10.955-8.803C479.355,216.615,485.643,216.838,486.502,219.416z"/>
		<path fill="#D7DDDD" d="M486.072,218.752c0.836,2.527-3.979,6.398-10.756,8.646c-6.781,2.244-12.951,2.021-13.791-0.51
			c-0.836-2.525-0.434-19.637,6.342-21.889C474.648,202.756,485.232,216.221,486.072,218.752z"/>
		<path fill="#F1F2F1" d="M484.975,218.616c0.76,2.3-3.617,5.817-9.777,7.862l-6.777-20.365
			C474.584,204.076,484.209,216.32,484.975,218.616z"/>
		<path fill="#E1EDF0" d="M467.656,201.992c-1.746-2.988-3.434-6.01-5.076-9.049l0.131,0.135
			c-7.016-3.779-13.959-7.684-20.74-11.885c7.154,3.529,14.139,7.357,21.059,11.309l0.088,0.051l0.043,0.088
			C464.705,195.732,466.213,198.848,467.656,201.992z"/>
	</g>
	<g>
		<path fill="#D9DBDB" d="M906.605,325.777c4.918,0.686,9.279,5.85,9.725,11.516c0.457,5.671-3.176,9.697-8.105,9.006
			c-4.926-0.686-9.287-5.846-9.732-11.512C898.045,329.12,901.674,325.086,906.605,325.777z"/>
		
			<line fill="none" stroke="#B4B4B4" stroke-width="2" stroke-linecap="round" stroke-miterlimit="10" x1="904.984" y1="336.648" x2="893.637" y2="336.648"/>
		<path fill="#A6AC72" d="M879.061,496.147c0,0-10.949-5.722-12.717-14.36l23.311-146.443L879.061,496.147z"/>
		<path fill="#A6AC72" d="M910.846,526.29c0,0,11.967-3.848,19.582-14.719L901.074,332.59L910.846,526.29z"/>
		<path fill="#B0B77C" d="M891.775,562.512c0,0,21.543-5.654,27.551-17.311l-7.066-83.708l2.475-8.91L899.9,335.344L891.775,562.512
			z"/>
		<path fill="#B7C183" d="M870.275,548.331l19.379-212.987c0,0,4.945-9.418,12.008-2.754l4.764,129.58l-10.414,14.826l1.414,99.995
			C897.426,576.991,874.514,566.739,870.275,548.331z"/>
		<polygon fill="#AAB277" points="896.012,476.996 897.43,377.283 902.518,467.729 		"/>
	</g>
	<g>
		<path fill="#BBC9CE" d="M428.752,315.385c0,4.572-3.238,9.625-7.236,11.272c-4,1.647-7.242-0.72-7.242-5.295
			c0-4.573,3.242-9.627,7.242-11.274C425.514,308.441,428.752,310.809,428.752,315.385z"/>
		<path fill="#A1A6A8" d="M427.914,325.355c-0.529,0-1.066-0.131-1.561-0.401l-4.434-2.471c-1.547-0.864-2.104-2.817-1.24-4.365
			c0.867-1.552,2.824-2.093,4.361-1.241l4.432,2.471c1.549,0.863,2.105,2.817,1.246,4.361
			C430.129,324.768,429.035,325.355,427.914,325.355z"/>
		<path fill="#869397" d="M438.713,317.457c3.852,2.463-0.637,6.766-1.412,11.022c-0.77,4.254-3.889,8.05-7.74,5.575
			c-3.852-2.471-6.471-8.918-3.928-13.131C428.322,316.459,434.861,314.986,438.713,317.457z"/>
		<path fill="#97A3A8" d="M441.533,322.854c0,4.572-3.242,9.621-7.242,11.269c-3.998,1.647-7.242-0.72-7.242-5.296
			c0-4.572,3.244-9.621,7.242-11.27C438.291,315.91,441.533,318.277,441.533,322.854z"/>
		<path fill="#BBC9CE" d="M441.785,324.461c0,3.35-2.381,7.059-5.313,8.265c-2.938,1.214-5.313-0.525-5.313-3.884
			c0-3.354,2.375-7.059,5.313-8.265C439.404,319.363,441.785,321.103,441.785,324.461z"/>
		<path fill="#869397" d="M440.543,326.347c0,1.731-1.227,3.642-2.738,4.262c-1.512,0.625-2.736-0.271-2.736-2.001
			c0-1.728,1.225-3.637,2.736-4.262C439.316,323.725,440.543,324.62,440.543,326.347z"/>
	</g>
	<g>
		<path fill="#BBC9CE" d="M467.322,296.253c0,4.571-3.238,9.626-7.238,11.272c-3.998,1.647-7.242-0.72-7.242-5.296
			c0-4.572,3.244-9.626,7.242-11.272C464.084,289.309,467.322,291.677,467.322,296.253z"/>
		<path fill="#A1A6A8" d="M466.482,306.225c-0.529,0-1.066-0.131-1.559-0.402l-4.434-2.471c-1.549-0.863-2.105-2.817-1.242-4.365
			c0.867-1.552,2.826-2.093,4.361-1.241l4.434,2.471c1.547,0.864,2.105,2.817,1.244,4.361
			C468.699,305.636,467.605,306.225,466.482,306.225z"/>
		<path fill="#869397" d="M477.281,298.326c3.854,2.463-0.637,6.764-1.412,11.021c-0.768,4.254-3.887,8.051-7.738,5.575
			c-3.852-2.472-6.471-8.917-3.928-13.131C466.893,297.327,473.43,295.855,477.281,298.326z"/>
		<path fill="#97A3A8" d="M480.104,303.722c0,4.571-3.244,9.622-7.242,11.269c-4,1.647-7.242-0.72-7.242-5.296
			c0-4.572,3.242-9.622,7.242-11.269C476.859,296.777,480.104,299.146,480.104,303.722z"/>
		<path fill="#BBC9CE" d="M480.354,305.329c0,3.351-2.379,7.06-5.313,8.265c-2.936,1.214-5.311-0.525-5.311-3.884
			c0-3.354,2.375-7.059,5.311-8.265C477.975,300.232,480.354,301.971,480.354,305.329z"/>
		<path fill="#869397" d="M479.113,307.215c0,1.732-1.227,3.641-2.738,4.262c-1.512,0.625-2.738-0.27-2.738-2.001
			c0-1.728,1.227-3.638,2.738-4.262C477.887,304.594,479.113,305.488,479.113,307.215z"/>
	</g>
	<g>
		<polygon fill="#6E7B7C" points="662.598,840.282 682.08,851.678 696.381,839.399 681.951,829.012 		"/>
		<path fill="#B6C8CF" d="M750.051,849.481c-5.957-7.998-20.871-13.68-38.379-13.68c-17.516,0-32.43,5.682-38.387,13.68h-2.797
			v7.703c0,11.814,18.432,21.385,41.184,21.385c22.744,0,41.176-9.57,41.176-21.385v-7.703H750.051z"/>
		<path fill="#D7E5E9" d="M670.488,850.397c0,11.814,18.432,21.385,41.184,21.385c22.744,0,41.176-9.57,41.176-21.385
			s-18.432-21.385-41.176-21.385C688.92,829.012,670.488,838.583,670.488,850.397z"/>
		<path fill="#929A9B" d="M747.313,783.401c-5.535-7.43-19.383-12.705-35.641-12.705c-16.262,0-30.109,5.275-35.641,12.705h-2.6
			v64.445c0,10.971,17.115,19.855,38.24,19.855c21.121,0,38.236-8.885,38.236-19.855v-64.445H747.313z"/>
		<path fill="#B6C8CF" d="M750.051,772.063c-5.957-7.998-20.871-13.68-38.379-13.68c-17.516,0-32.43,5.682-38.387,13.68h-2.797
			v7.705c0,11.813,18.432,21.383,41.184,21.383c22.744,0,41.176-9.57,41.176-21.383v-7.705H750.051z"/>
		<path fill="#D7E5E9" d="M670.488,772.979c0,11.814,18.432,21.385,41.184,21.385c22.744,0,41.176-9.57,41.176-21.385
			s-18.432-21.383-41.176-21.383C688.92,751.596,670.488,761.165,670.488,772.979z"/>
		<polygon fill="#8A9A9E" points="733.621,813.821 734.957,814.903 753.166,783.413 751.83,782.331 733.621,792.827 		"/>
		<polygon fill="#9CACB0" points="734.957,814.903 753.166,804.407 753.166,783.413 734.957,793.909 		"/>
	</g>
	<g>
		<path fill="#BAC7CD" d="M285.938,154.381c0,11.086-7.969,23.1-17.807,26.775c-9.803,3.697-17.781-2.291-17.781-13.4
			c0-11.09,7.979-23.092,17.781-26.771C277.969,137.283,285.938,143.295,285.938,154.381z"/>
		<path fill="#FFFFFF" d="M286.34,154.998c0,10.84-7.795,22.586-17.416,26.183c-9.586,3.617-17.389-2.24-17.389-13.106
			c0-10.844,7.803-22.578,17.389-26.18C278.545,138.273,286.34,144.155,286.34,154.998z"/>
		<path fill="#DFE9EB" d="M283.34,161.205c0,5.754-3.057,16.972-8.504,17.238c-3.215,0.154-14.352-7.211-9.672-17.365
			c5.229-11.348,19.311-5.205,20.988-3.18C287.229,159.2,283.34,158.953,283.34,161.205z"/>
		<path fill="#BAC7CD" d="M288.867,164.258c0,5.754-4.139,11.988-9.248,13.898c-5.084,1.918-9.227-1.189-9.227-6.959
			c0-5.754,4.143-11.981,9.227-13.895C284.729,155.381,288.867,158.504,288.867,164.258z"/>
		<path fill="#D6AB3F" d="M326.092,196.023c-0.76,0-1.535-0.235-2.309-0.689l-39.328-23.027c-2.09-1.213-3.65-3.812-3.631-6.035
			c0.025-2.854,2.926-4.405,5.619-2.834l39.33,23.035c2.098,1.23,3.656,3.828,3.625,6.045
			C329.375,194.578,328.01,196.023,326.092,196.023z M284.768,166.888c0.244,0.792,0.865,1.683,1.617,2.121l39.066,22.876
			c-0.25-0.788-0.871-1.684-1.607-2.117L284.768,166.888z"/>
		<path fill="#E6C25C" d="M322.992,192.279c-0.764,0-1.541-0.235-2.313-0.689l-39.326-23.027c-2.092-1.213-3.648-3.812-3.629-6.035
			c0.025-2.854,2.922-4.401,5.615-2.834l39.334,23.035c2.092,1.229,3.652,3.828,3.621,6.045
			C326.271,190.834,324.906,192.279,322.992,192.279z M281.668,163.144c0.244,0.792,0.859,1.683,1.613,2.12l39.066,22.877
			c-0.248-0.788-0.871-1.684-1.607-2.117L281.668,163.144z"/>
		<path fill="#E6C25C" d="M320.971,203.857c-0.764,0-1.541-0.234-2.313-0.688l-39.324-23.023c-2.094-1.218-3.65-3.816-3.631-6.041
			c0.025-2.853,2.922-4.4,5.615-2.832l39.334,23.035c2.094,1.229,3.652,3.831,3.621,6.043
			C324.25,202.414,322.885,203.857,320.971,203.857z M279.646,174.723c0.244,0.792,0.861,1.684,1.613,2.121l39.066,22.875
			c-0.246-0.783-0.871-1.683-1.607-2.112L279.646,174.723z"/>
		<path fill="#F2D982" d="M317.441,199.289c-0.764,0-1.541-0.234-2.313-0.688l-39.326-23.027c-2.092-1.214-3.648-3.813-3.629-6.041
			c0.025-2.853,2.922-4.4,5.615-2.832l39.33,23.039c2.096,1.229,3.656,3.828,3.625,6.044
			C320.721,197.846,319.355,199.289,317.441,199.289z M276.117,170.15c0.244,0.792,0.859,1.684,1.611,2.125l39.068,22.876
			c-0.248-0.788-0.871-1.683-1.607-2.116L276.117,170.15z"/>
	</g>
	<g>
		<path fill="#010705" d="M368.389,364.498c-1.236,0-2.82-0.273-4.451-1.277c-4.223-2.59-6.848-8.742-7.803-18.283
			c-0.781-7.819-0.336-14.508,0.1-20.975c0.818-12.184,1.523-22.709-6.598-36.381c-0.287-0.485-0.129-1.109,0.354-1.396
			c0.473-0.281,1.105-0.131,1.396,0.354c8.447,14.222,7.719,25.036,6.881,37.559c-0.426,6.387-0.873,12.983-0.104,20.64
			c1.102,11.01,4.305,15.168,6.795,16.721c2.27,1.412,4.369,0.982,5.006,0.799c2.27-2.471-0.25-6.107-0.277-6.143
			c-14.227-13.283-7.561-58.541-7.271-60.459c1.18-13.076-7.516-14.102-7.889-14.139c-0.559-0.055-0.969-0.557-0.912-1.117
			c0.061-0.558,0.49-0.995,1.117-0.912c0.107,0.013,11.07,1.294,9.705,16.41c-0.074,0.521-6.803,46.174,6.777,58.883
			c1.412,1.967,3.031,6.16,0.016,9.097l-0.342,0.223C370.813,364.129,369.83,364.498,368.389,364.498z"/>
		<path fill="#B65393" d="M355.061,279.298c0,0,3.736,1.524,1.643,5.622c0,0-34.275,21.229-61.76,32.184
			c0,0-3.729,1.488-7.303-2.459c0,0-1.682-2.909,1.488-3.872l53.043-26.003L355.061,279.298z"/>
		<path fill="#333531" d="M353.209,280.559c0,0,2.646,0.148,0.717,3.928c0,0-33.4,17.843-57.475,28.741l-4.082-3.62l48.947-23.998
			L353.209,280.559z"/>
		<path fill="#ADB3B5" d="M319.904,301.748c0,0-3.467,1.568-26.918,13.043l-4.084-3.621l26.602-13.143L319.904,301.748z"/>
		<path fill="#454644" d="M354.014,277.543c0,0-27.342,3.801-62.799,13.486c0,0-5.814,1.193-5.217,5.215
			c0,0,1.416,4.167,7.008,2.675l56.094-13.927c0,0,7.895-1.266,7.6-3.648C356.699,281.344,356.771,279.258,354.014,277.543z"/>
		<path fill="#C6669F" d="M354.014,276.536c0,0-27.342,3.796-62.799,13.485c0,0-5.814,1.189-5.217,5.217
			c0,0,1.416,4.162,7.008,2.674l56.094-13.927c0,0,7.895-1.266,7.6-3.649C356.699,280.336,356.771,278.252,354.014,276.536z"/>
		<g>
			<path fill="#9F3C7A" d="M351.629,284.65c0,1.595-1.197,3.381-2.678,3.99c-1.484,0.613-2.682-0.188-2.682-1.783
				c0-1.591,1.197-3.377,2.682-3.99C350.432,282.258,351.629,283.059,351.629,284.65z"/>
			<path fill="#2F302D" d="M347.992,289.07c-1.166,0-1.945-0.887-1.945-2.213c0-1.67,1.266-3.553,2.816-4.197
				c0.359-0.143,0.713-0.219,1.043-0.219c1.166,0,1.945,0.887,1.945,2.209c0,1.674-1.26,3.561-2.816,4.197
				C348.678,288.999,348.326,289.07,347.992,289.07z M349.906,282.887c-0.273,0-0.568,0.068-0.871,0.188
				c-1.4,0.58-2.543,2.275-2.543,3.783c0,1.075,0.586,1.768,1.5,1.768c0.275,0,0.57-0.064,0.871-0.191
				c1.406-0.576,2.543-2.275,2.543-3.783C351.406,283.579,350.822,282.887,349.906,282.887z"/>
		</g>
	</g>
	<g>
		<path fill="#1C1F1C" d="M175.932,417.123c-0.104,0-0.203,0-0.307,0c-0.219-0.004-5.18-0.152-9.123-4.771
			c-4.199-4.918-5.576-12.823-4.088-23.505c0.068-0.401,1.596-9.291,7.092-15.511l1.527,1.354
			c-5.113,5.781-6.59,14.377-6.602,14.465c-1.396,10.019-0.191,17.377,3.586,21.836c3.334,3.936,7.465,4.091,7.639,4.095
			c0.096,0,0.191,0,0.287,0c9.184,0,15.713-2.872,19.391-8.547c10.525-16.239-4.795-50.353-4.949-50.694
			c-6.816-16.207-2.777-31.617-2.604-32.266c1.715-5.619,1.604-10.119-0.322-13.398c-2.172-3.697-5.996-4.557-6.035-4.567
			c-1.629-0.295-2.811-0.14-3.279,0.449c-0.641,0.792-0.23,2.538,0.066,3.263l-1.877,0.779c-0.145-0.342-1.338-3.386,0.223-5.322
			c0.99-1.223,2.758-1.629,5.26-1.167c0.215,0.044,4.732,1.03,7.377,5.499c2.248,3.796,2.432,8.854,0.545,15.029
			c-0.031,0.119-4.014,15.371,2.512,30.887c0.645,1.412,15.924,35.441,4.795,52.615
			C192.971,413.936,185.863,417.123,175.932,417.123z"/>
		<path fill="#B893BD" d="M173.469,322.889c0,0,2.762-3.883,6.355-3.629l5.439,2.71l-6.957,4.095L173.469,322.889z"/>
		<path fill="#815295" d="M185.264,359.975c0,7.572-6.941,18.746-13.563,21.475c-6.625,2.73-19.607-3.031-18.625-14.029
			c0.672-7.541,5.371-15.945,11.996-18.675C171.693,346.02,185.264,352.395,185.264,359.975z"/>
		<path fill="#6F4182" d="M134.395,380.006l13.752-8.412c0,0,4.822-3.645,6.104-9.717c0,0,4.465-5.619,8.938,2.63l7.082,17.38
			c0,0-5.189,0.912-7.48,0.529c-2.293-0.381-21.977,11.557-21.977,11.557L134.395,380.006z"/>
		<g>
			<path fill="#3B3D3A" d="M131.088,384.776c0,3.744,2.652,7.886,5.928,9.235c3.279,1.354,5.938-0.589,5.938-4.338
				c0-3.748-2.658-7.891-5.938-9.238C133.74,379.086,131.088,381.023,131.088,384.776z"/>
			<path fill="#8A5A9A" d="M139.033,394.951L139.033,394.951c-0.713,0-1.457-0.156-2.213-0.47c-3.441-1.417-6.242-5.771-6.242-9.705
				c0-3.159,1.777-5.28,4.428-5.28c0.709,0,1.453,0.159,2.205,0.469c3.445,1.417,6.252,5.774,6.252,9.709
				c0,1.545-0.422,2.865-1.223,3.816C141.445,394.434,140.307,394.951,139.033,394.951z M135.006,380.515
				c-2.072,0-3.41,1.675-3.41,4.262c0,3.558,2.52,7.489,5.615,8.766c1.688,0.696,3.287,0.438,4.25-0.708
				c0.645-0.764,0.982-1.858,0.982-3.16c0-3.561-2.523-7.492-5.623-8.77C136.191,380.646,135.58,380.515,135.006,380.515z"/>
		</g>
		<path fill="#986BA4" d="M166.449,348.332l8.078,4.865c0,0,8.543-18.212,4.496-27.061l-5.555-3.248
			C173.469,322.889,177.033,338.65,166.449,348.332z"/>
		<path fill="#8A5A9A" d="M185.461,362.35c0,7.572-5.363,15.94-11.984,18.67c-6.625,2.73-11.996-1.193-11.996-8.77
			c0-7.572,5.371-15.944,11.996-18.674C180.098,350.85,185.461,354.77,185.461,362.35z"/>
		<path fill="#A67DAF" d="M180.623,365.887c0,3.152-2.232,6.63-4.986,7.768c-2.754,1.135-4.99-0.497-4.99-3.648
			s2.236-6.633,4.99-7.768C178.391,361.104,180.623,362.736,180.623,365.887z"/>
		<path fill="#8A5A9A" d="M174.186,354.094c0,0,7.957-19.936,3.883-28.594c0,0,3.533-6.622,7.393-3.224
			c0,0,0.121,24.543-1.066,34.853L174.186,354.094z"/>
		<path fill="#3B3D3A" d="M177.396,321.918c0,0,1.018-7.93-2.674-13.533c0,0,3.691-3.056,4.354,2.42c0,0-0.943,8.059,0.748,9.414
			C179.824,320.219,179.203,323.339,177.396,321.918z"/>
	</g>
	<g>
		<path fill="#F7F7F7" d="M227.381,465.016c-4.67-2.873-9.131-3.184-12.41-1.377l-0.004-0.004l-0.104,0.059
			c-0.092,0.053-0.184,0.104-0.27,0.16l-21.5,12.781l19.494,36.643l22.076-13.051v-0.004c3.18-1.302,5.439-4.413,6.023-9.033
			C241.85,481.975,235.893,470.248,227.381,465.016z"/>
		<path fill="#CCCCCC" d="M217.99,504.492c-1.162,9.219-9.012,12.45-17.531,7.213c-8.52-5.232-14.477-16.958-13.307-26.182
			c1.166-9.216,9.014-12.447,17.537-7.206C213.199,483.55,219.156,495.276,217.99,504.492z"/>
		<path fill="#BC9E6C" d="M207.713,498.173c-0.391,3.072-3.004,4.15-5.85,2.403c-2.84-1.746-4.826-5.658-4.436-8.734
			c0.385-3.071,3.008-4.15,5.848-2.402C206.117,491.182,208.104,495.098,207.713,498.173z"/>
		<polygon fill="#ABB7BC" points="183.428,481.047 201.143,491.114 200.65,499.164 183.428,497.146 		"/>
		<path fill="#969DA3" d="M204.248,497.223c-0.271,2.145-2.102,2.9-4.088,1.679c-1.984-1.222-3.373-3.956-3.104-6.108
			c0.268-2.145,2.102-2.9,4.086-1.679C203.133,492.336,204.518,495.07,204.248,497.223z"/>
	</g>
	<g>
		<polygon fill="#A3BEC6" points="678.355,212.58 586.867,159.459 586.867,95.944 678.355,149.065 		"/>
		<path fill="#B5CDD2" d="M646.434,130.527l-18.648-10.828c-13.395,13.398-26.793,26.791-40.186,40.186l18.65,10.827
			C619.643,157.318,633.037,143.92,646.434,130.527z"/>
		<path fill="#B5CDD2" d="M678.008,148.866l-18.322-10.644c-13.395,13.397-26.789,26.791-40.186,40.185l18.328,10.64
			L678.008,148.866z"/>
		<g>
			<path fill="#CECECE" d="M585.594,91.516v68.226l95.563,55.485V147L585.594,91.516z M589.668,98.59l41.701,24.213v58.804
				l-41.701-24.213V98.59z M677.082,208.151l-41.51-24.105v-58.804l41.51,24.105V208.151z"/>
		</g>
		<g>
			<path fill="#F9F9F9" d="M584.83,92.406v68.227l95.563,55.484v-68.226L584.83,92.406z M588.904,99.481l41.701,24.213v58.804
				l-41.701-24.213V99.481z M676.318,209.043l-41.512-24.105v-58.804l41.512,24.105V209.043z"/>
		</g>
	</g>
	<g>
		<path fill="#BCCDD2" d="M501.619,259.147c3.676,2.025,3.711,5.364,0.086,7.469l-13.791,8.011
			c-3.625,2.104-9.537,2.176-13.215,0.158l0,0c-3.672-2.018-3.713-5.359-0.088-7.465l13.793-8.006
			C492.029,257.205,497.949,257.139,501.619,259.147L501.619,259.147z"/>
		<path fill="#E8F1F3" d="M501.619,256.982c3.676,2.025,3.711,5.364,0.086,7.469l-13.791,8.011
			c-3.625,2.104-9.537,2.177-13.215,0.159l0,0c-3.672-2.018-3.713-5.359-0.088-7.465l13.793-8.006
			C492.029,255.041,497.949,254.974,501.619,256.982L501.619,256.982z"/>
	</g>
</g>
</svg>
