<?xml version="1.0" encoding="utf-8"?>
<!-- Generator: Adobe Illustrator 16.0.0, SVG Export Plug-In . SVG Version: 6.00 Build 0)  -->
<!DOCTYPE svg PUBLIC "-//W3C//DTD SVG 1.1//EN" "http://www.w3.org/Graphics/SVG/1.1/DTD/svg11.dtd">
<svg version="1.1" id="Capa_1" xmlns="http://www.w3.org/2000/svg" xmlns:xlink="http://www.w3.org/1999/xlink" x="0px" y="0px"
	 width="990.002px" height="935.946px" viewBox="0 0 990.002 935.946" enable-background="new 0 0 990.002 935.946"
	 xml:space="preserve">
<g>
	<polygon fill="#F4F5F4" points="494.88,364.243 0.001,650.122 495.035,935.946 990.001,650.122 	"/>
	<polygon fill="#959493" points="493.844,884.094 448.958,910.022 493.857,935.946 538.751,910.022 	"/>
	<polygon fill="#959493" points="583.632,832.243 538.751,858.17 583.645,884.094 628.538,858.17 	"/>
	<polygon fill="#959493" points="673.79,780.182 628.902,806.11 673.804,832.034 718.698,806.11 	"/>
	<polygon fill="#959493" points="763.579,728.329 718.698,754.258 763.592,780.182 808.485,754.258 	"/>
	<polygon fill="#959493" points="853.842,676.061 808.954,701.989 853.854,727.915 898.748,701.989 	"/>
	<polygon fill="#959493" points="944.781,624.208 899.895,650.137 944.795,676.061 989.688,650.137 	"/>
	<polygon fill="#959493" points="493.844,832.243 448.958,858.17 493.857,884.094 538.751,858.17 	"/>
	<polygon fill="#959493" points="583.996,780.182 539.115,806.11 584.009,832.034 628.902,806.11 	"/>
	<polygon fill="#959493" points="673.79,728.329 628.902,754.258 673.804,780.182 718.698,754.258 	"/>
	<polygon fill="#959493" points="764.047,676.061 719.166,701.989 764.061,727.915 808.954,701.989 	"/>
	<polygon fill="#959493" points="854.987,624.208 810.106,650.137 855,676.061 899.895,650.137 	"/>
	<polygon fill="#959493" points="404.028,832.172 359.144,858.102 404.041,884.026 448.936,858.102 	"/>
	<polygon fill="#959493" points="493.817,780.321 448.936,806.249 493.831,832.172 538.725,806.249 	"/>
	<polygon fill="#959493" points="583.977,728.262 539.089,754.19 583.989,780.114 628.883,754.19 	"/>
	<polygon fill="#959493" points="673.765,676.409 628.883,702.336 673.777,728.262 718.671,702.336 	"/>
	<polygon fill="#959493" points="764.027,624.141 719.141,650.069 764.041,675.993 808.935,650.069 	"/>
	<polygon fill="#959493" points="854.968,572.29 810.081,598.217 854.981,624.141 899.875,598.217 	"/>
	<polygon fill="#959493" points="135.094,676.282 90.21,702.209 135.107,728.135 180.001,702.209 	"/>
	<polygon fill="#959493" points="224.885,624.43 180.001,650.358 224.899,676.282 269.792,650.358 	"/>
	<polygon fill="#959493" points="315.041,572.37 270.157,598.297 315.054,624.223 359.948,598.297 	"/>
	<polygon fill="#959493" points="404.832,520.518 359.948,546.446 404.845,572.37 449.738,546.446 	"/>
	<polygon fill="#959493" points="495.095,468.25 450.208,494.177 495.107,520.102 540.001,494.177 	"/>
	<polygon fill="#959493" points="586.033,416.398 541.146,442.325 586.048,468.25 630.941,442.325 	"/>
	<polygon fill="#959493" points="135.094,624.43 90.21,650.358 135.107,676.282 180.001,650.358 	"/>
	<polygon fill="#959493" points="225.25,572.37 180.366,598.297 225.263,624.223 270.157,598.297 	"/>
	<polygon fill="#959493" points="315.041,520.518 270.157,546.446 315.054,572.37 359.948,546.446 	"/>
	<polygon fill="#959493" points="405.301,468.25 360.417,494.177 405.314,520.102 450.208,494.177 	"/>
	<polygon fill="#959493" points="496.239,416.398 451.357,442.325 496.252,468.25 541.146,442.325 	"/>
	<polygon fill="#959493" points="45.28,624.362 0.396,650.29 45.293,676.213 90.187,650.29 	"/>
	<polygon fill="#959493" points="135.071,572.51 90.187,598.438 135.085,624.362 179.979,598.438 	"/>
	<polygon fill="#959493" points="225.228,520.45 180.343,546.377 225.24,572.301 270.134,546.377 	"/>
	<polygon fill="#959493" points="315.019,468.598 270.134,494.526 315.031,520.45 359.925,494.526 	"/>
	<polygon fill="#959493" points="405.278,416.33 360.395,442.257 405.292,468.181 450.186,442.257 	"/>
	<polygon fill="#959493" points="496.221,364.477 451.335,390.405 496.233,416.33 541.127,390.405 	"/>
	<polygon fill="#959493" points="405.178,780.321 360.293,806.249 405.19,832.172 450.085,806.249 	"/>
	<polygon fill="#959493" points="495.335,728.262 450.449,754.19 495.348,780.114 540.242,754.19 	"/>
	<polygon fill="#959493" points="585.123,676.409 540.242,702.336 585.136,728.262 630.029,702.336 	"/>
	<polygon fill="#959493" points="675.385,624.141 630.498,650.069 675.399,675.993 720.293,650.069 	"/>
	<polygon fill="#959493" points="765.174,572.29 720.293,598.217 765.187,624.141 810.081,598.217 	"/>
	<polygon fill="#959493" points="314.442,779.954 269.558,805.881 314.455,831.805 359.35,805.881 	"/>
	<polygon fill="#959493" points="404.233,728.102 359.35,754.03 404.247,779.954 449.141,754.03 	"/>
	<polygon fill="#959493" points="494.391,676.042 449.505,701.969 494.403,727.893 539.298,701.969 	"/>
	<polygon fill="#959493" points="584.179,624.19 539.298,650.116 584.191,676.042 629.085,650.116 	"/>
	<polygon fill="#959493" points="674.442,571.92 629.555,597.848 674.455,623.772 719.349,597.848 	"/>
	<polygon fill="#959493" points="764.229,520.069 719.349,545.997 764.242,571.92 809.137,545.997 	"/>
	<polygon fill="#959493" points="314.442,728.102 269.558,754.03 314.455,779.954 359.35,754.03 	"/>
	<polygon fill="#959493" points="404.598,676.042 359.713,701.969 404.61,727.893 449.505,701.969 	"/>
	<polygon fill="#959493" points="494.391,624.19 449.505,650.116 494.403,676.042 539.298,650.116 	"/>
	<polygon fill="#959493" points="584.646,571.92 539.767,597.848 584.661,623.772 629.555,597.848 	"/>
	<polygon fill="#959493" points="674.442,520.069 629.555,545.997 674.455,571.92 719.349,545.997 	"/>
	<polygon fill="#959493" points="224.628,728.034 179.744,753.961 224.641,779.885 269.535,753.961 	"/>
	<polygon fill="#959493" points="314.419,676.182 269.535,702.108 314.433,728.034 359.326,702.108 	"/>
	<polygon fill="#959493" points="404.575,624.122 359.691,650.049 404.588,675.973 449.482,650.049 	"/>
	<polygon fill="#959493" points="494.364,572.268 449.482,598.198 494.378,624.122 539.271,598.198 	"/>
	<polygon fill="#959493" points="584.628,520 539.74,545.928 584.641,571.852 629.534,545.928 	"/>
	<polygon fill="#959493" points="674.415,468.148 629.534,494.077 674.43,520 719.323,494.077 	"/>
	<polygon fill="#959493" points="224.628,676.182 179.744,702.108 224.641,728.034 269.535,702.108 	"/>
	<polygon fill="#959493" points="314.784,624.122 269.9,650.049 314.797,675.973 359.691,650.049 	"/>
	<polygon fill="#959493" points="404.575,572.268 359.691,598.198 404.588,624.122 449.482,598.198 	"/>
	<polygon fill="#959493" points="494.833,520 449.951,545.928 494.847,571.852 539.74,545.928 	"/>
	<polygon fill="#959493" points="584.628,468.148 539.74,494.077 584.641,520 629.534,494.077 	"/>
	<polygon fill="#FDFDF9" points="494.88,364.23 0.001,650.094 0.001,285.864 494.88,0 	"/>
	<g>
		<polygon fill="#F4F6DA" points="494.88,364.23 990.001,650.094 990.001,285.864 494.88,0 		"/>
	</g>
	<polygon fill="#848484" points="494.88,364.23 990.001,650.094 990.001,641.577 494.88,355.711 	"/>
	<polygon fill="#787979" points="494.88,364.23 0.001,650.094 0.001,641.577 494.88,355.711 	"/>
	<polygon fill="#4E504E" points="719.935,598.155 494.84,468.361 494.84,364.445 719.935,494.392 	"/>
	<polygon fill="#3E3F3C" points="809.957,442.147 719.935,494.392 719.935,598.155 809.957,546.006 	"/>
	<polygon fill="#DEE0DF" points="809.957,441.118 719.935,493.364 719.935,499.224 809.957,447.077 	"/>
	<polygon fill="#FDFEFE" points="719.935,499.619 494.84,369.824 494.84,363.81 719.935,493.757 	"/>
	<polygon fill="#D3DEE1" points="719.935,494.239 494.84,364.445 494.84,260.258 810.314,442.025 	"/>
	<g>
		<polygon fill="#AB7C45" points="538.606,424.327 499.008,401.462 499.008,465.789 538.606,488.632 		"/>
		<polygon fill="#AB7C45" points="628.902,476.464 587.232,452.402 587.232,516.682 628.902,540.721 		"/>
		<polygon fill="#AB7C45" points="674.194,502.614 632.237,478.389 632.237,542.645 674.194,566.848 		"/>
		<polygon fill="#AB7C45" points="718.932,528.444 677.528,504.539 677.528,568.772 718.932,592.655 		"/>
		<polygon fill="#AB7C45" points="583.898,450.475 541.941,426.25 541.941,490.556 583.898,514.758 		"/>
		<polygon fill="#AB7C45" points="538.606,400.154 499.008,377.29 499.008,397.438 538.606,420.282 		"/>
		<polygon fill="#AB7C45" points="583.898,426.303 541.941,402.078 541.941,422.206 583.898,446.408 		"/>
		<polygon fill="#AB7C45" points="628.902,452.292 587.232,428.23 587.232,448.333 628.902,472.373 		"/>
		<polygon fill="#AB7C45" points="674.194,478.441 632.237,454.216 632.237,474.296 674.194,498.499 		"/>
		<polygon fill="#AB7C45" points="718.932,504.271 677.528,480.366 677.528,500.422 718.932,524.305 		"/>
		<polygon fill="#E3AF65" points="536.628,424.854 497.028,401.99 497.028,466.316 536.628,489.16 		"/>
		<polygon fill="#E3AF65" points="626.923,476.993 585.253,452.931 585.253,517.209 626.923,541.249 		"/>
		<polygon fill="#E3AF65" points="672.214,503.141 630.257,478.917 630.257,543.174 672.214,567.375 		"/>
		<polygon fill="#E3AF65" points="716.952,528.969 675.549,505.065 675.549,569.299 716.952,593.182 		"/>
		<polygon fill="#E3AF65" points="581.918,451.002 539.961,426.778 539.961,491.083 581.918,515.286 		"/>
		<polygon fill="#E3AF65" points="536.628,400.681 497.028,377.817 497.028,397.965 536.628,420.809 		"/>
		<polygon fill="#E3AF65" points="581.918,426.83 539.961,402.606 539.961,422.735 581.918,446.935 		"/>
		<polygon fill="#E3AF65" points="626.923,452.819 585.253,428.757 585.253,448.861 626.923,472.9 		"/>
		<polygon fill="#E3AF65" points="672.214,478.969 630.257,454.744 630.257,474.824 672.214,499.026 		"/>
		<polygon fill="#E3AF65" points="716.952,504.798 675.549,480.893 675.549,500.95 716.952,524.833 		"/>
		<g>
			<path fill="#808B8B" d="M688.547,494.63c-0.098,0.246-0.052,0.58,0.15,0.853c0.299,0.41,0.826,0.561,1.178,0.339l2.26-1.471
				c0.346-0.229,0.391-0.744,0.091-1.156c-0.3-0.41-0.827-0.564-1.179-0.336l-2.26,1.465
				C688.67,494.402,688.592,494.506,688.547,494.63z"/>
			<path fill="#808B8B" d="M702.28,502.347c-0.091,0.25-0.046,0.572,0.156,0.853c0.3,0.411,0.82,0.56,1.173,0.332l2.259-1.468
				c0.352-0.231,0.397-0.742,0.098-1.156c-0.306-0.414-0.827-0.561-1.178-0.335l-2.261,1.465
				C702.41,502.115,702.333,502.22,702.28,502.347z"/>
			<polygon fill="#CBD8DA" points="688.182,493.917 687.453,495.831 703.895,505.065 704.625,503.154 			"/>
		</g>
		<g>
			<path fill="#808B8B" d="M643.464,468.181c-0.098,0.247-0.052,0.579,0.15,0.854c0.299,0.41,0.827,0.56,1.179,0.338l2.259-1.472
				c0.346-0.228,0.391-0.742,0.091-1.155c-0.3-0.41-0.827-0.563-1.178-0.336l-2.261,1.466
				C643.587,467.954,643.509,468.058,643.464,468.181z"/>
			<path fill="#808B8B" d="M657.197,475.898c-0.091,0.251-0.045,0.573,0.156,0.853c0.301,0.41,0.82,0.561,1.173,0.333l2.259-1.469
				c0.353-0.23,0.397-0.742,0.098-1.155c-0.306-0.414-0.826-0.56-1.178-0.337l-2.26,1.466
				C657.327,475.667,657.25,475.771,657.197,475.898z"/>
			<polygon fill="#CBD8DA" points="643.1,467.468 642.37,469.382 658.813,478.618 659.543,476.706 			"/>
		</g>
		<g>
			<path fill="#808B8B" d="M598.869,442.641c-0.098,0.248-0.053,0.58,0.149,0.854c0.3,0.411,0.827,0.56,1.18,0.339l2.259-1.472
				c0.346-0.229,0.392-0.742,0.092-1.156c-0.3-0.41-0.827-0.563-1.179-0.336l-2.26,1.465
				C598.993,442.414,598.916,442.517,598.869,442.641z"/>
			<path fill="#808B8B" d="M612.604,450.358c-0.092,0.251-0.045,0.573,0.157,0.853c0.298,0.411,0.819,0.561,1.171,0.332l2.26-1.468
				c0.353-0.231,0.397-0.742,0.098-1.156c-0.306-0.413-0.827-0.56-1.179-0.335l-2.26,1.465
				C612.733,450.127,612.655,450.231,612.604,450.358z"/>
			<polygon fill="#CBD8DA" points="598.506,441.928 597.775,443.843 614.218,453.077 614.947,451.166 			"/>
		</g>
		<g>
			<path fill="#808B8B" d="M553.233,416.343c-0.098,0.247-0.053,0.578,0.149,0.853c0.3,0.41,0.827,0.56,1.179,0.339l2.26-1.473
				c0.345-0.228,0.391-0.742,0.091-1.155c-0.299-0.41-0.826-0.564-1.178-0.335l-2.261,1.465
				C553.357,416.115,553.278,416.218,553.233,416.343z"/>
			<path fill="#808B8B" d="M566.968,424.059c-0.092,0.25-0.047,0.573,0.155,0.853c0.3,0.41,0.82,0.561,1.173,0.332l2.26-1.467
				c0.351-0.232,0.397-0.744,0.098-1.156c-0.307-0.415-0.827-0.561-1.179-0.336l-2.26,1.465
				C567.098,423.828,567.019,423.932,566.968,424.059z"/>
			<polygon fill="#CBD8DA" points="552.868,415.629 552.14,417.543 568.582,426.778 569.312,424.867 			"/>
		</g>
		<g>
			<path fill="#808B8B" d="M508.64,390.802c-0.099,0.247-0.053,0.58,0.149,0.853c0.299,0.411,0.826,0.562,1.178,0.34l2.261-1.472
				c0.345-0.229,0.39-0.743,0.091-1.156c-0.3-0.41-0.827-0.563-1.18-0.336l-2.259,1.465
				C508.763,390.575,508.685,390.678,508.64,390.802z"/>
			<path fill="#808B8B" d="M522.373,398.519c-0.091,0.251-0.046,0.573,0.156,0.854c0.3,0.41,0.82,0.56,1.172,0.332l2.26-1.469
				c0.352-0.231,0.397-0.742,0.098-1.156c-0.306-0.413-0.827-0.561-1.178-0.335l-2.261,1.466
				C522.503,398.288,522.425,398.392,522.373,398.519z"/>
			<polygon fill="#CBD8DA" points="508.274,390.089 507.545,392.003 523.987,401.237 524.717,399.326 			"/>
		</g>
		<g>
			<path fill="#808B8B" d="M709.736,569.538c-0.286,0-0.565-0.15-0.723-0.418c-0.228-0.398-0.092-0.906,0.307-1.139l2.585-1.484
				c0.396-0.229,0.905-0.094,1.14,0.305c0.229,0.402,0.091,0.91-0.306,1.141l-2.586,1.484
				C710.023,569.502,709.881,569.538,709.736,569.538z"/>
			<path fill="#808B8B" d="M709.736,554.963c-0.286,0-0.565-0.15-0.723-0.418c-0.228-0.4-0.092-0.906,0.307-1.139l2.585-1.484
				c0.396-0.229,0.905-0.096,1.14,0.307c0.229,0.4,0.091,0.908-0.306,1.139l-2.586,1.484
				C710.023,554.928,709.881,554.963,709.736,554.963z"/>
			<rect x="708.031" y="552.645" fill="#CBD8DA" width="2.188" height="17.445"/>
		</g>
		<g>
			<path fill="#808B8B" d="M664.979,543.502c-0.287,0-0.573-0.15-0.724-0.418c-0.228-0.4-0.09-0.908,0.307-1.139l2.579-1.484
				c0.404-0.229,0.911-0.096,1.14,0.307c0.228,0.4,0.092,0.908-0.306,1.139l-2.579,1.484
				C665.26,543.467,665.123,543.502,664.979,543.502z"/>
			<path fill="#808B8B" d="M664.979,528.928c-0.287,0-0.573-0.148-0.724-0.416c-0.228-0.402-0.09-0.908,0.307-1.141l2.579-1.484
				c0.404-0.229,0.911-0.094,1.14,0.307c0.228,0.4,0.092,0.908-0.306,1.139l-2.579,1.484
				C665.26,528.893,665.123,528.928,664.979,528.928z"/>
			<rect x="663.267" y="526.61" fill="#CBD8DA" width="2.188" height="17.445"/>
		</g>
		<g>
			<path fill="#808B8B" d="M619.728,517.942c-0.287,0-0.573-0.148-0.723-0.416c-0.228-0.4-0.092-0.908,0.306-1.139l2.578-1.486
				c0.404-0.229,0.912-0.094,1.14,0.307c0.229,0.4,0.092,0.908-0.306,1.139l-2.578,1.484
				C620.007,517.907,619.87,517.942,619.728,517.942z"/>
			<path fill="#808B8B" d="M619.728,503.37c-0.287,0-0.573-0.15-0.723-0.417c-0.228-0.401-0.092-0.908,0.306-1.141l2.578-1.484
				c0.404-0.228,0.912-0.095,1.14,0.307c0.229,0.4,0.092,0.908-0.306,1.14l-2.578,1.484
				C620.007,503.333,619.87,503.37,619.728,503.37z"/>
			<rect x="618.016" y="501.05" fill="#CBD8DA" width="2.187" height="17.446"/>
		</g>
		<g>
			<path fill="#808B8B" d="M575.029,492c-0.287,0-0.573-0.149-0.723-0.417c-0.229-0.401-0.092-0.909,0.306-1.14l2.578-1.484
				c0.404-0.229,0.912-0.095,1.14,0.306c0.229,0.4,0.092,0.907-0.306,1.14l-2.578,1.484C575.309,491.963,575.172,492,575.029,492z"
				/>
			<path fill="#808B8B" d="M575.029,477.425c-0.287,0-0.573-0.15-0.723-0.417c-0.229-0.4-0.092-0.909,0.306-1.14l2.578-1.484
				c0.404-0.228,0.912-0.095,1.14,0.306c0.229,0.401,0.092,0.909-0.306,1.14l-2.578,1.485
				C575.309,477.39,575.172,477.425,575.029,477.425z"/>
			<rect x="573.316" y="475.107" fill="#CBD8DA" width="2.188" height="17.445"/>
		</g>
		<g>
			<path fill="#808B8B" d="M529.809,465.951c-0.285,0-0.572-0.149-0.722-0.416c-0.228-0.4-0.091-0.909,0.306-1.14l2.579-1.484
				c0.403-0.228,0.912-0.095,1.14,0.305c0.228,0.4,0.091,0.909-0.307,1.141l-2.579,1.485
				C530.089,465.915,529.953,465.951,529.809,465.951z"/>
			<path fill="#808B8B" d="M529.809,451.377c-0.285,0-0.572-0.15-0.722-0.417c-0.228-0.4-0.091-0.908,0.306-1.14l2.579-1.484
				c0.403-0.229,0.912-0.095,1.14,0.306s0.091,0.908-0.307,1.139l-2.579,1.485C530.089,451.341,529.953,451.377,529.809,451.377z"/>
			<rect x="528.097" y="449.059" fill="#CBD8DA" width="2.188" height="17.445"/>
		</g>
	</g>
	<g>
		<polygon fill="#4E504E" points="734.834,329.546 494.82,190.867 494.82,104.267 734.834,243.1 		"/>
		<polygon fill="#4A4B49" points="794.816,208.397 494.82,34.995 494.82,104.267 734.834,243.1 		"/>
		<polygon fill="#3E3F3C" points="794.816,208.397 734.834,243.1 734.834,329.546 794.816,294.932 		"/>
		<g>
			<polygon fill="#AB7C45" points="541.186,136.658 501.587,113.793 501.587,188.123 541.186,210.966 			"/>
			<polygon fill="#AB7C45" points="631.481,188.796 589.811,164.735 589.811,239.017 631.481,263.056 			"/>
			<polygon fill="#AB7C45" points="676.773,214.945 634.816,190.72 634.816,264.981 676.773,289.182 			"/>
			<polygon fill="#AB7C45" points="721.51,240.774 680.107,216.87 680.107,291.106 721.51,314.989 			"/>
			<polygon fill="#AB7C45" points="586.478,162.806 544.521,138.582 544.521,212.891 586.478,237.092 			"/>
			<polygon fill="#E3AF65" points="539.206,137.185 499.606,114.322 499.606,188.649 539.206,211.494 			"/>
			<polygon fill="#E3AF65" points="629.502,189.324 587.832,165.261 587.832,239.544 629.502,263.583 			"/>
			<polygon fill="#E3AF65" points="674.793,215.472 632.836,191.249 632.836,265.507 674.793,289.709 			"/>
			<polygon fill="#E3AF65" points="719.531,241.303 678.128,217.397 678.128,291.634 719.531,315.516 			"/>
			<polygon fill="#E3AF65" points="584.498,163.333 542.541,139.109 542.541,213.418 584.498,237.621 			"/>
			<g>
				<path fill="#808B8B" d="M712.316,291.872c-0.287,0-0.567-0.149-0.724-0.417c-0.228-0.4-0.091-0.908,0.307-1.14l2.584-1.484
					c0.397-0.228,0.906-0.095,1.14,0.307c0.229,0.4,0.092,0.907-0.306,1.14l-2.586,1.484
					C712.603,291.836,712.459,291.872,712.316,291.872z"/>
				<path fill="#808B8B" d="M712.316,277.297c-0.287,0-0.567-0.15-0.724-0.416c-0.228-0.401-0.091-0.909,0.307-1.14l2.584-1.485
					c0.397-0.228,0.906-0.094,1.14,0.307c0.229,0.399,0.092,0.908-0.306,1.14l-2.586,1.484
					C712.603,277.261,712.459,277.297,712.316,277.297z"/>
				<rect x="710.609" y="274.98" fill="#CBD8DA" width="2.188" height="17.445"/>
			</g>
			<g>
				<path fill="#808B8B" d="M667.559,265.835c-0.287,0-0.574-0.148-0.723-0.416c-0.229-0.4-0.092-0.908,0.306-1.139l2.578-1.485
					c0.404-0.228,0.912-0.094,1.14,0.306c0.229,0.4,0.092,0.908-0.306,1.14l-2.578,1.485
					C667.838,265.8,667.701,265.835,667.559,265.835z"/>
				<path fill="#808B8B" d="M667.559,251.263c-0.287,0-0.574-0.15-0.723-0.417c-0.229-0.4-0.092-0.909,0.306-1.14l2.578-1.485
					c0.404-0.229,0.912-0.094,1.14,0.307c0.229,0.399,0.092,0.908-0.306,1.139l-2.578,1.484
					C667.838,251.226,667.701,251.263,667.559,251.263z"/>
				<rect x="665.846" y="248.945" fill="#CBD8DA" width="2.188" height="17.445"/>
			</g>
			<g>
				<path fill="#808B8B" d="M622.306,240.277c-0.285,0-0.572-0.149-0.722-0.417c-0.229-0.4-0.092-0.908,0.305-1.14l2.579-1.484
					c0.404-0.228,0.912-0.095,1.141,0.307c0.228,0.4,0.091,0.907-0.307,1.14l-2.579,1.484
					C622.586,240.242,622.45,240.277,622.306,240.277z"/>
				<path fill="#808B8B" d="M622.306,225.703c-0.285,0-0.572-0.15-0.722-0.416c-0.229-0.401-0.092-0.909,0.305-1.141l2.579-1.484
					c0.404-0.228,0.912-0.095,1.141,0.307c0.228,0.4,0.091,0.908-0.307,1.14l-2.579,1.484
					C622.586,225.667,622.45,225.703,622.306,225.703z"/>
				<rect x="620.594" y="223.385" fill="#CBD8DA" width="2.188" height="17.445"/>
			</g>
			<g>
				<path fill="#808B8B" d="M577.607,214.333c-0.286,0-0.572-0.15-0.723-0.417c-0.228-0.4-0.092-0.909,0.306-1.14l2.579-1.485
					c0.404-0.228,0.912-0.095,1.14,0.307c0.229,0.399,0.091,0.908-0.306,1.139l-2.579,1.485
					C577.888,214.296,577.751,214.333,577.607,214.333z"/>
				<path fill="#808B8B" d="M577.607,199.758c-0.286,0-0.572-0.149-0.723-0.417c-0.228-0.399-0.092-0.907,0.306-1.139l2.579-1.484
					c0.404-0.229,0.912-0.095,1.14,0.305c0.229,0.401,0.091,0.909-0.306,1.141l-2.579,1.485
					C577.888,199.723,577.751,199.758,577.607,199.758z"/>
				<rect x="575.896" y="197.44" fill="#CBD8DA" width="2.188" height="17.446"/>
			</g>
			<g>
				<path fill="#808B8B" d="M532.388,188.285c-0.286,0-0.572-0.149-0.723-0.417c-0.228-0.4-0.091-0.907,0.307-1.14l2.579-1.484
					c0.403-0.228,0.911-0.095,1.139,0.306c0.229,0.401,0.092,0.909-0.306,1.14l-2.579,1.485
					C532.669,188.25,532.531,188.285,532.388,188.285z"/>
				<path fill="#808B8B" d="M532.388,173.71c-0.286,0-0.572-0.149-0.723-0.417c-0.228-0.399-0.091-0.908,0.307-1.14l2.579-1.484
					c0.403-0.228,0.911-0.095,1.139,0.307c0.229,0.4,0.092,0.908-0.306,1.14l-2.579,1.484
					C532.669,173.675,532.531,173.71,532.388,173.71z"/>
				<rect x="530.676" y="171.392" fill="#CBD8DA" width="2.188" height="17.445"/>
			</g>
		</g>
	</g>
	<g>
		<polygon fill="#565756" points="405.128,398.753 299.52,459.768 299.52,581.227 405.128,520.211 		"/>
		<polygon fill="#3E3F3C" points="405.128,416.043 405.128,519.932 494.84,468.159 494.84,364.243 		"/>
		<polygon fill="#FDFEFE" points="405.128,416.043 405.128,422.031 494.84,370.256 494.84,364.243 		"/>
		<polygon fill="#C4D1D4" points="405.09,416.218 494.84,364.243 494.84,260.258 315.556,364.337 		"/>
		<polygon fill="#474846" points="398.685,412.703 308.33,464.844 224.762,416.236 315.556,364.337 		"/>
		<polygon fill="#C9CED0" points="405.09,416.218 314.735,468.361 314.735,551.631 405.09,499.492 		"/>
		<polygon fill="#C9CED0" points="405.09,501.523 314.735,553.665 314.735,569.397 405.09,517.256 		"/>
		<polygon fill="#E1E2E2" points="384.166,428.292 339.07,454.318 339.07,537.59 384.166,511.563 		"/>
		<polygon fill="#E1E2E2" points="384.166,513.596 339.07,539.622 339.07,555.354 384.166,529.329 		"/>
		<polygon fill="#EFF0EF" points="405.09,416.218 314.735,468.361 308.155,464.45 398.685,412.703 		"/>
		<polygon fill="#8F9698" points="409.859,418.977 319.505,471.119 316.213,468.965 406.744,417.218 		"/>
		<polygon fill="#6E7779" points="409.859,418.977 319.505,471.119 319.505,474.273 409.859,422.526 		"/>
		<polygon fill="#3E3F3C" points="314.774,468.21 209.7,528.879 209.823,632.641 314.774,572.075 		"/>
		<polygon fill="#4E504E" points="120.178,477.047 209.959,528.879 209.836,632.641 120.178,580.907 		"/>
		<polygon fill="#DEE0DF" points="120.178,477.047 209.959,528.879 209.836,534.741 120.178,483.005 		"/>
		<polygon fill="#FDFEFE" points="314.566,468.331 209.7,528.879 209.823,534.741 314.566,474.292 		"/>
		<polygon fill="#C4D1D4" points="210.054,528.922 314.774,468.21 224.762,416.236 120.055,477.123 		"/>
		<g>
			<polygon fill="#996C3B" points="452.448,423.085 492.046,400.222 492.046,464.547 452.448,487.392 			"/>
			<polygon fill="#996C3B" points="270.268,528.444 311.668,504.539 311.668,568.772 270.268,592.655 			"/>
			<polygon fill="#996C3B" points="224.703,554.75 266.934,530.368 266.934,594.579 224.703,618.94 			"/>
			<polygon fill="#996C3B" points="407.157,449.234 449.113,425.009 449.113,489.317 407.157,513.518 			"/>
			<polygon fill="#996C3B" points="452.448,398.913 492.046,376.048 492.046,396.197 452.448,419.042 			"/>
			<polygon fill="#996C3B" points="407.157,425.062 449.113,400.837 449.113,420.966 407.157,445.168 			"/>
			<polygon fill="#996C3B" points="270.268,504.271 311.668,480.366 311.668,500.422 270.268,524.305 			"/>
			<polygon fill="#996C3B" points="224.703,530.579 266.934,506.194 266.934,526.229 224.703,550.59 			"/>
			<polygon fill="#D69F59" points="454.428,423.613 494.025,400.75 494.025,465.075 454.428,487.919 			"/>
			<polygon fill="#D69F59" points="272.247,528.969 313.647,505.065 313.647,569.299 272.247,593.182 			"/>
			<polygon fill="#D69F59" points="226.683,555.28 268.914,530.895 268.914,595.106 226.683,619.469 			"/>
			<polygon fill="#D69F59" points="409.137,449.762 451.095,425.537 451.095,489.843 409.137,514.045 			"/>
			<polygon fill="#D69F59" points="454.428,399.441 494.025,376.578 494.025,396.725 454.428,419.57 			"/>
			<polygon fill="#D69F59" points="409.137,425.589 451.095,401.365 451.095,421.494 409.137,445.695 			"/>
			<polygon fill="#D69F59" points="272.247,504.798 313.647,480.893 313.647,500.95 272.247,524.833 			"/>
			<polygon fill="#D69F59" points="226.683,531.106 268.914,506.721 268.914,526.756 226.683,551.118 			"/>
			<g>
				<path fill="#808B8B" d="M264.479,580.786c0.287,0,0.57-0.148,0.723-0.416c0.228-0.4,0.092-0.908-0.306-1.139l-2.582-1.484
					c-0.401-0.229-0.908-0.096-1.14,0.305c-0.228,0.4-0.091,0.908,0.306,1.141l2.582,1.484
					C264.195,580.75,264.335,580.786,264.479,580.786z"/>
				<path fill="#808B8B" d="M264.479,566.213c0.287,0,0.57-0.15,0.723-0.416c0.228-0.402,0.092-0.91-0.306-1.141l-2.582-1.486
					c-0.401-0.227-0.908-0.092-1.14,0.309c-0.228,0.398-0.091,0.906,0.306,1.139l2.582,1.484
					C264.195,566.176,264.335,566.213,264.479,566.213z"/>
				<rect x="264" y="563.895" fill="#CBD8DA" width="2.188" height="17.445"/>
			</g>
			<g>
				<path fill="#808B8B" d="M256.059,520.17c0.098,0.246,0.052,0.578-0.15,0.854c-0.303,0.41-0.827,0.559-1.179,0.338l-2.26-1.473
					c-0.349-0.227-0.39-0.742-0.091-1.156c0.299-0.41,0.827-0.563,1.175-0.334l2.263,1.465
					C255.932,519.942,256.013,520.045,256.059,520.17z"/>
				<path fill="#808B8B" d="M242.322,527.885c0.094,0.252,0.048,0.574-0.153,0.854c-0.3,0.41-0.824,0.561-1.176,0.332l-2.259-1.467
					c-0.349-0.232-0.394-0.744-0.094-1.156c0.302-0.414,0.827-0.561,1.178-0.336l2.26,1.465
					C242.194,527.655,242.272,527.76,242.322,527.885z"/>
				<polygon fill="#CBD8DA" points="256.423,519.458 257.152,521.372 240.707,530.606 239.977,528.694 				"/>
			</g>
			<g>
				<path fill="#808B8B" d="M300.653,494.63c0.098,0.246,0.052,0.58-0.15,0.853c-0.302,0.41-0.827,0.561-1.178,0.339l-2.26-1.471
					c-0.349-0.229-0.391-0.744-0.091-1.156c0.3-0.41,0.827-0.564,1.175-0.336l2.263,1.465
					C300.526,494.402,300.607,494.506,300.653,494.63z"/>
				<path fill="#808B8B" d="M286.916,502.347c0.095,0.25,0.049,0.572-0.153,0.853c-0.299,0.411-0.823,0.56-1.175,0.332l-2.26-1.468
					c-0.348-0.231-0.394-0.742-0.094-1.156c0.303-0.414,0.827-0.561,1.178-0.335l2.26,1.465
					C286.789,502.115,286.867,502.22,286.916,502.347z"/>
				<polygon fill="#CBD8DA" points="301.018,493.917 301.747,495.831 285.301,505.065 284.572,503.154 				"/>
			</g>
			<g>
				<path fill="#808B8B" d="M437.822,415.102c0.098,0.247,0.053,0.579-0.149,0.853c-0.303,0.411-0.827,0.561-1.18,0.339
					l-2.259-1.472c-0.349-0.228-0.391-0.742-0.091-1.156c0.299-0.41,0.827-0.563,1.175-0.335l2.263,1.466
					C437.695,414.874,437.776,414.979,437.822,415.102z"/>
				<path fill="#808B8B" d="M424.085,422.818c0.095,0.252,0.049,0.574-0.153,0.854c-0.299,0.41-0.823,0.561-1.176,0.333
					l-2.259-1.469c-0.349-0.23-0.394-0.742-0.095-1.155c0.304-0.414,0.827-0.562,1.179-0.337l2.261,1.466
					C423.958,422.587,424.037,422.692,424.085,422.818z"/>
				<polygon fill="#CBD8DA" points="438.187,414.389 438.916,416.303 422.471,425.537 421.74,423.626 				"/>
			</g>
			<g>
				<path fill="#808B8B" d="M480.56,390.802c0.098,0.247,0.052,0.58-0.149,0.853c-0.301,0.411-0.827,0.562-1.18,0.34l-2.259-1.472
					c-0.346-0.229-0.392-0.743-0.092-1.156c0.3-0.41,0.827-0.563,1.179-0.336l2.259,1.465
					C480.436,390.575,480.513,390.678,480.56,390.802z"/>
				<path fill="#808B8B" d="M466.825,398.519c0.091,0.251,0.045,0.573-0.157,0.854c-0.298,0.41-0.819,0.56-1.172,0.332l-2.261-1.469
					c-0.349-0.231-0.394-0.742-0.095-1.156c0.303-0.413,0.827-0.561,1.18-0.335l2.258,1.466
					C466.695,398.288,466.773,398.392,466.825,398.519z"/>
				<polygon fill="#CBD8DA" points="480.923,390.089 481.652,392.003 465.21,401.237 464.479,399.326 				"/>
			</g>
			<g>
				<path fill="#808B8B" d="M310.531,555.155c0.287,0,0.57-0.148,0.723-0.416c0.228-0.4,0.091-0.908-0.306-1.141l-2.582-1.484
					c-0.4-0.227-0.908-0.094-1.139,0.307c-0.228,0.4-0.091,0.908,0.306,1.141l2.582,1.484
					C310.249,555.12,310.389,555.155,310.531,555.155z"/>
				<path fill="#808B8B" d="M310.531,540.581c0.287,0,0.57-0.148,0.723-0.416c0.228-0.4,0.091-0.908-0.306-1.141l-2.582-1.484
					c-0.4-0.227-0.908-0.094-1.139,0.307c-0.228,0.4-0.091,0.908,0.306,1.141l2.582,1.484
					C310.249,540.545,310.389,540.581,310.531,540.581z"/>
				<rect x="310.053" y="538.262" fill="#CBD8DA" width="2.188" height="17.447"/>
			</g>
			<g>
				<path fill="#808B8B" d="M447.099,476.376c0.286,0,0.57-0.15,0.723-0.416c0.229-0.401,0.091-0.909-0.307-1.141l-2.581-1.484
					c-0.4-0.228-0.909-0.095-1.14,0.307c-0.228,0.4-0.092,0.908,0.306,1.14l2.582,1.484
					C446.815,476.341,446.955,476.376,447.099,476.376z"/>
				<path fill="#808B8B" d="M447.099,461.803c0.286,0,0.57-0.149,0.723-0.417c0.229-0.4,0.091-0.908-0.307-1.14l-2.581-1.485
					c-0.4-0.228-0.909-0.094-1.14,0.307c-0.228,0.4-0.092,0.909,0.306,1.14l2.582,1.484
					C446.815,461.767,446.955,461.803,447.099,461.803z"/>
				<rect x="446.62" y="459.485" fill="#CBD8DA" width="2.188" height="17.445"/>
			</g>
			<g>
				<path fill="#808B8B" d="M492.319,450.33c0.287,0,0.566-0.15,0.724-0.417c0.228-0.401,0.091-0.909-0.307-1.14l-2.586-1.485
					c-0.397-0.229-0.904-0.095-1.139,0.307c-0.229,0.399-0.092,0.907,0.306,1.139l2.586,1.484
					C492.033,450.292,492.177,450.33,492.319,450.33z"/>
				<path fill="#808B8B" d="M492.319,435.755c0.287,0,0.566-0.15,0.724-0.417c0.228-0.4,0.091-0.909-0.307-1.14l-2.586-1.484
					c-0.397-0.229-0.904-0.095-1.139,0.306c-0.229,0.4-0.092,0.908,0.306,1.14l2.586,1.484
					C492.033,435.718,492.177,435.755,492.319,435.755z"/>
				<rect x="491.837" y="433.436" fill="#CBD8DA" width="2.188" height="17.446"/>
			</g>
		</g>
		<polygon fill="#758990" points="390.001,446.203 329.866,480.899 329.866,532.754 390.001,498.059 		"/>
		<path fill="#809498" d="M369.498,458.101c16.609,31.059-0.762,47.932-1.771,49.644l19.185-11.067v-48.621L369.498,458.101z"/>
		<path fill="#415353" d="M329.866,533.586c-0.144,0-0.286-0.035-0.417-0.109c-0.257-0.15-0.417-0.428-0.417-0.723v-51.855
			c0-0.296,0.16-0.572,0.417-0.723l60.135-34.696c0.26-0.149,0.573-0.149,0.833,0c0.257,0.15,0.417,0.428,0.417,0.723v51.856
			c0,0.296-0.16,0.572-0.417,0.723l-60.135,34.695C330.152,533.551,330.009,533.586,329.866,533.586z M330.699,481.381v49.93
			l58.468-33.734v-49.931L330.699,481.381z"/>
		<g>
			<path fill="#8FA1A6" d="M345.941,509.155c0,0,1.263-2.361,3.477-5.626c2.195-3.285,5.334-7.485,8.671-11.526
				c3.35-4.024,6.896-7.886,9.718-10.647c2.801-2.777,4.888-4.451,4.888-4.451s-1.257,2.365-3.474,5.631
				c-2.195,3.284-5.337,7.481-8.671,11.521c-3.354,4.025-6.906,7.881-9.726,10.645C348.025,507.481,345.941,509.155,345.941,509.155
				z"/>
			<path fill="#8FA1A6" d="M345.941,499.143c0,0,0.892-1.667,2.458-3.976c1.55-2.318,3.771-5.291,6.125-8.147
				c2.37-2.843,4.877-5.574,6.87-7.523c1.98-1.967,3.455-3.146,3.455-3.146s-0.885,1.667-2.451,3.979
				c-1.557,2.321-3.771,5.287-6.132,8.147c-2.37,2.838-4.88,5.564-6.87,7.521C347.416,497.964,345.941,499.143,345.941,499.143z"/>
			<path fill="#8FA1A6" d="M344.127,493.001c0,0,0.577-1.074,1.586-2.568c1.002-1.494,2.435-3.413,3.956-5.259
				c1.527-1.832,3.145-3.594,4.432-4.855c1.279-1.27,2.233-2.031,2.233-2.031s-0.573,1.082-1.585,2.569
				c-1.003,1.498-2.433,3.415-3.957,5.259c-1.53,1.837-3.151,3.595-4.434,4.857C345.078,492.24,344.127,493.001,344.127,493.001z"/>
			<path fill="#8FA1A6" d="M353.788,509.155c0,0,0.892-1.67,2.458-3.979c1.55-2.317,3.767-5.291,6.125-8.146
				c2.367-2.843,4.877-5.574,6.87-7.524c1.98-1.963,3.455-3.146,3.455-3.146s-0.886,1.67-2.452,3.981
				c-1.556,2.318-3.771,5.285-6.131,8.145c-2.37,2.842-4.88,5.564-6.87,7.524C355.263,507.973,353.788,509.155,353.788,509.155z"/>
		</g>
		<polygon fill="#A0A8AB" points="230.307,384.771 224.762,381.572 224.762,416.236 237.356,423.424 		"/>
		<polygon fill="#BAC1C5" points="327.524,371.468 237.356,423.424 230.307,384.771 320.476,332.816 		"/>
		<polygon fill="#EDF3F5" points="314.93,329.576 320.476,332.816 230.307,384.771 224.762,381.572 		"/>
		<path fill="#323330" d="M331.074,439.428c0,7.307-8.751,13.229-19.556,13.229c-10.797,0-19.549-5.922-19.549-13.229
			c0-7.308,8.752-13.23,19.549-13.23C322.322,426.198,331.074,432.121,331.074,439.428z"/>
		<path fill="#323330" d="M299.852,421.083c0,7.306-8.752,13.229-19.556,13.229c-10.797,0-19.549-5.923-19.549-13.229
			c0-7.307,8.752-13.229,19.549-13.229C291.1,407.854,299.852,413.777,299.852,421.083z"/>
		<path fill="#323330" d="M376.16,413.675c0,7.307-8.752,13.229-19.556,13.229c-10.797,0-19.549-5.923-19.549-13.229
			c0-7.306,8.752-13.229,19.549-13.229C367.408,400.447,376.16,406.37,376.16,413.675z"/>
		<path fill="#323330" d="M344.944,395.332c0,7.307-8.752,13.229-19.555,13.229c-10.797,0-19.549-5.923-19.549-13.229
			c0-7.308,8.752-13.229,19.549-13.229C336.192,382.102,344.944,388.024,344.944,395.332z"/>
		<path fill="#1E211E" d="M319.446,439.431c0,2.959-3.545,5.359-7.924,5.359c-4.376,0-7.922-2.4-7.922-5.359
			c0-2.964,3.546-5.366,7.922-5.366C315.901,434.065,319.446,436.467,319.446,439.431z"/>
		<ellipse fill="#1E211E" cx="280.296" cy="421.081" rx="7.925" ry="5.362"/>
		<path fill="#1E211E" d="M364.529,413.679c0,2.96-3.546,5.359-7.925,5.359c-4.373,0-7.921-2.399-7.921-5.359
			s3.549-5.363,7.921-5.363C360.983,408.316,364.529,410.719,364.529,413.679z"/>
		<path fill="#1E211E" d="M333.314,395.328c0,2.964-3.545,5.366-7.922,5.366s-7.922-2.402-7.922-5.366
			c0-2.959,3.546-5.359,7.922-5.359S333.314,392.369,333.314,395.328z"/>
		<g>
			<path fill="#8C9193" d="M255.03,397.5c-0.056,3.81-2.969,7.196-6.505,7.558c-3.537,0.358-6.366-2.438-6.31-6.255
				c0.052-3.81,2.966-7.192,6.502-7.555C252.255,390.887,255.082,393.683,255.03,397.5z"/>
			<path fill="#737474" d="M253.929,397.656c-0.04,2.895-2.253,5.468-4.936,5.74c-2.693,0.274-4.838-1.852-4.796-4.75
				c0.039-2.895,2.252-5.463,4.939-5.737C251.826,392.634,253.972,394.758,253.929,397.656z"/>
			<path fill="#EDF3F5" d="M255.03,397.793c-0.04,2.793-2.175,5.274-4.767,5.54c-2.595,0.265-4.669-1.787-4.626-4.583
				c0.036-2.794,2.171-5.275,4.764-5.539C252.998,392.949,255.069,394.996,255.03,397.793z"/>
		</g>
		<g>
			<path fill="#8C9193" d="M271.518,387.745c-0.055,3.81-2.969,7.195-6.505,7.558c-3.536,0.357-6.365-2.438-6.31-6.256
				c0.052-3.809,2.967-7.191,6.502-7.554C268.744,381.132,271.57,383.929,271.518,387.745z"/>
			<path fill="#737474" d="M270.418,387.902c-0.039,2.894-2.254,5.466-4.937,5.739c-2.693,0.274-4.838-1.853-4.796-4.75
				c0.039-2.896,2.253-5.464,4.939-5.737C268.314,382.88,270.46,385.003,270.418,387.902z"/>
			<path fill="#EDF3F5" d="M271.518,388.039c-0.039,2.793-2.174,5.274-4.766,5.541c-2.595,0.264-4.669-1.787-4.627-4.584
				c0.036-2.794,2.172-5.274,4.763-5.539C269.486,383.193,271.557,385.241,271.518,388.039z"/>
		</g>
		<g>
			<path fill="#8C9193" d="M287.15,379.086c-0.055,3.811-2.969,7.196-6.505,7.559c-3.536,0.357-6.365-2.439-6.31-6.255
				c0.052-3.811,2.966-7.193,6.502-7.555C284.376,372.474,287.203,375.271,287.15,379.086z"/>
			<path fill="#737474" d="M286.05,379.244c-0.039,2.894-2.253,5.467-4.936,5.74c-2.693,0.273-4.839-1.853-4.796-4.751
				c0.039-2.894,2.253-5.464,4.939-5.737C283.947,374.222,286.092,376.345,286.05,379.244z"/>
			<path fill="#EDF3F5" d="M287.15,379.38c-0.039,2.794-2.175,5.275-4.766,5.541c-2.596,0.265-4.67-1.787-4.627-4.584
				c0.036-2.793,2.172-5.274,4.763-5.539C285.119,374.536,287.189,376.583,287.15,379.38z"/>
		</g>
		<g>
			<path fill="#8C9193" d="M301.841,369.902c-0.055,3.81-2.969,7.195-6.505,7.558c-3.536,0.357-6.366-2.439-6.311-6.255
				c0.052-3.81,2.967-7.192,6.502-7.555C299.067,363.29,301.894,366.086,301.841,369.902z"/>
			<path fill="#737474" d="M300.741,370.058c-0.04,2.895-2.253,5.467-4.937,5.74c-2.693,0.274-4.839-1.853-4.796-4.75
				c0.04-2.895,2.253-5.464,4.939-5.737C298.638,365.038,300.783,367.161,300.741,370.058z"/>
			<path fill="#EDF3F5" d="M301.841,370.195c-0.039,2.794-2.175,5.275-4.767,5.543c-2.595,0.263-4.669-1.788-4.627-4.585
				c0.036-2.794,2.172-5.274,4.763-5.539C299.81,365.349,301.881,367.398,301.841,370.195z"/>
		</g>
		<g>
			<path fill="#8C9193" d="M316.806,362.967c-0.055,3.809-2.969,7.194-6.505,7.557c-3.536,0.358-6.365-2.439-6.31-6.255
				c0.052-3.81,2.966-7.193,6.502-7.554C314.032,356.354,316.858,359.15,316.806,362.967z"/>
			<path fill="#737474" d="M315.706,363.123c-0.04,2.896-2.253,5.467-4.936,5.741c-2.693,0.273-4.838-1.854-4.796-4.752
				c0.039-2.894,2.252-5.463,4.939-5.736C313.602,358.102,315.748,360.225,315.706,363.123z"/>
			<path fill="#EDF3F5" d="M316.806,363.259c-0.039,2.794-2.175,5.275-4.767,5.542c-2.595,0.264-4.669-1.788-4.626-4.584
				c0.036-2.794,2.171-5.275,4.763-5.539C314.774,358.415,316.845,360.463,316.806,363.259z"/>
		</g>
	</g>
	<g>
		<polygon fill="#7F8686" points="704.162,398.519 704.625,399.847 644.858,434.499 554.79,382.705 554.79,381.643 		"/>
		<polygon fill="#B5BEBF" points="614.909,346.947 704.625,398.786 644.858,433.436 554.79,381.643 		"/>
		<polygon fill="#A8B1B0" points="615.502,355.051 690.122,398.106 644.896,424.245 570.002,381.226 		"/>
		<polygon fill="#DDE7E6" points="674.709,407.014 615.502,372.855 615.502,355.051 690.122,398.106 		"/>
		<polygon fill="#EBF1F0" points="637.271,367.613 637.271,385.414 664.862,401.332 664.862,383.532 		"/>
		<polygon fill="#C8D4D4" points="585.897,390.193 615.502,372.855 615.502,355.051 570.483,381.285 		"/>
		<polygon fill="#E9F0EF" points="594.969,367.017 594.969,384.878 609.641,376.288 609.641,358.467 		"/>
		
			<ellipse fill="#838988" stroke="#DBE7E4" stroke-width="0.25" stroke-miterlimit="10" cx="627.884" cy="398.913" rx="6.378" ry="4.313"/>
		<g>
			<path fill="#909090" d="M661.775,377.541v2.645h0.086c0.208,1.2,1.803,2.148,3.809,2.148c2.012,0,3.607-0.948,3.815-2.148h0.085
				v-2.645H661.775z"/>
			<path fill="#A3A2A2" d="M669.57,377.541c0,1.325-1.745,2.396-3.9,2.396c-2.148,0-3.895-1.071-3.895-2.396
				c0-1.322,1.746-2.393,3.895-2.393C667.825,375.148,669.57,376.218,669.57,377.541z"/>
			<path fill="#949998" d="M676.259,382.095c-0.573,1.196-10.784-2.48-12.725-3.408c-1.947-0.925-3.055-2.641-2.487-3.836
				c0.565-1.195,2.604-1.412,4.545-0.488C667.533,375.291,676.824,380.901,676.259,382.095z"/>
			<path fill="#EBF1F0" d="M676.714,381.158c-0.565,1.194-10.777-2.481-12.724-3.408c-1.941-0.925-3.055-2.642-2.481-3.836
				c0.567-1.195,2.599-1.414,4.546-0.488C667.994,374.353,677.28,379.963,676.714,381.158z"/>
		</g>
		<g>
			<path fill="#909090" d="M639.205,364.761v2.644h0.078c0.208,1.202,1.805,2.149,3.816,2.149c2.006,0,3.601-0.947,3.815-2.149
				h0.078v-2.644H639.205z"/>
			<path fill="#A3A2A2" d="M646.993,364.761c0,1.325-1.745,2.396-3.894,2.396c-2.156,0-3.895-1.071-3.895-2.396
				c0-1.322,1.738-2.394,3.895-2.394C645.248,362.368,646.993,363.439,646.993,364.761z"/>
			<path fill="#949998" d="M631.639,359.297c-0.567,1.194,8.732,6.785,10.679,7.706c1.947,0.922,3.979,0.697,4.545-0.498
				c0.567-1.194-0.547-2.91-2.493-3.832C642.422,361.755,632.205,358.102,631.639,359.297z"/>
			<path fill="#EBF1F0" d="M632.075,358.35c-0.567,1.194,8.731,6.784,10.68,7.703c1.946,0.925,3.978,0.7,4.545-0.498
				c0.566-1.191-0.547-2.907-2.494-3.832C642.857,360.808,632.641,357.155,632.075,358.35z"/>
		</g>
		<g>
			<path fill="#7D8C88" d="M657.472,373.2c0,1.287-1.699,2.329-3.79,2.329s-3.783-1.042-3.783-2.329
				c0-1.282,1.692-2.324,3.783-2.324S657.472,371.917,657.472,373.2z"/>
			<path fill="#98A3A2" d="M653.727,374.194c-0.925,0-1.667-0.747-1.667-1.667v-20.823c0.007-0.198,0.495-7.216-2.735-10.689
				c-1.185-1.272-2.722-1.892-4.695-1.892c-0.013,0-0.02,0-0.032,0c-0.065,0.003-2.832,0.144-5.177,2.771
				c-2.585,2.894-3.699,7.836-3.224,14.294c0.065,0.918-0.618,1.72-1.537,1.787c-0.904,0.055-1.719-0.622-1.79-1.539
				c-0.554-7.546,0.833-13.213,4.134-16.844c3.328-3.667,7.386-3.801,7.555-3.803c0.014,0,0.026,0,0.039,0
				c2.95,0,5.347,0.995,7.177,2.962c4.22,4.552,3.64,12.734,3.614,13.082l0.006,20.693
				C655.394,373.447,654.646,374.194,653.727,374.194z"/>
			<path fill="#F8FAF8" d="M636.601,357.995c0,0.261-0.215,0.473-0.476,0.473h-3.51c-0.261,0-0.476-0.212-0.476-0.473v-3.513
				c0-0.262,0.215-0.473,0.476-0.473h3.51c0.261,0,0.476,0.211,0.476,0.473V357.995z"/>
			<path fill="#CBD9D8" d="M634.881,350.282c0.098-2.726,0.671-5.497,2.025-7.938c0.709-1.198,1.615-2.293,2.735-3.158
				c0.6-0.355,1.165-0.817,1.843-1.026c0.658-0.279,1.328-0.494,2.032-0.575c0.696-0.174,1.399-0.147,2.103-0.15
				c0.678-0.052,1.458,0.084,2.117,0.384c0.696,0.234,1.27,0.677,1.869,1.078c0.521,0.479,1.034,0.997,1.484,1.543l1.087,1.833
				l0.671,2.002c0.273,0.655,0.299,1.358,0.411,2.043l0.292,2.063v0.011v0.016c-0.064,5.834-0.091,11.669-0.332,17.505
				c-0.24-5.836-0.26-11.671-0.332-17.505v0.025l-0.325-1.992c-0.124-0.657-0.163-1.342-0.442-1.951l-0.672-1.877l-1.017-1.685
				c-0.402-0.504-0.853-0.983-1.314-1.433c-0.534-0.361-1.042-0.785-1.654-1c-0.579-0.279-1.172-0.41-1.862-0.377
				c-0.664-0.014-1.335-0.053-1.979,0.098c-0.665,0.059-1.296,0.247-1.907,0.491c-0.646,0.18-1.173,0.603-1.752,0.919
				c-1.062,0.795-1.948,1.811-2.657,2.949C635.976,344.903,635.129,347.556,634.881,350.282z"/>
		</g>
	</g>
	<g>
		<path fill="#191C19" d="M338.969,396.64v14.284c0,6.623,7.932,11.991,17.719,11.991c9.795,0,17.726-5.368,17.726-11.991V396.64
			H338.969z"/>
		<path fill="#B13128" d="M337.14,392.095v15.759c0,7.306,8.752,13.229,19.549,13.229c10.804,0,19.556-5.924,19.556-13.229v-15.759
			H337.14z"/>
		<path fill="#C35246" d="M346.677,392.095v27.106c2.931,1.188,6.346,1.882,10.012,1.882c3.823,0,7.379-0.752,10.391-2.036v-26.952
			H346.677z"/>
		<circle fill="#424441" cx="356.692" cy="413.226" r="6.466"/>
		<circle fill="#2F302D" cx="356.692" cy="413.226" r="4.546"/>
		<circle fill="#585958" cx="356.692" cy="414.458" r="4.546"/>
		<circle fill="#787979" cx="356.692" cy="414.458" r="2.833"/>
		<path fill="#131613" d="M379.309,395.774h-3.979c-0.459,0-0.833-0.374-0.833-0.834c0-0.459,0.375-0.833,0.833-0.833h3.145v-4.027
			h-3.145c-0.459,0-0.833-0.374-0.833-0.834c0-0.459,0.375-0.834,0.833-0.834h3.979c0.458,0,0.833,0.375,0.833,0.834v5.694
			C380.142,395.4,379.767,395.774,379.309,395.774z"/>
		<path fill="#131613" d="M338.169,395.774h-3.979c-0.459,0-0.833-0.374-0.833-0.834v-5.694c0-0.459,0.375-0.834,0.833-0.834h3.979
			c0.459,0,0.833,0.375,0.833,0.834c0,0.46-0.375,0.834-0.833,0.834h-3.146v4.027h3.146c0.459,0,0.833,0.374,0.833,0.833
			C339.002,395.4,338.628,395.774,338.169,395.774z"/>
		<path fill="#515351" d="M376.245,392.095c0,7.307-8.752,13.229-19.556,13.229c-10.797,0-19.549-5.922-19.549-13.229
			s8.752-13.229,19.549-13.229C367.492,378.866,376.245,384.789,376.245,392.095z"/>
		<path fill="#A7C9CC" d="M372.737,390.512c0,5.994-7.182,10.856-16.052,10.856c-8.859,0-16.042-4.862-16.042-10.856
			c0-5.997,7.183-11.266,16.042-11.266C365.555,379.247,372.737,384.515,372.737,390.512z"/>
		<path fill="#CFE3E3" d="M356.438,380.061v19.435c8.091-0.048,14.622-4.086,14.622-9.078
			C371.061,385.43,364.529,380.123,356.438,380.061z"/>
		<ellipse fill="#3E3F3C" cx="356.692" cy="384.226" rx="5.307" ry="3.59"/>
		<rect x="355.669" y="379.784" fill="#5D5E5D" width="2.042" height="6.531"/>
	</g>
	<g>
		<path fill="#323330" d="M179.737,466.247c0,7.308-8.752,13.23-19.556,13.23c-10.796,0-19.549-5.923-19.549-13.23
			c0-3.897,4.093-18.62,8.059-26.005c3.464-6.453,10.146-5.903,11.49-5.903c1.017,0,8.029-0.557,11.497,5.903
			C175.638,447.623,179.737,462.353,179.737,466.247z"/>
		<ellipse fill="#606160" cx="160.185" cy="441.514" rx="11.494" ry="7.779"/>
		<path fill="#323330" d="M167.202,436.068c-1.625-1.427-4.148-2.361-7.016-2.361c-2.869,0-5.393,0.935-7.017,2.361h-1.873v3.652
			c0,3.324,3.979,6.018,8.889,6.018c4.91,0,8.889-2.693,8.889-6.018v-3.652H167.202z"/>
		<ellipse fill="#959493" cx="160.185" cy="436.068" rx="8.889" ry="6.014"/>
		<path fill="#B8D8E3" d="M176.244,399.473l-5.177,31.127l-3.374,5.828c-2.168,2.684-5.125,3.296-7.596,3.296
			c-2.583,0-5.425-0.518-7.675-3.412l-3.819-5.712l-4.48-31.127c0-7.18,5.356-11.148,15.975-11.148
			C170.712,388.325,176.244,392.293,176.244,399.473z"/>
		<path fill="#DCECF1" d="M159.687,393.107c9.071,0.089,13.666,3.547,13.666,9.759l-3.93,27.298l-3.347,5.008
			c-1.875,2.413-4.22,2.934-6.389,2.982V393.107z"/>
		<path fill="#3E3F3C" d="M176.54,397.353c0,6.118-7.319,11.07-16.351,11.07c-9.039,0-16.358-4.952-16.358-11.07
			c0-6.108,7.319-11.063,16.358-11.063C169.221,386.29,176.54,391.245,176.54,397.353z"/>
		<path fill="#606160" d="M176.156,395.986c0,5.978-7.153,10.813-15.971,10.813c-8.824,0-15.974-4.836-15.974-10.813
			c0-5.961,7.15-10.8,15.974-10.8C169.003,385.186,176.156,390.025,176.156,395.986z"/>
		<ellipse fill="#74898B" cx="160.183" cy="393.107" rx="7.507" ry="5.079"/>
		<path fill="#B8D8E3" d="M167.518,392.476c0,2.748-3.289,4.962-7.332,4.962c-4.054,0-7.333-2.214-7.333-4.962
			c0-2.735,3.278-4.956,7.333-4.956C164.229,387.52,167.518,389.741,167.518,392.476z"/>
		<polygon fill="#A0C4CB" points="151.28,408.486 143.411,413.123 139.503,410.673 147.289,406.109 		"/>
		<polygon fill="#B8D8E3" points="148.691,436.703 143.411,413.123 139.503,410.673 144.7,434.326 		"/>
		<g>
			<polygon fill="#91B1B5" points="150.065,433.681 150.473,435.573 148.721,436.682 148.724,436.703 154.142,433.377 
				154.142,431.366 			"/>
			<polygon fill="#91B1B5" points="145.807,413.887 151.192,410.436 151.192,408.423 143.974,412.768 143.977,412.788 
				145.39,411.957 			"/>
			<polygon fill="#91B1B5" points="150.065,433.681 145.807,413.887 145.39,411.957 143.977,412.788 143.411,413.123 
				148.246,434.716 148.262,434.788 148.691,436.703 148.721,436.682 150.473,435.573 			"/>
		</g>
		<g>
			<path fill="#5B5C5B" d="M178.097,458.238c-0.062,4.148-3.24,7.841-7.095,8.234c-3.858,0.391-6.942-2.657-6.88-6.821
				c0.056-4.148,3.237-7.841,7.089-8.234C175.068,451.025,178.152,454.073,178.097,458.238z"/>
			<path fill="#424441" d="M176.895,458.404c-0.045,3.158-2.455,5.961-5.382,6.258c-2.937,0.3-5.275-2.016-5.229-5.177
				c0.039-3.158,2.454-5.956,5.388-6.259C174.603,452.931,176.941,455.243,176.895,458.404z"/>
			<path fill="#B6B6B6" d="M178.097,458.55c-0.046,3.051-2.377,5.753-5.2,6.043c-2.827,0.287-5.089-1.947-5.043-4.998
				c0.039-3.044,2.37-5.75,5.193-6.037C175.879,453.273,178.136,455.505,178.097,458.55z"/>
		</g>
	</g>
	<g>
		<polygon fill="#3E3F3C" points="284.894,312.245 494.82,190.867 494.82,104.267 284.894,225.797 		"/>
		<g>
			<polygon fill="#AB7C45" points="382.375,174.115 432.223,145.465 432.223,219.748 382.375,248.375 			"/>
			<polygon fill="#AB7C45" points="435.556,143.538 482.637,115.942 482.637,190.251 435.556,217.824 			"/>
			<polygon fill="#E3AF65" points="384.355,174.642 434.201,145.993 434.201,220.275 384.355,248.902 			"/>
			<polygon fill="#E3AF65" points="437.535,144.064 484.616,116.47 484.616,190.779 437.535,218.351 			"/>
			<g>
				<path fill="#808B8B" d="M428.819,207.671c0.287,0,0.569-0.15,0.723-0.417c0.228-0.4,0.092-0.909-0.306-1.14l-2.583-1.484
					c-0.399-0.229-0.907-0.095-1.139,0.306c-0.228,0.4-0.091,0.909,0.306,1.14l2.582,1.484
					C428.535,207.635,428.677,207.671,428.819,207.671z"/>
				<path fill="#808B8B" d="M428.819,193.097c0.287,0,0.569-0.149,0.723-0.417c0.228-0.4,0.092-0.907-0.306-1.14l-2.583-1.484
					c-0.399-0.228-0.907-0.095-1.139,0.306c-0.228,0.401-0.091,0.908,0.306,1.14l2.582,1.485
					C428.535,193.062,428.677,193.097,428.819,193.097z"/>
				<rect x="428.34" y="190.779" fill="#CBD8DA" width="2.188" height="17.445"/>
			</g>
			<polygon fill="#AB7C45" points="288.459,227.081 372.298,179.255 372.298,220.985 288.459,268.787 			"/>
			<polygon fill="#E3AF65" points="290.438,227.608 374.278,179.784 374.278,221.512 290.438,269.314 			"/>
			<g>
				<path fill="#808B8B" d="M368.896,217.178c0.286,0,0.569-0.149,0.722-0.416c0.229-0.4,0.092-0.909-0.305-1.14l-2.583-1.484
					c-0.401-0.229-0.908-0.095-1.14,0.305c-0.228,0.4-0.091,0.909,0.306,1.141l2.582,1.484
					C368.612,217.142,368.752,217.178,368.896,217.178z"/>
				<path fill="#808B8B" d="M368.896,202.605c0.286,0,0.569-0.15,0.722-0.417c0.229-0.4,0.092-0.908-0.305-1.14l-2.583-1.484
					c-0.401-0.229-0.908-0.095-1.14,0.307c-0.228,0.399-0.091,0.907,0.306,1.139l2.582,1.484
					C368.612,202.569,368.752,202.605,368.896,202.605z"/>
				<rect x="368.417" y="200.287" fill="#CBD8DA" width="2.188" height="17.445"/>
			</g>
			<g>
				<path fill="#808B8B" d="M478.645,178.358c0.286,0,0.566-0.15,0.724-0.417c0.228-0.4,0.09-0.909-0.308-1.14l-2.585-1.485
					c-0.397-0.229-0.905-0.095-1.14,0.307c-0.228,0.399-0.091,0.908,0.307,1.139l2.586,1.484
					C478.358,178.321,478.501,178.358,478.645,178.358z"/>
				<path fill="#808B8B" d="M478.645,163.783c0.286,0,0.566-0.149,0.724-0.417c0.228-0.399,0.09-0.907-0.308-1.139l-2.585-1.484
					c-0.397-0.229-0.905-0.095-1.14,0.305c-0.228,0.401-0.091,0.909,0.307,1.14l2.586,1.486
					C478.358,163.748,478.501,163.783,478.645,163.783z"/>
				<rect x="478.162" y="161.464" fill="#CBD8DA" width="2.188" height="17.446"/>
			</g>
		</g>
		<polygon fill="#939898" points="390.174,268.854 300.373,320.945 300.373,303.515 390.174,251.669 		"/>
		<polygon fill="#CCCDCD" points="374.851,225.797 285.092,277.714 300.373,303.515 390.174,251.669 		"/>
		<polygon fill="#B3B6B6" points="285.092,277.714 224.648,242.722 224.648,277.558 300.373,320.945 300.373,303.515 		"/>
		<g>
			<path fill="#474846" d="M325.347,300.201c-0.036,2.406-1.879,4.546-4.113,4.773c-2.237,0.228-4.024-1.541-3.989-3.953
				c0.033-2.406,1.876-4.545,4.109-4.773C323.592,296.019,325.379,297.788,325.347,300.201z"/>
			<path fill="#717272" d="M324.65,300.298c-0.026,1.829-1.423,3.454-3.12,3.627c-1.703,0.172-3.057-1.168-3.031-3.002
				c0.023-1.83,1.423-3.451,3.123-3.628C323.321,297.124,324.676,298.465,324.65,300.298z"/>
			<path fill="#B6B6B6" d="M325.347,300.382c-0.026,1.769-1.378,3.335-3.015,3.504c-1.638,0.166-2.95-1.129-2.924-2.897
				c0.022-1.765,1.374-3.335,3.012-3.501C324.06,297.323,325.37,298.618,325.347,300.382z"/>
		</g>
		<g>
			<path fill="#474846" d="M353.375,284.152c-0.037,2.406-1.879,4.546-4.113,4.773c-2.237,0.228-4.024-1.541-3.988-3.953
				c0.033-2.406,1.875-4.545,4.109-4.773C351.619,279.97,353.407,281.739,353.375,284.152z"/>
			<path fill="#717272" d="M352.677,284.25c-0.026,1.829-1.423,3.454-3.12,3.627c-1.702,0.172-3.057-1.168-3.031-3.002
				c0.023-1.83,1.423-3.451,3.123-3.628C351.349,281.075,352.703,282.417,352.677,284.25z"/>
			<path fill="#B6B6B6" d="M353.375,284.333c-0.026,1.769-1.377,3.335-3.015,3.504c-1.638,0.166-2.95-1.129-2.924-2.897
				c0.023-1.765,1.374-3.335,3.012-3.501C352.088,281.274,353.397,282.569,353.375,284.333z"/>
		</g>
		<g>
			<path fill="#474846" d="M379.021,269.89c-0.035,2.406-1.879,4.546-4.112,4.773c-2.237,0.228-4.024-1.54-3.989-3.953
				c0.032-2.406,1.875-4.545,4.109-4.773C377.267,265.709,379.054,267.477,379.021,269.89z"/>
			<path fill="#717272" d="M378.325,269.988c-0.026,1.829-1.423,3.455-3.119,3.628c-1.703,0.172-3.057-1.169-3.032-3.003
				c0.023-1.829,1.423-3.451,3.123-3.628C376.997,266.813,378.351,268.155,378.325,269.988z"/>
			<path fill="#B6B6B6" d="M379.021,270.073c-0.026,1.768-1.377,3.334-3.015,3.503c-1.638,0.166-2.95-1.129-2.923-2.897
				c0.022-1.765,1.374-3.334,3.011-3.501C377.736,267.012,379.045,268.308,379.021,270.073z"/>
		</g>
		<polygon fill="#3E3F3C" points="280.306,228.441 280.306,315.036 284.894,312.397 284.894,225.797 		"/>
		<polygon fill="#252724" points="220.324,194.301 280.306,229.005 280.306,315.452 220.324,280.836 		"/>
		<polygon fill="#5B6523" points="134.86,325.692 194.842,360.394 280.306,312.118 220.324,277.503 		"/>
		<g>
			<polygon opacity="0.4" fill="#323330" points="231.557,284.503 156.613,327.874 201.644,353.86 276.588,310.489 			"/>
			<polygon fill="#EFF0EF" points="276.588,309.115 201.644,352.486 201.644,300.529 276.588,257.16 			"/>
			<polygon fill="#DEE0DF" stroke="#737474" stroke-width="0.25" stroke-miterlimit="10" points="261.87,270.603 203.591,304.326 
				203.591,347.531 261.87,313.807 			"/>
			<polygon fill="#4A4B49" points="261.87,276.438 208.554,307.289 208.554,339.92 261.87,309.067 			"/>
			<polygon fill="#9D9B9B" points="261.87,279.121 261.87,309.08 276.588,300.562 276.588,270.603 			"/>
			<polygon fill="#232522" points="261.87,276.438 261.87,284.956 276.588,276.438 276.588,267.919 			"/>
			<polygon fill="#E3E4E4" points="231.557,231.173 156.613,274.543 201.644,300.529 276.588,257.16 			"/>
			<polygon fill="#C6C7C7" points="156.613,274.543 156.613,326.5 201.644,352.483 201.644,300.526 			"/>
			<linearGradient id="SVGID_1_" gradientUnits="userSpaceOnUse" x1="221.3794" y1="334.4126" x2="244.1621" y2="291.6213">
				<stop  offset="0" style="stop-color:#4D5C5B"/>
				<stop  offset="1" style="stop-color:#758990"/>
			</linearGradient>
			<path fill="url(#SVGID_1_)" d="M257.006,305.761c0,1.01-0.821,2.312-1.83,2.908l-40.231,23.368
				c-1.007,0.594-1.827,0.257-1.827-0.752v-19.623c0-1.01,0.82-2.313,1.827-2.902l40.231-23.371c1.009-0.597,1.83-0.261,1.83,0.748
				V305.761z"/>
			<path fill="#5D5E5D" d="M266.768,286.539c-0.013,0.882-0.687,1.66-1.501,1.744c-0.814,0.086-1.469-0.563-1.455-1.441
				c0.01-0.879,0.683-1.661,1.497-1.742C266.126,285.015,266.78,285.66,266.768,286.539z"/>
			<path fill="#5D5E5D" d="M266.768,292.024c-0.013,0.884-0.687,1.661-1.501,1.746s-1.469-0.563-1.455-1.442
				c0.01-0.879,0.683-1.661,1.497-1.742C266.126,290.501,266.78,291.146,266.768,292.024z"/>
			<path fill="#5D5E5D" d="M266.768,297.515c-0.013,0.882-0.687,1.66-1.501,1.744c-0.814,0.085-1.469-0.563-1.455-1.441
				c0.01-0.88,0.683-1.661,1.497-1.742C266.126,295.991,266.78,296.635,266.768,297.515z"/>
			<path fill="#5D5E5D" d="M266.768,303c-0.013,0.882-0.687,1.661-1.501,1.746c-0.814,0.083-1.469-0.564-1.455-1.443
				c0.01-0.88,0.683-1.66,1.497-1.742C266.126,301.476,266.78,302.121,266.768,303z"/>
			<path fill="#5D5E5D" d="M271.248,284.35c-0.013,0.882-0.687,1.661-1.5,1.745c-0.814,0.084-1.469-0.563-1.456-1.442
				c0.01-0.88,0.684-1.66,1.498-1.742C270.606,282.826,271.261,283.471,271.248,284.35z"/>
			<path fill="#5D5E5D" d="M271.248,289.836c-0.013,0.883-0.687,1.66-1.5,1.745c-0.814,0.085-1.469-0.563-1.456-1.442
				c0.01-0.879,0.684-1.661,1.498-1.741C270.606,288.313,271.261,288.958,271.248,289.836z"/>
			<path fill="#5D5E5D" d="M271.248,295.327c-0.013,0.882-0.687,1.659-1.5,1.745c-0.814,0.084-1.469-0.563-1.456-1.442
				c0.01-0.88,0.684-1.661,1.498-1.742C270.606,293.802,271.261,294.447,271.248,295.327z"/>
			<path fill="#5D5E5D" d="M271.248,300.812c-0.013,0.884-0.687,1.661-1.5,1.746c-0.814,0.085-1.469-0.564-1.456-1.442
				c0.01-0.879,0.684-1.661,1.498-1.743C270.606,299.29,271.261,299.934,271.248,300.812z"/>
			<path fill="#5D5E5D" d="M275.416,282.194c-0.013,0.884-0.687,1.661-1.501,1.746s-1.469-0.563-1.456-1.442
				c0.01-0.879,0.684-1.661,1.498-1.742C274.774,280.671,275.429,281.316,275.416,282.194z"/>
			<path fill="#5D5E5D" d="M275.416,287.681c-0.013,0.882-0.687,1.661-1.501,1.744c-0.814,0.085-1.469-0.563-1.456-1.441
				c0.01-0.88,0.684-1.66,1.498-1.742C274.774,286.157,275.429,286.802,275.416,287.681z"/>
			<path fill="#5D5E5D" d="M275.416,293.17c-0.013,0.883-0.687,1.661-1.501,1.746s-1.469-0.564-1.456-1.443
				c0.01-0.878,0.684-1.66,1.498-1.742C274.774,291.647,275.429,292.292,275.416,293.17z"/>
			<path fill="#5D5E5D" d="M275.416,298.658c-0.013,0.882-0.687,1.659-1.501,1.744s-1.469-0.563-1.456-1.441
				c0.01-0.88,0.684-1.66,1.498-1.742C274.774,297.133,275.429,297.778,275.416,298.658z"/>
		</g>
		<polygon fill="#3E3F3C" points="198.717,355.875 198.717,361.928 280.306,314.904 280.306,308.711 		"/>
		<polygon fill="#3E3F3C" points="198.717,275.432 198.717,281.485 280.306,234.462 280.306,228.268 		"/>
		<polygon fill="#4E504E" points="134.86,242.579 194.842,277.282 194.842,363.729 134.86,329.114 		"/>
		<polygon fill="#4A4B49" points="134.86,243.018 494.82,34.995 494.82,104.267 194.842,277.721 		"/>
		<polygon fill="#3E3F3C" points="198.844,275.413 194.842,277.721 194.842,364.167 198.844,361.866 		"/>
	</g>
	<g>
		<polygon fill="#393A36" points="202.396,394.712 202.396,450.081 224.569,436.754 224.569,382.089 		"/>
		<path fill="#585958" d="M242.669,445.663c-3.011-4.675-9.897-7.947-17.924-7.947c-8.019,0-14.906,3.272-17.917,7.947h-1.631v5.281
			c0,7.307,8.752,13.229,19.549,13.229c10.804,0,19.556-5.923,19.556-13.229v-5.281H242.669z"/>
		<path fill="#535553" d="M244.301,445.663c0,7.307-8.752,13.229-19.556,13.229c-10.796,0-19.549-5.923-19.549-13.229
			s8.752-13.229,19.549-13.229C235.549,432.433,244.301,438.356,244.301,445.663z"/>
		<path fill="#323330" d="M242.1,445.445c0,6.482-7.765,11.741-17.352,11.741c-9.582,0-17.348-5.259-17.348-11.741
			c0-6.483,7.766-11.738,17.348-11.738C234.335,433.707,242.1,438.961,242.1,445.445z"/>
		<polygon fill="#585958" points="205.196,422.458 211.858,426.215 211.858,408.683 179.672,390.085 179.672,442.358 
			211.627,460.754 205.196,449.27 		"/>
		<g>
			<path fill="#342D1F" d="M239.361,443.92c0,5.38-6.443,9.739-14.391,9.739c-7.945,0-14.389-4.359-14.389-9.739
				c0-3.146,0.746-6.104,2.042-8.642c0,0,7.281-2.457,12.807-2.467c5.814-0.01,12.34,2.979,12.34,2.979
				C238.789,438.125,239.361,440.863,239.361,443.92z"/>
			<polygon fill="#333531" points="227.236,452.739 242.136,461.333 247.033,458.967 231.925,450.081 			"/>
			<path opacity="0.7" fill="#6A929D" d="M240.198,444.529c0,5.693-6.818,10.307-15.231,10.307c-8.407,0-15.225-4.613-15.225-10.307
				c0-9.773,6.818-17.861,15.225-17.861C233.38,426.667,240.198,433.707,240.198,444.529z"/>
			<path opacity="0.7" fill="#90B8C0" d="M223.798,429.724c-6.854,0.098-12.389,6.714-12.389,14.707
				c0,4.654,5.536,8.425,12.389,8.479V429.724z"/>
			<ellipse fill="#3B3D3A" cx="224.971" cy="426.667" rx="8.373" ry="5.665"/>
			<polygon fill="#333531" points="227.236,431.755 242.136,440.352 247.033,437.985 231.925,429.099 			"/>
			<polygon fill="#232522" points="242.136,461.333 247.033,458.892 247.033,437.985 242.136,440.427 			"/>
		</g>
		<path fill="#585958" d="M205.196,400.997v15.499c0,7.307,8.752,13.229,19.549,13.229c10.804,0,19.556-5.922,19.556-13.229v-15.499
			H205.196z"/>
		<path fill="#B4B4B4" d="M229.278,400.997v28.331c6.223-1.006,11.301-3.989,13.63-7.947v-20.384H229.278z"/>
		<path fill="#585958" d="M244.194,400.997h-0.955v19.771c0.678-1.341,1.062-2.774,1.062-4.271v-15.392L244.194,400.997z"/>
		<path fill="#717272" d="M237.496,389.113l0.056-0.047l-27.963-16.057l-29.917,17.076l30.294,18.168
			c3.617,2.658,8.784,4.332,14.544,4.332c10.934,0,19.791-5.991,19.791-13.386C244.301,395.172,241.66,391.567,237.496,389.113z"/>
		<g>
			<polygon fill="#C4C5C5" points="193.165,440.752 188.894,438.272 188.894,403.611 193.165,406.092 			"/>
			<path fill="#2F302D" d="M193.582,441.475l-5.105-2.963v-35.624l5.105,2.964V441.475z M189.311,438.032l3.438,1.998v-33.696
				l-3.438-1.999V438.032z"/>
		</g>
		<ellipse fill="#C4C5C5" cx="225.454" cy="398.626" rx="13.986" ry="9.465"/>
		<ellipse fill="#40423F" cx="225.455" cy="398.626" rx="4.148" ry="2.807"/>
	</g>
	<g>
		<path opacity="0.5" fill="#393A36" d="M343.974,347.39l35.129,20.255c0,0,18.888,2.892,35.217-6.557
			c16.078-9.442,11.715-20.568,11.715-20.568s-9.153-7.881-18.109-13.051c-8.596-4.955-17.02-7.209-17.02-7.209
			s-35.539,16.192-46.932,22.78V347.39z M389.503,363.39l31.014-17.925c0,0,1.781,4.546-8.844,10.788
			C400.883,362.498,389.503,363.39,389.503,363.39z"/>
		<path fill="#B1BCC1" d="M343.974,345.758l35.129,20.26c0,0,18.888,2.891,35.217-6.559c16.078-9.442,11.715-20.568,11.715-20.568
			s-9.153-7.882-18.109-13.049c-8.596-4.957-17.02-7.21-17.02-7.21s-35.539,16.192-46.932,22.779V345.758z M389.503,361.758
			l31.014-17.925c0,0,1.781,4.553-8.844,10.794C400.883,360.87,389.503,361.758,389.503,361.758z"/>
		<path fill="#798286" d="M343.952,341.923l35.126,20.262c0,0,18.891,2.889,35.216-6.561c16.083-9.439,11.712-20.565,11.712-20.565
			s-9.146-7.885-18.106-13.054c-8.599-4.955-17.016-7.204-17.016-7.204s-35.542,16.188-46.932,22.771V341.923z M389.477,357.926
			L420.491,340c0,0,1.784,4.548-8.844,10.792C400.857,357.038,389.477,357.926,389.477,357.926z"/>
		<path fill="#C4D1D4" d="M343.974,340.627l35.129,20.262c0,0,18.888,2.892,35.217-6.562c16.078-9.438,11.715-20.564,11.715-20.564
			s-9.153-7.886-18.109-13.053c-8.596-4.955-17.02-7.206-17.02-7.206s-35.539,16.191-46.932,22.775V340.627z M389.503,356.63
			l31.014-17.925c0,0,1.781,4.546-8.844,10.791C400.883,355.742,389.503,356.63,389.503,356.63z"/>
		<path fill="#91A4AB" d="M418.745,347.019v9.614c0,0-2.289,5.037-8.14,4.653v-9.479L418.745,347.019z"/>
		<path fill="#F4F5F4" d="M343.974,336.28l35.129,20.259c0,0,18.888,2.892,35.217-6.561c16.078-9.438,11.715-20.564,11.715-20.564
			s-9.153-7.879-18.109-13.051c-8.596-4.955-17.02-7.208-17.02-7.208s-11.077,3.797-22.467,10.379
			C356.386,326.502,343.974,336.28,343.974,336.28z M389.503,352.281l31.014-17.925c0,0,2.884,7.349-7.74,13.591
			C401.986,354.195,389.503,352.281,389.503,352.281z"/>
		<path fill="#B4B4B4" d="M414.05,338.094v-1.059c0,0-44.562-5.453-64.385-6.105c0,0,0,0.652,0,1.059l48.945,15.03L414.05,338.094z"
			/>
		<path fill="#D1D2D3" d="M414.05,337.036l-28.773-26.771c0,0-15.815,1.613-35.612,20.666l48.945,15.029L414.05,337.036z"/>
		<path fill="#A65821" stroke="#723615" stroke-width="0.25" stroke-miterlimit="10" d="M403.995,335.17
			c-0.716,0.117-0.56,0.917,0.353,1.791c0.908,0.875,2.233,1.491,2.946,1.374c0.72-0.114,0.56-0.919-0.352-1.791
			C406.037,335.671,404.711,335.056,403.995,335.17z"/>
		<path fill="#7FA037" stroke="#6F8930" stroke-width="0.25" stroke-miterlimit="10" d="M398.948,338.064
			c-0.716,0.117-0.56,0.919,0.349,1.788c0.908,0.88,2.234,1.495,2.95,1.375c0.719-0.112,0.56-0.919-0.352-1.789
			C400.987,338.563,399.662,337.947,398.948,338.064z"/>
	</g>
	<g>
		<g>
			<polygon fill="#976F4C" points="610.311,616.206 610.311,655.122 606.872,657.17 606.872,617.766 			"/>
			<polygon fill="#7D5C3B" points="564.232,727.766 563.888,632.327 567.325,629.583 567.325,725.995 			"/>
			<polygon fill="#88633E" points="564.232,727.766 563.888,627.368 557.238,627.368 557.238,723.782 			"/>
			<polygon fill="#88633E" points="557.102,589.145 606.872,617.766 606.872,657.17 557.096,627.526 			"/>
			<polygon fill="#C29064" points="557.102,589.145 606.872,617.766 610.311,616.206 561.419,586.676 			"/>
			<polygon fill="#976F4C" points="607.224,752.61 606.872,657.17 610.311,654.424 610.311,750.838 			"/>
			<polygon fill="#88633E" points="607.224,752.61 606.872,657.17 600.23,652.211 600.23,748.625 			"/>
		</g>
		<g>
			<polygon fill="#976F4C" points="378.673,616.747 378.673,655.667 382.112,657.709 382.112,618.305 			"/>
			<polygon fill="#7D5C3B" points="424.759,728.311 425.104,632.866 421.666,630.122 421.666,726.536 			"/>
			<polygon fill="#88633E" points="424.759,728.311 425.104,627.909 431.746,627.909 431.746,724.321 			"/>
			<polygon fill="#88633E" points="431.883,589.686 382.112,618.305 382.112,657.709 431.893,628.071 			"/>
			<polygon fill="#C29064" points="431.883,589.686 382.112,618.305 378.673,616.747 427.572,587.217 			"/>
			<polygon fill="#976F4C" points="381.767,753.153 382.112,657.709 378.673,654.969 378.673,751.379 			"/>
			<polygon fill="#88633E" points="381.767,753.153 382.112,657.709 388.757,652.752 388.757,749.165 			"/>
		</g>
		<polygon opacity="0.2" fill="#37301D" points="494.814,889.245 345.313,802.85 494.814,716.456 644.447,802.85 		"/>
		<polygon fill="#A07B44" points="485.47,870.583 494.495,875.723 494.495,760.631 477.732,750.75 		"/>
		<polygon fill="#8B6836" points="503.905,870.583 494.495,875.723 494.495,760.631 511.27,750.75 		"/>
		<polygon fill="#A07B44" points="585.193,812.977 594.221,818.12 594.221,703.028 577.458,693.149 		"/>
		<polygon fill="#8B6836" points="603.629,812.977 594.221,818.12 594.221,703.028 610.994,693.149 		"/>
		<polygon fill="#A07B44" points="385.446,812.977 394.479,818.12 394.479,703.028 377.71,693.149 		"/>
		<polygon fill="#8B6836" points="403.888,812.977 394.479,818.12 394.479,703.028 411.247,693.149 		"/>
		<polygon fill="#AC8955" points="494.814,786.772 644.447,700.543 644.447,693.149 494.814,779.368 494.814,779.5 		"/>
		<polygon fill="#C39E5F" points="494.814,779.719 345.313,693.149 345.313,700.543 494.814,786.893 		"/>
		<polygon fill="#DCB872" points="494.814,779.543 345.313,693.149 494.814,606.752 644.447,693.149 		"/>
		<polygon fill="#92633F" stroke="#63462F" stroke-width="0.25" stroke-miterlimit="10" points="548.675,690.512 498.91,661.856 
			527.699,645.192 577.854,673.811 		"/>
		<polygon fill="#92633F" stroke="#63462F" stroke-width="0.25" stroke-miterlimit="10" points="440.428,690.512 490.19,661.856 
			461.399,645.192 411.247,673.811 		"/>
		<polygon fill="#92633F" stroke="#63462F" stroke-width="0.25" stroke-miterlimit="10" points="548.389,695.643 498.623,724.299 
			527.413,740.963 577.563,712.342 		"/>
		<polygon fill="#92633F" stroke="#63462F" stroke-width="0.25" stroke-miterlimit="10" points="440.138,695.643 489.903,724.299 
			461.112,740.963 410.96,712.342 		"/>
		<g>
			<path fill="#F6F7F6" d="M550.186,666.524c0,5.086-6.088,9.211-13.61,9.211c-7.521,0-13.61-4.125-13.61-9.211
				s6.089-9.209,13.61-9.209C544.098,657.315,550.186,661.438,550.186,666.524z"/>
			<path fill="#95A83A" d="M536.575,664.721c5.504,0,9.964-2.922,10.276-6.588c0.006-0.137,0.059-0.264,0.059-0.404
				c0-3.857-4.63-6.988-10.335-6.988c-5.697,0-10.328,3.131-10.328,6.988c0,0.141,0.046,0.268,0.059,0.404
				C526.625,661.799,531.079,664.721,536.575,664.721z"/>
			<path fill="#84922C" d="M546.18,660.194c0,2.705-4.297,4.902-9.604,4.902s-9.612-2.197-9.612-4.902
				c0-2.715,4.305-4.906,9.612-4.906S546.18,657.479,546.18,660.194z"/>
			<path fill="#A2BB4D" d="M536.575,664.721c-5.496,0-9.95-2.922-10.27-6.588c-0.013,0.137-0.059,0.264-0.059,0.4
				c0,7.555,4.631,12.344,10.328,12.344c5.705,0,10.335-3.887,10.335-12.344c0-0.137-0.053-0.264-0.059-0.4
				C546.539,661.799,542.079,664.721,536.575,664.721z"/>
		</g>
		<g>
			<path fill="#F6F7F6" d="M464.333,666.524c0,5.086-6.093,9.211-13.613,9.211c-7.519,0-13.607-4.125-13.607-9.211
				s6.089-9.209,13.607-9.209C458.24,657.315,464.333,661.438,464.333,666.524z"/>
			<path fill="#95A83A" d="M450.723,664.721c5.502,0,9.957-2.922,10.272-6.588c0.01-0.137,0.06-0.264,0.06-0.404
				c0-3.857-4.628-6.988-10.332-6.988c-5.702,0-10.332,3.131-10.332,6.988c0,0.141,0.05,0.268,0.063,0.404
				C440.769,661.799,445.227,664.721,450.723,664.721z"/>
			<path fill="#84922C" d="M460.328,660.194c0,2.705-4.301,4.902-9.605,4.902c-5.311,0-9.609-2.197-9.609-4.902
				c0-2.715,4.299-4.906,9.609-4.906C456.027,655.288,460.328,657.479,460.328,660.194z"/>
			<path fill="#A2BB4D" d="M450.723,664.721c-5.496,0-9.954-2.922-10.27-6.588c-0.013,0.137-0.063,0.264-0.063,0.4
				c0,7.555,4.63,12.344,10.332,12.344c5.704,0,10.332-3.887,10.332-12.344c0-0.137-0.05-0.264-0.06-0.4
				C460.68,661.799,456.225,664.721,450.723,664.721z"/>
		</g>
		<g>
			<path fill="#F6F7F6" d="M550.186,719.161c0,5.09-6.088,9.211-13.61,9.211c-7.521,0-13.61-4.121-13.61-9.211
				c0-5.082,6.089-9.205,13.61-9.205C544.098,709.956,550.186,714.079,550.186,719.161z"/>
			<path fill="#95A83A" d="M536.575,717.36c5.504,0,9.964-2.92,10.276-6.59c0.006-0.137,0.059-0.262,0.059-0.4
				c0-3.861-4.63-6.986-10.335-6.986c-5.697,0-10.328,3.125-10.328,6.986c0,0.139,0.046,0.264,0.059,0.4
				C526.625,714.44,531.079,717.36,536.575,717.36z"/>
			<path fill="#84922C" d="M546.18,712.833c0,2.709-4.297,4.902-9.604,4.902s-9.612-2.193-9.612-4.902
				c0-2.713,4.305-4.904,9.612-4.904S546.18,710.12,546.18,712.833z"/>
			<path fill="#A2BB4D" d="M536.575,717.36c-5.496,0-9.95-2.92-10.27-6.59c-0.013,0.137-0.059,0.268-0.059,0.404
				c0,7.553,4.631,12.344,10.328,12.344c5.705,0,10.335-3.889,10.335-12.344c0-0.137-0.053-0.268-0.059-0.404
				C546.539,714.44,542.079,717.36,536.575,717.36z"/>
		</g>
		<g>
			<path fill="#F6F7F6" d="M462.721,717.895c0,5.084-6.096,9.211-13.613,9.211c-7.515,0-13.606-4.127-13.606-9.211
				c0-5.088,6.092-9.209,13.606-9.209C456.625,708.686,462.721,712.807,462.721,717.895z"/>
			<path fill="#95A83A" d="M449.111,716.094c5.502,0,9.96-2.924,10.276-6.588c0.008-0.141,0.051-0.268,0.051-0.406
				c0-3.859-4.623-6.986-10.327-6.986c-5.705,0-10.329,3.127-10.329,6.986c0,0.139,0.049,0.266,0.063,0.406
				C439.157,713.17,443.614,716.094,449.111,716.094z"/>
			<path fill="#84922C" d="M458.719,711.565c0,2.705-4.304,4.902-9.607,4.902c-5.308,0-9.612-2.197-9.612-4.902
				c0-2.717,4.305-4.904,9.612-4.904C454.415,706.661,458.719,708.848,458.719,711.565z"/>
			<path fill="#A2BB4D" d="M449.111,716.094c-5.497,0-9.954-2.924-10.267-6.588c-0.014,0.133-0.063,0.264-0.063,0.4
				c0,7.555,4.624,12.34,10.329,12.34c5.704,0,10.327-3.885,10.327-12.34c0-0.137-0.043-0.268-0.051-0.4
				C459.071,713.17,454.613,716.094,449.111,716.094z"/>
		</g>
		<g opacity="0.7">
			<path fill="#A6CFDC" d="M507.252,648.125v13.195h0.02c0.117,1.771,2.253,3.182,4.896,3.182c2.645,0,4.787-1.41,4.897-3.182h0.025
				v-13.195H507.252z"/>
			<path fill="#93B7BE" d="M517.091,648.125c0,1.842-2.2,3.326-4.923,3.326c-2.716,0-4.916-1.484-4.916-3.326
				c0-1.84,2.2-3.328,4.916-3.328C514.891,644.797,517.091,646.286,517.091,648.125z"/>
		</g>
		<g opacity="0.7">
			<path fill="#A6CFDC" d="M436.19,668.051v13.195h0.023c0.114,1.771,2.253,3.184,4.894,3.184c2.647,0,4.783-1.412,4.9-3.184h0.025
				v-13.195H436.19z"/>
			<path fill="#93B7BE" d="M446.033,668.051c0,1.842-2.204,3.328-4.926,3.328c-2.716,0-4.917-1.486-4.917-3.328
				c0-1.84,2.201-3.33,4.917-3.33C443.829,664.721,446.033,666.211,446.033,668.051z"/>
		</g>
		<g opacity="0.7">
			<path fill="#A6CFDC" d="M467.887,709.354v13.199h0.025c0.111,1.768,2.254,3.182,4.897,3.182s4.779-1.414,4.897-3.182h0.025
				v-13.199H467.887z"/>
			<path fill="#93B7BE" d="M477.732,709.354c0,1.842-2.207,3.328-4.923,3.328c-2.722,0-4.923-1.486-4.923-3.328
				c0-1.84,2.201-3.33,4.923-3.33C475.525,706.024,477.732,707.514,477.732,709.354z"/>
		</g>
		<g opacity="0.7">
			<path fill="#A6CFDC" d="M543.693,689.116v13.197h0.025c0.111,1.771,2.253,3.186,4.892,3.186c2.649,0,4.786-1.414,4.902-3.186
				h0.021v-13.197H543.693z"/>
			<path fill="#93B7BE" d="M553.533,689.116c0,1.842-2.201,3.332-4.923,3.332c-2.716,0-4.917-1.49-4.917-3.332
				c0-1.834,2.201-3.328,4.917-3.328C551.332,685.788,553.533,687.282,553.533,689.116z"/>
		</g>
		<polygon fill="#F1F2F1" points="494.495,649.684 511.387,639.92 496.037,639.903 		"/>
		<polygon fill="#F1F2F1" points="575.479,702.198 558.586,692.432 573.941,692.417 		"/>
		<polygon fill="#F1F2F1" points="410.96,691.924 427.865,692.448 410.96,683.047 		"/>
		<polygon fill="#F1F2F1" points="494.566,740.442 477.661,740.963 494.566,731.567 		"/>
		<g>
			<polygon fill="#88633E" points="560.879,798.016 521.402,821.243 521.402,826.424 560.879,803.196 			"/>
			<polygon fill="#AF8764" points="521.402,821.243 561.211,797.895 557.921,795.635 517.775,819.459 			"/>
			<polygon fill="#976F4C" points="604.47,823.004 560.617,797.204 560.617,802.385 604.47,828.188 			"/>
			<polygon fill="#AF8764" points="604.47,823.004 560.617,797.204 567.208,793.971 611.06,819.768 			"/>
			<polygon fill="#976F4C" points="513.705,848.247 514.05,789.374 510.612,786.629 510.612,846.475 			"/>
			<polygon fill="#88633E" points="513.705,848.247 514.05,789.374 520.693,784.415 520.693,844.26 			"/>
			<polygon fill="#73512D" points="561.179,760.323 561.179,817.702 610.994,788.944 610.994,783.489 			"/>
			<polygon fill="#805B37" points="560.807,760.112 510.612,783.489 510.612,788.567 561.179,817.698 			"/>
			<polygon fill="#946B43" points="560.455,754.825 510.612,783.489 560.996,812.723 610.994,783.489 			"/>
			<path fill="#79441A" d="M582.512,766.727c-11.188-6.346-22.03-11.248-22.03-11.248s-10.901,4.527-22.05,10.939
				c-11.663,6.711-23.605,17.096-23.605,17.096l46.15,26.773l45.798-26.773C606.774,783.514,594.448,773.495,582.512,766.727z"/>
			<polygon fill="#976F4C" points="557.778,739.11 557.778,778.026 561.211,780.075 561.211,740.667 			"/>
			<polygon fill="#7D5C3B" points="603.857,850.67 604.203,755.227 600.765,752.483 600.765,848.897 			"/>
			<polygon fill="#88633E" points="603.857,850.67 604.203,750.272 610.845,750.272 610.845,846.686 			"/>
			<polygon fill="#88633E" points="610.988,712.045 561.211,740.667 561.211,780.075 610.994,750.432 			"/>
			<polygon fill="#C29064" points="610.988,712.045 561.211,740.667 557.778,739.11 606.671,709.581 			"/>
			<polygon fill="#976F4C" points="557.778,849.635 513.927,823.833 513.927,829.014 557.778,854.815 			"/>
			<polygon fill="#AF8764" points="557.778,849.635 513.927,823.833 520.511,820.596 564.362,846.399 			"/>
			<polygon fill="#88633E" points="603.728,827.049 564.252,850.278 564.252,855.458 603.728,832.233 			"/>
			<polygon fill="#AF8764" points="564.252,850.278 604.059,826.93 600.765,824.668 560.617,848.493 			"/>
			<polygon fill="#976F4C" points="560.864,875.514 561.211,780.075 557.778,777.331 557.778,873.741 			"/>
			<polygon fill="#88633E" points="560.864,875.514 561.211,780.075 567.859,775.116 567.859,871.53 			"/>
		</g>
		<g>
			<polygon fill="#88633E" points="427.461,797.803 466.942,821.026 466.942,826.209 427.461,802.983 			"/>
			<polygon fill="#AF8764" points="466.942,821.026 427.13,797.682 430.421,795.42 470.57,819.241 			"/>
			<polygon fill="#976F4C" points="383.873,822.793 427.722,796.993 427.722,802.172 383.873,827.977 			"/>
			<polygon fill="#AF8764" points="383.873,822.793 427.722,796.993 421.136,793.756 377.284,819.557 			"/>
			<polygon fill="#976F4C" points="474.639,848.032 474.294,789.159 477.732,786.415 477.732,846.26 			"/>
			<polygon fill="#88633E" points="474.639,848.032 474.294,789.159 467.652,784.204 467.652,844.042 			"/>
			<polygon fill="#73512D" points="427.165,760.112 427.165,817.489 377.348,788.731 377.348,783.274 			"/>
			<polygon fill="#805B37" points="427.533,759.897 477.732,783.274 477.732,788.354 427.165,817.487 			"/>
			<polygon fill="#946B43" points="427.888,754.612 477.732,783.274 427.348,812.51 377.348,783.274 			"/>
			<path fill="#79441A" d="M405.829,766.512c11.191-6.342,22.031-11.246,22.031-11.246s10.904,4.531,22.053,10.941
				c11.662,6.709,23.602,17.094,23.602,17.094l-46.146,26.773l-45.799-26.773C381.568,783.301,393.902,773.282,405.829,766.512z"/>
			<polygon fill="#976F4C" points="430.564,738.899 430.564,777.815 427.13,779.864 427.13,740.456 			"/>
			<polygon fill="#7D5C3B" points="384.485,850.459 384.14,755.016 387.579,752.272 387.579,848.686 			"/>
			<polygon fill="#88633E" points="384.485,850.459 384.14,750.057 377.495,750.057 377.495,846.475 			"/>
			<polygon fill="#88633E" points="377.358,711.834 427.13,740.456 427.13,779.864 377.348,750.219 			"/>
			<polygon fill="#C29064" points="377.358,711.834 427.13,740.456 430.564,738.899 381.672,709.366 			"/>
			<polygon fill="#976F4C" points="430.564,849.424 474.418,823.62 474.418,828.803 430.564,854.604 			"/>
			<polygon fill="#AF8764" points="430.564,849.424 474.418,823.62 467.828,820.383 423.978,846.188 			"/>
			<polygon fill="#88633E" points="384.616,826.836 424.092,850.065 424.092,855.245 384.616,832.018 			"/>
			<polygon fill="#AF8764" points="424.092,850.065 384.284,826.715 387.579,824.458 427.722,848.282 			"/>
			<polygon fill="#976F4C" points="427.475,875.303 427.13,779.864 430.564,777.118 430.564,873.528 			"/>
			<polygon fill="#88633E" points="427.475,875.303 427.13,779.864 420.487,774.901 420.487,871.315 			"/>
		</g>
	</g>
	<g>
		<polygon fill="#4F4D48" points="975.147,346.966 900.227,390.294 900.227,684.85 975.147,641.518 		"/>
		<polygon fill="#62615E" points="975.147,346.966 824.94,260.258 750.02,303.592 900.227,390.297 		"/>
		<polygon fill="#3B3B38" points="900.227,390.297 750.02,303.59 750.02,598.145 900.227,684.85 		"/>
		<polygon fill="#A6A5A5" points="897.212,391.636 884.949,398.728 884.949,693.282 897.212,686.192 		"/>
		<polygon fill="#D3D5D5" points="884.949,398.731 734.742,312.023 734.742,606.579 884.949,693.282 		"/>
		<polygon fill="#E6E7E7" points="777.097,336.476 777.097,631.028 851.229,673.819 851.229,379.266 		"/>
		<polygon fill="#3B3B38" points="807.938,354.277 807.938,648.827 811.357,650.801 811.357,356.25 		"/>
		<polygon fill="#E3E4E4" points="884.949,398.731 734.742,312.023 747.006,304.931 897.212,391.636 		"/>
		<polygon fill="#3B3B38" points="811.389,356.374 808.029,354.277 820.291,347.184 823.651,349.278 		"/>
		<path fill="#FCFCFB" stroke="#6E706F" stroke-width="0.25" stroke-miterlimit="10" d="M880.716,405.812
			c0,2.82-6.01,2.816-13.421,0c-7.41-2.816-13.422-7.387-13.422-10.207s6.012-2.813,13.422,0.003
			C874.706,398.425,880.716,402.993,880.716,405.812z"/>
		<g>
			<polygon fill="#B1B1B1" points="793.521,524.833 748.587,498.58 748.587,446.792 793.521,472.42 			"/>
			<polygon fill="#979696" points="788.942,516.874 753.172,495.978 753.172,468.715 788.942,489.117 			"/>
			<path fill="#C9CACA" d="M782.047,485.187c0,0,1.444,14.539-5.64,16.867l-5.835-2.83c0,0,10.797-1.621,8.681-15.632
				L782.047,485.187z"/>
			<path fill="#C9CACA" d="M765.48,475.957c0,0,1.444,14.539-5.64,16.866l-5.835-2.829c0,0,10.797-1.622,8.681-15.632
				L765.48,475.957z"/>
		</g>
		<g>
			<path fill="#8C9496" d="M821.263,538.364v-9.957c0,0-11.566-21.508,0-50.891v-8.596l-5.731-3.178v8.752
				c0,0-9.768,26.448,0,50.533v10.254L821.263,538.364z"/>
			<path fill="#B5C3C9" d="M820.383,538.364v-9.957c0,0-11.565-21.508,0-50.891v-8.596l-5.731-3.178v8.752
				c0,0-9.768,26.448,0,50.533v10.254L820.383,538.364z"/>
		</g>
		<g>
			<path fill="#8C9496" d="M804.474,531.559v-9.957c0,0-11.565-21.509,0-50.891v-8.596l-5.73-3.178v8.752c0,0-9.768,26.448,0,50.533
				v10.252L804.474,531.559z"/>
			<path fill="#B5C3C9" d="M803.595,531.559v-9.957c0,0-11.565-21.509,0-50.891v-8.596l-5.731-3.178v8.752
				c0,0-9.768,26.448,0,50.533v10.252L803.595,531.559z"/>
		</g>
	</g>
	<g>
		<polygon fill="#EFF0EF" points="194.744,537.674 90.049,598.745 90.049,702.114 194.744,641.387 		"/>
		<polygon fill="#D1D2D3" points="194.744,537.674 90.049,598.745 90.049,702.114 194.744,641.387 		"/>
		<polygon fill="#F9FAF9" points="191.339,619.481 162.455,636.331 162.455,655.327 191.339,638.571 		"/>
		<polygon fill="#E1E2E2" points="0.028,546.235 0.028,649.899 90.049,702.114 90.049,598.745 		"/>
		<g>
			<polygon fill="#C6C7C7" points="160.186,563.018 140.337,574.596 140.337,594.194 160.186,582.682 			"/>
			<polygon fill="#FEFEFE" points="160.186,563.018 140.337,574.596 134.997,572.584 154.846,561.073 			"/>
			<polygon fill="#DEE0DF" points="135.573,571.819 135.573,591.434 140.337,594.194 140.337,574.596 			"/>
		</g>
		<polygon fill="#707070" points="90.049,594.43 0.028,541.92 0.028,546.456 90.049,598.668 194.744,537.944 194.744,533.36 		"/>
		<polygon fill="#D1D2D3" points="194.744,519.684 90.049,580.754 90.049,595.813 194.744,535.088 		"/>
		<polygon fill="#EFF0EF" points="194.744,519.684 90.049,580.754 0.028,528.245 104.724,468.123 		"/>
		<polygon fill="#E1E2E2" points="0.028,528.245 0.028,543.6 90.049,595.813 90.049,580.754 		"/>
		<path fill="#424441" d="M189.538,633.444c-0.045,3.158-2.455,5.961-5.382,6.258c-2.937,0.299-5.274-2.016-5.229-5.178
			c0.04-3.158,2.455-5.955,5.389-6.258C187.246,627.971,189.584,630.282,189.538,633.444z"/>
		<path fill="#E6E7E7" d="M190.74,633.59c-0.046,3.051-2.377,5.752-5.2,6.043c-2.826,0.287-5.089-1.947-5.043-4.998
			c0.039-3.045,2.37-5.75,5.193-6.037C188.522,628.311,190.779,630.545,190.74,633.59z"/>
		<path fill="#8C9E4F" d="M176.898,639.118c-0.016,1.043-0.814,1.967-1.778,2.066c-0.964,0.096-1.739-0.666-1.723-1.711
			c0.013-1.039,0.811-1.963,1.774-2.061C176.14,637.313,176.911,638.077,176.898,639.118z"/>
		<path fill="#C76C52" d="M171.031,642.465c-0.016,1.043-0.813,1.967-1.778,2.064c-0.963,0.098-1.738-0.664-1.722-1.709
			c0.013-1.039,0.811-1.965,1.774-2.061C170.272,640.661,171.044,641.424,171.031,642.465z"/>
	</g>
</g>
</svg>
