<?xml version="1.0" encoding="utf-8"?>
<!-- Generator: Adobe Illustrator 16.0.0, SVG Export Plug-In . SVG Version: 6.00 Build 0)  -->
<!DOCTYPE svg PUBLIC "-//W3C//DTD SVG 1.1//EN" "http://www.w3.org/Graphics/SVG/1.1/DTD/svg11.dtd">
<svg version="1.1" id="Capa_1" xmlns="http://www.w3.org/2000/svg" xmlns:xlink="http://www.w3.org/1999/xlink" x="0px" y="0px"
	 width="989.998px" height="935.945px" viewBox="0 0 989.998 935.945" enable-background="new 0 0 989.998 935.945"
	 xml:space="preserve">
<g>
	<polygon fill="#EAD69E" points="494.877,364.243 0,650.12 495.033,935.945 989.998,650.12 	"/>
	<polygon fill="#F0F2C8" points="494.877,364.229 0,650.094 0,285.864 494.877,0 	"/>
	<g>
		<polygon fill="#CCDB9D" points="494.877,364.229 989.998,650.094 989.998,285.864 494.877,0 		"/>
		<polygon fill="#DAE4B0" points="749.588,147.058 749.588,511.287 756.758,515.426 756.758,151.195 		"/>
		<polygon fill="#DAE4B0" points="523.367,16.449 513.696,10.865 513.696,375.096 523.367,380.68 		"/>
		<polygon fill="#DAE4B0" points="561.71,38.587 552.873,33.484 552.873,397.715 561.71,402.816 		"/>
		<polygon fill="#DAE4B0" points="606.721,64.573 600.385,60.913 600.385,425.143 606.721,428.803 		"/>
		<polygon fill="#DAE4B0" points="635.061,80.935 627.891,76.796 627.891,441.025 635.061,445.164 		"/>
		<polygon fill="#DAE4B0" points="658.732,94.6 658.732,458.83 669.236,464.896 669.236,100.666 		"/>
		<polygon fill="#DAE4B0" points="701.242,119.144 701.242,483.373 707.578,487.033 707.578,122.804 		"/>
		<polygon fill="#DAE4B0" points="787.931,169.195 787.931,533.425 796.768,538.527 796.768,174.297 		"/>
		<polygon fill="#DAE4B0" points="847.945,203.846 847.945,568.075 853.447,571.253 853.447,207.023 		"/>
		<polygon fill="#DAE4B0" points="884.621,225.022 884.621,589.252 900.126,598.203 900.126,233.974 		"/>
		<polygon fill="#DAE4B0" points="943.802,259.191 943.802,623.421 959.307,632.371 959.307,268.142 		"/>
	</g>
	<polygon fill="#C8AB79" points="494.877,364.229 989.998,650.094 989.998,641.576 494.877,355.712 	"/>
	<polygon fill="#D4BB86" points="494.877,364.229 0,650.094 0,641.576 494.877,355.712 	"/>
	<g>
		<polygon fill="#A9CFD3" points="83.592,489.951 412.78,299.91 412.78,125.232 83.592,315.324 		"/>
		<path fill="#96BABB" d="M412.78,210.898l-12.054,2.695h-4.448c0,0-5.698,5.562-6.46,7.229s-1.875,6.174-6.323,6.975
			c-4.44,0.801-13.89,13.03-13.89,13.03v10.556l-9.866,7.782l-4.896,6.655c0,0,3.646,5.567,1.426,6.682
			c-2.221,1.106-6.114,3.334-8.335,5.001s-9.156,7.749-9.156,7.749s0.293,10.028,0,11.695c-0.293,1.668-5.294,11.931-5.294,11.931
			l-2.774,11.409l2.221,10.158l2.221,17.628l80.579-47.792L412.78,210.898z"/>
		<path fill="#96BABB" d="M277.688,377.814c-4.22-2.514-5.333-4.734-9.774-4.734c-4.448,0-3.334,4.447-7.782,0
			c-4.441-4.448-6.668-8.89-7.222-9.17c-0.554-0.279-8.889,3.615-8.889,3.615s-3.888-4.448-6.669-3.615
			c-2.78,0.834-2.78,0.834-5.001-3.613c-2.227-4.441-2.78-13.33-5.562-12.224c-2.774,1.114-3.888-1.106-8.335,0
			c-4.441,1.114-8.889,5.112-10.557,4.5c-1.666-0.612-11.669-4.819-11.669-4.819l-8.335-13.57l-10.582-5.562l-16.065,1.823
			l-18.917,4.846v4.721l-11.674,3.614c0,0-8.335,11.683-8.335,13.343s0,13.33,0,14.997s4.444,7.463,0,9.013
			s-5.555-1.784-7.778,9.886c-2.225,11.669-6.086,20.558-4.988,23.339c1.098,2.773,9.433,15.004,6.099,20.559
			c-3.335,5.555-6.291,15.563-6.291,15.563l-4.542,15.558l4.734,13.336C109.555,479.219,281.901,380.327,277.688,377.814z"/>
		<path opacity="0.2" fill="#DAEAEC" d="M255.371,351.877c-28.691-28.686-57.37-57.371-86.056-86.057l-65.225,37.666
			c8.247,8.25,16.495,16.494,24.746,24.745c28.652,28.659,57.312,57.313,85.965,85.972l65.23-37.659
			C271.814,368.319,263.59,360.102,255.371,351.877z"/>
		<path opacity="0.2" fill="#DAEAEC" d="M350.994,297.469c-28.855-28.854-57.71-57.709-86.564-86.57l-53.606,30.951
			c20.584,20.584,41.162,41.162,61.747,61.74l48.982,48.983l53.601-30.945L350.994,297.469z"/>
		<polygon fill="#83A7A5" points="412.78,125.962 405.754,125.962 405.754,296.381 354.843,325.77 354.843,154.36 346.924,154.36 
			346.924,330.342 138.852,450.462 138.852,281.808 130.934,281.808 130.934,455.033 80.257,484.292 80.257,491.794 
			137.895,458.518 138.852,458.518 138.852,457.964 412.78,299.826 		"/>
		<g>
			<polygon fill="none" points="135.518,285.252 83.592,315.24 83.592,489.866 135.518,459.892 			"/>
			<polygon fill="none" points="352.654,159.87 142.604,281.162 142.604,455.802 352.654,334.535 			"/>
			<polygon fill="none" points="359.739,330.445 412.78,299.826 412.78,125.147 359.739,155.78 			"/>
			<path fill="#CB9551" d="M419.807,112.69L74.722,311.958v190.528l345.085-199.216V112.69z M83.592,315.24l51.926-29.988v174.64
				l-51.926,29.975V315.24z M142.604,281.162L352.654,159.87v174.665L142.604,455.802V281.162z M412.78,299.826l-53.041,30.619
				V155.78l53.041-30.633V299.826z"/>
		</g>
	</g>
	<g>
		<polygon opacity="0.4" fill="#171A17" points="423.922,409.879 499.8,453.64 499.8,476.842 629.467,552.86 720.361,499.921 
			720.361,447.018 493.105,364.243 		"/>
		<polygon fill="#2B2C29" points="720.102,502.223 713.413,498.237 713.413,484.761 720.102,484.761 		"/>
		<polygon fill="#393A36" points="629.955,555.853 638.154,550.969 638.154,541.422 720.017,494.216 720.017,502.223 
			726.704,498.237 726.704,394.853 629.955,453.441 		"/>
		<polygon fill="#2B2C29" points="419.729,434.081 427.934,429.197 427.934,419.65 509.789,372.445 509.789,380.451 
			516.483,376.466 516.483,273.081 419.729,331.67 		"/>
		<polygon fill="#454644" points="495.078,374.707 495.078,468.396 621.549,541.369 621.549,550.952 629.955,555.853 
			629.955,453.441 		"/>
		<polygon fill="#454644" points="419.729,330.732 411.939,326.187 411.939,429.571 419.729,434.081 		"/>
		<polygon fill="#D3B174" points="629.955,442.179 404.75,329.367 404.75,336.746 629.955,466.569 629.955,466.569 		"/>
		<polygon fill="#B99866" points="629.955,466.569 734.832,406.242 734.832,398.864 629.955,439.262 		"/>
		<polygon fill="#EDC97A" points="629.955,459.471 404.75,329.647 509.867,269.018 734.832,399.145 		"/>
		<g>
			<polygon fill="#2C2D2A" points="614.606,468.067 569.791,442.146 569.791,459.373 614.606,485.295 			"/>
			<polygon fill="#959493" points="599.193,463.245 587.295,456.365 587.295,460.939 599.193,467.819 			"/>
		</g>
		<g>
			<polygon fill="#2C2D2A" points="554.625,433.466 509.92,407.604 509.92,424.83 554.625,450.693 			"/>
			<polygon fill="#959493" points="538.208,428.387 526.336,421.522 526.336,426.094 538.208,432.961 			"/>
		</g>
		<g>
			<polygon fill="#2C2D2A" points="614.606,491.901 569.791,465.98 569.791,483.207 614.606,509.129 			"/>
			<polygon fill="#959493" points="599.193,487.079 587.295,480.199 587.295,484.773 599.193,491.653 			"/>
		</g>
		<g>
			<polygon fill="#2C2D2A" points="554.625,457.3 509.92,431.438 509.92,448.664 554.625,474.527 			"/>
			<polygon fill="#959493" points="538.208,452.221 526.336,445.356 526.336,449.928 538.208,456.795 			"/>
		</g>
		<g>
			<polygon fill="#2C2D2A" points="614.606,515.109 569.791,489.188 569.791,506.416 614.606,532.338 			"/>
			<polygon fill="#959493" points="599.193,510.288 587.295,503.408 587.295,507.982 599.193,514.862 			"/>
		</g>
		<g>
			<polygon fill="#2C2D2A" points="554.625,480.508 509.92,454.646 509.92,471.873 554.625,497.736 			"/>
			<polygon fill="#959493" points="538.208,475.429 526.336,468.565 526.336,473.137 538.208,480.004 			"/>
		</g>
	</g>
	<g>
		<g>
			<polygon fill="#7B7C7C" points="569.348,321.892 539.81,339.475 509.867,321.974 509.867,320.932 			"/>
			<polygon fill="#A8A7A7" points="569.348,320.85 539.81,338.433 509.867,320.932 539.328,303.496 			"/>
			<polygon fill="#8B8B8A" points="569.348,320.85 551.597,331.318 521.654,313.817 539.328,303.496 			"/>
			<polygon fill="#C0C1C1" points="589.627,257.684 484.764,197.295 479.899,199.795 584.346,341.51 			"/>
			<polygon fill="#959493" points="584.678,260.497 584.769,347.064 589.627,344.371 589.627,257.684 			"/>
			<polygon fill="#F4F5F4" points="584.769,260.428 479.899,199.795 479.899,286.443 584.769,347.064 			"/>
			<polygon fill="#2F302D" points="584.769,260.428 479.899,199.795 479.899,273.43 584.769,334.05 			"/>
			<polygon fill="#8B8A95" points="578.374,263.753 485.799,210.228 485.799,270.414 578.374,323.927 			"/>
			<linearGradient id="SVGID_1_" gradientUnits="userSpaceOnUse" x1="469.1577" y1="284.8799" x2="584.1909" y2="252.6473">
				<stop  offset="0" style="stop-color:#00173E"/>
				<stop  offset="0.1907" style="stop-color:#261E6A"/>
				<stop  offset="0.383" style="stop-color:#4C1A72"/>
				<stop  offset="0.4897" style="stop-color:#571875"/>
				<stop  offset="0.7116" style="stop-color:#944C8D"/>
				<stop  offset="1" style="stop-color:#C1A2C7"/>
			</linearGradient>
			<polygon fill="url(#SVGID_1_)" points="578.479,264.014 486.528,210.85 486.528,270.258 578.479,323.409 			"/>
			<path fill="#5D5E5D" d="M529.572,307.614c0,2.272-0.977,4.116-2.188,4.116c-1.205,0-2.188-1.844-2.188-4.116
				c0-2.276,0.982-4.118,2.188-4.118C528.596,303.496,529.572,305.338,529.572,307.614z"/>
		</g>
		<g>
			<polygon fill="#7F7F7F" points="515.722,376.476 455.76,341.776 455.76,340.236 545.729,357.535 545.729,359.075 			"/>
			<polygon fill="#A8A7A7" points="515.722,374.936 455.76,340.236 485.767,323.048 545.729,357.535 			"/>
			<g>
				<polygon fill="#898988" points="516.08,371.494 461.686,340.112 461.686,339.38 540.266,356.734 540.266,357.471 				"/>
				<polygon fill="#ECEDEC" points="516.08,370.674 461.686,339.292 485.871,325.441 540.266,356.65 				"/>
				<polygon fill="#898988" points="511.697,368.137 511.229,367.877 535.701,353.886 535.948,354.162 				"/>
				<polygon fill="#898988" points="507.256,365.708 506.794,365.447 531.266,351.457 531.507,351.733 				"/>
				<polygon fill="#898988" points="503.088,363.236 502.626,362.977 527.099,348.985 527.339,349.262 				"/>
				<polygon fill="#898988" points="503.545,358.008 503.082,357.747 522.657,346.557 522.904,346.833 				"/>
				<polygon fill="#898988" points="499.429,355.351 498.967,355.09 518.541,343.899 518.789,344.176 				"/>
				<polygon fill="#898988" points="494.994,352.922 494.525,352.661 514.107,341.471 514.348,341.747 				"/>
				<polygon fill="#898988" points="490.826,350.45 490.357,350.189 509.939,338.999 510.18,339.275 				"/>
				<polygon fill="#898988" points="486.841,348.227 486.372,347.966 505.954,336.775 506.195,337.052 				"/>
				<polygon fill="#898988" points="482.635,345.798 482.172,345.537 501.747,334.346 501.994,334.623 				"/>
				<polygon fill="#898988" points="473.303,346.169 472.84,345.908 497.313,331.917 497.553,332.194 				"/>
				<polygon fill="#898988" points="469.135,343.697 468.673,343.438 493.145,329.445 493.386,329.723 				"/>
				<polygon fill="#898988" points="465.149,341.474 464.688,341.213 489.159,327.223 489.4,327.499 				"/>
				<polygon fill="#898988" points="521.107,368.251 466.713,336.957 467.038,336.775 521.433,368.068 				"/>
				<polygon fill="#898988" points="526.375,365.142 471.98,333.848 472.307,333.666 526.701,364.959 				"/>
				<polygon fill="#898988" points="530.576,362.293 476.181,330.999 476.513,330.816 530.908,362.11 				"/>
				<polygon fill="#898988" points="535.069,359.639 480.674,328.346 481.006,328.163 535.401,359.457 				"/>
			</g>
		</g>
		<g>
			<path fill="#898988" d="M547.807,384.459c-2.977,1.674-7.704,1.287-10.582-0.84l0,0c-2.865-2.143-2.794-5.216,0.182-6.883
				l7.138-3.998c2.97-1.658,7.71-1.273,10.575,0.855l0,0c2.885,2.133,2.801,5.21-0.162,6.871L547.807,384.459z"/>
			<path fill="#F4F5F4" d="M547.741,383.473c-2.982,1.674-7.71,1.286-10.589-0.84l0,0c-2.865-2.143-2.031-3.695,0.43-6.509
				l6.962-5.313c2.97-1.658,7.71-1.273,10.575,0.855l0,0c2.885,2.133,2.801,5.21-0.162,6.871L547.741,383.473z"/>
			<path fill="#898988" d="M551.948,370.039c0.476,0.318,0.501,0.82,0.059,1.113l-2.585,1.735c-0.443,0.296-1.199,0.273-1.674-0.046
				l0,0c-0.482-0.318-0.508-0.82-0.065-1.117l2.592-1.734C550.717,369.693,551.467,369.716,551.948,370.039L551.948,370.039z"/>
		</g>
	</g>
	<g>
		<polygon fill="#F3D75F" points="419.807,184.026 74.722,383.33 80.557,386.716 425.869,187.445 		"/>
		<polygon fill="#F3D75F" points="419.807,175.082 74.722,374.385 80.557,377.771 425.869,178.501 		"/>
		<polygon fill="#F3D75F" points="419.807,166.141 74.722,365.441 80.557,368.827 425.869,169.56 		"/>
		<polygon fill="#F3D75F" points="419.807,157.197 74.722,356.5 80.557,359.887 425.869,160.615 		"/>
		<polygon fill="#F3D75F" points="419.807,148.252 74.722,347.556 80.557,350.942 425.869,151.671 		"/>
		<polygon fill="#F3D75F" points="419.807,139.309 74.722,338.611 80.557,341.998 425.869,142.727 		"/>
		<polygon fill="#F3D75F" points="419.807,130.364 74.722,329.671 80.557,333.057 425.869,133.783 		"/>
		<polygon fill="#F3D75F" points="419.807,121.423 74.722,320.727 80.557,324.112 425.869,124.842 		"/>
		<path fill="#C88353" d="M132.574,357.529c-0.459,0-0.833-0.375-0.833-0.834v-74.96c0-0.459,0.374-0.833,0.833-0.833
			c0.463,0,0.834,0.374,0.834,0.833v74.96C133.408,357.154,133.037,357.529,132.574,357.529z"/>
		<path fill="#C88353" d="M364.604,222.34c-0.462,0-0.833-0.375-0.833-0.834v-74.959c0-0.46,0.371-0.834,0.833-0.834
			c0.456,0,0.834,0.374,0.834,0.834v74.959C365.438,221.965,365.06,222.34,364.604,222.34z"/>
		<path fill="#613613" d="M80.257,539.387c-1.758,0-3.185-1.43-3.185-3.185V306.843c0-1.755,1.427-3.185,3.185-3.185
			c1.752,0,3.182,1.43,3.182,3.185v229.359C83.438,537.957,82.009,539.387,80.257,539.387z M80.257,304.492
			c-1.296,0-2.351,1.055-2.351,2.351v229.359c0,1.296,1.055,2.351,2.351,2.351s2.348-1.055,2.348-2.351V306.843
			C82.604,305.547,81.553,304.492,80.257,304.492z"/>
		<polygon fill="#F6E28B" points="419.807,106.188 74.722,305.491 80.557,308.878 425.869,109.607 		"/>
		<polygon fill="#F3D75F" points="425.869,109.574 80.257,308.878 80.257,315.168 425.869,115.897 		"/>
		<polygon fill="#E4C042" points="80.257,315.168 74.722,311.958 74.722,305.491 80.257,308.878 		"/>
	</g>
	<g>
		<polygon fill="#232522" points="651.959,293.832 697.322,320.127 697.322,341.158 651.959,314.862 		"/>
		<polygon fill="#0E1210" points="576.947,393.563 622.167,419.507 651.751,402.137 607.196,376.31 		"/>
		<polygon fill="#E1E2E2" points="579.396,399.232 613.024,418.523 649.296,396.497 616.163,377.289 		"/>
		<polygon fill="#E1E2E2" points="689.104,352.326 659.201,334.906 659.201,289.72 689.104,306.684 		"/>
		<polygon fill="#232522" points="712.026,350.294 667.126,376.241 667.126,410.989 712.026,385.042 		"/>
		<polygon fill="#333531" points="592.192,332.807 667.126,376.241 667.126,410.989 592.192,367.555 		"/>
		<polygon fill="#232522" points="607.196,355.65 651.751,381.477 651.751,402.137 607.196,376.31 		"/>
		<polygon fill="#080F0D" points="592.192,332.807 667.126,376.241 712.026,350.294 636.956,307.106 		"/>
		<polygon fill="#535553" points="592.192,331.139 667.126,374.574 712.026,348.627 636.956,305.439 		"/>
		<polygon fill="#9A9998" points="639.079,337.515 654.929,346.699 664.424,341.213 648.547,332.08 		"/>
	</g>
	<g>
		<polygon opacity="0.4" fill="#171A17" points="914.752,658.481 704.844,537.176 750.03,511.189 959.938,632.495 		"/>
		<polygon fill="#755A39" points="959.938,355.673 750.03,234.367 750.03,504.746 959.938,626.052 		"/>
		<polygon fill="#AB7A4B" points="750.219,234.208 705.032,260.193 705.032,530.572 750.219,504.586 		"/>
		<polygon fill="#D1A374" points="914.752,572.299 704.844,450.992 750.03,425.006 959.938,546.313 		"/>
		<polygon fill="#AB7A4B" points="755.045,534.076 741.161,542.063 741.161,558.76 755.045,550.773 		"/>
		<polygon fill="#AB7A4B" points="920.124,629.379 906.234,637.366 906.234,654.063 920.124,646.076 		"/>
		<polygon fill="#BE8A53" points="710.965,454.571 710.965,541.386 741.154,558.884 741.154,551.714 870.034,626.195 
			870.034,633.017 906.234,654.063 906.234,567.418 		"/>
		<polygon fill="#A07141" points="826.943,529.104 826.943,592.596 906.234,638.35 906.234,574.926 		"/>
		<polygon fill="#A07141" points="778.318,501.002 710.965,462.079 710.965,525.672 778.318,564.536 		"/>
		<polygon fill="#A07141" points="781.652,502.93 781.652,566.461 823.609,590.672 823.609,527.177 		"/>
		<polygon fill="#81572D" points="787.833,515.826 787.833,525.164 817.632,542.359 817.632,533.047 		"/>
		<polygon fill="#81572D" points="847.938,550.835 847.938,560.173 877.737,577.368 877.737,568.056 		"/>
		<polygon fill="#81572D" points="727.525,480.844 727.525,490.182 757.324,507.377 757.324,498.064 		"/>
		<g>
			<g>
				<g>
					<polygon fill="#E1B46D" points="780.546,491.946 743.414,470.333 743.414,401.237 780.546,422.851 					"/>
					<polygon fill="#CC9C58" points="780.546,491.946 825.473,465.723 825.473,396.627 780.546,422.851 					"/>
					<polygon fill="#E9C185" points="743.414,401.237 788.341,375.014 825.473,396.627 780.546,422.851 					"/>
				</g>
				<polygon fill="#B1B1B1" points="775.662,487.229 743.414,468.458 743.414,408.449 775.662,427.221 				"/>
				<polygon fill="#989796" points="775.662,487.229 778.059,485.92 778.059,425.912 775.662,427.221 				"/>
				<polygon fill="#A8A7A7" points="743.414,408.449 745.805,407.141 778.059,425.912 775.662,427.221 				"/>
				<path fill="#989796" d="M768.681,458.335c0.749,8.603-3.21,15.899-8.823,16.271c-5.627,0.374-10.791-6.32-11.546-14.92
					c-0.749-8.611,3.197-15.912,8.823-16.286C762.748,443.028,767.926,449.723,768.681,458.335z"/>
				<path fill="#B1B1B1" d="M762.488,458.742c0.293,3.369-1.264,6.229-3.458,6.372c-2.208,0.146-4.227-2.475-4.526-5.845
					c-0.293-3.373,1.257-6.232,3.458-6.379C760.163,452.748,762.188,455.369,762.488,458.742z"/>
				<path fill="#989796" d="M763.523,432.049c0.364,4.246-1.589,7.844-4.356,8.026c-2.774,0.186-5.32-3.116-5.691-7.358
					c-0.371-4.249,1.575-7.851,4.35-8.033C760.593,424.502,763.146,427.803,763.523,432.049z"/>
				<path fill="#B1B1B1" d="M760.469,432.251c0.144,1.664-0.625,3.073-1.705,3.142c-1.095,0.075-2.091-1.217-2.234-2.881
					c-0.143-1.664,0.619-3.074,1.706-3.146C759.316,429.295,760.319,430.587,760.469,432.251z"/>
			</g>
			<g>
				<polygon fill="#474846" points="827.478,519.411 782.552,493.188 782.552,424.092 827.478,450.315 				"/>
				<polygon fill="#333531" points="827.478,519.411 872.404,493.188 872.404,424.092 827.478,450.315 				"/>
				<polygon fill="#585958" points="782.552,424.092 827.478,397.867 872.404,424.092 827.478,450.315 				"/>
				<polygon fill="#CECFD0" points="824.782,514.999 784.439,491.451 784.439,428.021 824.782,451.568 				"/>
				<polygon fill="#98B13B" points="821.767,461.35 787.455,441.319 787.455,432.518 821.767,452.549 				"/>
				<polygon fill="#A1A0A0" points="797.047,449.059 787.455,443.458 787.455,460.526 797.047,466.127 				"/>
				<polygon fill="#A1A0A0" points="812.695,458.191 812.695,475.26 821.767,480.557 821.767,463.489 				"/>
				<polygon fill="#B9B9B9" points="824.782,513.192 784.439,489.645 784.439,476.172 824.782,499.719 				"/>
				<polygon fill="#848484" points="824.782,508.051 784.439,484.504 784.439,481.313 824.782,504.859 				"/>
				<polygon fill="#A1A0A0" points="824.782,498.188 784.439,474.641 784.439,461.168 824.782,484.715 				"/>
				<polygon fill="#848484" points="824.782,493.047 784.439,469.5 784.439,466.309 824.782,489.856 				"/>
				<g>
					<path fill="#474846" d="M810.494,461.356c0.15,4.93-2.676,8.928-6.31,8.928c-3.641,0-6.714-3.998-6.884-8.928
						c-0.149-4.93,2.67-8.938,6.311-8.938C807.245,452.419,810.325,456.427,810.494,461.356z"/>
					<path fill="#ACABAB" d="M808.756,461.356c-0.117-3.522-2.162-6.407-4.695-6.831v-0.085h-3.165v0.978
						c-1.472,1.197-2.422,3.398-2.344,5.938c0.085,2.325,1.003,4.37,2.344,5.626v1.283h3.165v-0.025
						C806.789,468.104,808.873,465.081,808.756,461.356z"/>
					<path fill="#F4F5F4" d="M806.529,461.356c0.123,3.81-2.064,6.909-4.878,6.909c-2.819,0-5.196-3.1-5.327-6.909
						c-0.117-3.815,2.064-6.916,4.878-6.916S806.405,457.541,806.529,461.356z"/>
				</g>
			</g>
			<g>
				<g>
					<polygon fill="#E1B46D" points="868.51,543.076 831.379,521.463 831.379,452.367 868.51,473.98 					"/>
					<polygon fill="#CC9C58" points="868.51,543.076 913.437,516.852 913.437,447.756 868.51,473.98 					"/>
					<polygon fill="#E9C185" points="831.379,452.367 876.305,426.143 913.437,447.756 868.51,473.98 					"/>
				</g>
				<polygon fill="#B1B1B1" points="863.626,538.357 831.379,519.587 831.379,459.578 863.626,478.35 				"/>
				<polygon fill="#989796" points="863.626,538.357 866.022,537.049 866.022,477.041 863.626,478.35 				"/>
				<polygon fill="#A8A7A7" points="831.379,459.578 833.769,458.27 866.022,477.041 863.626,478.35 				"/>
				<path fill="#989796" d="M856.646,509.464c0.749,8.603-3.211,15.899-8.824,16.271c-5.626,0.374-10.79-6.32-11.546-14.919
					c-0.749-8.612,3.197-15.912,8.824-16.287C850.713,494.157,855.89,500.852,856.646,509.464z"/>
				<path fill="#B1B1B1" d="M850.452,509.871c0.293,3.37-1.263,6.229-3.458,6.372c-2.207,0.146-4.227-2.475-4.525-5.845
					c-0.293-3.373,1.257-6.232,3.457-6.379C848.127,503.877,850.152,506.498,850.452,509.871z"/>
				<path fill="#989796" d="M851.487,483.178c0.365,4.246-1.589,7.844-4.356,8.026c-2.773,0.186-5.32-3.116-5.691-7.358
					c-0.371-4.249,1.576-7.851,4.35-8.032C848.557,475.631,851.109,478.933,851.487,483.178z"/>
				<path fill="#B1B1B1" d="M848.434,483.38c0.143,1.664-0.625,3.074-1.706,3.143c-1.095,0.074-2.091-1.218-2.233-2.882
					c-0.144-1.664,0.618-3.074,1.706-3.146C847.281,480.424,848.283,481.717,848.434,483.38z"/>
			</g>
		</g>
		<rect x="871.323" y="468.266" fill="#BE8A53" width="6.414" height="84.148"/>
		<g>
			<polygon fill="#E6E7E7" points="906.566,565.783 877.737,549.002 877.737,543.753 906.566,560.534 			"/>
			<polygon fill="#373834" points="906.566,560.388 877.737,543.606 877.737,540.982 906.566,557.764 			"/>
			<polygon fill="#E6E7E7" points="906.566,558.004 877.737,541.223 877.737,535.975 906.566,552.756 			"/>
			<polygon fill="#373834" points="906.566,552.609 877.737,535.828 877.737,533.203 906.566,549.984 			"/>
			<polygon fill="#E6E7E7" points="906.566,550.086 877.737,533.305 877.737,528.056 906.566,544.837 			"/>
			<polygon fill="#373834" points="906.566,544.69 877.737,527.909 877.737,525.285 906.566,542.066 			"/>
			<polygon fill="#E6E7E7" points="906.566,542.308 877.737,525.525 877.737,520.277 906.566,537.059 			"/>
			<polygon fill="#373834" points="906.566,536.912 877.737,520.131 877.737,517.506 906.566,534.288 			"/>
			<polygon fill="#E6E7E7" points="906.566,534.271 877.737,517.49 877.737,512.241 906.566,529.022 			"/>
			<polygon fill="#373834" points="906.566,528.876 877.737,512.095 877.737,509.471 906.566,526.252 			"/>
			<polygon fill="#E6E7E7" points="906.566,526.493 877.737,509.711 877.737,504.463 906.566,521.244 			"/>
			<polygon fill="#373834" points="906.566,521.098 877.737,504.316 877.737,501.691 906.566,518.474 			"/>
			<polygon fill="#E6E7E7" points="906.566,518.574 877.737,501.793 877.737,496.544 906.566,513.326 			"/>
			<polygon fill="#373834" points="906.566,513.179 877.737,496.397 877.737,493.773 906.566,510.555 			"/>
			<polygon fill="#E6E7E7" points="906.566,510.796 877.737,494.014 877.737,488.766 906.566,505.547 			"/>
			<polygon fill="#F6F7F6" points="906.566,502.962 877.737,486.18 906.566,473.98 			"/>
			<polygon fill="#373834" points="906.566,505.4 877.737,488.619 877.737,485.994 906.566,502.776 			"/>
		</g>
		<g>
			<polygon fill="#E6E7E7" points="740.275,470.389 711.44,453.607 711.44,448.358 740.275,465.14 			"/>
			<polygon fill="#373834" points="740.275,464.993 711.44,448.212 711.44,445.588 740.275,462.369 			"/>
			<polygon fill="#E6E7E7" points="740.275,462.61 711.44,445.828 711.44,440.58 740.275,457.361 			"/>
			<polygon fill="#373834" points="740.275,457.215 711.44,440.434 711.44,437.809 740.275,454.591 			"/>
			<polygon fill="#E6E7E7" points="740.275,454.691 711.44,437.91 711.44,432.661 740.275,449.442 			"/>
			<polygon fill="#373834" points="740.275,449.296 711.44,432.515 711.44,429.891 740.275,446.672 			"/>
			<polygon fill="#E6E7E7" points="740.275,446.913 711.44,430.131 711.44,424.883 740.275,441.664 			"/>
			<polygon fill="#373834" points="740.275,441.518 711.44,424.736 711.44,422.111 740.275,438.894 			"/>
			<polygon fill="#E6E7E7" points="740.275,438.877 711.44,422.096 711.44,416.847 740.275,433.629 			"/>
			<polygon fill="#373834" points="740.275,433.481 711.44,416.7 711.44,414.076 740.275,430.857 			"/>
			<polygon fill="#E6E7E7" points="740.275,431.099 711.44,414.316 711.44,409.068 740.275,425.85 			"/>
			<polygon fill="#373834" points="740.275,425.703 711.44,408.922 711.44,406.297 740.275,423.079 			"/>
			<polygon fill="#E6E7E7" points="740.275,423.18 711.44,406.398 711.44,401.149 740.275,417.932 			"/>
			<polygon fill="#373834" points="740.275,417.785 711.44,401.003 711.44,398.379 740.275,415.16 			"/>
			<polygon fill="#E6E7E7" points="740.275,415.401 711.44,398.619 711.44,393.371 740.275,410.152 			"/>
			<polygon fill="#F6F7F6" points="740.275,407.567 711.44,390.786 740.275,378.586 			"/>
			<polygon fill="#373834" points="740.275,410.006 711.44,393.225 711.44,390.6 740.275,407.382 			"/>
		</g>
		<polygon fill="#D1A374" points="914.752,381.659 704.844,260.354 750.03,234.367 959.938,355.673 		"/>
		<polygon fill="#D1A374" points="914.752,487.336 704.844,366.03 750.03,340.044 959.938,461.35 		"/>
		<polygon fill="#D1A374" points="914.752,436.39 704.844,315.084 750.03,289.098 959.938,410.403 		"/>
		<polygon fill="#BE8A53" points="710.965,369.563 710.965,378.052 906.234,490.898 906.234,482.41 		"/>
		<polygon fill="#AB7A4B" points="959.938,355.673 914.752,381.659 914.752,652.038 959.938,626.052 		"/>
		<rect x="737.071" y="389.74" fill="#BE8A53" width="6.408" height="84.148"/>
		<g>
			<polygon fill="#486897" points="722.576,374.884 711.799,368.84 711.799,328.121 722.576,334.164 			"/>
			<polygon fill="#32577C" points="717.425,331.279 717.425,371.998 722.576,374.884 722.576,334.164 			"/>
			<polygon fill="#E7B858" points="722.576,367.438 711.799,361.394 711.799,359.519 722.576,365.562 			"/>
			<polygon fill="#E7B858" points="722.576,345.569 711.799,339.526 711.799,337.651 722.576,343.694 			"/>
		</g>
		<g>
			<polygon fill="#486897" points="733.354,380.927 722.576,374.884 722.576,334.164 733.354,340.207 			"/>
			<polygon fill="#32577C" points="728.202,337.322 728.202,378.042 733.354,380.927 733.354,340.207 			"/>
			<polygon fill="#E7B858" points="733.354,373.48 722.576,367.438 722.576,365.562 733.354,371.604 			"/>
			<polygon fill="#E7B858" points="733.354,351.613 722.576,345.569 722.576,343.694 733.354,349.737 			"/>
		</g>
		<g>
			<polygon fill="#486897" points="744.131,387.067 733.354,381.024 733.354,340.305 744.131,346.348 			"/>
			<polygon fill="#32577C" points="738.979,343.463 738.979,384.183 744.131,387.067 744.131,346.348 			"/>
			<polygon fill="#E7B858" points="744.131,379.621 733.354,373.578 733.354,371.702 744.131,377.746 			"/>
			<polygon fill="#E7B858" points="744.131,357.754 733.354,351.711 733.354,349.835 744.131,355.878 			"/>
		</g>
		<g>
			<polygon fill="#486897" points="754.908,393.11 744.131,387.067 744.131,346.348 754.908,352.391 			"/>
			<polygon fill="#32577C" points="749.757,349.506 749.757,390.226 754.908,393.11 754.908,352.391 			"/>
			<polygon fill="#E7B858" points="754.908,385.664 744.131,379.621 744.131,377.746 754.908,383.789 			"/>
			<polygon fill="#E7B858" points="754.908,363.797 744.131,357.754 744.131,355.878 754.908,361.922 			"/>
		</g>
		<g>
			<polygon fill="#486897" points="765.686,399.35 754.908,393.306 754.908,352.586 765.686,358.629 			"/>
			<polygon fill="#32577C" points="760.534,355.744 760.534,396.465 765.686,399.35 765.686,358.629 			"/>
			<polygon fill="#E7B858" points="765.686,391.902 754.908,385.859 754.908,383.984 765.686,390.027 			"/>
			<polygon fill="#E7B858" points="765.686,370.035 754.908,363.992 754.908,362.117 765.686,368.16 			"/>
		</g>
		<g>
			<polygon fill="#486897" points="776.463,405.393 765.686,399.35 765.686,358.629 776.463,364.673 			"/>
			<polygon fill="#32577C" points="771.312,361.788 771.312,402.508 776.463,405.393 776.463,364.673 			"/>
			<polygon fill="#E7B858" points="776.463,397.945 765.686,391.902 765.686,390.027 776.463,396.07 			"/>
			<polygon fill="#E7B858" points="776.463,376.078 765.686,370.035 765.686,368.16 776.463,374.203 			"/>
		</g>
		<g>
			<polygon fill="#486897" points="787.24,411.533 776.463,405.49 776.463,364.771 787.24,370.813 			"/>
			<polygon fill="#32577C" points="782.089,367.929 782.089,408.648 787.24,411.533 787.24,370.813 			"/>
			<polygon fill="#E7B858" points="787.24,404.087 776.463,398.043 776.463,396.168 787.24,402.211 			"/>
			<polygon fill="#E7B858" points="787.24,382.219 776.463,376.176 776.463,374.301 787.24,380.344 			"/>
		</g>
		<g>
			<polygon fill="#486897" points="798.018,417.576 787.24,411.533 787.24,370.813 798.018,376.856 			"/>
			<polygon fill="#32577C" points="792.866,373.972 792.866,414.691 798.018,417.576 798.018,376.856 			"/>
			<polygon fill="#E7B858" points="798.018,410.13 787.24,404.087 787.24,402.211 798.018,408.254 			"/>
			<polygon fill="#E7B858" points="798.018,388.263 787.24,382.219 787.24,380.344 798.018,386.387 			"/>
		</g>
		<g>
			<polygon fill="#9E3E33" points="808.795,424.557 798.018,418.514 798.018,377.795 808.795,383.838 			"/>
			<polygon fill="#731E22" points="803.644,380.953 803.644,421.672 808.795,424.557 808.795,383.838 			"/>
			<polygon fill="#E7B858" points="808.795,417.11 798.018,411.067 798.018,409.191 808.795,415.235 			"/>
			<polygon fill="#E7B858" points="808.795,395.243 798.018,389.2 798.018,387.324 808.795,393.368 			"/>
		</g>
		<g>
			<polygon fill="#9E3E33" points="819.377,430.424 808.6,424.381 808.6,383.662 819.377,389.705 			"/>
			<polygon fill="#731E22" points="814.232,386.82 814.232,427.539 819.377,430.424 819.377,389.705 			"/>
			<polygon fill="#E7B858" points="819.377,422.979 808.6,416.935 808.6,415.06 819.377,421.103 			"/>
			<polygon fill="#E7B858" points="819.377,401.11 808.6,395.067 808.6,393.191 819.377,399.235 			"/>
		</g>
		<g>
			<polygon fill="#9E3E33" points="830.154,436.722 819.377,430.679 819.377,389.959 830.154,396.002 			"/>
			<polygon fill="#731E22" points="825.01,393.117 825.01,433.837 830.154,436.722 830.154,396.002 			"/>
			<polygon fill="#E7B858" points="830.154,429.275 819.377,423.232 819.377,421.356 830.154,427.399 			"/>
			<polygon fill="#E7B858" points="830.154,407.408 819.377,401.364 819.377,399.489 830.154,405.532 			"/>
		</g>
		<g>
			<polygon fill="#9E3E33" points="840.743,442.589 829.965,436.546 829.965,395.826 840.743,401.869 			"/>
			<polygon fill="#731E22" points="835.592,398.984 835.592,439.704 840.743,442.589 840.743,401.869 			"/>
			<polygon fill="#E7B858" points="840.743,435.143 829.965,429.1 829.965,427.224 840.743,433.267 			"/>
			<polygon fill="#E7B858" points="840.743,413.275 829.965,407.232 829.965,405.356 840.743,411.399 			"/>
		</g>
		<g>
			<polygon fill="#9E3E33" points="851.521,448.72 840.743,442.677 840.743,401.957 851.521,408 			"/>
			<polygon fill="#731E22" points="846.369,405.115 846.369,445.835 851.521,448.72 851.521,408 			"/>
			<polygon fill="#E7B858" points="851.521,441.273 840.743,435.23 840.743,433.354 851.521,439.398 			"/>
			<polygon fill="#E7B858" points="851.521,419.406 840.743,413.363 840.743,411.487 851.521,417.53 			"/>
		</g>
		<g>
			<polygon fill="#9E3E33" points="862.103,454.587 851.325,448.544 851.325,407.824 862.103,413.867 			"/>
			<polygon fill="#731E22" points="856.958,410.982 856.958,451.702 862.103,454.587 862.103,413.867 			"/>
			<polygon fill="#E7B858" points="862.103,447.141 851.325,441.098 851.325,439.223 862.103,445.266 			"/>
			<polygon fill="#E7B858" points="862.103,425.273 851.325,419.23 851.325,417.354 862.103,423.398 			"/>
		</g>
		<g>
			<polygon fill="#4C6327" points="906.566,430.424 895.789,424.381 895.789,379.37 906.566,385.413 			"/>
			<polygon fill="#384C1A" points="901.422,382.528 901.422,427.539 906.566,430.424 906.566,385.413 			"/>
			<polygon fill="#F1F2F1" points="905.107,408.752 897.183,404.309 897.183,389.984 905.107,394.43 			"/>
			<g>
				<path fill="#3E3F3C" d="M902.789,417.961c0,2.344-0.931,3.933-2.084,3.555c-1.146-0.374-2.084-2.575-2.084-4.916
					c0-2.342,0.938-3.93,2.084-3.556C901.858,413.422,902.789,415.623,902.789,417.961z"/>
				<path fill="#A8A7A7" d="M901.044,421.988c-0.156,0-0.313-0.026-0.469-0.075c-1.328-0.433-2.37-2.768-2.37-5.313
					c0-2.371,0.892-4.027,2.168-4.027c0.156,0,0.313,0.025,0.463,0.074c1.328,0.439,2.37,2.771,2.37,5.314
					C903.206,420.331,902.314,421.988,901.044,421.988z M900.373,413.405c-0.638,0-1.335,1.221-1.335,3.194
					c0,2.318,0.951,4.242,1.798,4.52c0.729,0.244,1.537-0.987,1.537-3.158c0-2.315-0.945-4.243-1.798-4.52
					C900.51,413.418,900.438,413.405,900.373,413.405z"/>
			</g>
		</g>
		<g>
			<polygon fill="#4C6327" points="895.789,424.329 885.012,418.286 885.012,373.275 895.789,379.318 			"/>
			<polygon fill="#384C1A" points="890.645,376.434 890.645,421.444 895.789,424.329 895.789,379.318 			"/>
			<polygon fill="#F1F2F1" points="894.33,402.657 886.405,398.213 886.405,383.89 894.33,388.334 			"/>
			<g>
				<path fill="#3E3F3C" d="M892.012,411.865c0,2.344-0.932,3.934-2.084,3.556c-1.146-0.374-2.084-2.575-2.084-4.917
					c0-2.341,0.938-3.93,2.084-3.555C891.08,407.326,892.012,409.527,892.012,411.865z"/>
				<path fill="#A8A7A7" d="M890.267,415.893c-0.156,0-0.313-0.025-0.469-0.074c-1.329-0.434-2.37-2.768-2.37-5.314
					c0-2.37,0.892-4.027,2.168-4.027c0.156,0,0.313,0.025,0.463,0.074c1.328,0.44,2.37,2.771,2.37,5.314
					C892.429,414.235,891.537,415.893,890.267,415.893z M889.596,407.311c-0.638,0-1.335,1.221-1.335,3.193
					c0,2.318,0.951,4.243,1.798,4.52c0.729,0.244,1.537-0.986,1.537-3.158c0-2.315-0.945-4.242-1.798-4.52
					C889.732,407.323,889.661,407.311,889.596,407.311z"/>
			</g>
		</g>
		<g>
			<polygon fill="#4C6327" points="885.012,418.244 874.234,412.2 874.234,367.189 885.012,373.232 			"/>
			<polygon fill="#384C1A" points="879.867,370.348 879.867,415.359 885.012,418.244 885.012,373.232 			"/>
			<polygon fill="#F1F2F1" points="883.553,396.572 875.628,392.127 875.628,377.805 883.553,382.248 			"/>
			<g>
				<path fill="#3E3F3C" d="M881.234,405.779c0,2.345-0.932,3.934-2.084,3.556c-1.146-0.374-2.084-2.575-2.084-4.916
					s0.938-3.931,2.084-3.556C880.303,401.24,881.234,403.441,881.234,405.779z"/>
				<path fill="#A8A7A7" d="M879.489,409.808c-0.156,0-0.313-0.026-0.469-0.075c-1.329-0.433-2.37-2.768-2.37-5.313
					c0-2.37,0.892-4.028,2.168-4.028c0.156,0,0.313,0.026,0.463,0.075c1.328,0.439,2.37,2.771,2.37,5.313
					C881.651,408.15,880.759,409.808,879.489,409.808z M878.818,401.225c-0.638,0-1.335,1.221-1.335,3.194
					c0,2.318,0.951,4.242,1.798,4.519c0.729,0.244,1.536-0.986,1.536-3.158c0-2.314-0.944-4.242-1.797-4.52
					C878.955,401.237,878.884,401.225,878.818,401.225z"/>
			</g>
		</g>
		<g>
			<polygon fill="#4C6327" points="874.234,412.148 863.457,406.105 863.457,361.094 874.234,367.138 			"/>
			<polygon fill="#384C1A" points="869.09,364.253 869.09,409.264 874.234,412.148 874.234,367.138 			"/>
			<polygon fill="#F1F2F1" points="872.775,390.477 864.851,386.032 864.851,371.709 872.775,376.153 			"/>
			<g>
				<path fill="#3E3F3C" d="M870.457,399.685c0,2.345-0.932,3.933-2.084,3.556c-1.146-0.375-2.084-2.576-2.084-4.917
					s0.938-3.93,2.084-3.556C869.525,395.146,870.457,397.347,870.457,399.685z"/>
				<path fill="#A8A7A7" d="M868.712,403.712c-0.156,0-0.313-0.026-0.469-0.075c-1.329-0.433-2.37-2.768-2.37-5.313
					c0-2.37,0.892-4.027,2.168-4.027c0.156,0,0.313,0.026,0.463,0.075c1.328,0.439,2.37,2.771,2.37,5.313
					C870.874,402.055,869.981,403.712,868.712,403.712z M868.041,395.129c-0.638,0-1.335,1.222-1.335,3.194
					c0,2.318,0.951,4.243,1.798,4.52c0.729,0.244,1.536-0.986,1.536-3.158c0-2.315-0.944-4.243-1.797-4.52
					C868.178,395.143,868.106,395.129,868.041,395.129z"/>
			</g>
		</g>
		<g>
			<polygon fill="#4C6327" points="863.457,405.942 852.68,399.899 852.68,354.889 863.457,360.932 			"/>
			<polygon fill="#384C1A" points="858.313,358.047 858.313,403.058 863.457,405.942 863.457,360.932 			"/>
			<polygon fill="#F1F2F1" points="861.998,384.271 854.073,379.826 854.073,365.503 861.998,369.947 			"/>
			<g>
				<path fill="#3E3F3C" d="M859.68,393.479c0,2.344-0.932,3.934-2.084,3.556c-1.146-0.374-2.084-2.575-2.084-4.917
					c0-2.341,0.938-3.93,2.084-3.555C858.748,388.939,859.68,391.141,859.68,393.479z"/>
				<path fill="#A8A7A7" d="M857.935,397.506c-0.156,0-0.313-0.025-0.469-0.074c-1.329-0.434-2.37-2.768-2.37-5.314
					c0-2.37,0.892-4.027,2.168-4.027c0.156,0,0.313,0.026,0.463,0.075c1.328,0.439,2.37,2.771,2.37,5.313
					C860.097,395.849,859.204,397.506,857.935,397.506z M857.264,388.924c-0.638,0-1.335,1.221-1.335,3.193
					c0,2.318,0.951,4.243,1.798,4.52c0.729,0.244,1.536-0.986,1.536-3.158c0-2.314-0.944-4.242-1.797-4.52
					C857.4,388.937,857.329,388.924,857.264,388.924z"/>
			</g>
		</g>
		<g>
			<polygon fill="#4C6327" points="852.68,399.848 841.902,393.805 841.902,348.793 852.68,354.836 			"/>
			<polygon fill="#384C1A" points="847.535,351.951 847.535,396.963 852.68,399.848 852.68,354.836 			"/>
			<polygon fill="#F1F2F1" points="851.221,378.176 843.295,373.73 843.295,359.408 851.221,363.852 			"/>
			<g>
				<path fill="#3E3F3C" d="M848.902,387.383c0,2.345-0.932,3.934-2.084,3.556c-1.146-0.374-2.084-2.575-2.084-4.916
					s0.938-3.931,2.084-3.556C847.971,382.845,848.902,385.045,848.902,387.383z"/>
				<path fill="#A8A7A7" d="M847.157,391.411c-0.156,0-0.313-0.026-0.469-0.075c-1.329-0.433-2.37-2.768-2.37-5.313
					c0-2.37,0.892-4.028,2.168-4.028c0.156,0,0.313,0.026,0.463,0.075c1.328,0.439,2.37,2.771,2.37,5.313
					C849.319,389.754,848.427,391.411,847.157,391.411z M846.486,382.828c-0.639,0-1.335,1.221-1.335,3.194
					c0,2.318,0.951,4.242,1.798,4.519c0.729,0.245,1.536-0.986,1.536-3.158c0-2.314-0.944-4.242-1.797-4.519
					C846.623,382.841,846.552,382.828,846.486,382.828z"/>
			</g>
		</g>
		<g>
			<polygon fill="#4C6327" points="841.902,393.762 831.125,387.719 831.125,342.707 841.902,348.751 			"/>
			<polygon fill="#384C1A" points="836.758,345.866 836.758,390.877 841.902,393.762 841.902,348.751 			"/>
			<polygon fill="#F1F2F1" points="840.443,372.09 832.518,367.646 832.518,353.322 840.443,357.767 			"/>
			<g>
				<path fill="#3E3F3C" d="M838.125,381.298c0,2.345-0.932,3.933-2.084,3.556c-1.146-0.375-2.084-2.576-2.084-4.917
					s0.938-3.93,2.084-3.556C837.193,376.759,838.125,378.96,838.125,381.298z"/>
				<path fill="#A8A7A7" d="M836.38,385.325c-0.156,0-0.313-0.026-0.469-0.075c-1.329-0.433-2.37-2.768-2.37-5.313
					c0-2.37,0.892-4.027,2.168-4.027c0.156,0,0.313,0.026,0.463,0.075c1.328,0.439,2.37,2.771,2.37,5.313
					C838.542,383.668,837.649,385.325,836.38,385.325z M835.709,376.742c-0.639,0-1.335,1.222-1.335,3.194
					c0,2.318,0.95,4.243,1.798,4.52c0.729,0.244,1.536-0.986,1.536-3.158c0-2.315-0.944-4.243-1.797-4.52
					C835.846,376.756,835.774,376.742,835.709,376.742z"/>
			</g>
		</g>
		<g>
			<polygon fill="#4C6327" points="831.125,387.666 820.348,381.623 820.348,336.612 831.125,342.655 			"/>
			<polygon fill="#384C1A" points="825.98,339.771 825.98,384.781 831.125,387.666 831.125,342.655 			"/>
			<polygon fill="#F1F2F1" points="829.666,365.994 821.74,361.55 821.74,347.227 829.666,351.672 			"/>
			<g>
				<path fill="#3E3F3C" d="M827.348,375.203c0,2.344-0.932,3.933-2.084,3.555c-1.146-0.374-2.084-2.575-2.084-4.916
					c0-2.342,0.938-3.93,2.084-3.556C826.416,370.664,827.348,372.865,827.348,375.203z"/>
				<path fill="#A8A7A7" d="M825.603,379.23c-0.156,0-0.313-0.026-0.469-0.075c-1.329-0.433-2.37-2.768-2.37-5.313
					c0-2.371,0.892-4.027,2.168-4.027c0.156,0,0.313,0.025,0.463,0.074c1.328,0.439,2.37,2.771,2.37,5.314
					C827.765,377.573,826.872,379.23,825.603,379.23z M824.932,370.647c-0.639,0-1.335,1.221-1.335,3.194
					c0,2.318,0.95,4.242,1.798,4.52c0.729,0.244,1.536-0.987,1.536-3.158c0-2.315-0.944-4.243-1.797-4.52
					C825.068,370.66,824.997,370.647,824.932,370.647z"/>
			</g>
		</g>
		<g>
			<polygon fill="#9E3E33" points="872.88,460.885 862.103,454.842 862.103,414.121 872.88,420.165 			"/>
			<polygon fill="#731E22" points="867.735,417.28 867.735,458 872.88,460.885 872.88,420.165 			"/>
			<polygon fill="#E7B858" points="872.88,453.438 862.103,447.395 862.103,445.52 872.88,451.563 			"/>
			<polygon fill="#E7B858" points="872.88,431.57 862.103,425.527 862.103,423.652 872.88,429.695 			"/>
		</g>
		<g>
			<polygon fill="#9E3E33" points="883.468,466.752 872.69,460.709 872.69,419.989 883.468,426.032 			"/>
			<polygon fill="#731E22" points="878.317,423.147 878.317,463.867 883.468,466.752 883.468,426.032 			"/>
			<polygon fill="#E7B858" points="883.468,459.305 872.69,453.262 872.69,451.387 883.468,457.43 			"/>
			<polygon fill="#E7B858" points="883.468,437.438 872.69,431.395 872.69,429.52 883.468,435.563 			"/>
		</g>
		<g>
			<polygon fill="#9E3E33" points="894.246,472.678 883.468,466.635 883.468,425.915 894.246,431.958 			"/>
			<polygon fill="#731E22" points="889.095,429.073 889.095,469.793 894.246,472.678 894.246,431.958 			"/>
			<polygon fill="#E7B858" points="894.246,465.231 883.468,459.188 883.468,457.313 894.246,463.355 			"/>
			<polygon fill="#E7B858" points="894.246,443.363 883.468,437.32 883.468,435.445 894.246,441.488 			"/>
		</g>
		<g>
			<polygon fill="#9E3E33" points="904.828,478.545 894.05,472.502 894.05,431.782 904.828,437.825 			"/>
			<polygon fill="#731E22" points="899.684,434.94 899.684,475.66 904.828,478.545 904.828,437.825 			"/>
			<polygon fill="#561D1F" points="910.662,434.94 910.662,475.66 904.828,478.545 904.828,437.825 			"/>
			<polygon fill="#E7B858" points="904.828,471.099 894.05,465.055 894.05,463.18 904.828,469.223 			"/>
			<polygon fill="#E7B858" points="904.828,449.231 894.05,443.188 894.05,441.313 904.828,447.355 			"/>
		</g>
		<polygon fill="#BE8A53" points="906.566,376.928 906.566,647.307 914.752,652.038 914.752,381.659 		"/>
		<polygon fill="#BE8A53" points="710.633,263.697 704.844,260.354 704.844,530.732 710.633,534.076 		"/>
		<polygon fill="#BE8A53" points="710.965,318.704 710.965,327.192 906.234,440.039 906.234,431.551 		"/>
		<polygon fill="#BE8A53" points="710.965,263.746 710.965,272.234 906.234,385.081 906.234,376.593 		"/>
		<g>
			<polygon fill="#333531" points="808.117,336.316 808.117,362.855 798.838,362.43 			"/>
			<polygon fill="#4A4A48" points="811.94,332.135 794.032,321.84 785.039,358.997 802.953,369.299 			"/>
			<polygon fill="#82AAD8" points="809.603,333.933 795.028,325.552 787.377,357.2 801.951,365.568 			"/>
			<path fill="#B06246" d="M799.398,364.097l2.116-8.763c0.944-3.896-0.41-8.264-3.021-9.768s-5.496,0.43-6.44,4.324l-2.123,8.765
				L799.398,364.097z"/>
			<path fill="#97543E" d="M795.152,345.462c-1.394,0.671-2.56,2.218-3.1,4.429l-2.123,8.765l1.771,1.026L795.152,345.462z"/>
			<path fill="#97543E" d="M801,348.712l-3.458,14.323l1.856,1.062l2.116-8.763C802.062,353.059,801.814,350.633,801,348.712z"/>
			<path fill="#E4B87C" d="M803.221,345.045c-0.801,3.325-3.263,4.982-5.51,3.699c-2.22-1.286-3.386-5.027-2.578-8.352
				c0.808-3.328,3.263-4.969,5.496-3.692C802.869,337.986,804.028,341.721,803.221,345.045z"/>
			<path fill="#3E3327" d="M795.041,340.761c0,0,2.846-1.53,2.65-4.321C797.691,336.439,796.155,334.506,795.041,340.761z"/>
			<path fill="#3E3327" d="M803.162,345.42c0,0-1.498-4.015-0.163-5.923C802.999,339.497,804.966,339.572,803.162,345.42z"/>
			<path fill="#4A4031" d="M796.214,337.971c0,0,5.562,6.244,8.173,5.486c0,0,0.768-4.832-4.051-7.6
				C800.336,335.857,797.887,334.343,796.214,337.971z"/>
		</g>
		<g>
			<polygon fill="#333531" points="763.907,341.76 741.571,328.808 741.571,311.443 763.907,324.396 			"/>
			<polygon fill="#6E706F" points="763.907,328.449 741.571,315.497 741.571,311.443 763.907,324.396 			"/>
			<polygon fill="#F2E0A7" points="763.328,327.199 758.555,324.429 758.555,322.176 763.328,324.946 			"/>
			<polygon fill="#4D4E4C" points="771.448,320.02 749.112,307.067 741.571,311.443 763.907,324.396 			"/>
			<polygon fill="#232522" points="771.448,320.02 763.901,324.396 763.901,341.76 771.448,337.384 			"/>
			<g>
				<polygon fill="#333531" points="756.27,320.02 750.61,316.738 750.61,312.339 756.27,315.621 				"/>
				<polygon fill="#606160" points="763.843,311.104 758.184,307.822 750.61,312.339 756.27,315.621 				"/>
				<polygon fill="#232522" points="763.843,311.104 756.27,315.621 756.27,320.02 763.843,315.504 				"/>
			</g>
			<g>
				<path fill="#1C1F1C" d="M757.441,326.604c-0.137-3.946-2.403-7.186-5.223-7.73c0,0-0.756-0.11-0.82-0.11
					c-0.065,0-2.735,0.026-2.735,0.026v0.974c-1.745,1.335-2.885,3.884-2.794,6.841c0.092,2.722,1.191,5.118,2.794,6.521v1.313
					h3.556v-0.043C755.253,334.17,757.571,330.784,757.441,326.604z"/>
				<path fill="#474846" d="M755.129,326.604c0.131,4.327-2.344,7.834-5.535,7.834c-3.197,0-5.893-3.507-6.036-7.834
					c-0.137-4.324,2.338-7.841,5.528-7.841C752.277,318.763,754.979,322.279,755.129,326.604z"/>
				<path fill="#1C1F1C" d="M753.605,326.604c-0.104-3.09-1.901-5.62-4.122-5.991v-0.075h-2.774v0.856
					c-1.289,1.052-2.129,2.982-2.058,5.21c0.071,2.041,0.88,3.836,2.058,4.936v1.127h2.774v-0.022
					C751.88,332.522,753.71,329.873,753.605,326.604z"/>
				<path fill="#5B5C5B" d="M751.652,326.604c0.104,3.344-1.817,6.063-4.285,6.063c-2.469,0-4.559-2.719-4.669-6.063
					c-0.104-3.348,1.81-6.066,4.278-6.066C749.444,320.537,751.541,323.256,751.652,326.604z"/>
				<path fill="#94BACE" d="M750.61,326.6c0.085,2.723-1.479,4.937-3.484,4.937c-2.012,0-3.712-2.214-3.803-4.937
					c-0.085-2.722,1.472-4.936,3.483-4.936C748.813,321.664,750.519,323.878,750.61,326.6z"/>
				<path fill="#EDF3F3" d="M749.959,325.676c0.045,1.53-0.834,2.773-1.96,2.773c-1.134,0-2.084-1.243-2.136-2.773
					c-0.053-1.531,0.826-2.774,1.953-2.774C748.949,322.901,749.906,324.145,749.959,325.676z"/>
			</g>
		</g>
	</g>
	<g>
		<polygon fill="#9D6936" points="223.971,537.01 89.706,614.493 89.706,701.933 223.971,624.439 		"/>
		<polygon fill="#CD915B" points="223.971,537.01 89.706,614.493 75.425,606.271 209.689,528.778 		"/>
		<polygon opacity="0.5" fill="#393A36" points="211.787,620.139 554.787,820.188 419.956,898.195 75.425,699.267 		"/>
		<path fill="#BD824B" d="M211.787,562.904c0,0,24.726,9.456,48.904,23.558c27.292,15.919,54.415,36.702,54.415,36.702
			s25.526,9.126,50.331,23.593c27.475,16.026,54.506,37.548,54.506,37.548s31.329,11.348,61.355,28.858
			c36.722,21.418,73.488,49.791,73.488,49.791l-134.831,78.007L75.425,642.032L211.787,562.904z"/>
		<path fill="#A56E38" d="M417.67,685.988c0,0-6.596,2.045-15.915,6.353c-4.695,2.055-9.977,4.871-15.531,8.026
			c-2.755,1.615-5.601,3.281-8.388,5.141c-2.858,1.756-5.633,3.725-8.367,5.747c-2.833,1.889-5.412,4.119-8.056,6.177
			c-2.657,2.041-5.021,4.347-7.45,6.421c-2.436,2.067-4.512,4.363-6.654,6.362c-2.162,1.992-3.973,4.1-5.672,6.014
			c-1.661,1.95-3.374,3.595-4.663,5.232c-1.31,1.628-2.448,3.051-3.386,4.22c-1.922,2.328-3.022,3.656-3.022,3.656
			s0.905-1.465,2.488-4.03c0.813-1.273,1.797-2.823,2.93-4.598c1.114-1.798,2.631-3.627,4.214-5.686
			c1.589-2.051,3.281-4.308,5.333-6.469c2.038-2.169,3.979-4.676,6.414-6.835c2.416-2.175,4.702-4.676,7.411-6.763
			c2.676-2.129,5.281-4.441,8.152-6.398c2.82-2.031,5.679-4.008,8.609-5.77c2.853-1.885,5.848-3.425,8.7-4.988
			c2.853-1.566,5.75-2.813,8.446-4.06c2.761-1.13,5.326-2.272,7.781-3.13c4.846-1.875,9.064-2.9,11.976-3.679
			C415.958,686.223,417.67,685.988,417.67,685.988z"/>
		<polygon fill="#9D6936" points="554.208,727.665 419.943,805.148 419.943,892.589 554.208,815.096 		"/>
		<polygon fill="#CD915B" points="554.208,727.665 419.943,805.148 405.662,796.927 539.927,719.434 		"/>
		<rect x="419.943" y="710.438" fill="#9D6936" width="14.958" height="133.926"/>
		<path fill="#A56E38" d="M313.4,621.962c0,0-6.604,2.045-15.916,6.353c-4.701,2.055-9.982,4.871-15.531,8.026
			c-2.761,1.615-5.6,3.282-8.394,5.142c-2.853,1.755-5.626,3.725-8.368,5.746c-2.832,1.889-5.404,4.119-8.049,6.177
			c-2.656,2.042-5.021,4.347-7.449,6.421c-2.442,2.067-4.514,4.363-6.662,6.362c-2.162,1.993-3.966,4.1-5.672,6.014
			c-1.66,1.95-3.367,3.595-4.662,5.232c-1.31,1.628-2.449,3.051-3.387,4.22c-1.921,2.328-3.016,3.656-3.016,3.656
			s0.906-1.465,2.488-4.03c0.813-1.273,1.797-2.823,2.93-4.598c1.114-1.798,2.631-3.627,4.207-5.685
			c1.596-2.052,3.289-4.309,5.34-6.47c2.032-2.169,3.973-4.676,6.414-6.835c2.416-2.175,4.702-4.676,7.411-6.763
			c2.67-2.129,5.281-4.44,8.153-6.397c2.819-2.032,5.672-4.009,8.608-5.77c2.853-1.886,5.849-3.426,8.7-4.988
			c2.846-1.566,5.744-2.813,8.446-4.061c2.755-1.13,5.327-2.272,7.782-3.129c4.838-1.876,9.064-2.901,11.975-3.68
			C311.688,622.196,313.4,621.962,313.4,621.962z"/>
		<polygon fill="#A5703F" points="74.644,520.166 419.943,719.434 419.943,892.589 74.644,693.295 		"/>
		<path fill="#CD915B" d="M74.644,520.166l345.3,199.268l14.958-8.996c0,0-39.104-28.066-70.851-46.379
			c-32.971-19.015-58.621-28.297-58.621-28.297s-31.291-23.008-61.227-40.271C219.725,581.373,195.5,572.36,195.5,572.36
			s-25.547-21.679-52.896-37.45c-25.417-14.659-52.773-23.496-52.773-23.496L74.644,520.166z"/>
	</g>
	<g>
		<polygon opacity="0.4" fill="#4D4E4C" points="463.039,455.277 456.209,451.328 429.646,466.689 402.934,451.24 396.461,455.226 
			422.984,470.542 396.148,486.066 402.674,489.993 429.646,474.394 456.391,489.863 463.039,485.857 436.301,470.542 		"/>
		<g>
			<path fill="#4E504E" d="M464.283,480.71c-0.847-3.194-3.073-5.223-4.994-4.522c-0.065,0.029-0.117,0.075-0.183,0.104
				l-0.007-0.013l-3.744,1.888l3.543,11.182l3.906-1.823l-0.006-0.014C464.368,486.489,465.045,483.617,464.283,480.71z"/>
			<path fill="#696B6A" d="M460.806,482.225c0.834,3.193-0.032,6.361-1.946,7.065c-1.915,0.713-4.148-1.322-4.988-4.51
				c-0.84-3.2,0.032-6.369,1.947-7.079C457.726,477.002,459.959,479.021,460.806,482.225z"/>
			<path fill="#3E3F3C" d="M458.032,483.09c0.313,1.205-0.02,2.403-0.736,2.66c-0.723,0.273-1.563-0.491-1.882-1.695
				c-0.313-1.209,0.013-2.403,0.736-2.67C456.873,481.127,457.713,481.886,458.032,483.09z"/>
		</g>
		<g>
			<path fill="#4E504E" d="M395.888,479.304c0.847-3.194,3.073-5.223,4.995-4.522c0.064,0.029,0.117,0.074,0.182,0.104l0.007-0.013
				l3.744,1.889l-3.542,11.181l-3.907-1.823l0.007-0.013C395.803,485.083,395.126,482.211,395.888,479.304z"/>
			<path fill="#696B6A" d="M399.365,480.817c-0.834,3.194,0.032,6.362,1.947,7.065c1.914,0.713,4.148-1.321,4.988-4.51
				c0.84-3.2-0.033-6.368-1.947-7.078C402.445,475.595,400.212,477.613,399.365,480.817z"/>
			<path fill="#3E3F3C" d="M402.139,481.684c-0.313,1.205,0.021,2.403,0.736,2.66c0.723,0.273,1.563-0.491,1.882-1.696
				c0.313-1.208-0.013-2.403-0.735-2.67C403.299,479.721,402.458,480.479,402.139,481.684z"/>
		</g>
		<g>
			<path fill="#4E504E" d="M452.946,446.145c0.84-3.194,3.073-5.223,4.987-4.522c0.065,0.029,0.124,0.075,0.189,0.104v-0.014
				l3.751,1.889l-3.542,11.182l-3.914-1.824l0.006-0.013C452.854,451.924,452.178,449.052,452.946,446.145z"/>
			<path fill="#696B6A" d="M456.417,447.658c-0.834,3.194,0.039,6.362,1.954,7.065c1.907,0.714,4.147-1.321,4.987-4.509
				c0.841-3.201-0.032-6.369-1.946-7.079C459.504,442.436,457.264,444.455,456.417,447.658z"/>
			<path fill="#3E3F3C" d="M459.191,448.524c-0.313,1.205,0.02,2.403,0.742,2.66c0.716,0.273,1.557-0.491,1.875-1.696
				c0.319-1.208-0.006-2.402-0.735-2.67C460.35,446.562,459.51,447.32,459.191,448.524z"/>
		</g>
		<g>
			<path fill="#4E504E" d="M403.136,446.796c-0.847-3.194-3.073-5.223-4.995-4.522c-0.064,0.029-0.117,0.074-0.182,0.104
				l-0.007-0.013l-3.744,1.889l3.542,11.181l3.907-1.823l-0.007-0.013C403.221,452.575,403.897,449.703,403.136,446.796z"/>
			<path fill="#696B6A" d="M399.658,448.31c0.834,3.194-0.032,6.362-1.947,7.065c-1.914,0.713-4.148-1.322-4.988-4.51
				c-0.84-3.2,0.033-6.368,1.947-7.078C396.578,443.087,398.812,445.105,399.658,448.31z"/>
			<path fill="#3E3F3C" d="M396.884,449.176c0.313,1.205-0.02,2.402-0.735,2.66c-0.723,0.273-1.563-0.492-1.882-1.696
				c-0.313-1.208,0.013-2.403,0.735-2.67C395.725,447.213,396.564,447.971,396.884,449.176z"/>
		</g>
		<polygon fill="#393A36" points="463.039,446.601 463.039,444.028 429.646,458.013 396.461,443.976 396.461,446.548 
			422.984,461.864 396.148,474.816 396.148,477.389 402.674,481.315 429.646,465.717 456.391,481.186 463.039,477.181 
			463.039,474.608 436.301,461.864 		"/>
		<polygon fill="#4D4E4C" points="463.039,444.028 456.209,440.078 429.646,455.44 402.934,439.99 396.461,443.976 422.984,459.292 
			396.148,474.816 402.674,478.744 429.646,463.145 456.391,478.613 463.039,474.608 436.301,459.292 		"/>
		<path fill="#2C2D2A" d="M429.646,460.393c-2.762,0-5.002-2.24-5.002-5.001v-53.103c0-2.761,2.24-5.001,5.002-5.001
			c2.761,0,5.001,2.24,5.001,5.001v53.103C434.647,458.152,432.407,460.393,429.646,460.393z"/>
		<path fill="#3E3F3C" d="M480.876,405.506c2.853,1.635,3.119,5.549,0.593,6.994l-35.087,20.197
			c-2.533,1.442-6.902,1.286-9.762-0.346l-46.397-26.858c-2.859-1.635-3.113-5.32-0.58-6.766l35.074-19.013
			c2.533-1.441,6.896-1.282,9.762,0.353L480.876,405.506z"/>
		<path fill="#43677F" d="M481.611,403.207c2.898,1.661,3.165,5.637,0.6,7.105l-35.641,20.513c-2.565,1.465-7.007,1.306-9.911-0.353
			l-47.173-27.301c-2.897-1.661-3.158-5.405-0.586-6.874l35.627-19.308c2.572-1.465,7.001-1.306,9.912,0.354L481.611,403.207z"/>
		<path fill="#6283A2" d="M480.498,402.296c2.826,1.621,3.087,4.099,0.586,5.535l-34.8,20.03c-2.507,1.43-6.844,1.273-9.677-0.345
			l-46.001-26.624c-2.833-1.621-3.1-4.103-0.593-5.539l34.807-20.027c2.508-1.433,6.838-1.276,9.678,0.346L480.498,402.296z"/>
		<path fill="#43677F" d="M393.967,369.062l51.966,34.777l4.858-2.083c0,0,1.139-37.881-3.335-48.577
			c-2.396-5.73-16.117-15.251-26.673-19.9c0,0-17.191-7.085-23.234,0.313C393.426,338.635,393.953,357.184,393.967,369.062z"/>
		<path fill="#2F302D" d="M392.443,370.016l53.489,33.823l1.798-0.769c0,0,0.977-38.146-3.367-48.543
			c-2.331-5.574-15.675-14.832-25.938-19.351c0,0-16.717-6.89-22.59,0.303C391.824,340.383,392.43,358.467,392.443,370.016z"/>
		<path fill="#3E3F3C" d="M390.775,372.1c0,0,5.51,15.932,26.804,24.58c27.285,11.083,28.354,7.159,28.354,7.159
			s1.106-36.832-3.236-47.228c-2.331-5.575-15.675-14.832-25.938-19.352c0,0-16.716-6.889-22.59,0.304
			C390.157,342.467,390.763,360.551,390.775,372.1z"/>
		<polygon fill="#191C19" points="420.998,424.065 419.227,424.065 409.823,348.953 411.595,348.468 420.998,354.247 		"/>
		<polygon fill="#2F302D" points="419.227,424.065 409.823,418.286 409.823,348.468 419.227,354.247 		"/>
	</g>
	<g>
		<polygon fill="#535553" points="452.184,328.847 437.598,320.512 437.598,317.959 452.184,326.294 		"/>
		<polygon fill="#454644" points="452.184,328.847 452.184,326.294 467.656,314.416 467.656,320.303 		"/>
		<g>
			<polygon fill="#E3E4E4" points="452.184,326.294 437.598,317.959 452.627,305.716 467.656,314.416 			"/>
			<path fill="#C9CACA" d="M452.184,326.711c-0.071,0-0.143-0.02-0.208-0.056l-14.587-8.335c-0.117-0.068-0.195-0.189-0.208-0.326
				c-0.007-0.14,0.046-0.273,0.156-0.357l15.029-12.243c0.137-0.104,0.319-0.12,0.469-0.039l15.03,8.7
				c0.123,0.072,0.201,0.195,0.208,0.336c0.013,0.137-0.052,0.273-0.163,0.357l-15.473,11.878
				C452.366,326.682,452.275,326.711,452.184,326.711z M438.333,317.896l13.818,7.899l14.757-11.331l-14.242-8.244L438.333,317.896z
				"/>
		</g>
		<path fill="#A8A7A7" d="M445.672,315.178l8.629,4.969l3.281-2.019c0,0,6.74-7.524-5.235-6.512
			C452.347,311.616,447.078,313.387,445.672,315.178z"/>
		<g>
			<path fill="#CCCDCD" d="M457.582,309.376c0-7.434-1.197-24.276-1.197-24.276s-1.095-1.876-4.26-3.804
				c-1.985-1.188-4.199-0.693-4.199-0.693l-0.814,0.466l8.179,37.841l1.095-0.625C456.385,318.284,457.582,318.382,457.582,309.376z
				"/>
			<path fill="#2C2D2A" d="M455.395,285.828c0,0-1.094-1.875-4.259-3.803c-1.986-1.188-4.2-0.935-4.2-0.935l-0.814,0.466
				l8.18,38.082l1.094-0.625V285.828z"/>
			<path fill="#4A4B49" d="M454.301,286.453c0,0-1.094-2.24-4.259-3.803c-1.986-1.188-3.921-1.094-3.921-1.094v33.498l8.18,4.584
				V286.453z"/>
			<path fill="#4A4B49" stroke="#2C2D2A" stroke-width="0.5" stroke-miterlimit="10" d="M452.021,290.13
				c0,0.313-0.261,0.423-0.573,0.244l-2.468-1.423c-0.319-0.18-0.573-0.583-0.573-0.896v-2.472c0-0.315,0.254-0.423,0.573-0.24
				l2.468,1.419c0.313,0.179,0.573,0.58,0.573,0.896V290.13z"/>
			<polygon fill="#181B19" points="453.305,301.005 447.117,297.433 447.117,290.286 453.305,293.857 			"/>
			<polygon fill="#E5B560" points="453.188,300.591 447.476,297.293 447.476,290.696 453.188,293.994 			"/>
			<g>
				<polygon fill="#181B19" points="446.33,298.384 446.33,301.024 447.978,301.945 447.978,299.305 				"/>
				<polygon fill="#181B19" points="450.537,303.502 450.537,300.861 448.603,299.777 448.603,302.418 				"/>
				<polygon fill="#181B19" points="453.239,304.896 453.239,302.255 451.162,301.093 451.162,303.73 				"/>
				<polygon fill="#181B19" points="453.239,308.151 453.239,305.511 451.162,304.349 451.162,306.986 				"/>
				<polygon fill="#181B19" points="446.33,301.64 446.33,304.28 447.978,305.201 447.978,302.561 				"/>
				<polygon fill="#181B19" points="448.603,305.674 450.537,306.758 450.537,304.117 448.603,303.033 				"/>
				<polygon fill="#181B19" points="446.33,304.896 446.33,307.536 447.978,308.458 447.978,305.817 				"/>
				<polygon fill="#181B19" points="448.603,308.93 450.537,310.014 450.537,307.373 448.603,306.289 				"/>
				<polygon fill="#181B19" points="453.239,311.408 453.239,308.768 451.162,307.604 451.162,310.242 				"/>
				<polygon fill="#181B19" points="453.239,314.664 453.239,312.023 451.162,310.86 451.162,313.498 				"/>
				<polygon fill="#181B19" points="448.603,312.186 450.537,313.27 450.537,310.629 448.603,309.545 				"/>
				<polygon fill="#181B19" points="446.33,308.151 446.33,310.792 447.978,311.714 447.978,309.073 				"/>
				<polygon fill="#181B19" points="448.603,312.801 448.603,315.441 450.537,316.526 450.537,313.886 				"/>
				<polygon fill="#181B19" points="446.33,311.408 446.33,314.049 447.978,314.97 447.978,312.329 				"/>
				<polygon fill="#181B19" points="453.239,317.92 453.239,315.279 451.162,314.117 451.162,316.754 				"/>
			</g>
			<g>
				<polygon fill="#292B28" points="446.121,298.592 446.121,301.232 447.77,302.154 447.77,299.514 				"/>
				<polygon fill="#292B28" points="450.328,303.711 450.328,301.07 448.395,299.985 448.395,302.626 				"/>
				<polygon fill="#292B28" points="453.031,305.104 453.031,302.463 450.953,301.301 450.953,303.938 				"/>
				<polygon fill="#292B28" points="453.031,308.36 453.031,305.72 450.953,304.557 450.953,307.194 				"/>
				<polygon fill="#292B28" points="446.121,301.848 446.121,304.488 447.77,305.41 447.77,302.77 				"/>
				<polygon fill="#292B28" points="448.395,305.882 450.328,306.967 450.328,304.326 448.395,303.241 				"/>
				<polygon fill="#292B28" points="446.121,305.104 446.121,307.744 447.77,308.666 447.77,306.025 				"/>
				<polygon fill="#292B28" points="448.395,309.139 450.328,310.223 450.328,307.582 448.395,306.498 				"/>
				<polygon fill="#292B28" points="453.031,311.616 453.031,308.976 450.953,307.813 450.953,310.45 				"/>
				<polygon fill="#292B28" points="453.031,314.872 453.031,312.231 450.953,311.069 450.953,313.706 				"/>
				<polygon fill="#292B28" points="448.395,312.395 450.328,313.479 450.328,310.838 448.395,309.754 				"/>
				<polygon fill="#292B28" points="446.121,308.36 446.121,311.001 447.77,311.922 447.77,309.281 				"/>
				<polygon fill="#292B28" points="448.395,313.01 448.395,315.65 450.328,316.734 450.328,314.094 				"/>
				<polygon fill="#292B28" points="446.121,311.616 446.121,314.257 447.77,315.178 447.77,312.537 				"/>
				<polygon fill="#292B28" points="453.031,318.128 453.031,315.487 450.953,314.325 450.953,316.963 				"/>
			</g>
			<g>
				<path fill="#FFFFFF" d="M446.994,303.353l-0.007-0.003l-0.267-0.007l-0.059-0.271l0.371,0.01l0.273,0.134v1.396l-0.313-0.156
					V303.353z"/>
				<path fill="#FFFFFF" d="M448.961,305.475v-0.191l0.182-0.075c0.307-0.124,0.449-0.205,0.456-0.368
					c0-0.11-0.065-0.234-0.228-0.315c-0.124-0.059-0.229-0.052-0.3-0.032l-0.098-0.28c0.11-0.026,0.273-0.013,0.462,0.081
					c0.313,0.156,0.488,0.43,0.488,0.678c0,0.237-0.169,0.342-0.371,0.423l-0.123,0.042v0.004l0.521,0.261v0.267L448.961,305.475z"
					/>
				<path fill="#FFFFFF" d="M451.65,306.566c0.059,0.059,0.188,0.182,0.325,0.25c0.169,0.082,0.261,0.043,0.261-0.062
					c0-0.14-0.137-0.271-0.287-0.345l-0.13-0.065v-0.228l0.124,0.062c0.11,0.052,0.247,0.078,0.247-0.042
					c0-0.082-0.065-0.176-0.202-0.245c-0.117-0.059-0.234-0.064-0.293-0.062l-0.064-0.268c0.084-0.013,0.254,0.02,0.43,0.108
					c0.299,0.146,0.462,0.384,0.462,0.579c0,0.144-0.078,0.222-0.254,0.195v0.007c0.169,0.107,0.3,0.303,0.3,0.485
					c0,0.244-0.215,0.315-0.566,0.143c-0.183-0.091-0.332-0.208-0.417-0.303L451.65,306.566z"/>
				<path fill="#FFFFFF" d="M447.053,307.934v-0.329l-0.619-0.31v-0.211l0.534-0.586l0.397,0.191v0.82l0.169,0.082v0.25
					l-0.169-0.088v0.329L447.053,307.934z M447.053,307.357v-0.307c0-0.088,0.006-0.172,0.013-0.257l-0.007-0.003
					c-0.045,0.068-0.084,0.13-0.13,0.198l-0.188,0.212l0,0L447.053,307.357z"/>
				<path fill="#FFFFFF" d="M449.892,308.21l-0.54-0.271l-0.033,0.205c0.033,0.007,0.065,0.023,0.092,0.039
					c0.13,0.063,0.267,0.163,0.371,0.28c0.104,0.127,0.169,0.274,0.169,0.437c0,0.261-0.222,0.378-0.599,0.192
					c-0.176-0.088-0.313-0.192-0.391-0.273l0.059-0.212c0.059,0.059,0.188,0.163,0.313,0.225c0.137,0.065,0.279,0.072,0.279-0.074
					c0-0.144-0.11-0.294-0.391-0.431c-0.078-0.039-0.13-0.055-0.188-0.081l0.091-0.684l0.769,0.377V308.21z"/>
				<path fill="#FFFFFF" d="M452.457,309.535c-0.039-0.025-0.078-0.039-0.13-0.062c-0.286-0.12-0.417-0.036-0.456,0.11l0.007,0.004
					c0.071-0.036,0.169-0.029,0.3,0.035c0.234,0.117,0.43,0.378,0.43,0.664c0,0.28-0.215,0.4-0.515,0.251
					c-0.371-0.183-0.554-0.547-0.554-0.879c0-0.264,0.098-0.437,0.248-0.498c0.137-0.062,0.318-0.039,0.533,0.056
					c0.065,0.029,0.104,0.052,0.137,0.068V309.535z M452.275,310.138c0-0.124-0.065-0.267-0.209-0.342
					c-0.084-0.042-0.156-0.02-0.188,0.032c-0.013,0.017-0.02,0.036-0.02,0.078c0.007,0.15,0.078,0.319,0.228,0.391
					C452.203,310.355,452.275,310.287,452.275,310.138z"/>
				<path fill="#FFFFFF" d="M447.476,309.773v0.205l-0.573,0.904l-0.345-0.172l0.573-0.837v-0.003l-0.639-0.319v-0.267
					L447.476,309.773z"/>
				<path fill="#FFFFFF" d="M448.928,311.525c0-0.166,0.098-0.238,0.248-0.229v-0.01c-0.131-0.13-0.195-0.28-0.195-0.397
					c0-0.237,0.208-0.29,0.488-0.149c0.325,0.159,0.462,0.413,0.462,0.586c0,0.121-0.065,0.205-0.202,0.205v0.007
					c0.137,0.117,0.255,0.3,0.255,0.472c0,0.258-0.209,0.319-0.534,0.156C449.098,311.997,448.928,311.714,448.928,311.525z
					 M449.65,311.873c0-0.123-0.091-0.24-0.221-0.342c-0.104-0.02-0.163,0.026-0.163,0.127c-0.007,0.098,0.071,0.229,0.195,0.29
					C449.579,312.004,449.65,311.975,449.65,311.873z M449.286,311.026c0,0.098,0.085,0.199,0.195,0.287
					c0.078,0.02,0.144-0.013,0.144-0.104c0-0.088-0.046-0.195-0.17-0.257C449.345,310.896,449.286,310.938,449.286,311.026z"/>
				<path fill="#FFFFFF" d="M451.676,313.094c0.039,0.023,0.078,0.046,0.144,0.068c0.098,0.046,0.202,0.068,0.273,0.053
					c0.091-0.02,0.149-0.075,0.176-0.17l-0.007-0.006c-0.059,0.029-0.149,0.025-0.279-0.039c-0.234-0.117-0.43-0.378-0.43-0.648
					c0-0.276,0.215-0.396,0.527-0.24c0.357,0.176,0.521,0.533,0.521,0.859c0,0.289-0.091,0.455-0.241,0.521
					c-0.13,0.052-0.318,0.029-0.533-0.065c-0.059-0.025-0.111-0.059-0.15-0.074V313.094z M451.871,312.492
					c0,0.117,0.072,0.254,0.202,0.318c0.085,0.043,0.149,0.036,0.176-0.003c0.013-0.013,0.02-0.029,0.02-0.071
					c0-0.15-0.052-0.319-0.202-0.395C451.956,312.287,451.871,312.346,451.871,312.492z"/>
				<path fill="#FFFFFF" d="M447.293,313.11l-0.228,0.156v0.007l0.339,0.098v0.218l-0.339-0.228l-0.007,0.006l0.234,0.378
					l-0.188,0.017l-0.124-0.395v0.004l-0.13,0.264l-0.183-0.195l0.229-0.16v-0.003l-0.332-0.104v-0.218l0.325,0.231h0.007
					l-0.229-0.388l0.195-0.013l0.117,0.387l0.007,0.004l0.117-0.271L447.293,313.11z"/>
				<path fill="#FFFFFF" d="M449.983,315.048c0,0.43-0.17,0.642-0.528,0.462c-0.364-0.176-0.521-0.582-0.527-0.977
					c0-0.4,0.176-0.638,0.534-0.459C449.84,314.264,449.983,314.667,449.983,315.048z M449.26,314.699
					c-0.006,0.316,0.078,0.512,0.202,0.573c0.13,0.062,0.195-0.062,0.195-0.381c0-0.313-0.065-0.505-0.202-0.573
					C449.338,314.257,449.254,314.371,449.26,314.699z"/>
				<path fill="#FFFFFF" d="M451.676,316.67l0.059-0.355l-0.169-0.085v-0.198l0.208,0.107l0.033-0.229l-0.189-0.091v-0.198
					l0.215,0.104l0.053-0.348l0.195,0.098l-0.053,0.345l0.195,0.098l0.053-0.345l0.188,0.091l-0.052,0.349l0.176,0.084v0.199
					l-0.209-0.098l-0.032,0.225l0.176,0.088v0.195l-0.208-0.101l-0.053,0.354l-0.195-0.098l0.059-0.354l-0.195-0.095l-0.052,0.355
					L451.676,316.67z M452.158,316.327l0.032-0.228l-0.195-0.098l-0.032,0.228L452.158,316.327z"/>
			</g>
		</g>
	</g>
	<g>
		<polygon fill="#ECEDEC" points="776.678,632.039 774.574,632.561 714.631,546.445 716.734,545.352 776.678,580.224 		"/>
		<polygon fill="#ECEDEC" points="774.574,636.048 774.574,633.134 669.308,624.485 669.308,627.399 729.635,662.096 		"/>
		<polygon fill="#454644" points="774.574,633.134 714.631,598.61 714.631,546.445 774.574,581.317 		"/>
		<g>
			<polygon fill="#A8A7A7" points="774.574,633.134 714.631,598.61 669.308,624.485 729.635,659.182 			"/>
			<path fill="#909090" d="M729.635,659.664l-0.208-0.121l-60.959-35.058l46.163-26.357l0.209,0.121l60.568,34.885l-0.625,0.361
				L729.635,659.664z M670.141,624.485l59.494,34.214l44.105-25.565l-59.109-34.042L670.141,624.485z"/>
		</g>
		<polygon fill="#0E1210" points="771.657,583.111 716.734,551.294 716.734,596.475 771.657,628.282 		"/>
		<linearGradient id="SVGID_2_" gradientUnits="userSpaceOnUse" x1="705.5303" y1="600.1641" x2="776.4857" y2="580.2822">
			<stop  offset="0" style="stop-color:#00173E"/>
			<stop  offset="0.1907" style="stop-color:#261E6A"/>
			<stop  offset="0.383" style="stop-color:#4C1A72"/>
			<stop  offset="0.4897" style="stop-color:#571875"/>
			<stop  offset="0.7116" style="stop-color:#944C8D"/>
			<stop  offset="1" style="stop-color:#C1A2C7"/>
		</linearGradient>
		<polygon fill="url(#SVGID_2_)" points="771.657,582.64 717.549,551.294 717.549,595.801 771.657,627.136 		"/>
		<polygon fill="#909090" points="713.296,646.691 689.996,633.209 701.659,626.53 724.953,639.929 		"/>
		<g>
			<polygon fill="#898988" points="742.281,648.619 687.887,617.238 687.887,616.505 766.467,633.859 766.467,634.596 			"/>
			<polygon fill="#ECEDEC" points="742.281,647.799 687.887,616.417 712.072,602.566 766.467,633.775 			"/>
			<polygon fill="#898988" points="737.898,645.262 737.43,645.002 761.902,631.011 762.149,631.287 			"/>
			<polygon fill="#898988" points="733.457,642.833 732.995,642.572 757.467,628.582 757.708,628.858 			"/>
			<polygon fill="#898988" points="729.29,640.361 728.827,640.102 753.3,626.11 753.541,626.387 			"/>
			<polygon fill="#898988" points="729.746,635.133 729.283,634.872 748.858,623.682 749.105,623.958 			"/>
			<polygon fill="#898988" points="725.63,632.476 725.168,632.215 744.742,621.024 744.99,621.301 			"/>
			<polygon fill="#898988" points="721.195,630.047 720.727,629.786 740.309,618.596 740.549,618.872 			"/>
			<polygon fill="#898988" points="717.027,627.576 716.559,627.315 736.141,616.124 736.381,616.4 			"/>
			<polygon fill="#898988" points="713.042,625.352 712.573,625.092 732.155,613.9 732.396,614.177 			"/>
			<polygon fill="#898988" points="708.836,622.923 708.373,622.662 727.948,611.472 728.195,611.748 			"/>
			<polygon fill="#898988" points="699.504,623.294 699.041,623.033 723.514,609.043 723.755,609.319 			"/>
			<polygon fill="#898988" points="695.336,620.822 694.874,620.563 719.346,606.571 719.587,606.848 			"/>
			<polygon fill="#898988" points="691.351,618.599 690.889,618.338 715.36,604.348 715.602,604.624 			"/>
			<polygon fill="#898988" points="747.309,645.376 692.914,614.083 693.239,613.9 747.634,645.193 			"/>
			<polygon fill="#898988" points="752.576,642.267 698.182,610.973 698.508,610.791 752.902,642.084 			"/>
			<polygon fill="#898988" points="756.777,639.418 702.382,608.124 702.714,607.941 757.109,639.235 			"/>
			<polygon fill="#898988" points="761.271,636.764 706.875,605.471 707.207,605.288 761.603,636.582 			"/>
		</g>
	</g>
	<g>
		<polygon fill="#333531" points="660.471,427.901 660.471,430.193 630.099,447.906 630.099,445.613 		"/>
		<polygon fill="#4A4B49" points="614.606,436.582 614.606,438.874 630.099,447.906 630.099,445.613 		"/>
		<g>
			<polygon fill="#F1F2F1" points="644.946,419.253 660.106,427.797 630.099,445.249 615.043,436.705 			"/>
			<path fill="#C4C5C5" d="M630.099,445.666c-0.071,0-0.144-0.02-0.208-0.056l-15.056-8.544c-0.131-0.071-0.209-0.208-0.209-0.357
				c0-0.15,0.078-0.287,0.202-0.365l29.903-17.452c0.13-0.071,0.286-0.075,0.417-0.003l15.16,8.543
				c0.13,0.075,0.215,0.212,0.215,0.361c0,0.15-0.078,0.29-0.209,0.365l-30.008,17.452
				C630.242,445.646,630.17,445.666,630.099,445.666z M615.877,436.699l14.215,8.068l29.174-16.965l-14.319-8.068L615.877,436.699z"
				/>
		</g>
		<polygon fill="#191C19" points="642.504,421.838 655.385,429.1 633.225,441.932 620.429,434.677 		"/>
		<linearGradient id="SVGID_3_" gradientUnits="userSpaceOnUse" x1="622.4404" y1="439.4834" x2="650.4664" y2="426.2518">
			<stop  offset="0" style="stop-color:#1E201E"/>
			<stop  offset="1" style="stop-color:#464846"/>
		</linearGradient>
		<polygon fill="url(#SVGID_3_)" points="642.413,422.467 655.021,429.366 633.322,441.932 620.858,434.918 		"/>
		<path fill="#C4C5C5" d="M627.201,439.424c0.045,0.749-0.854,1.394-2.02,1.433c-1.158,0.042-2.136-0.53-2.181-1.279
			c-0.046-0.756,0.859-1.397,2.019-1.439C626.179,438.099,627.162,438.672,627.201,439.424z"/>
		<path fill="#F1F2F1" d="M625.925,439.47c0.02,0.293-0.332,0.547-0.788,0.563c-0.456,0.016-0.84-0.209-0.859-0.505
			s0.338-0.547,0.794-0.563C625.527,438.949,625.912,439.174,625.925,439.47z"/>
		<path fill="#40423F" d="M650.924,424.59c0.02,0.293-0.332,0.547-0.787,0.563c-0.456,0.017-0.841-0.208-0.86-0.504
			c-0.02-0.297,0.339-0.547,0.795-0.563S650.911,424.293,650.924,424.59z"/>
	</g>
	<g>
		<polygon fill="#424441" points="865.697,254.121 625.573,115.27 625.573,97.901 865.697,236.686 		"/>
		<polygon fill="#424441" points="623.398,102.594 620.272,100.832 620.272,118.268 623.398,120.004 		"/>
		<path fill="#363733" d="M628.426,117.021V99.692l-5.027,2.875v17.437l5.066-2.944C628.458,117.04,628.426,117.047,628.426,117.021
			z"/>
		<polygon fill="#585958" points="629.721,95.342 620.272,100.832 623.398,102.567 632.847,97.159 		"/>
		<polygon fill="#585958" points="870.001,234.195 629.877,95.342 625.573,97.901 865.697,236.686 		"/>
		<path fill="#BEBEBF" d="M625.918,110.164c-0.261,2.914,1.088,5.385,2.989,5.512c1.908,0.127,3.653-2.139,3.907-5.053
			s-1.088-5.393-2.989-5.516C627.924,104.98,626.172,107.246,625.918,110.164z"/>
		<path fill="#EDF0BC" d="M631.277,105.872v0.007c-0.234-0.107-0.476-0.186-0.736-0.202c-1.744-0.117-3.347,1.96-3.581,4.634
			c-0.195,2.207,0.618,4.115,1.889,4.783v0.01l228.663,131.148l2.363-9.234L631.277,105.872z"/>
		<path fill="#A6A5A5" d="M852.387,239.857c-0.248,2.842,0.853,4.216,2.917,5.379l1.974,1.295c0.885-0.889,2.455-8.179,2.598-9.846
			l-3.673-1.762C854.347,234.801,852.641,237.012,852.387,239.857z"/>
		<path fill="#BEBEBF" d="M855.245,241.41c-0.254,2.842,1.062,5.255,2.917,5.379c1.856,0.123,3.563-2.087,3.81-4.93
			c0.254-2.846-1.055-5.262-2.917-5.383C857.205,236.354,855.499,238.564,855.245,241.41z"/>
		<polygon fill="#424441" points="860.559,239.629 857.434,237.867 857.434,255.304 860.559,257.039 		"/>
		<polygon fill="#363733" points="870.001,251.549 860.559,257.039 860.559,239.604 870.001,234.195 		"/>
		<polygon fill="#585958" points="866.875,232.378 857.434,237.867 860.559,239.604 870.001,234.195 		"/>
		<path fill="#A6A5A5" d="M630.398,112.248c0.228-2.589,1.628-4.656,3.269-5.002l-2.39-1.374v0.007
			c-0.234-0.107-0.476-0.186-0.736-0.202c-1.744-0.117-3.347,1.96-3.581,4.634c-0.195,2.207,0.618,4.115,1.889,4.783v0.01
			l2.599,1.49C630.672,115.575,630.242,113.996,630.398,112.248z"/>
		
			<rect x="616.363" y="171.418" transform="matrix(0.869 0.4949 -0.4949 0.869 182.7086 -344.6577)" fill="#FEFDEC" width="251.575" height="2.502"/>
	</g>
</g>
</svg>
