<?xml version="1.0" encoding="utf-8"?>
<!-- Generator: Adobe Illustrator 16.0.0, SVG Export Plug-In . SVG Version: 6.00 Build 0)  -->
<!DOCTYPE svg PUBLIC "-//W3C//DTD SVG 1.1//EN" "http://www.w3.org/Graphics/SVG/1.1/DTD/svg11.dtd">
<svg version="1.1" id="Capa_1" xmlns="http://www.w3.org/2000/svg" xmlns:xlink="http://www.w3.org/1999/xlink" x="0px" y="0px"
	 width="50px" height="40.391px" viewBox="0 0 50 40.391" enable-background="new 0 0 50 40.391" xml:space="preserve">
<g>
	<path fill="#FFFFFF" d="M49.898,26.982l-5.504-8.714V2.24L42.154,0H7.844l-2.24,2.24v16.028L0.1,26.982H49.898z M39.914,4.481
		v11.184c-2.887-0.747-7.875-1.668-14.914-1.668c-7.041,0-12.027,0.921-14.916,1.668V4.481H39.914z"/>
	<polygon fill="#FFFFFF" points="0,29.739 0,34.221 5.221,34.221 5.221,40.391 9.701,40.391 9.701,34.221 40.299,34.221 
		40.299,40.391 44.779,40.391 44.779,34.221 50,34.221 50,29.739 	"/>
	<path fill="#FFFFFF" d="M23.182,11.666v-2.61c0-1.55-2.25-2.806-5.023-2.806s-5.021,1.256-5.021,2.806v3.918
		c0,0,2.963-0.746,4.998-0.939C19.969,11.861,23.182,11.666,23.182,11.666z"/>
	<path fill="#FFFFFF" d="M36.863,12.974V9.056c0-1.55-2.25-2.806-5.023-2.806s-5.021,1.256-5.021,2.806v2.61
		c0,0,3.213,0.194,5.045,0.368C33.9,12.228,36.863,12.974,36.863,12.974z"/>
</g>
</svg>
