<?xml version="1.0" encoding="utf-8"?>
<!-- Generator: Adobe Illustrator 16.0.0, SVG Export Plug-In . SVG Version: 6.00 Build 0)  -->
<!DOCTYPE svg PUBLIC "-//W3C//DTD SVG 1.1//EN" "http://www.w3.org/Graphics/SVG/1.1/DTD/svg11.dtd">
<svg version="1.1" id="Capa_1" xmlns="http://www.w3.org/2000/svg" xmlns:xlink="http://www.w3.org/1999/xlink" x="0px" y="0px"
	 width="25px" height="23.575px" viewBox="0 0 25 23.575" enable-background="new 0 0 25 23.575" xml:space="preserve">
<path fill="#444242" d="M24.751,9.703L21.828,7.32V2.727c0-0.346-0.281-0.627-0.627-0.627h-2.934c-0.346,0-0.627,0.281-0.627,0.627
	v1.183L13.087,0.2C12.929,0.071,12.722,0,12.503,0c-0.221,0-0.43,0.072-0.59,0.202L0.25,9.703c-0.289,0.234-0.266,0.456-0.227,0.566
	c0.041,0.112,0.162,0.299,0.537,0.299h2.135V22.76c0,0.449,0.365,0.815,0.816,0.815H9.23c0.449,0,0.816-0.366,0.816-0.815v-2.579
	c0-0.103,0.086-0.188,0.188-0.188h4.701c0.102,0,0.188,0.086,0.188,0.188v2.579c0,0.449,0.367,0.815,0.816,0.815h5.551
	c0.451,0,0.816-0.366,0.816-0.815V10.568h2.135c0.375,0,0.496-0.187,0.537-0.299C25.017,10.159,25.041,9.938,24.751,9.703z
	 M15.837,15.221c-1.77,1.881-5.371,1.747-7.582,2.117c0.143-0.166,0.27-0.354,0.408-0.559c0.543-0.805,1.289-1.908,3.576-2.337
	c0.51-0.096,0.846-0.587,0.75-1.098s-0.586-0.847-1.098-0.751c-3.059,0.573-4.184,2.238-4.787,3.133
	c-0.107,0.158-0.252,0.373-0.316,0.432c-0.02,0.014-0.039,0.029-0.057,0.045c-0.135-1.754,0.443-4.689,3.85-6.083
	c4.803-1.966,5.855-2.487,6.33-2.749S18.853,12.014,15.837,15.221z"/>
</svg>
