<?xml version="1.0" encoding="utf-8"?>
<!-- Generator: Adobe Illustrator 16.0.0, SVG Export Plug-In . SVG Version: 6.00 Build 0)  -->
<!DOCTYPE svg PUBLIC "-//W3C//DTD SVG 1.1//EN" "http://www.w3.org/Graphics/SVG/1.1/DTD/svg11.dtd">
<svg version="1.1" id="Capa_1" xmlns="http://www.w3.org/2000/svg" xmlns:xlink="http://www.w3.org/1999/xlink" x="0px" y="0px"
	 width="50px" height="45.768px" viewBox="0 0 50 45.768" enable-background="new 0 0 50 45.768" xml:space="preserve">
<g>
	<g>
		<path fill="#FFFFFF" d="M10.736,44.644c2.203-0.437,3.711-2.427,4.568-4.479h-1.164c-0.498,0-0.988-0.01-1.475-0.032
			c-0.506,1.033-1.271,1.927-2.416,2.105c-0.354-0.306-0.807-0.497-1.313-0.497c-1.111,0-2.014,0.901-2.014,2.014
			s0.902,2.014,2.014,2.014C9.73,45.768,10.408,45.308,10.736,44.644z"/>
		<path fill="#FFFFFF" d="M42.146,45.768c1.113,0,2.014-0.901,2.014-2.014s-0.902-2.014-2.014-2.014
			c-0.443,0-0.852,0.148-1.184,0.393c-0.979-0.325-1.68-1.184-2.168-2.14c-0.744,0.13-1.408,0.171-1.906,0.171h-0.131h-0.076h-0.668
			c0.703,1.93,2.004,3.805,4.283,4.385C40.605,45.266,41.316,45.768,42.146,45.768z"/>
		<path fill="#FFFFFF" d="M38.85,7.325l-4.117-4.117c-0.756,0.192-3.072,1.688-3.766,2.41l5.479,5.478
			C37.162,10.409,38.641,8.114,38.85,7.325z"/>
		<path fill="#FFFFFF" d="M31.029,8.867c0.104,0,0.209-0.04,0.289-0.12l0.58-0.579c0.037-0.037,0.063-0.079,0.082-0.123
			c0.066-0.151,0.041-0.333-0.082-0.456c-0.123-0.124-0.305-0.149-0.455-0.082c-0.045,0.02-0.088,0.046-0.125,0.082l-0.58,0.578
			c-0.16,0.16-0.16,0.42,0,0.58C30.818,8.827,30.924,8.867,31.029,8.867z"/>
		<path fill="#FFFFFF" d="M29.289,10.605c0.105,0,0.209-0.04,0.291-0.119l0.578-0.58c0.16-0.159,0.16-0.42,0-0.579
			c-0.16-0.16-0.42-0.16-0.578,0L29,9.906c-0.16,0.16-0.16,0.42,0,0.58C29.08,10.566,29.184,10.605,29.289,10.605z"/>
		<path fill="#FFFFFF" d="M27.551,12.345c0.105,0,0.209-0.04,0.289-0.119l0.58-0.579c0.16-0.16,0.16-0.42,0-0.58s-0.42-0.16-0.58,0
			l-0.578,0.58c-0.16,0.159-0.16,0.419,0,0.579C27.34,12.305,27.445,12.345,27.551,12.345z"/>
		<path fill="#FFFFFF" d="M33.139,9.202c0.066-0.15,0.041-0.333-0.082-0.455c-0.125-0.124-0.305-0.149-0.455-0.082
			c-0.045,0.02-0.088,0.046-0.125,0.082l-0.58,0.58c-0.158,0.159-0.158,0.42,0,0.579c0.082,0.081,0.186,0.12,0.291,0.12
			s0.209-0.04,0.291-0.12l0.578-0.58C33.094,9.29,33.119,9.248,33.139,9.202z"/>
		<path fill="#FFFFFF" d="M31.318,10.486c-0.16-0.16-0.42-0.16-0.58,0l-0.58,0.579c-0.16,0.16-0.16,0.42,0,0.58
			c0.08,0.08,0.186,0.119,0.291,0.119s0.209-0.04,0.289-0.119l0.58-0.58C31.479,10.906,31.479,10.646,31.318,10.486z"/>
		<path fill="#FFFFFF" d="M29.58,12.225c-0.16-0.16-0.42-0.16-0.58,0l-0.58,0.58c-0.16,0.16-0.16,0.42,0,0.58
			c0.08,0.08,0.186,0.119,0.291,0.119c0.104,0,0.209-0.04,0.289-0.119l0.58-0.58C29.738,12.645,29.738,12.385,29.58,12.225z"/>
		<path fill="#FFFFFF" d="M33.346,11.186c0.105,0,0.211-0.04,0.291-0.12l0.58-0.579c0.037-0.037,0.063-0.08,0.082-0.124
			c0.066-0.151,0.041-0.332-0.082-0.456S33.91,9.758,33.76,9.824c-0.043,0.02-0.088,0.046-0.123,0.082l-0.58,0.58
			c-0.16,0.159-0.16,0.419,0,0.579C33.137,11.146,33.242,11.186,33.346,11.186z"/>
		<path fill="#FFFFFF" d="M31.607,12.925c0.105,0,0.211-0.04,0.291-0.12l0.58-0.579c0.158-0.16,0.158-0.42,0-0.58
			c-0.16-0.159-0.42-0.159-0.58,0l-0.58,0.58c-0.16,0.159-0.16,0.42,0,0.579C31.398,12.885,31.504,12.925,31.607,12.925z"/>
		<path fill="#FFFFFF" d="M29.869,14.663c0.104,0,0.209-0.04,0.289-0.12l0.58-0.579c0.16-0.16,0.16-0.419,0-0.579s-0.42-0.16-0.58,0
			l-0.578,0.579c-0.16,0.16-0.16,0.42,0,0.579C29.66,14.623,29.764,14.663,29.869,14.663z"/>
		<path fill="#FFFFFF" d="M48.361,19.672h-1.23h-1.229V0.819c0-0.452-0.367-0.819-0.82-0.819h-3.561
			c-0.205,0-0.404,0.077-0.555,0.217L38.02,2.929c-0.668-0.17-1.434,0.059-1.904,0.251l2.814,2.815
			c0.203-0.524,0.393-1.241,0.232-1.889l2.68-2.467h2.422v18.032H2.869H1.641C0.734,19.672,0,20.406,0,21.312v1.64
			c0,0.905,0.734,1.639,1.641,1.639h0.182h0.361H2.66c0.125,0.635,0.285,1.364,0.488,2.205l1.146,5.5
			c1.607,5.941,4.857,6.906,8.711,7.03c0.373,0.012,0.75,0.02,1.135,0.02h1.475l20.131,0.001l-0.002-0.012l0.002,0.011h1.143
			c0.465,0,0.998-0.03,1.568-0.114l0,0c2.521-0.371,5.795-1.809,7.324-6.504l1.865-8.137h0.484h0.23c0.045,0,0.086-0.01,0.129-0.013
			c0.844-0.066,1.51-0.765,1.51-1.626v-1.64C50,20.406,49.268,19.672,48.361,19.672z M35.295,36.801L35.295,36.801l0.002,0.016
			L35.295,36.801z"/>
	</g>
</g>
</svg>
