<?xml version="1.0" encoding="utf-8"?>
<!-- Generator: Adobe Illustrator 16.0.0, SVG Export Plug-In . SVG Version: 6.00 Build 0)  -->
<!DOCTYPE svg PUBLIC "-//W3C//DTD SVG 1.1//EN" "http://www.w3.org/Graphics/SVG/1.1/DTD/svg11.dtd">
<svg version="1.1" id="Capa_1" xmlns="http://www.w3.org/2000/svg" xmlns:xlink="http://www.w3.org/1999/xlink" x="0px" y="0px"
	 width="42.91px" height="50px" viewBox="0 0 42.91 50" enable-background="new 0 0 42.91 50" xml:space="preserve">
<g>
	<path fill="#339999" d="M42.042,20.235L23.78,0.982C23.188,0.359,22.356,0.002,21.492,0c-0.859,0-1.69,0.357-2.281,0.979
		L0.87,20.23c-0.871,0.916-1.112,2.257-0.614,3.415c0.497,1.161,1.634,1.912,2.897,1.912h1.082v18.269
		c0,3.405,2.77,6.175,6.176,6.175h22.077c3.405,0,6.176-2.77,6.176-6.175V25.559h1.094c1.262,0,2.397-0.75,2.896-1.908
		C43.15,22.49,42.912,21.15,42.042,20.235z M40.053,22.533c-0.052,0.118-0.169,0.195-0.298,0.195h-2.508
		c-0.781,0-1.414,0.633-1.414,1.414v19.683c0,1.845-1.502,3.347-3.347,3.347h-9.442v-7.154c2.516-0.699,4.371-2.979,4.371-5.72
		v-4.629c0.879,0,1.59-0.712,1.59-1.59s-0.711-1.589-1.59-1.589h-2.188v-3.512c0-0.658-0.534-1.191-1.191-1.191
		c-0.658,0-1.191,0.533-1.191,1.191v3.512h-2.384v-3.51c0-0.658-0.535-1.193-1.193-1.193c-0.657,0-1.191,0.535-1.191,1.193v3.51
		h-2.582c-0.878,0-1.59,0.711-1.59,1.589s0.712,1.59,1.59,1.59v4.628c0,2.739,1.856,5.021,4.372,5.721v7.154h-9.455
		c-1.845,0-3.347-1.502-3.347-3.347V24.143c0-0.781-0.633-1.414-1.415-1.414H3.153c-0.129,0-0.246-0.076-0.297-0.196
		c-0.051-0.119-0.026-0.257,0.063-0.351L21.26,2.93c0.06-0.063,0.144-0.101,0.232-0.101c0.092,0.001,0.176,0.037,0.236,0.101
		l18.264,19.252C40.08,22.275,40.104,22.414,40.053,22.533z"/>
</g>
</svg>
