<?xml version="1.0" encoding="utf-8"?>
<!-- Generator: Adobe Illustrator 16.0.0, SVG Export Plug-In . SVG Version: 6.00 Build 0)  -->
<!DOCTYPE svg PUBLIC "-//W3C//DTD SVG 1.1//EN" "http://www.w3.org/Graphics/SVG/1.1/DTD/svg11.dtd">
<svg version="1.1" id="Capa_1" xmlns="http://www.w3.org/2000/svg" xmlns:xlink="http://www.w3.org/1999/xlink" x="0px" y="0px"
	 width="10.313px" height="15px" viewBox="0 0 10.313 15" enable-background="new 0 0 10.313 15" xml:space="preserve">
<g>
	<g>
		<g>
			<g>
				<path fill="#050206" d="M9.375,0.938H7.5C7.5,0.42,7.08,0,6.563,0H3.75C3.232,0,2.813,0.42,2.813,0.938H0.938
					C0.42,0.938,0,1.357,0,1.875h10.313C10.313,1.357,9.893,0.938,9.375,0.938z"/>
				<path fill="#050206" d="M0,14.063C0,14.58,0.42,15,0.938,15h8.438c0.518,0,0.938-0.42,0.938-0.938V2.813H0V14.063z M7.5,5.156
					c0-0.258,0.211-0.469,0.469-0.469s0.469,0.211,0.469,0.469v7.5c0,0.258-0.211,0.469-0.469,0.469S7.5,12.914,7.5,12.656V5.156z
					 M4.688,5.156c0-0.258,0.209-0.469,0.469-0.469c0.258,0,0.469,0.211,0.469,0.469v7.5c0,0.258-0.211,0.469-0.469,0.469
					c-0.26,0-0.469-0.211-0.469-0.469V5.156z M1.875,5.156c0-0.258,0.209-0.469,0.469-0.469c0.258,0,0.469,0.211,0.469,0.469v7.5
					c0,0.258-0.211,0.469-0.469,0.469c-0.26,0-0.469-0.211-0.469-0.469V5.156z"/>
			</g>
		</g>
	</g>
</g>
<g>
	<text transform="matrix(1 0 0 1 544.0596 12.2891)" font-family="'ArialMT'" font-size="12">Editar</text>
	<g>
		<path fill="#030104" d="M536.33,3.688l3.066,3.066l-7.762,7.762l-3.064-3.066L536.33,3.688z M541.725,2.948l-1.369-1.367
			c-0.527-0.529-1.387-0.529-1.916,0l-1.311,1.311l3.066,3.066l1.529-1.529C542.133,4.021,542.133,3.358,541.725,2.948z
			 M526.967,15.759c-0.057,0.252,0.17,0.477,0.422,0.416l3.416-0.828l-3.064-3.066L526.967,15.759z"/>
	</g>
</g>
</svg>
