<?xml version="1.0" encoding="utf-8"?>
<!-- Generator: Adobe Illustrator 16.0.0, SVG Export Plug-In . SVG Version: 6.00 Build 0)  -->
<!DOCTYPE svg PUBLIC "-//W3C//DTD SVG 1.1//EN" "http://www.w3.org/Graphics/SVG/1.1/DTD/svg11.dtd">
<svg version="1.1" id="Capa_1" xmlns="http://www.w3.org/2000/svg" xmlns:xlink="http://www.w3.org/1999/xlink" x="0px" y="0px"
	 width="209.377px" height="52.465px" viewBox="0 0 209.377 52.465" enable-background="new 0 0 209.377 52.465"
	 xml:space="preserve">
<g>
	<path fill="#2C4F29" d="M209.377,7.108h-45.4v38.242h45.4V7.108z M200.912,13.818c2.182,0,3.939,1.764,3.939,3.938
		c0,2.181-1.758,3.94-3.939,3.94c-2.178,0-3.938-1.76-3.938-3.94C196.975,15.582,198.734,13.818,200.912,13.818 M200.912,30.146
		c2.182,0,3.939,1.763,3.939,3.938c0,2.18-1.758,3.946-3.939,3.946c-2.178,0-3.938-1.767-3.938-3.946
		C196.975,31.909,198.734,30.146,200.912,30.146"/>
	<path fill="#2C4F29" d="M0,45.351h48.912V7.111H0V45.351z M8.465,38.653c-2.18,0-3.941-1.767-3.941-3.944
		c0-2.176,1.762-3.941,3.941-3.941c2.174,0,3.941,1.766,3.941,3.941C12.406,36.887,10.639,38.653,8.465,38.653 M8.465,22.321
		c-2.18,0-3.941-1.768-3.941-3.944c0-2.176,1.762-3.941,3.941-3.941c2.174,0,3.941,1.766,3.941,3.941
		C12.406,20.554,10.639,22.321,8.465,22.321"/>
	<path fill="#C6C5C5" d="M178.477,41.976c0,5.793-4.695,10.489-10.49,10.489H34.35c-5.799,0-10.49-4.696-10.49-10.489V10.487
		C23.859,4.695,28.551,0,34.35,0h133.637c5.795,0,10.49,4.695,10.49,10.487V41.976"/>
	<path fill="#4A833D" d="M97.034,0H34.35c-5.799,0-10.49,4.695-10.49,10.487v31.488c0,5.793,4.691,10.489,10.49,10.489h62.684V0z"/>
	<path fill="#69A86A" d="M167.986,0H97.133v52.465h70.853c5.795,0,10.49-4.696,10.49-10.489V10.487
		C178.477,4.695,173.781,0,167.986,0z"/>
	<rect x="179.34" y="9.937" fill="#69A86A" width="4.543" height="32.937"/>
	<path fill="#69A86A" d="M191.432,14.289c0-1.617-1.311-2.928-2.93-2.928h-6.643v5.855h6.643
		C190.121,17.217,191.432,15.903,191.432,14.289"/>
	<path fill="#69A86A" d="M191.432,21.945c0-1.615-1.311-2.926-2.93-2.926h-6.643v5.851h6.643
		C190.121,24.87,191.432,23.561,191.432,21.945"/>
	<path fill="#69A86A" d="M188.502,32.532c1.615,0,2.93-1.31,2.93-2.927c0-1.616-1.314-2.926-2.93-2.926h-6.646v5.853H188.502z"/>
	<path fill="#69A86A" d="M188.502,40.19c1.615,0,2.93-1.308,2.93-2.926c0-1.615-1.314-2.927-2.93-2.927h-6.646v5.853H188.502z"/>
	<path fill="#C2C3C9" d="M188.457,16.647c-1.305,0-2.361-1.057-2.361-2.358c0-1.303,1.057-2.359,2.361-2.359
		c1.299,0,2.355,1.057,2.355,2.359C190.813,15.591,189.756,16.647,188.457,16.647"/>
	<path fill="#C2C3C9" d="M188.457,24.399c-1.357,0-2.457-1.101-2.457-2.454c0-1.353,1.1-2.451,2.457-2.451s2.447,1.099,2.447,2.451
		C190.904,23.299,189.814,24.399,188.457,24.399"/>
	<path fill="#C2C3C9" d="M188.457,31.967c-1.357,0-2.457-1.1-2.457-2.456c0-1.352,1.1-2.45,2.457-2.45s2.447,1.099,2.447,2.45
		C190.904,30.867,189.814,31.967,188.457,31.967"/>
	<path fill="#C2C3C9" d="M188.457,39.674c-1.357,0-2.457-1.099-2.457-2.455c0-1.352,1.1-2.451,2.457-2.451s2.447,1.1,2.447,2.451
		C190.904,38.575,189.814,39.674,188.457,39.674"/>
	<path fill="#E9E8E8" d="M201.82,33.044c-1.424,0-2.611-1.028-2.852-2.382c0.572-0.328,1.234-0.517,1.947-0.517
		c1.348,0,2.535,0.677,3.244,1.708C203.641,32.577,202.787,33.044,201.82,33.044"/>
	<path fill="#69A86A" d="M204.164,31.856c-0.713-1.031-1.9-1.71-3.248-1.71c-0.713,0-1.375,0.187-1.947,0.516
		c-0.031-0.167-0.051-0.343-0.051-0.517c0-1.602,1.305-2.9,2.902-2.9c1.604,0,2.896,1.299,2.896,2.9
		C204.717,30.784,204.516,31.375,204.164,31.856"/>
	<path fill="#E9E8E8" d="M200.912,38.03c-0.57,0-1.113-0.122-1.602-0.346c0.475-0.895,1.422-1.506,2.51-1.506
		c0.721,0,1.375,0.267,1.871,0.707C202.977,37.594,202.002,38.03,200.912,38.03"/>
	<path fill="#69A86A" d="M201.82,41.869c-1.57,0-2.844-1.271-2.844-2.845c0-0.484,0.119-0.934,0.334-1.337
		c0.488,0.221,1.033,0.343,1.605,0.343c1.078,0,2.061-0.441,2.775-1.145c0.604,0.517,0.975,1.284,0.975,2.139
		C204.666,40.598,203.389,41.869,201.82,41.869"/>
	<path fill="#EEEDED" d="M165.178,49.578H45.4v-1.241h119.777c2.732,0,5.189-1.099,6.984-2.888c1.787-1.792,2.889-4.256,2.889-6.982
		V13.298c0-2.729-1.102-5.189-2.889-6.982c-1.795-1.787-4.252-2.893-6.984-2.893H77.893V2.188h87.285
		c6.141,0,11.111,4.972,11.111,11.11v25.169C176.289,44.604,171.318,49.577,165.178,49.578"/>
	<path fill="#EEEDED" d="M46.189,49.578h-8.332c-6.133-0.001-11.111-4.974-11.111-11.111V13.298c0-6.139,4.979-11.11,11.111-11.11
		h44.186c-0.15,0.396-0.289,0.806-0.402,1.235H37.857c-2.73,0-5.193,1.105-6.984,2.893c-1.783,1.793-2.885,4.253-2.885,6.982v25.169
		c0,2.727,1.102,5.19,2.885,6.982c1.791,1.789,4.254,2.888,6.984,2.888h9.072L46.189,49.578"/>
</g>
</svg>
