<?xml version="1.0" encoding="utf-8"?>
<!-- Generator: Adobe Illustrator 16.0.0, SVG Export Plug-In . SVG Version: 6.00 Build 0)  -->
<!DOCTYPE svg PUBLIC "-//W3C//DTD SVG 1.1//EN" "http://www.w3.org/Graphics/SVG/1.1/DTD/svg11.dtd">
<svg version="1.1" id="Capa_1" xmlns="http://www.w3.org/2000/svg" xmlns:xlink="http://www.w3.org/1999/xlink" x="0px" y="0px"
	 width="149.034px" height="183.201px" viewBox="0 0 149.034 183.201" enable-background="new 0 0 149.034 183.201"
	 xml:space="preserve">
<g>
	<path fill="#4A833D" d="M149.03,8.663c0-4.786-3.877-8.659-8.658-8.659H8.664C3.88,0.004,0,3.877,0,8.663v27.09h149.03V8.663"/>
	<path fill="#69A86A" d="M0.002,40.952v133.59c0,4.781,3.878,8.659,8.657,8.659h131.709c4.785,0,8.666-3.878,8.666-8.659V40.952
		H0.002"/>
	<path fill="#EEEDED" stroke="#C2C3C9" stroke-miterlimit="10" d="M17.405,109.16c0-31.455,25.426-56.952,56.793-56.952
		s56.795,25.497,56.795,56.952c0,31.456-25.428,56.958-56.795,56.958S17.405,140.616,17.405,109.16"/>
	<path fill="#AFCCB0" d="M26.872,109.16c0-26.21,20.91-6.324,54.133,14.558c10.154,6.38,19.519-1.677,26.683-9.733
		c8.454-9.504,13.843-19.008,13.843-4.824c0,26.214-21.191,47.462-47.334,47.462C48.063,156.622,26.872,135.374,26.872,109.16"/>
	<rect x="12.804" y="14.159" fill="#807F83" width="38.189" height="8.655"/>
	<rect x="14.405" y="15.162" fill="#FFFFFF" width="34.992" height="6.655"/>
	<path fill="#2C4F29" d="M12.804,22.817h38.188v-8.658H12.804V22.817z M76.957,35.758H0.002V8.663C0.002,3.878,3.88,0,8.659,0
		h68.298V35.758"/>
	<path fill="#69A86A" d="M14.405,21.817h34.992v-6.655H14.405V21.817z M50.993,22.814H12.804v-8.655h38.189V22.814z"/>
	<rect x="14.405" y="15.162" fill="#DFDEDE" width="34.992" height="6.655"/>
	<path fill="#4A833D" d="M76.957,183.201H8.659c-4.779,0-8.657-3.878-8.657-8.659V40.952h76.955v11.322
		c-0.913-0.041-1.835-0.066-2.759-0.066c-31.367,0-56.793,25.497-56.793,56.954c0,31.454,25.426,56.952,56.793,56.952
		c0.924,0,1.846-0.021,2.759-0.066V183.201"/>
	<path fill="#C1D9C4" d="M74.198,166.114c-31.365,0-56.793-25.499-56.793-56.954s25.428-56.947,56.793-56.947
		c0.924,0,1.849,0.021,2.762,0.062v68.87c-19.883-12.802-34.93-24.506-43.128-24.506c-4.526,0-6.96,3.578-6.96,12.521
		c0,26.214,21.189,47.463,47.326,47.463c0.924,0,1.849-0.025,2.762-0.082v9.51C76.047,166.093,75.122,166.114,74.198,166.114"/>
	<path fill="#9FC09F" d="M74.198,156.623c-26.137,0-47.326-21.252-47.326-47.461c0-8.945,2.434-12.523,6.96-12.523
		c8.198,0,23.245,11.708,43.128,24.506v35.396C76.047,156.596,75.122,156.623,74.198,156.623"/>
	<path fill="#2C4F29" d="M115.169,16.938c0-4.468,3.621-8.088,8.09-8.088c4.465,0,8.086,3.62,8.086,8.088
		c0,4.467-3.621,8.088-8.086,8.088C118.79,25.025,115.169,21.404,115.169,16.938"/>
	<path fill="#FFFFFF" d="M116.968,16.938c0-3.476,2.816-6.285,6.287-6.285c3.475,0,6.291,2.81,6.291,6.285
		c0,3.477-2.816,6.293-6.291,6.293C119.784,23.23,116.968,20.414,116.968,16.938"/>
	<path fill="#2C4F29" d="M96.187,16.938c0-4.468,3.619-8.088,8.085-8.088c4.47,0,8.093,3.62,8.093,8.088
		c0,4.467-3.623,8.088-8.093,8.088C99.806,25.025,96.187,21.404,96.187,16.938"/>
	<path fill="#FFFFFF" d="M97.983,16.931c0.002-3.475,2.824-6.283,6.295-6.278c3.476,0.004,6.289,2.817,6.284,6.292
		c-0.005,3.476-2.821,6.291-6.297,6.286C100.794,23.227,97.981,20.407,97.983,16.931"/>
</g>
</svg>
