<?xml version="1.0" encoding="utf-8"?>
<!-- Generator: Adobe Illustrator 16.0.0, SVG Export Plug-In . SVG Version: 6.00 Build 0)  -->
<!DOCTYPE svg PUBLIC "-//W3C//DTD SVG 1.1//EN" "http://www.w3.org/Graphics/SVG/1.1/DTD/svg11.dtd">
<svg version="1.1" id="Capa_1" xmlns="http://www.w3.org/2000/svg" xmlns:xlink="http://www.w3.org/1999/xlink" x="0px" y="0px"
	 width="123.71px" height="183.81px" viewBox="0 0 123.71 183.81" enable-background="new 0 0 123.71 183.81" xml:space="preserve">
<g>
	<rect x="3.202" y="161.939" fill="#2C4F29" width="117.302" height="21.87"/>
	<path fill="#4A833D" d="M123.71,6.329c0-3.496-2.828-6.329-6.325-6.329H6.326C2.832,0,0,2.833,0,6.329v23.896h123.71V6.329z"/>
	<rect y="143.054" fill="#336535" width="123.71" height="23.36"/>
	<rect y="36.19" fill="#336535" width="123.71" height="102.388"/>
	<path fill="#2C4F29" d="M10.147,18.791c0-2.152,1.746-3.9,3.903-3.9c2.158,0,3.902,1.748,3.902,3.9
		c0,2.159-1.744,3.902-3.902,3.902C11.893,22.693,10.147,20.95,10.147,18.791"/>
	<path fill="#2C4F29" d="M24.444,18.791c0-2.152,1.746-3.9,3.903-3.9c2.155,0,3.902,1.748,3.902,3.9
		c0,2.159-1.747,3.902-3.902,3.902C26.189,22.693,24.444,20.95,24.444,18.791"/>
	<path fill="#2C4F29" d="M38.325,18.791c0-2.152,1.746-3.9,3.903-3.9c2.156,0,3.9,1.748,3.9,3.9c0,2.159-1.744,3.902-3.9,3.902
		C40.071,22.693,38.325,20.95,38.325,18.791"/>
	<path fill="#2C4F29" d="M79.197,18.791c0-2.152,1.75-3.9,3.907-3.9c2.155,0,3.901,1.748,3.901,3.9c0,2.159-1.746,3.902-3.901,3.902
		C80.947,22.693,79.197,20.95,79.197,18.791"/>
	<path fill="#2C4F29" d="M93.285,18.791c0-2.152,1.75-3.9,3.909-3.9c2.155,0,3.901,1.748,3.901,3.9c0,2.159-1.746,3.902-3.901,3.902
		C95.035,22.693,93.285,20.95,93.285,18.791"/>
	<path fill="#2C4F29" d="M107.376,18.791c0-2.152,1.746-3.9,3.904-3.9c2.156,0,3.9,1.748,3.9,3.9c0,2.159-1.744,3.902-3.9,3.902
		C109.123,22.693,107.376,20.95,107.376,18.791"/>
	<rect x="53.258" y="11.139" fill="#69A86A" width="19.223" height="6.049"/>
	<rect x="53.258" y="20.901" fill="#69A86A" width="19.223" height="3.082"/>
	<rect x="8.67" y="44.142" fill="#69A86A" width="106.362" height="6.96"/>
	<rect x="18.364" y="64.522" fill="#EEEDED" stroke="#C2C3C9" stroke-miterlimit="10" width="86.982" height="56.658"/>
</g>
</svg>
