<?xml version="1.0" encoding="utf-8"?>
<!-- Generator: Adobe Illustrator 16.0.0, SVG Export Plug-In . SVG Version: 6.00 Build 0)  -->
<!DOCTYPE svg PUBLIC "-//W3C//DTD SVG 1.1//EN" "http://www.w3.org/Graphics/SVG/1.1/DTD/svg11.dtd">
<svg version="1.1" id="Capa_1" xmlns="http://www.w3.org/2000/svg" xmlns:xlink="http://www.w3.org/1999/xlink" x="0px" y="0px"
	 width="112.213px" height="183.848px" viewBox="0 0 112.213 183.848" enable-background="new 0 0 112.213 183.848"
	 xml:space="preserve">
<g>
	<path fill="#B4C4D0" d="M96.439,0.559H47.811v171.617h48.629c8.713,0,15.773-7.062,15.773-15.773V16.331
		C112.213,7.622,105.152,0.559,96.439,0.559"/>
	<path fill="#B4C4D0" d="M0,16.331v140.071c0,8.712,7.061,15.779,15.775,15.779h28.076V0.555H15.775C7.061,0.555,0,7.619,0,16.331"
		/>
	<path fill="#69A86A" d="M96.439,0H47.811v171.621h48.629c8.713,0,15.773-7.064,15.773-15.774V15.771
		C112.213,7.064,105.152,0,96.439,0"/>
	<path fill="#69A86A" d="M0,15.771v140.076c0,8.71,7.061,15.775,15.775,15.775h28.076V0H15.775C7.061,0,0,7.061,0,15.771"/>
	<path fill="#A4B3BD" d="M96.439,172.182H47.811v-0.56h48.629c8.713,0,15.773-7.065,15.773-15.775v0.559
		C112.213,165.114,105.152,172.182,96.439,172.182"/>
	<path fill="#4A833D" d="M96.439,171.622H47.811V93.21l64.402-69.241v131.878C112.213,164.557,105.152,171.622,96.439,171.622"/>
	<path fill="#A4B3BD" d="M43.852,172.182H15.773C7.063,172.182,0,165.114,0,156.405v-0.559c0,8.71,7.063,15.775,15.773,15.775
		h28.078V172.182"/>
	<path fill="#4A833D" d="M43.852,171.622L43.852,171.622H15.773C7.063,171.622,0,164.557,0,155.847v-11.241l43.852-47.137V171.622"
		/>
	<path fill="#FFFFFF" d="M33.32,123.305c0,0.824-0.668,1.487-1.486,1.487c-0.828,0-1.496-0.663-1.496-1.487V47.929
		c0-0.825,0.668-1.491,1.496-1.491c0.818,0,1.486,0.666,1.486,1.491V123.305z"/>
	<path fill="#FFFFFF" d="M61.084,123.305c0,0.824-0.67,1.487-1.492,1.487c-0.824,0-1.492-0.663-1.492-1.487V47.929
		c0-0.825,0.668-1.491,1.492-1.491c0.822,0,1.492,0.666,1.492,1.491V123.305z"/>
	<rect x="72.219" y="38.793" fill="#FFFFFF" width="28.449" height="20.347"/>
	<path fill="#2C4F29" d="M99.979,58.444H72.902V39.479h27.076V58.444z M101.359,38.103h-1.381H72.904h-1.377v1.376v18.966v1.38
		h1.377h27.074h1.381v-1.38V39.479V38.103z"/>
	<rect x="8.371" y="175.323" fill="#336535" width="97.211" height="8.524"/>
</g>
</svg>
