<?xml version="1.0" encoding="utf-8"?>
<!-- Generator: Adobe Illustrator 16.0.0, SVG Export Plug-In . SVG Version: 6.00 Build 0)  -->
<!DOCTYPE svg PUBLIC "-//W3C//DTD SVG 1.1//EN" "http://www.w3.org/Graphics/SVG/1.1/DTD/svg11.dtd">
<svg version="1.1" id="Capa_1" xmlns="http://www.w3.org/2000/svg" xmlns:xlink="http://www.w3.org/1999/xlink" x="0px" y="0px"
	 width="202.035px" height="112.597px" viewBox="0 0 202.035 112.597" enable-background="new 0 0 202.035 112.597"
	 xml:space="preserve">
<g>
	<path fill="#69A86A" d="M202.035,54.849c0,7.572-6.137,13.709-13.707,13.709H13.711c-7.568,0-13.709-6.137-13.709-13.709V13.712
		c0-7.57,6.141-13.711,13.709-13.711h174.617c7.57,0,13.707,6.141,13.707,13.711V54.849"/>
	<path fill="#FFFFFF" d="M152.943,20.478c0,1.15-0.932,2.081-2.078,2.081H17.414c-1.146,0-2.074-0.931-2.074-2.081
		c0-1.146,0.928-2.077,2.074-2.077h133.451C152.012,18.4,152.943,19.332,152.943,20.478"/>
	<path fill="#FFFFFF" d="M152.943,34.044c0,1.146-0.932,2.076-2.078,2.076H17.414c-1.146,0-2.074-0.93-2.074-2.076
		c0-1.15,0.928-2.078,2.074-2.078h133.451C152.012,31.966,152.943,32.894,152.943,34.044"/>
	<path fill="#FFFFFF" d="M152.943,47.39c0,1.146-0.932,2.074-2.078,2.074H17.414c-1.146,0-2.074-0.928-2.074-2.074
		c0-1.15,0.928-2.078,2.074-2.078h133.451C152.012,45.312,152.943,46.24,152.943,47.39"/>
	<rect x="21.244" y="71.998" fill="#336535" width="148.326" height="6.564"/>
	<path fill="#4A833D" d="M99.484,68.56H13.709C6.139,68.56,0,62.416,0,54.849V13.712C0,6.143,6.139,0,13.709,0h85.775v18.399H17.41
		c-1.139,0-2.07,0.935-2.07,2.078c0,1.15,0.932,2.081,2.07,2.081h82.074v9.408H17.41c-1.139,0-2.07,0.928-2.07,2.078
		c0,1.146,0.932,2.076,2.07,2.076h82.074v9.189H17.41c-1.139,0-2.07,0.93-2.07,2.08c0,1.148,0.932,2.074,2.07,2.074h82.074V68.56"/>
	<path fill="#E9E8E8" d="M99.484,22.559H17.41c-1.139,0-2.07-0.931-2.07-2.081c0-1.146,0.932-2.077,2.07-2.077h82.074V22.559"/>
	<path fill="#E9E8E8" d="M99.484,36.121H17.41c-1.139,0-2.07-0.93-2.07-2.076c0-1.15,0.932-2.078,2.07-2.078h82.074V36.121"/>
	<path fill="#E9E8E8" d="M99.484,49.464H17.41c-1.139,0-2.07-0.928-2.07-2.074c0-1.15,0.932-2.08,2.07-2.08h82.074V49.464"/>
	<path fill="#2C4F29" d="M162.752,34.205c0-1.373,1.109-2.482,2.484-2.482c1.371,0,2.484,1.109,2.484,2.482
		s-1.113,2.488-2.484,2.488C163.861,36.693,162.752,35.578,162.752,34.205"/>
	<path fill="#2C4F29" d="M173.379,34.205c0-1.373,1.115-2.482,2.488-2.482s2.484,1.109,2.484,2.482s-1.111,2.488-2.484,2.488
		S173.379,35.578,173.379,34.205"/>
	<path fill="#2C4F29" d="M184.014,34.205c0-1.373,1.109-2.482,2.482-2.482s2.484,1.109,2.484,2.482s-1.111,2.488-2.484,2.488
		S184.014,35.578,184.014,34.205"/>
	<path fill="#FFFFFF" d="M186.412,45.966c0,1.328-1.08,2.406-2.406,2.406H167.6c-1.328,0-2.406-1.078-2.406-2.406
		s1.078-2.406,2.406-2.406h16.406C185.332,43.56,186.412,44.638,186.412,45.966"/>
	<path fill="#2C4F29" d="M167.236,19.219c0-4.876,3.953-8.828,8.828-8.828c4.877,0,8.828,3.952,8.828,8.828
		c0,4.877-3.951,8.828-8.828,8.828C171.189,28.046,167.236,24.096,167.236,19.219"/>
	<path fill="#FFFFFF" d="M173.865,14.723c0-1.371,1.111-2.483,2.484-2.483s2.486,1.112,2.486,2.483c0,1.376-1.113,2.486-2.486,2.486
		S173.865,16.099,173.865,14.723"/>
	<polygon fill="#2C4F29" points="102.084,101.896 100.24,87.162 99.311,87.162 98.387,87.162 96.535,101.896 93.135,101.896 
		99.311,112.597 105.488,101.896 	"/>
	<polygon fill="#2C4F29" points="47.527,101.896 45.684,87.162 44.756,87.162 43.832,87.162 41.98,101.896 38.582,101.896 
		44.756,112.597 50.936,101.896 	"/>
	<polygon fill="#2C4F29" points="156.641,101.896 154.793,87.162 153.869,87.162 152.943,87.162 151.094,101.896 147.688,101.896 
		153.869,112.597 160.047,101.896 	"/>
</g>
</svg>
