<?xml version="1.0" encoding="utf-8"?>
<!-- Generator: Adobe Illustrator 16.0.0, SVG Export Plug-In . SVG Version: 6.00 Build 0)  -->
<!DOCTYPE svg PUBLIC "-//W3C//DTD SVG 1.1//EN" "http://www.w3.org/Graphics/SVG/1.1/DTD/svg11.dtd">
<svg version="1.1" id="Capa_1" xmlns="http://www.w3.org/2000/svg" xmlns:xlink="http://www.w3.org/1999/xlink" x="0px" y="0px"
	 width="20px" height="20px" viewBox="0 0 20 20" enable-background="new 0 0 20 20" xml:space="preserve">
<g>
	<g>
		<path fill="#F7F7F8" d="M18.943,12.259h-6.552l-0.879,1c-0.381,0.434-0.934,0.684-1.512,0.684c-0.577,0-1.13-0.25-1.511-0.684
			l-0.879-1H1.059C0.475,12.259,0,12.733,0,13.317v4.203c0,0.584,0.475,1.058,1.059,1.058h17.883c0.585,0,1.059-0.474,1.059-1.058
			v-4.203C20.002,12.733,19.528,12.259,18.943,12.259z M2.947,16.322c-0.498,0-0.902-0.405-0.902-0.902
			c0-0.498,0.404-0.902,0.902-0.902c0.497,0,0.902,0.404,0.902,0.902C3.85,15.917,3.444,16.322,2.947,16.322z"/>
		<path fill="#F7F7F8" d="M8.879,12.259l0.326,0.373c0.212,0.239,0.504,0.36,0.796,0.36s0.585-0.121,0.796-0.36l0.326-0.373
			l4.419-5.034c0.601-0.684,0.114-1.757-0.796-1.757h-1.389V2.48c0-0.584-0.475-1.059-1.059-1.059H7.704
			c-0.584,0-1.059,0.475-1.059,1.059V5.47H5.257c-0.91,0-1.396,1.073-0.796,1.757L8.879,12.259z"/>
	</g>
</g>
</svg>
