<?xml version="1.0" encoding="utf-8"?>
<!-- Generator: Adobe Illustrator 16.0.0, SVG Export Plug-In . SVG Version: 6.00 Build 0)  -->
<!DOCTYPE svg PUBLIC "-//W3C//DTD SVG 1.1//EN" "http://www.w3.org/Graphics/SVG/1.1/DTD/svg11.dtd">
<svg version="1.1" id="Capa_1" xmlns="http://www.w3.org/2000/svg" xmlns:xlink="http://www.w3.org/1999/xlink" x="0px" y="0px"
	 width="996px" height="964.957px" viewBox="0 0 996 964.957" enable-background="new 0 0 996 964.957" xml:space="preserve">
<g>
	<polygon fill="#EAD69E" points="497.916,390.004 0,677.48 498.084,964.957 996,677.48 	"/>
	<polygon fill="#FDFDF9" points="497.916,390.004 0,677.48 0,287.477 497.916,0 	"/>
	<polygon fill="#CCDB9D" points="497.916,390.004 995.832,677.48 995.832,287.477 497.916,0 	"/>
	<polygon fill="#DDC48C" points="497.916,390.004 995.832,677.48 995.832,668.36 497.916,380.885 	"/>
	<polygon fill="#D2B67E" points="497.916,390.004 0,677.48 0,668.36 497.916,380.885 	"/>
	<g>
		<path fill="#A8844A" d="M540.402,64.955c-0.607,0-1.221-0.153-1.785-0.478l-19.406-11.212c-1.708-0.986-2.294-3.173-1.311-4.878
			c0.99-1.712,3.173-2.294,4.881-1.308l19.405,11.213c1.709,0.986,2.294,3.172,1.312,4.877
			C542.835,64.317,541.636,64.955,540.402,64.955z"/>
		<g>
			<polygon fill="#C8E1E4" points="610.709,122.359 899.887,289.262 899.887,510.997 610.709,344.096 			"/>
			<path fill="#DAEAEC" d="M800.377,442.584c4.142-6.252,63.955-92.852,86.756-131.805c4.212-7.192,8.305-14.458,12.356-21.748
				l-62.156-35.872c0,0-113.148,155.093-113.929,155.979l71.353,41.182C796.751,447.83,798.627,445.232,800.377,442.584z"/>
			<path fill="#DAEAEC" d="M803.486,233.625l-56.459-32.588c-7.217,9.873-99.377,146.607-108.044,159.379l55.637,32.109
				C707.966,374.044,803.486,233.625,803.486,233.625z"/>
			<g>
				<polygon fill="none" points="616.189,338.541 642.428,353.687 642.428,149.386 616.189,134.241 				"/>
				<polygon fill="none" points="649.387,357.703 851.578,474.396 851.578,270.096 649.387,153.402 				"/>
				<polygon fill="none" points="858.537,478.413 892.928,498.265 892.928,293.965 858.537,274.113 				"/>
				<path fill="#AE8A5D" d="M892.928,285.244v0.004L649.387,144.687v-0.015l-6.959-4.016v0.014l-26.238-15.145v-0.004l-5.48-3.162
					v0.004v8.715v204.301v8.717l5.48,3.162l235.389,135.855v0.662l6.959,4.016v-0.662l34.391,19.852l6.959,4.017v-8.716V297.98
					v-8.716v-0.003L892.928,285.244z M642.428,353.687l-26.238-15.146v-204.3l26.238,15.145V353.687z M851.578,474.396
					L649.387,357.703V153.402l202.191,116.693V474.396z M892.928,498.265l-34.391-19.852v-204.3l34.391,19.852V498.265z"/>
			</g>
		</g>
		<g>
			<path fill="#E7BA5B" d="M538.693,58.411l-7.998-3.263v370.76c5.021,6.693,11.687,3.98,11.687,3.98l12.635-7.3V51.438
				L538.693,58.411z"/>
			<path fill="#DCA645" d="M541.545,57.191v372.949c0.523-0.129,0.837-0.252,0.837-0.252l12.635-7.3V51.438L541.545,57.191z"/>
			<path fill="#C79033" d="M545.171,46.875l-14.476,8.273c5.021,6.693,11.687,3.98,11.687,3.98l12.635-7.3v-0.391L545.171,46.875z"
				/>
			<path fill="#E7BA5B" d="M553.476,67.316l-7.997-3.264v370.76c5.02,6.693,11.686,3.98,11.686,3.98l12.635-7.3V60.343
				L553.476,67.316z"/>
			<path fill="#DCA645" d="M556.328,66.096v372.949c0.522-0.129,0.836-0.252,0.836-0.252l12.635-7.3V60.343L556.328,66.096z"/>
			<path fill="#C79033" d="M559.953,55.779l-14.475,8.273c5.02,6.693,11.686,3.98,11.686,3.98l12.635-7.3v-0.391L559.953,55.779z"/>
			<path fill="#E7BA5B" d="M568.258,75.494l-7.997-3.263v370.76c5.021,6.694,11.687,3.981,11.687,3.981l12.635-7.301V68.521
				L568.258,75.494z"/>
			<path fill="#DCA645" d="M571.11,74.274v372.949c0.522-0.129,0.837-0.251,0.837-0.251l12.635-7.301V68.521L571.11,74.274z"/>
			<path fill="#C79033" d="M574.736,63.959l-14.476,8.272c5.021,6.694,11.687,3.981,11.687,3.981l12.635-7.301v-0.391
				L574.736,63.959z"/>
			<path fill="#E7BA5B" d="M583.236,84.047l-7.998-3.264v370.76c5.021,6.694,11.687,3.982,11.687,3.982l12.635-7.301V77.074
				L583.236,84.047z"/>
			<path fill="#DCA645" d="M586.088,82.826v372.949c0.523-0.129,0.837-0.25,0.837-0.25l12.635-7.301V77.074L586.088,82.826z"/>
			<path fill="#C79033" d="M589.714,72.51l-14.476,8.273c5.021,6.694,11.687,3.982,11.687,3.982l12.635-7.301v-0.391L589.714,72.51z
				"/>
			<path fill="#E7BA5B" d="M598.256,92.672l-7.991-3.263v370.76c5.021,6.694,11.687,3.981,11.687,3.981l12.635-7.301V85.699
				L598.256,92.672z"/>
			<path fill="#C79033" d="M604.733,81.136l-14.469,8.273c5.021,6.694,11.687,3.981,11.687,3.981l12.635-7.301v-0.391
				L604.733,81.136z"/>
		</g>
		<path fill="#A8844A" d="M879.923,261.404c-0.606,0-1.22-0.153-1.778-0.478L608.011,104.875c-1.709-0.986-2.294-3.173-1.304-4.877
			c0.982-1.713,3.172-2.291,4.873-1.309l270.135,156.053c1.709,0.986,2.295,3.172,1.305,4.877
			C882.356,260.767,881.157,261.404,879.923,261.404z"/>
		<g>
			<path fill="#E7BA5B" d="M887.921,260.467l-7.991-3.264v370.76c5.021,6.694,11.688,3.982,11.688,3.982l12.635-7.301v-371.15
				L887.921,260.467z"/>
			<path fill="#DCA645" d="M890.779,259.246v372.949c0.523-0.129,0.838-0.25,0.838-0.25l12.635-7.301v-371.15L890.779,259.246z"/>
			<path fill="#C79033" d="M894.398,248.93l-14.469,8.273c5.021,6.694,11.688,3.982,11.688,3.982l12.635-7.301v-0.391
				L894.398,248.93z"/>
			<path fill="#E7BA5B" d="M902.703,269.371l-7.99-3.264v370.76c5.02,6.694,11.686,3.982,11.686,3.982l12.635-7.301v-371.15
				L902.703,269.371z"/>
			<path fill="#DCA645" d="M905.563,268.15V641.1c0.522-0.129,0.836-0.25,0.836-0.25l12.635-7.301v-371.15L905.563,268.15z"/>
			<path fill="#C79033" d="M909.182,257.834l-14.469,8.273c5.02,6.694,11.686,3.982,11.686,3.982l12.635-7.301v-0.391
				L909.182,257.834z"/>
			<path fill="#E7BA5B" d="M917.486,277.551l-7.991-3.264v370.76c5.021,6.693,11.687,3.981,11.687,3.981l12.635-7.301v-371.15
				L917.486,277.551z"/>
			<path fill="#DCA645" d="M920.345,276.33v372.949c0.522-0.129,0.837-0.251,0.837-0.251l12.635-7.301v-371.15L920.345,276.33z"/>
			<path fill="#C79033" d="M923.964,266.014l-14.469,8.273c5.021,6.693,11.687,3.981,11.687,3.981l12.635-7.301v-0.391
				L923.964,266.014z"/>
			<path fill="#E7BA5B" d="M932.463,286.103l-7.99-3.264v370.76c5.021,6.694,11.687,3.981,11.687,3.981l12.635-7.301v-371.15
				L932.463,286.103z"/>
			<path fill="#DCA645" d="M935.322,284.883v372.948c0.523-0.129,0.837-0.251,0.837-0.251l12.635-7.301v-371.15L935.322,284.883z"/>
			<path fill="#C79033" d="M938.941,274.566l-14.469,8.272c5.021,6.694,11.687,3.981,11.687,3.981l12.635-7.301v-0.391
				L938.941,274.566z"/>
			<path fill="#E7BA5B" d="M947.49,294.728l-7.998-3.263v370.76c5.021,6.693,11.687,3.98,11.687,3.98l12.635-7.3v-371.15
				L947.49,294.728z"/>
			<path fill="#C79033" d="M953.968,283.191l-14.476,8.273c5.021,6.693,11.687,3.98,11.687,3.98l12.635-7.3v-0.391L953.968,283.191z
				"/>
		</g>
		<path fill="#A8844A" d="M977.166,317.47c-0.606,0-1.22-0.153-1.785-0.478l-19.405-11.213c-1.708-0.986-2.294-3.172-1.311-4.877
			c0.99-1.715,3.173-2.291,4.881-1.308l19.405,11.212c1.709,0.987,2.294,3.174,1.311,4.878
			C979.6,316.832,978.4,317.47,977.166,317.47z"/>
	</g>
	<g>
		<polygon fill="#9A774E" points="578.467,510.575 514.31,473.794 514.31,399.271 578.467,436.607 		"/>
		<polygon fill="#836442" points="574.492,503.916 518.02,471.538 518.02,430.356 574.492,463.227 		"/>
		<polygon fill="#836442" points="574.492,458.723 518.02,426.344 518.02,406.613 574.492,439.484 		"/>
		<polygon fill="#D1A45F" points="553.043,436.116 537.32,427.1 537.32,421.609 553.043,430.761 		"/>
		<polygon fill="#D1A45F" points="553.043,462.177 537.32,453.161 537.32,447.67 553.043,456.822 		"/>
		<polygon fill="#B38D65" points="626.426,408.727 562.275,371.742 514.31,399.271 578.467,436.607 		"/>
		<polygon fill="#81623F" points="626.426,482.963 578.467,510.826 578.467,436.754 626.426,408.727 		"/>
		<g>
			<path fill="#D59637" d="M600.257,355.838c0.063,0.32,0.111,0.641,0.111,0.965v-0.965H600.257z"/>
			<path fill="#7F6349" d="M574.095,399.603c-4.979,0-9.051,1.736-9.455,3.95c-0.021,0.119-0.042,0.24-0.042,0.363
				c0,2.377,4.254,4.309,9.497,4.309s9.489-1.932,9.489-4.309c0-0.123-0.021-0.244-0.034-0.363
				C583.146,401.339,579.073,399.603,574.095,399.603z"/>
			<path fill="#69533A" d="M574.095,404.372c-1.974,0-3.57-1.597-3.57-3.569v-10.118c0-1.974,1.597-3.57,3.57-3.57
				s3.569,1.597,3.569,3.57v10.118C577.664,402.775,576.068,404.372,574.095,404.372z"/>
			<path fill="#6B5236" d="M574.095,387.854c-6.715,0-12.21,2.914-12.761,6.627c-0.021,0.199-0.049,0.402-0.049,0.607
				c0,3.988,5.732,7.23,12.81,7.23c7.07,0,12.809-3.242,12.809-7.23c0-0.205-0.027-0.408-0.056-0.607
				C586.304,390.768,580.81,387.854,574.095,387.854z"/>
			<path fill="#7F6349" d="M574.095,393.474c-1.974,0-3.57-1.597-3.57-3.57v-10.117c0-1.974,1.597-3.57,3.57-3.57
				s3.569,1.597,3.569,3.57v10.117C577.664,391.877,576.068,393.474,574.095,393.474z"/>
			<path fill="#D59637" d="M574.039,355.838v0.965c0-0.324,0.049-0.645,0.104-0.965H574.039z"/>
			<path fill="#ECC889" d="M574.095,345.238c-13.354,0-24.279,4.666-25.367,10.6c-0.056,0.32-0.104,0.641-0.104,0.965
				c0,6.391,11.4,11.568,25.472,11.568c14.063,0,25.472-5.178,25.472-11.568c0-0.324-0.049-0.645-0.111-0.965
				C598.374,349.904,587.44,345.238,574.095,345.238z"/>
			<path fill="#E5B131" d="M580.412,368.943c0,3.482-2.831,6.307-6.317,6.307c-3.493,0-6.317-2.824-6.317-6.307
				c0-3.477,2.824-6.301,6.317-6.301C577.581,362.643,580.412,365.467,580.412,368.943z"/>
			<path fill="#995A35" d="M574.095,368.371c-14.071,0-25.472-5.178-25.472-11.568v18.744c0,6.391,11.4,11.567,25.472,11.567
				c14.063,0,25.472-5.177,25.472-11.567v-18.744C599.566,363.193,588.158,368.371,574.095,368.371z"/>
		</g>
	</g>
	<g>
		<path opacity="0.3" fill="#322F25" d="M829.97,519.682c0,0-80.905,39.805-156.784,83.674
			c-68.257,39.467-126.976,80.3-126.976,80.3s-47.359-31.032-92.689-57.247c-42.933-24.834-83.974-44.919-83.974-44.919
			l-5.174,68.278l15.005,9.295l12.363,9.671l5.069,0.464l11.114,6.46l10.445,7.803l7.978,2.901l11.051,6.425l10.425,7.705
			l9.985,4.155l18.576,12.652l27.256,15.117l13.207,8.686l9.853,4.106l19.412,10.77l12.865-5.464l24.99-14.13l20.151-13.392
			l16.296-7.436l23.505-15.278l10.111-3.908l13.186-9.389l18.848-10.756l12.3-5.442l26.177-18.297l20.199-9.755l25.172-16.87
			l12.328-4.536l13.402-9.151l17.251-8.348l6.255-6.084l18.185-8.492L829.97,519.682z"/>
		<polygon fill="#755B3A" points="829.97,584.617 835.29,584.617 835.29,454.748 829.97,457.951 		"/>
		<polygon fill="#8C7047" points="829.97,584.617 654.742,486.365 654.742,355.161 829.97,457.951 		"/>
		<polygon fill="#755B3A" points="818.945,573.609 665.767,487.726 665.767,373.036 818.945,462.889 		"/>
		<polygon fill="#AA8A66" points="835.29,454.748 658.724,352.93 654.742,355.161 829.97,457.951 		"/>
		<path fill="#DCD3B7" d="M546.112,749.803l0.098-72.322c0,0-47.359-31.032-92.689-57.246c-42.933-24.834-83.974-44.92-83.974-44.92
			l-5.174,68.278l15.005,9.295l12.363,9.671l5.069,0.464l11.114,6.46l10.445,7.803l7.978,2.9l11.051,6.426l10.425,7.705l9.985,4.156
			l18.576,12.652l27.256,15.117l13.207,8.684l9.853,4.107L546.112,749.803z"/>
		<path fill="#F7F1DA" d="M685.088,593.016c-72.26,41.68-138.878,84.465-138.878,84.465s-42.15-28.097-85.146-52.928
			c-45.239-26.123-91.428-49.043-91.428-49.043s77.796-48.374,155.39-93.168c66.682-38.489,129.402-71.391,129.402-71.391
			s37.109,18.506,80.341,43.797c44.521,26.047,95.2,58.898,95.2,58.898S757.418,551.293,685.088,593.016z"/>
		<polygon fill="#C9BCA1" points="403.497,602.391 391.741,662.559 396.51,662.559 		"/>
		<polygon fill="#C9BCA1" points="379.378,652.888 389.517,592.422 373.64,649.332 		"/>
		<polygon fill="#C9BCA1" points="408.685,670.048 423.837,613.023 418.37,677.285 		"/>
		<polygon fill="#C9BCA1" points="426.348,680.186 439.491,619.944 432.016,683.48 		"/>
		<polygon fill="#C9BCA1" points="449.406,694.976 455.291,631.655 444.937,692.18 		"/>
		<polygon fill="#C9BCA1" points="457.809,698.473 471.176,639.58 462.738,701.826 		"/>
		<polygon fill="#C9BCA1" points="476.385,711.125 485.609,649.397 480.38,713.338 		"/>
		<polyline fill="#C9BCA1" points="500.482,658.026 491.508,719.514 498,723.114 		"/>
		<polyline fill="#C9BCA1" points="516.332,734.588 523.541,669.626 523.541,737.716 516.848,734.926 		"/>
		<path fill="#E5DCC6" d="M546.112,749.803l0.098-72.322c0,0,58.719-40.832,126.976-80.299
			c75.879-43.869,156.784-83.674,156.784-83.674l7.363,69.568l-18.185,8.492l-6.255,6.084l-17.251,8.346l-13.402,9.152
			l-12.328,4.536l-25.172,16.87l-20.199,9.756l-26.177,18.297l-12.3,5.441l-18.848,10.756l-13.186,9.389l-10.111,3.908
			l-23.505,15.277l-16.296,7.438l-20.151,13.391l-24.99,14.131L546.112,749.803z"/>
		<polygon fill="#D3C6AB" points="628.336,639.779 632.388,701.627 643.063,694.533 		"/>
		<polygon fill="#D3C6AB" points="659.352,612.801 667.217,680.807 676.002,675.793 		"/>
		<polygon fill="#D3C6AB" points="678.986,622.619 686.064,670.051 694.494,666.32 		"/>
		<polygon fill="#D3C6AB" points="718.962,650.21 706.878,586.248 729.107,644.105 		"/>
		<polygon fill="#D3C6AB" points="752.055,631.655 745.926,568.174 760.98,625.672 		"/>
		<path fill="#544B41" d="M621.565,628.197L575.9,657.203l-175.27-100.76c0,0,12.99-10.111,25.717-17.723
			c11.03-6.596,21.775-10.637,21.775-10.637L621.565,628.197z"/>
		<polygon fill="#5F564D" points="621.565,628.197 632.388,701.627 628.336,708.447 623.804,708.447 615.771,716.48 
			599.804,721.835 575.9,737.716 575.9,657.203 		"/>
		<polygon fill="#544B41" points="610.709,643.593 615.771,716.48 623.804,708.447 		"/>
		<polygon fill="#544B41" points="599.804,721.835 599.629,719.795 594.351,657.203 606.581,719.563 		"/>
		<polygon fill="#544B41" points="583.041,669.626 584.826,730.502 589.588,727.49 		"/>
		<path fill="#F6F7F6" d="M654.429,410.951c0,0,116.335,54.583,175.541,102.557l-81.011,42.583L575.008,454.748
			C575.008,454.748,631.202,414.828,654.429,410.951z"/>
		<path fill="#EAEBEA" d="M748.959,556.091l16.574,66.528l25.766-11.157l19.335-11.547l26.699-16.839c0,0-2.991-48.926-7.259-68.582
			C830.074,514.494,790.846,529.245,748.959,556.091z"/>
		<polygon fill="#DCDEDD" points="785.678,612.801 777.611,549.654 792.86,607.898 		"/>
		<polygon fill="#DCDEDD" points="800.594,538.721 812.894,597.652 818.199,592.488 		"/>
		<g>
			<path fill="#969F69" d="M756.775,534.115c0,0-58.893-26.183-70.035-44.926c0,0,30.103-27.075,52.415-31.238
				c0,0,46.084,15.372,72.971,44.03C812.126,501.981,792.86,522.955,756.775,534.115z"/>
			<path fill="#ADBA7E" d="M756.775,530.912c0,0-56.145-26.33-70.035-41.723c0,0,30.103-30.279,52.415-34.441
				c0,0,46.084,18.575,72.971,47.233C812.126,501.981,772.186,526.449,756.775,530.912z"/>
		</g>
		<g>
			<path fill="#969F69" d="M676.121,485.055c0,0-56.375-25.063-67.044-43.008c0,0,28.917-24.385,50.274-28.369
				c0,0,46.704,10.588,72.447,38.022C731.799,451.7,710.664,474.373,676.121,485.055z"/>
			<path fill="#ADBA7E" d="M676.121,481.986c0,0-53.746-25.203-67.044-39.939c0,0,28.917-27.453,50.274-31.438
				c0,0,46.704,13.656,72.447,41.091C731.799,451.7,690.869,477.716,676.121,481.986z"/>
		</g>
	</g>
	<polygon fill="#ECC77C" points="369.393,668.137 320.729,695.722 465.674,779.367 513.981,751.498 	"/>
	<g>
		<polygon fill="#BE935D" points="160.934,232.027 481.963,46.185 481.963,398.63 160.934,584.278 		"/>
		<polygon fill="#9F7648" points="176.866,240.995 466.009,73.943 466.009,408.238 176.866,575.096 		"/>
		<polygon fill="#9F7648" points="369.532,129.681 369.532,463.91 466.009,408.238 466.009,73.943 		"/>
		<polygon fill="#9F7648" points="273.384,185.233 176.866,240.995 176.866,575.096 273.384,519.396 		"/>
		<polygon fill="#D6AD79" points="254.404,196.689 254.404,530.842 270.113,521.777 270.113,187.615 		"/>
		<polygon fill="#D6AD79" points="176.754,405.861 176.754,423.297 267.43,370.861 267.43,353.365 		"/>
		<polygon fill="#D6AD79" points="176.754,554.779 176.754,572.215 267.43,519.779 267.43,502.285 		"/>
		<polygon fill="#D6AD79" points="461.706,76.426 461.706,390.939 466.009,388.262 466.009,73.943 		"/>
		<polygon fill="#D6AD79" points="465.723,238.533 382.642,286.629 382.642,304.064 465.723,256.021 		"/>
		<polygon fill="#D6AD79" points="375.327,438.686 375.327,456.121 466.009,403.686 466.009,386.19 		"/>
		<polygon fill="#BE935D" points="377.865,292.559 377.865,310.12 481.963,249.92 481.963,232.297 		"/>
		<polygon fill="#BE935D" points="265.645,506.824 160.934,567.442 160.934,584.871 265.645,524.318 		"/>
		<polygon fill="#BE935D" points="378.458,441.517 378.458,459.078 481.963,399.223 481.963,381.599 		"/>
		<polygon fill="#BE935D" points="363.828,420.842 279.688,469.453 279.688,506.615 363.828,458.06 		"/>
		<g>
			<ellipse fill="#6E5639" cx="321.758" cy="463.729" rx="5.505" ry="8.521"/>
			<ellipse fill="#5A442A" cx="322.494" cy="463.729" rx="4.023" ry="7.021"/>
		</g>
		<polygon fill="#BE935D" points="363.828,376.352 279.688,424.959 279.688,462.125 363.828,413.566 		"/>
		<g>
			<path fill="#6E5639" d="M327.264,419.234c0,4.707-2.462,8.521-5.502,8.521s-5.509-3.814-5.509-8.521
				c0-4.699,2.469-8.514,5.509-8.514S327.264,414.535,327.264,419.234z"/>
			<ellipse fill="#5A442A" cx="322.494" cy="419.234" rx="4.023" ry="7.021"/>
		</g>
		<polygon fill="#BE935D" points="363.828,331.857 279.688,380.469 279.688,417.631 363.828,369.076 		"/>
		<g>
			<path fill="#6E5639" d="M327.264,374.744c0,4.707-2.462,8.521-5.502,8.521s-5.509-3.814-5.509-8.521
				c0-4.703,2.469-8.518,5.509-8.518S327.264,370.041,327.264,374.744z"/>
			<ellipse fill="#5A442A" cx="322.494" cy="374.744" rx="4.023" ry="7.021"/>
		</g>
		<g>
			<polygon fill="#896845" points="363.828,139.541 279.688,188.151 279.688,369.881 363.828,321.326 			"/>
		</g>
		<g>
			<polygon fill="#BE935D" points="279.381,273.178 279.381,369.881 363.521,321.326 			"/>
		</g>
		<g>
			<path fill="#6E5639" d="M466.009,252.141c0,3.239-1.702,5.865-3.794,5.865s-3.785-2.626-3.785-5.865
				c0-3.238,1.693-5.863,3.785-5.863S466.009,248.902,466.009,252.141z"/>
			<path fill="#5A442A" d="M465.492,252.141c0,2.668-1.24,4.832-2.768,4.832c-1.534,0-2.775-2.164-2.775-4.832
				c0-2.67,1.241-4.835,2.775-4.835C464.252,247.306,465.492,249.471,465.492,252.141z"/>
		</g>
		<polygon fill="#BE935D" points="257.674,194.309 257.674,528.461 273.384,519.396 273.384,185.233 		"/>
		<polygon fill="#BE935D" points="267.43,356.49 160.934,418.141 160.934,435.568 267.43,373.984 		"/>
		<g>
			<ellipse fill="#6E5639" cx="180.656" cy="416.585" rx="3.79" ry="5.864"/>
			<path fill="#5A442A" d="M183.937,416.585c0,2.667-1.241,4.833-2.775,4.833c-1.526,0-2.769-2.166-2.769-4.833
				c0-2.671,1.242-4.835,2.769-4.835C182.695,411.75,183.937,413.914,183.937,416.585z"/>
		</g>
		<polygon fill="#BE935D" points="385.842,120.26 369.532,129.681 369.532,463.91 385.842,454.5 		"/>
	</g>
	<g>
		<polygon fill="#9A774E" points="851.48,668.082 787.324,631.049 787.324,556.526 851.48,593.862 		"/>
		<polygon fill="#836442" points="847.506,661.172 791.033,628.793 791.033,587.611 847.506,620.481 		"/>
		<polygon fill="#836442" points="847.506,615.977 791.033,583.599 791.033,563.869 847.506,596.738 		"/>
		<polygon fill="#D1A45F" points="826.059,593.371 810.334,584.355 810.334,578.863 826.059,588.016 		"/>
		<polygon fill="#D1A45F" points="826.059,619.432 810.334,610.416 810.334,604.925 826.059,614.076 		"/>
		<polygon fill="#B38D65" points="899.44,565.981 835.29,528.998 787.324,556.526 851.48,593.862 		"/>
		<polygon fill="#81623F" points="899.44,640.218 851.48,668.082 851.48,594.009 899.44,565.981 		"/>
		<g>
			<path fill="#D59637" d="M873.271,513.093c0.063,0.321,0.111,0.642,0.111,0.966v-0.966H873.271z"/>
			<path fill="#7F6349" d="M847.109,556.857c-4.979,0-9.051,1.736-9.455,3.95c-0.021,0.118-0.042,0.241-0.042,0.362
				c0,2.378,4.253,4.31,9.497,4.31c5.243,0,9.49-1.932,9.49-4.31c0-0.121-0.021-0.244-0.035-0.362
				C856.16,558.594,852.088,556.857,847.109,556.857z"/>
			<path fill="#69533A" d="M847.109,561.627c-1.974,0-3.57-1.597-3.57-3.57v-10.117c0-1.973,1.597-3.57,3.57-3.57
				c1.973,0,3.569,1.598,3.569,3.57v10.117C850.679,560.03,849.082,561.627,847.109,561.627z"/>
			<path fill="#6B5236" d="M847.109,545.108c-6.715,0-12.21,2.915-12.761,6.628c-0.021,0.198-0.049,0.4-0.049,0.606
				c0,3.988,5.731,7.231,12.81,7.231c7.07,0,12.809-3.243,12.809-7.231c0-0.206-0.027-0.408-0.056-0.606
				C859.318,548.023,853.824,545.108,847.109,545.108z"/>
			<path fill="#7F6349" d="M847.109,550.729c-1.974,0-3.57-1.597-3.57-3.57v-10.117c0-1.974,1.597-3.57,3.57-3.57
				c1.973,0,3.569,1.597,3.569,3.57v10.117C850.679,549.132,849.082,550.729,847.109,550.729z"/>
			<path fill="#D59637" d="M847.053,513.093v0.966c0-0.324,0.049-0.645,0.105-0.966H847.053z"/>
			<path fill="#ECC889" d="M847.109,502.494c-13.354,0-24.279,4.664-25.367,10.599c-0.057,0.321-0.105,0.642-0.105,0.966
				c0,6.391,11.401,11.568,25.473,11.568c14.063,0,25.472-5.178,25.472-11.568c0-0.324-0.049-0.645-0.112-0.966
				C871.389,507.158,860.455,502.494,847.109,502.494z"/>
			<path fill="#E5B131" d="M853.426,526.198c0,3.483-2.83,6.307-6.316,6.307c-3.494,0-6.318-2.823-6.318-6.307
				c0-3.476,2.824-6.3,6.318-6.3C850.596,519.898,853.426,522.723,853.426,526.198z"/>
			<path fill="#995A35" d="M847.109,525.627c-14.071,0-25.473-5.178-25.473-11.568v18.742c0,6.391,11.401,11.568,25.473,11.568
				c14.063,0,25.472-5.178,25.472-11.568v-18.742C872.581,520.449,861.173,525.627,847.109,525.627z"/>
		</g>
	</g>
	<g>
		<polygon fill="#B38D65" points="208.738,649.617 144.4,686.539 369.637,816.525 433.62,779.318 		"/>
		<polygon fill="#705536" points="144.4,761.12 144.4,686.539 369.637,816.525 369.637,890.822 		"/>
		<polygon fill="#81623F" points="433.62,779.318 369.637,816.623 369.637,890.822 433.62,853.615 		"/>
	</g>
	<g>
		<polygon fill="#565756" points="401.768,779.455 369.637,797.975 337.506,779.455 369.672,760.936 		"/>
		<polygon fill="#3E3F3C" points="400.484,780.125 399.244,780.776 367.113,762.256 368.389,761.604 		"/>
		<polygon fill="#3E3F3C" points="398.365,781.52 397.124,782.171 364.993,763.65 366.27,762.999 		"/>
		<polygon fill="#3E3F3C" points="395.799,782.997 394.558,783.648 362.427,765.129 363.703,764.478 		"/>
		<polygon fill="#3E3F3C" points="393.68,784.392 392.438,785.044 360.308,766.523 361.584,765.872 		"/>
		<polygon fill="#3E3F3C" points="391.002,785.703 389.761,786.354 357.63,767.835 358.906,767.183 		"/>
		<polygon fill="#3E3F3C" points="388.882,787.098 387.641,787.749 355.51,769.229 356.786,768.577 		"/>
		<polygon fill="#3E3F3C" points="386.316,788.576 385.075,789.228 352.944,770.707 354.22,770.056 		"/>
		<polygon fill="#3E3F3C" points="383.799,789.971 382.551,790.622 350.42,772.102 351.703,771.45 		"/>
		<polygon fill="#3E3F3C" points="381.072,791.531 379.831,792.184 347.7,773.664 348.977,773.012 		"/>
		<polygon fill="#3E3F3C" points="378.953,792.926 377.712,793.578 345.581,775.059 346.856,774.406 		"/>
		<polygon fill="#4A4B49" points="401.768,791.393 369.637,809.912 369.637,797.975 401.768,779.455 		"/>
		<polygon fill="#373834" points="337.506,791.393 369.637,809.912 369.637,797.975 337.506,779.455 		"/>
		<g>
			<polygon fill="#E3E4E4" points="349.263,790.929 342.506,794.823 335.749,790.929 342.513,787.035 			"/>
			<polygon fill="#C6C7C7" points="349.263,793.439 342.506,797.334 342.506,794.823 349.263,790.929 			"/>
			<polygon fill="#9D9B9B" points="335.749,793.439 342.506,797.334 342.506,794.823 335.749,790.929 			"/>
		</g>
		<g>
			<polygon fill="#232522" points="360.126,797.173 355.894,799.684 352.512,797.724 356.758,795.213 			"/>
			<polygon fill="#0E120F" points="360.126,799.684 355.894,802.193 355.894,799.684 360.126,797.173 			"/>
			<polygon fill="#0E120F" points="352.512,800.234 355.894,802.193 355.894,799.684 352.512,797.724 			"/>
		</g>
		<path fill="none" stroke="#626463" stroke-width="0.5" stroke-linecap="round" stroke-miterlimit="10" d="M354.102,800.29
			c0,0-6.122,5.062-3.382,19.492c0,0,14.273,58.886-22.418,40.442"/>
		<path fill="none" stroke="#0E120F" stroke-width="0.5" stroke-linecap="round" stroke-miterlimit="10" d="M339.124,794.129
			c0,0-6.122,5.063-3.375,19.493c0,0,13.304,56.524-12.133,45.072"/>
	</g>
	<g>
		<polygon fill="#5D5E5D" points="329.027,718.624 297.161,700.069 264.361,718.91 296.227,737.465 		"/>
		<polygon fill="#3E3F3C" points="296.227,658.348 264.361,639.793 264.361,718.91 296.227,737.465 		"/>
		<polygon fill="#535553" points="375.09,626.736 214.352,533.914 208.571,537.41 369.31,630.232 		"/>
		<polygon fill="#454644" points="369.31,760.936 208.78,668.141 208.78,537.41 369.31,630.232 		"/>
		<polygon fill="#2C2D2A" points="333.434,665.826 333.434,744.943 336.935,742.823 336.935,663.709 		"/>
		<polygon fill="#5D5E5D" points="336.935,663.709 240.444,607.522 236.943,609.639 333.434,665.826 		"/>
		<polygon fill="#535553" points="333.434,744.943 236.943,688.756 236.943,609.639 333.434,665.826 		"/>
		<polygon fill="#3B3D3A" points="249.014,646.18 242.467,642.365 242.467,691.754 249.014,695.568 		"/>
		<polygon fill="#3B3D3A" points="259.725,652.417 252.584,648.258 252.584,697.646 259.725,701.806 		"/>
		<polygon fill="#3B3D3A" points="280.922,664.759 274.005,660.732 274.005,710.121 280.922,714.147 		"/>
		<polygon fill="#3B3D3A" points="291.186,670.738 284.492,666.84 284.492,716.229 291.186,720.127 		"/>
		<polygon fill="#3B3D3A" points="302.342,677.233 294.756,672.816 294.756,722.205 302.342,726.621 		"/>
		<polygon fill="#3B3D3A" points="313.722,683.861 305.912,679.314 305.912,728.703 313.722,733.25 		"/>
		<polygon fill="#3B3D3A" points="317.292,685.939 317.292,735.328 325.241,739.957 325.241,690.568 		"/>
		<polygon fill="#3B3D3A" points="270.435,658.654 263.294,654.494 263.294,703.883 270.435,708.043 		"/>
		<polygon fill="#2C2D2A" points="369.31,630.232 369.31,760.936 375.09,757.438 375.09,626.736 		"/>
	</g>
	<g>
		<path fill="#CCCDCD" d="M160.535,362.187L32.138,436.325l15.612-46.3l128.732-74.111
			C176.482,315.914,183.176,339.873,160.535,362.187z"/>
		
			<path fill="#E1E2E2" stroke="#717272" stroke-width="0.25" stroke-linecap="round" stroke-linejoin="round" stroke-miterlimit="10" d="
			M154.19,365.854L49.793,426.124c0,0,2.552-1.472,5.436-6.928c6.366-11.585,3.078-18.321,3.078-18.321l113.727-65.404
			C172.033,335.471,170.918,350.866,154.19,365.854z"/>
		<polygon fill="#E6E7E7" points="176.105,315.914 144.422,297.314 16.065,371.453 47.75,390.025 		"/>
		<path fill="#DCDEDD" d="M32.138,436.325l-16.072-9.036v-55.836l32.02,18.629C48.085,390.082,54.778,414.012,32.138,436.325z"/>
		
			<polygon fill="#B6B6B6" stroke="#515351" stroke-width="0.25" stroke-linecap="round" stroke-linejoin="round" stroke-miterlimit="10" points="
			65.649,386.18 164.294,329.94 154.148,340.281 76.192,384.632 		"/>
		<polygon fill="#323330" stroke="#818181" stroke-width="0.25" stroke-miterlimit="10" points="98.289,381.212 139.994,357.264 
			137.093,364.254 104.773,383.144 		"/>
		
			<line fill="none" stroke="#AEAEAE" stroke-width="0.25" stroke-linecap="round" stroke-miterlimit="10" x1="58.115" y1="415.539" x2="160.905" y2="357.264"/>
	</g>
	<polygon fill="#DDC48C" points="0.084,677.107 498,964.584 498,955.463 0.084,667.987 	"/>
	<polygon fill="#D2B67E" points="995.832,677.107 497.916,964.584 497.916,955.463 995.832,667.987 	"/>
	<g>
		<linearGradient id="SVGID_1_" gradientUnits="userSpaceOnUse" x1="498.8643" y1="571.4365" x2="498.8643" y2="357.7912">
			<stop  offset="0" style="stop-color:#FFFFFF;stop-opacity:0"/>
			<stop  offset="1" style="stop-color:#E7B93B"/>
		</linearGradient>
		<path fill="url(#SVGID_1_)" d="M555.867,532.209L532.09,363.494c0,10.854-14.873,19.643-33.232,19.643
			c-18.346,0-33.219-8.789-33.219-19.643l-23.777,168.715h0.14c-0.069,0.54-0.14,1.08-0.14,1.631
			c0,12.785,35.373,23.143,56.996,23.143c21.637,0,57.01-10.357,57.01-23.143c0-0.551-0.069-1.091-0.139-1.631H555.867z"/>
		<path fill="#A5AE7F" d="M498.857,358.973c15.71,0,28.436-7.521,28.436-16.805c0-9.285-12.726-16.805-28.436-16.805
			c-15.695,0-28.421,7.52-28.421,16.805C470.437,351.451,483.162,358.973,498.857,358.973z"/>
		<g>
			<path fill="#E7B93B" d="M503.285,395.158c-1.917,0-3.416-1.911-3.416-4.352v-45.588c0-2.441,1.499-4.352,3.416-4.352
				c1.925,0,3.431,1.91,3.431,4.352v45.588C506.716,393.247,505.21,395.158,503.285,395.158z M503.188,343.945
				c0.091,0.063-0.223,0.492-0.223,1.273v45.588c0,0.6,0.195,1,0.32,1.172c0.14-0.172,0.335-0.572,0.335-1.172v-45.588
				C503.62,344.447,503.307,344.008,503.188,343.945z"/>
			<path fill="#E7B93B" d="M494.451,395.158c-1.932,0-3.445-1.911-3.445-4.352v-45.588c0-2.441,1.514-4.352,3.445-4.352
				c1.917,0,3.416,1.91,3.416,4.352v45.588C497.867,393.247,496.368,395.158,494.451,395.158z M494.346,343.945
				c0.084,0.063-0.236,0.492-0.236,1.273v45.588c0,0.6,0.195,1,0.342,1.172c0.125-0.172,0.313-0.572,0.313-1.172v-45.588
				C494.765,344.438,494.451,344.008,494.346,343.945z"/>
			<path fill="#F6E143" d="M498.195,395.158c-1.925,0-3.431-1.911-3.431-4.352v-45.588c0-2.441,1.506-4.352,3.431-4.352
				c1.924,0,3.431,1.91,3.431,4.352v45.588C501.626,393.247,500.119,395.158,498.195,395.158z M498.098,343.945
				c0.091,0.063-0.23,0.492-0.23,1.273v45.588c0,0.6,0.202,1,0.328,1.172c0.133-0.172,0.334-0.572,0.334-1.172v-45.588
				C498.529,344.447,498.209,344.008,498.098,343.945z"/>
		</g>
		<path fill="#7D8763" d="M532.362,363.627l-5.069-21.459c0,9.283-12.726,16.805-28.436,16.805
			c-15.695,0-28.421-7.521-28.421-16.805l-5.076,21.459h0.118c-0.056,0.463-0.118,0.924-0.118,1.395
			c0,10.939,14.998,19.803,33.497,19.803c18.514,0,33.505-8.863,33.505-19.803c0-0.471-0.063-0.932-0.118-1.395H532.362z"/>
		<path fill="#C6C7C7" d="M497.867,352.574c9.728,0,17.606-4.658,17.606-10.406c0-5.75-7.879-10.407-17.606-10.407
			c-9.72,0-17.606,4.657-17.606,10.407C480.261,347.916,488.147,352.574,497.867,352.574z"/>
		<path fill="#ECEDEC" d="M497.867,348.893c9.728,0,17.606-4.658,17.606-10.406c0-5.75-7.879-10.407-17.606-10.407
			c-9.72,0-17.606,4.657-17.606,10.407C480.261,344.234,488.147,348.893,497.867,348.893z"/>
		<path fill="#717272" d="M498,339.242c-0.983,0-1.785-0.799-1.785-1.785v-28.783c0-0.986,0.802-1.785,1.785-1.785
			c0.99,0,1.785,0.799,1.785,1.785v28.783C499.785,338.443,498.99,339.242,498,339.242z"/>
	</g>
	<g>
		
			<rect x="382.901" y="330.634" transform="matrix(0.8682 0.4962 -0.4962 0.8682 234.7896 -219.1857)" fill="#9AA4A5" width="294.263" height="3.573"/>
		<path fill="#DEE6E9" d="M658.291,406.666c-5.174,2.957-13.073,4.055-13.073,4.055l-134.556-77.179c0,0,3.375-4.333,8.758-7.51
			c5.363-3.169,12.732-5.181,12.732-5.181l134.925,77.389C667.077,398.24,664.016,403.396,658.291,406.666z"/>
		<path fill="#DEE6E9" d="M476.391,302.416c-5.174,2.955-13.073,4.055-13.073,4.055l-134.556-77.18c0,0,3.375-4.334,8.758-7.51
			c5.363-3.169,12.732-5.181,12.732-5.181l134.925,77.388C485.177,293.988,482.115,299.145,476.391,302.416z"/>
		
			<rect x="318.668" y="330.634" transform="matrix(-0.8682 0.4962 -0.4962 -0.8682 1035.156 389.9147)" fill="#9AA4A5" width="294.264" height="3.574"/>
		<path fill="#DEE6E9" d="M337.548,406.666c5.174,2.957,13.067,4.055,13.067,4.055l134.562-77.179c0,0-3.382-4.333-8.758-7.51
			c-5.369-3.169-12.739-5.181-12.739-5.181L328.762,398.24C328.762,398.24,331.823,403.396,337.548,406.666z"/>
		<path fill="#DEE6E9" d="M519.448,302.416c5.174,2.955,13.067,4.055,13.067,4.055l134.562-77.18c0,0-3.382-4.334-8.758-7.51
			c-5.369-3.169-12.739-5.181-12.739-5.181l-134.918,77.388C510.662,293.988,513.724,299.145,519.448,302.416z"/>
		<path fill="#BBC7CB" d="M518.229,308.594h-1.507c-3.138-5.16-10.508-8.786-19.099-8.786c-8.59,0-15.961,3.626-19.098,8.786h-1.618
			v6.24h0.049c0.516,7.614,9.553,13.684,20.667,13.684c11.443,0,20.605-6.428,20.605-14.356
			C518.229,313.659,518.229,308.594,518.229,308.594z"/>
		<path fill="#DEE6E9" d="M518.284,310.071c0,7.929-9.274,14.357-20.717,14.357s-20.716-6.429-20.716-14.357
			c0-7.925,9.273-14.354,20.716-14.354S518.284,302.146,518.284,310.071z"/>
		<path fill="#BBC7CB" d="M506.793,291.095c0,0-3.543-5.856-9.19-5.856s-9.253,5.856-9.253,5.856l-4.365,17.195h0.028
			c0.341,5.007,6.282,8.999,13.59,8.999c7.523,0,13.556-4.229,13.556-9.441C511.158,307.516,506.793,291.095,506.793,291.095z"/>
		<path fill="#EFF6F8" d="M506.793,291.545c0,3.531-4.135,6.395-9.226,6.395c-5.09,0-9.218-2.863-9.218-6.395
			c0-3.525,4.128-6.387,9.218-6.387C502.658,285.158,506.793,288.02,506.793,291.545z"/>
		<path fill="#BBC7CB" d="M502.386,290.328c0,1.844-2.154,3.34-4.818,3.34c-2.656,0-4.817-1.496-4.817-3.34
			c0-1.841,2.161-3.337,4.817-3.337C500.231,286.991,502.386,288.487,502.386,290.328z"/>
		<path fill="#717272" d="M497.567,290.928c-0.983,0-1.784-0.799-1.784-1.785v-21.644c0-0.987,0.801-1.785,1.784-1.785
			c0.99,0,1.785,0.798,1.785,1.785v21.644C499.353,290.129,498.558,290.928,497.567,290.928z"/>
	</g>
	<polygon opacity="0.5" fill="#EAD69E" points="497.916,0.475 0,287.95 64.191,325.039 272.442,204.471 498.084,334.557 
		722.721,204.305 931.725,325.039 996,287.95 	"/>
</g>
</svg>
