<?xml version="1.0" encoding="utf-8"?>
<!-- Generator: Adobe Illustrator 16.0.0, SVG Export Plug-In . SVG Version: 6.00 Build 0)  -->
<!DOCTYPE svg PUBLIC "-//W3C//DTD SVG 1.1//EN" "http://www.w3.org/Graphics/SVG/1.1/DTD/svg11.dtd">
<svg version="1.1" id="Capa_1" xmlns="http://www.w3.org/2000/svg" xmlns:xlink="http://www.w3.org/1999/xlink" x="0px" y="0px"
	 width="990.002px" height="935.946px" viewBox="0 0 990.002 935.946" enable-background="new 0 0 990.002 935.946"
	 xml:space="preserve">
<g>
	<g>
		<polygon fill="#EDC97A" points="494.881,364.242 0,650.122 495.037,935.946 990.002,650.122 		"/>
		<polygon fill="#FDFDF9" points="494.881,364.229 0,650.094 0,285.864 494.881,0 		"/>
		<g>
			<polygon fill="#CCDB9D" points="494.881,364.229 990.002,650.094 990.002,285.864 494.881,0 			"/>
			<polygon fill="#DAE4B0" points="749.584,147.058 749.584,511.288 756.755,515.426 756.755,151.195 			"/>
			<polygon fill="#DAE4B0" points="523.363,16.449 513.693,10.865 513.693,375.095 523.363,380.679 			"/>
			<polygon fill="#DAE4B0" points="561.707,38.587 552.87,33.484 552.87,397.715 561.707,402.816 			"/>
			<polygon fill="#DAE4B0" points="606.717,64.573 600.382,60.914 600.382,425.143 606.717,428.803 			"/>
			<polygon fill="#DAE4B0" points="635.059,80.935 627.889,76.796 627.889,441.025 635.059,445.164 			"/>
			<polygon fill="#DAE4B0" points="658.729,94.6 658.729,458.83 669.233,464.896 669.233,100.666 			"/>
			<polygon fill="#DAE4B0" points="701.239,119.144 701.239,483.374 707.576,487.034 707.576,122.803 			"/>
			<polygon fill="#DAE4B0" points="787.928,169.195 787.928,533.426 796.765,538.528 796.765,174.297 			"/>
			<polygon fill="#DAE4B0" points="847.942,203.846 847.942,568.075 853.445,571.252 853.445,207.023 			"/>
			<polygon fill="#DAE4B0" points="884.617,225.022 884.617,589.252 900.123,598.204 900.123,233.973 			"/>
			<polygon fill="#DAE4B0" points="943.799,259.191 943.799,623.42 959.305,632.372 959.305,268.142 			"/>
		</g>
		<polygon fill="#CB9551" points="494.881,364.229 990.002,650.094 990.002,641.577 494.881,355.712 		"/>
		<polygon fill="#DCA85F" points="494.881,364.229 0,650.094 0,641.577 494.881,355.712 		"/>
		<g>
			
				<linearGradient id="SVGID_1_" gradientUnits="userSpaceOnUse" x1="390.1489" y1="328.7954" x2="402.8976" y2="593.5996" gradientTransform="matrix(-1 0 0 -1 1322.4023 936.9463)">
				<stop  offset="0" style="stop-color:#FFFFFF;stop-opacity:0"/>
				<stop  offset="0.2782" style="stop-color:#FBF1C0;stop-opacity:0.2782"/>
				<stop  offset="0.6255" style="stop-color:#F5E077;stop-opacity:0.6255"/>
				<stop  offset="0.8751" style="stop-color:#F2D649;stop-opacity:0.8751"/>
				<stop  offset="1" style="stop-color:#F1D237"/>
			</linearGradient>
			<polygon opacity="0.6" fill="url(#SVGID_1_)" enable-background="new    " points="870.246,529.333 990.002,598.516 
				960.066,362.348 910.256,348.327 			"/>
			<path fill="#6F842E" d="M908.1,324.959v28.884l0.117,0.022c1.199,9.977,13.969,17.83,29.571,17.83
				c8.876,0,16.841-2.546,22.278-6.567v-26.553L908.1,324.959z"/>
			<path fill="#5B6B27" d="M960.066,338.575c-5.438,4.024-13.402,6.567-22.278,6.567c-16.396,0-29.688-8.664-29.688-19.354
				c0-4.926,2.827-9.43,7.482-12.845L960.066,338.575z"/>
		</g>
		<g>
			
				<linearGradient id="SVGID_2_" gradientUnits="userSpaceOnUse" x1="750.1729" y1="536.2036" x2="762.9214" y2="801.0067" gradientTransform="matrix(-1 0 0 -1 1322.4023 936.9463)">
				<stop  offset="0" style="stop-color:#FFFFFF;stop-opacity:0"/>
				<stop  offset="0.2782" style="stop-color:#FBF1C0;stop-opacity:0.2782"/>
				<stop  offset="0.6255" style="stop-color:#F5E077;stop-opacity:0.6255"/>
				<stop  offset="0.8751" style="stop-color:#F2D649;stop-opacity:0.8751"/>
				<stop  offset="1" style="stop-color:#F1D237"/>
			</linearGradient>
			<polygon opacity="0.6" fill="url(#SVGID_2_)" enable-background="new    " points="510.223,321.924 629.979,391.107 
				600.043,154.94 550.232,140.92 			"/>
			<path fill="#6F842E" d="M548.077,117.551v28.885l0.117,0.022c1.197,9.977,13.969,17.831,29.57,17.831
				c8.876,0,16.841-2.547,22.277-6.568v-26.553L548.077,117.551z"/>
			<path fill="#5B6B27" d="M600.043,131.168c-5.438,4.024-13.401,6.567-22.277,6.567c-16.397,0-29.688-8.664-29.688-19.354
				c0-4.927,2.826-9.43,7.482-12.845L600.043,131.168z"/>
		</g>
		<g>
			<polygon fill="#885C2A" points="554.843,442.582 600.035,416.28 600.035,355.572 554.843,381.522 			"/>
			<polygon opacity="0.3" fill="#2F302D" enable-background="new    " points="839.965,613.622 554.843,448.996 599.802,422.948 
				885.055,587.67 			"/>
			<polygon fill="#885C2A" points="584.838,468.487 584.838,455.551 607.304,455.551 			"/>
			<polygon fill="#6C4B26" points="839.965,606.952 554.843,442.328 599.802,416.28 885.055,581.002 			"/>
			<polygon fill="#B37B51" points="584.838,459.553 554.843,442.23 554.974,451.243 584.838,468.487 			"/>
			<polygon fill="#B37B51" points="809.808,589.463 809.808,598.381 840.096,615.868 840.096,606.952 			"/>
			<polygon fill="#7C572B" points="839.965,578.612 554.843,413.988 599.802,387.939 885.055,552.661 			"/>
			<g>
				<polygon fill="#3B3D3A" points="720.047,486.268 660.143,451.624 658.476,463.156 660.143,469.2 720.047,503.844 
					718.379,497.436 				"/>
				<polygon fill="#252724" points="720.047,486.268 660.143,451.624 658.476,463.156 718.379,497.436 				"/>
				<polygon points="703.186,476.575 666.173,455.166 665.144,462.294 702.158,483.475 				"/>
				<polygon fill="#979695" points="718.588,495.352 658.684,460.709 658.476,463.156 718.379,497.436 				"/>
				<polygon fill="#2C2D2A" points="720.047,486.268 764.953,460.5 764.953,477.838 720.047,503.844 718.379,497.436 				"/>
				<polygon fill="#4D4E4C" points="720.047,486.268 764.953,460.5 705.049,425.951 660.143,451.624 				"/>
				<path fill="#717272" d="M712.44,488.768c-0.099-2.895-1.778-5.262-3.856-5.609v-0.072h-2.604v0.801
					c-1.205,0.988-1.986,2.795-1.922,4.881c0.065,1.912,0.82,3.594,1.922,4.621v1.057h2.604v-0.021
					C710.825,494.311,712.538,491.831,712.44,488.768z"/>
				<path fill="#B6B6B6" d="M710.61,488.768c0.104,3.133-1.694,5.676-4.005,5.676c-2.318,0-4.271-2.543-4.377-5.676
					c-0.099-3.135,1.693-5.682,4.006-5.682C708.546,483.086,710.506,485.633,710.61,488.768z"/>
			</g>
			<g>
				<polygon fill="#C6C7C7" points="762.635,508.745 747.611,500.276 747.611,517.852 762.635,526.321 				"/>
				<polygon fill="#A8A7A7" points="762.635,508.745 777.509,500.514 777.509,517.852 762.635,526.321 				"/>
				<polygon fill="#D3D5D5" points="762.635,508.745 777.509,500.514 762.486,491.7 747.611,500.276 				"/>
				<g>
					<polygon fill="#3B3D3A" points="758.447,509.6 746.205,502.692 746.205,520.268 758.447,527.176 					"/>
					<polygon fill="#2C2D2A" points="758.447,509.6 761.046,508.106 761.046,525.823 758.447,527.176 					"/>
					<polygon fill="#4D4E4C" points="758.447,509.6 761.046,508.106 749.102,501.034 746.205,502.692 					"/>
				</g>
			</g>
			<g>
				<polygon fill="#C6C7C7" points="637.337,436.734 622.314,428.266 622.314,445.842 637.337,454.311 				"/>
				<polygon fill="#A8A7A7" points="637.337,436.734 652.211,428.503 652.211,445.842 637.337,454.311 				"/>
				<polygon fill="#D3D5D5" points="637.337,436.734 652.211,428.503 637.188,419.689 622.314,428.266 				"/>
				<g>
					<polygon fill="#3B3D3A" points="633.15,437.592 620.907,430.682 620.907,448.258 633.15,455.166 					"/>
					<polygon fill="#2C2D2A" points="633.15,437.592 635.755,436.096 635.755,453.813 633.15,455.166 					"/>
					<polygon fill="#4D4E4C" points="633.15,437.592 635.755,436.096 623.813,429.023 620.907,430.682 					"/>
				</g>
			</g>
			<g>
				<polygon fill="#565756" points="847.232,531.813 817.226,549.11 787.217,531.813 817.258,514.518 				"/>
				<polygon fill="#3E3F3C" points="839.535,535.967 838.376,536.581 808.369,519.284 809.561,518.672 				"/>
				<polygon fill="#3E3F3C" points="837.556,537.27 836.396,537.883 806.389,520.586 807.58,519.975 				"/>
				<polygon fill="#3E3F3C" points="835.159,538.651 834,539.262 803.993,521.967 805.184,521.354 				"/>
				<polygon fill="#3E3F3C" points="833.18,539.954 832.021,540.565 802.013,523.27 803.205,522.657 				"/>
				<polygon fill="#3E3F3C" points="830.679,541.178 829.52,541.79 799.513,524.495 800.704,523.881 				"/>
				<polygon fill="#3E3F3C" points="828.699,542.479 827.54,543.092 797.533,525.795 798.725,525.184 				"/>
				<polygon fill="#3E3F3C" points="826.303,543.86 825.144,544.473 795.137,527.176 796.328,526.565 				"/>
				<polygon fill="#3E3F3C" points="823.952,545.163 822.785,545.776 792.779,528.479 793.979,527.868 				"/>
				<polygon fill="#3E3F3C" points="821.406,546.622 820.247,547.233 790.239,529.938 791.43,529.325 				"/>
				<polygon fill="#3E3F3C" points="819.426,547.924 818.266,548.536 788.26,531.241 789.451,530.627 				"/>
				<polygon fill="#4A4B49" points="847.232,542.961 817.226,560.258 817.226,549.11 847.232,531.813 				"/>
				<polygon fill="#373834" points="787.217,542.961 817.226,560.258 817.226,549.11 787.217,531.813 				"/>
				<polygon fill="#181C19" points="789.966,544.625 814.479,558.754 814.479,549.647 789.966,535.518 				"/>
			</g>
			<g>
				<path fill="#B37B51" d="M840.096,546.284L554.843,381.562l0.059,61.021h0.51l284.451,164.371v-0.137l0.233,0.137V546.284z
					 M836.638,600.956L558.125,440.124v-24.315l278.513,160.807V600.956z M836.638,572.614L558.125,411.783V387.48l278.513,160.81
					V572.614z"/>
			</g>
			<polygon fill="#885C2A" points="839.861,615.815 885.055,589.512 885.055,520.293 839.861,546.245 			"/>
			<polygon fill="#9D6D3D" points="839.965,546.245 554.843,381.621 599.802,355.572 885.055,520.293 			"/>
		</g>
		<g>
			<polygon fill="#A9CFD3" points="83.589,489.997 412.783,299.956 412.783,125.277 83.589,315.37 			"/>
			<path fill="#96BABB" d="M412.783,210.943l-12.061,2.696h-4.447c0,0-5.697,5.562-6.461,7.228
				c-0.762,1.668-1.874,6.174-6.316,6.975c-4.447,0.801-13.896,13.031-13.896,13.031v10.556l-9.857,7.782l-4.896,6.654
				c0,0,3.641,5.568,1.419,6.682c-2.221,1.107-6.113,3.334-8.336,5.002c-2.22,1.666-9.147,7.749-9.147,7.749s0.293,10.028,0,11.695
				s-5.294,11.93-5.294,11.93l-2.781,11.409l2.221,10.159l2.229,17.628l80.571-47.792L412.783,210.943z"/>
			<path fill="#96BABB" d="M277.686,377.859c-4.214-2.514-5.327-4.734-9.774-4.734c-4.441,0-3.334,4.447-7.775,0
				c-4.448-4.447-6.675-8.889-7.229-9.169c-0.554-0.28-8.889,3.614-8.889,3.614s-3.888-4.447-6.669-3.614
				c-2.78,0.833-2.773,0.833-5.001-3.614c-2.221-4.441-2.78-13.33-5.555-12.223c-2.78,1.113-3.895-1.107-8.335,0
				c-4.448,1.113-8.896,5.111-10.563,4.5c-1.667-0.612-11.67-4.819-11.67-4.819l-8.335-13.571l-10.582-5.561l-16.059,1.823
				l-18.924,4.845v4.721l-11.67,3.614c0,0-8.335,11.683-8.335,13.344c0,1.661,0,13.33,0,14.997c0,1.667,4.444,7.463,0,9.013
				c-4.445,1.55-5.555-1.784-7.779,9.885c-2.224,11.671-6.085,20.559-4.988,23.339c1.098,2.774,9.433,15.004,6.099,20.559
				c-3.334,5.556-6.29,15.564-6.29,15.564l-4.546,15.557l4.737,13.335C109.555,479.264,281.905,380.373,277.686,377.859z"/>
			<path opacity="0.2" fill="#DAEAEC" enable-background="new    " d="M255.369,351.922c-28.686-28.686-57.371-57.371-86.057-86.057
				l-65.225,37.666c8.251,8.251,16.502,16.495,24.749,24.746c28.656,28.659,57.31,57.312,85.969,85.971l65.23-37.658
				C271.812,368.365,263.594,360.146,255.369,351.922z"/>
			<path opacity="0.2" fill="#DAEAEC" enable-background="new    " d="M350.998,297.514c-28.855-28.854-57.717-57.709-86.571-86.57
				l-53.601,30.951c20.578,20.585,41.163,41.163,61.741,61.74l48.989,48.984l53.602-30.945L350.998,297.514z"/>
			<polygon fill="#83A7A5" points="412.783,126.007 405.757,126.007 405.757,296.427 354.847,325.815 354.847,154.406 
				346.928,154.406 346.928,330.387 138.855,450.508 138.855,281.853 130.938,281.853 130.938,455.078 80.254,484.338 
				80.254,491.838 137.892,458.563 138.855,458.563 138.855,458.01 412.783,299.871 			"/>
			<g>
				<polygon fill="none" points="135.521,285.298 83.589,315.285 83.589,489.913 135.521,459.938 				"/>
				<polygon fill="none" points="352.658,159.915 142.606,281.208 142.606,455.848 352.658,334.58 				"/>
				<polygon fill="none" points="359.743,330.491 412.783,299.871 412.783,125.193 359.743,155.826 				"/>
				<path fill="#CB9551" d="M419.811,112.736L74.726,312.003v190.529l345.084-199.215V112.736L419.811,112.736z M83.589,315.285
					l51.933-29.987v174.64l-51.933,29.975V315.285z M142.606,281.208l210.052-121.293V334.58L142.606,455.848V281.208z
					 M412.783,299.871l-53.04,30.62V155.826l53.04-30.633V299.871z"/>
			</g>
			<g>
				<path fill="#B68D3E" d="M440.512,69.385c-1.151,0-2.271-0.599-2.892-1.666c-0.919-1.596-0.372-3.635,1.225-4.559l18.13-10.472
					c1.589-0.918,3.627-0.378,4.553,1.224c0.925,1.596,0.377,3.635-1.219,4.553l-18.13,10.471
					C441.65,69.242,441.078,69.385,440.512,69.385z"/>
				<g>
					<path fill="#E7BA5B" d="M442.113,63.271l7.463-3.048V406.48c-4.688,6.251-10.914,3.718-10.914,3.718l-11.8-6.817V56.759
						L442.113,63.271z"/>
					<path fill="#DCA645" d="M439.443,62.131v348.301c-0.488-0.116-0.781-0.233-0.781-0.233l-11.8-6.817V56.759L439.443,62.131z"/>
					<path fill="#CF932B" d="M436.064,52.5l13.512,7.723c-4.688,6.252-10.914,3.719-10.914,3.719l-11.8-6.818V56.76L436.064,52.5z"
						/>
					<path fill="#E7BA5B" d="M428.309,71.586l7.464-3.047v346.256c-4.689,6.252-10.915,3.719-10.915,3.719l-11.801-6.817V65.074
						L428.309,71.586z"/>
					<path fill="#DCA645" d="M425.639,70.447v348.301c-0.487-0.117-0.781-0.234-0.781-0.234l-11.801-6.817V65.074L425.639,70.447z"
						/>
					<path fill="#CF932B" d="M422.259,60.815l13.514,7.724c-4.689,6.251-10.915,3.718-10.915,3.718l-11.801-6.817v-0.365
						L422.259,60.815z"/>
					<path fill="#E7BA5B" d="M414.502,79.225l7.464-3.047v346.256c-4.688,6.252-10.915,3.72-10.915,3.72l-11.799-6.818V72.713
						L414.502,79.225z"/>
					<path fill="#DCA645" d="M411.832,78.085v348.302c-0.487-0.117-0.781-0.233-0.781-0.233l-11.799-6.818V72.713L411.832,78.085z"
						/>
					<path fill="#CF932B" d="M408.453,68.455l13.513,7.723c-4.688,6.251-10.915,3.718-10.915,3.718l-11.799-6.817v-0.365
						L408.453,68.455z"/>
					<path fill="#E7BA5B" d="M400.514,87.215l7.464-3.047v346.256c-4.688,6.252-10.915,3.719-10.915,3.719l-11.799-6.817V80.703
						L400.514,87.215z"/>
					<path fill="#DCA645" d="M397.845,86.075v348.302c-0.487-0.123-0.782-0.234-0.782-0.234l-11.799-6.817V80.703L397.845,86.075z"
						/>
					<path fill="#CF932B" d="M394.465,76.438l13.513,7.73c-4.688,6.251-10.915,3.718-10.915,3.718l-11.799-6.817v-0.365
						L394.465,76.438z"/>
					<path fill="#E7BA5B" d="M386.481,95.271l7.47-3.048V438.48c-4.688,6.251-10.914,3.718-10.914,3.718l-11.8-6.817V88.759
						L386.481,95.271z"/>
					<path fill="#CF932B" d="M380.432,84.493l13.521,7.729c-4.688,6.252-10.914,3.719-10.914,3.719l-11.8-6.818v-0.364
						L380.432,84.493z"/>
				</g>
				<path fill="#B68D3E" d="M123.429,252.848c-1.152,0-2.272-0.592-2.888-1.666c-0.922-1.59-0.375-3.635,1.221-4.553
					l252.275-145.738c1.582-0.925,3.627-0.385,4.552,1.218c0.925,1.595,0.378,3.634-1.218,4.558L125.096,252.405
					C124.568,252.705,123.995,252.848,123.429,252.848z"/>
				<g>
					<path fill="#E7BA5B" d="M115.96,251.976l7.469-3.048v346.256c-4.688,6.252-10.914,3.719-10.914,3.719l-11.8-6.818V245.464
						L115.96,251.976z"/>
					<path fill="#DCA645" d="M113.296,250.836v348.301c-0.488-0.123-0.781-0.234-0.781-0.234l-11.8-6.818V245.464L113.296,250.836z"
						/>
					<path fill="#CF932B" d="M109.91,241.198l13.519,7.729c-4.688,6.252-10.914,3.719-10.914,3.719l-11.8-6.818v-0.364
						L109.91,241.198z"/>
					<path fill="#E7BA5B" d="M102.154,260.291l7.469-3.047V603.5c-4.688,6.252-10.914,3.719-10.914,3.719l-11.8-6.818V253.779
						L102.154,260.291z"/>
					<path fill="#DCA645" d="M99.491,259.152v348.302c-0.489-0.123-0.782-0.234-0.782-0.234l-11.8-6.818V253.779L99.491,259.152z"/>
					<path fill="#CF932B" d="M96.104,249.514l13.519,7.73c-4.688,6.251-10.914,3.718-10.914,3.718l-11.8-6.817v-0.365
						L96.104,249.514z"/>
					<path fill="#E7BA5B" d="M88.349,267.93l7.47-3.047v346.256c-4.689,6.252-10.914,3.719-10.914,3.719l-11.8-6.818V261.418
						L88.349,267.93z"/>
					<path fill="#DCA645" d="M85.686,266.79v348.302c-0.488-0.123-0.781-0.234-0.781-0.234l-11.8-6.818V261.418L85.686,266.79z"/>
					<path fill="#CF932B" d="M82.299,257.152l13.52,7.73c-4.689,6.251-10.914,3.718-10.914,3.718l-11.8-6.817v-0.365L82.299,257.152
						z"/>
					<path fill="#E7BA5B" d="M74.361,275.914l7.469-3.048v346.257c-4.688,6.252-10.914,3.719-10.914,3.719l-11.8-6.818V269.401
						L74.361,275.914z"/>
					<path fill="#DCA645" d="M71.697,274.774v348.303c-0.488-0.117-0.781-0.234-0.781-0.234l-11.8-6.818V269.401L71.697,274.774z"/>
					<path fill="#CF932B" d="M68.312,265.143l13.519,7.724c-4.688,6.251-10.914,3.718-10.914,3.718l-11.8-6.817v-0.365
						L68.312,265.143z"/>
					<path fill="#E7BA5B" d="M60.334,283.969l7.463-3.047v346.256c-4.688,6.252-10.914,3.719-10.914,3.719l-11.8-6.818V277.457
						L60.334,283.969z"/>
					<path fill="#CF932B" d="M54.284,273.198l13.513,7.724c-4.688,6.251-10.914,3.718-10.914,3.718l-11.8-6.817v-0.365
						L54.284,273.198z"/>
				</g>
				<path fill="#B68D3E" d="M32.612,305.211c-1.152,0-2.272-0.599-2.888-1.667c-0.922-1.595-0.375-3.634,1.221-4.558l18.13-10.472
					c1.589-0.919,3.633-0.378,4.552,1.224c0.921,1.596,0.377,3.635-1.218,4.553l-18.13,10.471
					C33.752,305.068,33.179,305.211,32.612,305.211z"/>
			</g>
		</g>
		<g>
			<polygon opacity="0.3" fill="#2F302D" enable-background="new    " points="284.861,568.182 402.527,499.618 331.818,458.908 
				214.147,527.473 			"/>
			<polygon fill="#986B40" points="389.418,502.815 398.92,506.362 404.631,502.879 404.631,491.983 			"/>
			<polygon fill="#C08954" points="209.883,528.844 209.883,516.676 223.877,525.428 215.021,531.993 			"/>
			<polygon fill="#986B40" points="284.673,559.62 284.673,572.047 292.175,567.819 298.979,554.274 			"/>
			<polygon fill="#C08954" points="284.673,559.62 284.673,572.047 277.171,567.819 270.359,554.274 			"/>
			<polygon fill="#BF6138" points="389.418,408.039 314.628,364.171 314.628,459.607 389.418,502.879 			"/>
			<polygon fill="#A55130" points="389.418,408.039 404.631,398.535 404.631,493.971 389.418,502.879 			"/>
			<polygon fill="#CE7353" points="389.418,408.039 314.628,364.171 329.404,355.627 404.631,398.535 			"/>
			<polygon fill="#BF6138" points="224.658,421.48 239.818,430.926 239.818,355.627 224.658,346.947 			"/>
			<polygon fill="#9D452C" points="329.84,303.688 239.818,355.627 239.818,424.951 225.042,433.494 225.042,527.473 
				329.84,477.096 			"/>
			<polygon fill="#CE7353" points="329.84,303.688 314.732,294.99 224.658,346.947 239.818,355.627 			"/>
			<polygon fill="#AD5A43" points="299.885,494.024 389.418,442.225 389.418,502.815 299.885,554.616 			"/>
			<polygon fill="#C3654B" points="299.937,494.292 389.471,442.491 329.318,408.039 239.785,459.839 			"/>
			<polygon fill="#BF6138" points="284.673,468.682 209.883,424.814 209.883,520.25 284.673,563.524 			"/>
			<polygon fill="#A55130" points="284.673,468.682 299.885,459.178 299.885,554.616 284.673,563.524 			"/>
			<polygon fill="#CE7353" points="284.673,468.682 209.883,424.814 224.658,416.271 299.885,459.178 			"/>
			<g>
				<path opacity="0.3" fill="#453A26" enable-background="new    " d="M295.353,432.385c0,0,22.961,18.292,63.388,9.402
					c0,0,15.798-25.518-2.539-65.25c0,0-30.965-4.398-52.429,0.603C303.772,377.14,288.893,402.794,295.353,432.385z"/>
				<path fill="#CD8824" d="M294.832,432.697c0,0,21.352,15.188,61.785,6.301c0,0,12.815-44.853-0.416-62.461
					c0,0-32.354-5.714-53.815-0.713C302.386,375.824,288.372,403.106,294.832,432.697z"/>
				<g>
					<path fill="#E6B552" d="M295.353,432.385c0,0,30.743,11.461,59.597,4.203c0,0,7.92-46.922,1.252-60.051
						c0,0-34.854-7.521-56.316-2.52C299.885,374.018,288.893,402.794,295.353,432.385z"/>
					<path fill="#FAF1DA" d="M334.262,439.414L334.262,439.414c-21.008-0.004-38.877-6.574-39.059-6.639l-0.209-0.078l-0.052-0.226
						c-6.408-29.373,4.44-58.314,4.552-58.604l0.078-0.205l0.215-0.052c4.917-1.146,10.946-1.726,17.914-1.726
						c18.695,0,38.389,4.203,38.584,4.246l0.195,0.042l0.092,0.176c6.654,13.099-0.887,58.387-1.212,60.308l-0.046,0.27
						l-0.261,0.066C348.666,438.597,341.673,439.414,334.262,439.414z M295.711,432.072c2.07,0.734,18.937,6.505,38.551,6.508l0,0
						c7.241,0,14.072-0.784,20.324-2.331c0.625-3.819,7.443-46.766,1.328-59.347c-2.097-0.436-20.604-4.185-38.213-4.185
						c-6.798,0-12.691,0.558-17.504,1.655C299.233,377.016,289.732,404.327,295.711,432.072z"/>
				</g>
				<path fill="#FAF1DA" d="M313.651,385.537c0,0-0.065,0.23-0.184,0.668c-0.144,0.43-0.261,1.09-0.573,1.875
					c-0.352,0.765-0.677,1.752-1.354,2.725c-0.299,0.512-0.631,1.043-1.094,1.527c-0.423,0.512-0.859,1.059-1.439,1.504
					c-1.035,1.039-2.525,1.756-4.181,2.117c-1.719,0.254-3.556-0.277-4.988-1.579c-1.445-1.257-2.22-3.155-2.585-5.054
					c-0.449-1.924-0.228-3.93,0.064-5.877c0.509-1.879,1.146-3.793,2.273-5.408c1.016-1.66,2.429-3.055,4.057-3.963
					c1.582-0.992,3.543-1.264,5.184-0.783c0.821,0.139,1.518,0.67,2.188,1.109c0.527,0.589,1.152,1.084,1.459,1.758
					c0.37,0.635,0.71,1.244,0.872,1.895c0.234,0.623,0.41,1.225,0.464,1.817c0.254,1.159,0.176,2.194,0.182,3.038
					c-0.025,0.843-0.195,1.494-0.24,1.943C313.69,385.299,313.651,385.537,313.651,385.537z M313.651,385.537
					c0,0,0.031-0.238,0.091-0.688c0.039-0.449,0.202-1.104,0.215-1.943c-0.02-0.844,0.039-1.872-0.229-3.021
					c-0.059-0.59-0.246-1.182-0.487-1.795c-0.17-0.641-0.534-1.227-0.918-1.832c-0.802-1.18-1.941-2.299-3.589-2.611
					c-1.543-0.378-3.341-0.064-4.793,0.931c-1.478,0.919-2.773,2.272-3.718,3.858c-1.042,1.527-1.608,3.344-2.091,5.181
					c-0.299,1.846-0.553,3.755-0.15,5.567c0.326,1.787,0.984,3.575,2.254,4.77c1.178,1.192,2.943,1.827,4.545,1.632
					c1.569-0.283,3.048-0.908,4.108-1.889c0.593-0.417,1.05-0.935,1.467-1.438c0.462-0.476,0.801-0.997,1.105-1.502
					c0.69-0.957,1.029-1.931,1.395-2.689c0.324-0.777,0.456-1.438,0.6-1.865C313.586,385.768,313.651,385.537,313.651,385.537z"/>
				<path fill="#FAF1DA" d="M309.347,407.951c0,0-0.02,0.241-0.059,0.689c-0.06,0.45-0.052,1.12-0.215,1.947
					c-0.208,0.817-0.339,1.849-0.827,2.934c-0.195,0.559-0.43,1.141-0.788,1.702c-0.318,0.58-0.645,1.199-1.14,1.746
					c-0.82,1.211-2.155,2.191-3.712,2.855c-1.641,0.568-3.542,0.391-5.196-0.625c-1.654-0.965-2.768-2.688-3.478-4.484
					c-0.801-1.807-0.95-3.817-1.028-5.785c0.149-1.94,0.423-3.939,1.23-5.736c0.684-1.82,1.816-3.455,3.248-4.646
					c1.369-1.271,3.251-1.901,4.944-1.735c0.833-0.013,1.614,0.379,2.363,0.685c0.624,0.481,1.329,0.85,1.759,1.455
					c0.479,0.558,0.925,1.092,1.211,1.7c0.345,0.568,0.632,1.126,0.795,1.698c0.455,1.096,0.578,2.123,0.742,2.954
					c0.13,0.833,0.084,1.504,0.123,1.953C309.334,407.71,309.347,407.951,309.347,407.951z M309.347,407.951
					c0,0-0.013-0.241-0.039-0.693c-0.046-0.449-0.013-1.12-0.155-1.95c-0.177-0.823-0.307-1.847-0.781-2.924
					c-0.169-0.566-0.463-1.114-0.814-1.674c-0.286-0.599-0.755-1.107-1.242-1.628c-1.003-1.013-2.338-1.898-4.013-1.898
					c-1.582-0.085-3.295,0.555-4.533,1.805c-1.288,1.179-2.305,2.748-2.942,4.482c-0.742,1.693-0.957,3.585-1.088,5.48
					c0.046,1.869,0.156,3.789,0.886,5.496c0.658,1.695,1.635,3.33,3.106,4.27c1.374,0.949,3.229,1.246,4.767,0.758
					c1.484-0.569,2.826-1.459,3.686-2.621c0.502-0.518,0.854-1.112,1.174-1.688c0.37-0.55,0.604-1.129,0.808-1.68
					c0.501-1.068,0.65-2.091,0.871-2.9c0.17-0.828,0.177-1.498,0.242-1.944C309.32,408.192,309.347,407.951,309.347,407.951z"/>
				<path fill="#FAF1DA" d="M323.688,398.17c0,0-0.04,0.238-0.118,0.684c-0.092,0.443-0.144,1.111-0.37,1.926
					c-0.273,0.798-0.495,1.813-1.068,2.853c-0.241,0.537-0.515,1.104-0.918,1.631c-0.371,0.555-0.749,1.144-1.283,1.647
					c-0.918,1.14-2.323,2.009-3.934,2.54c-1.688,0.433-3.563,0.098-5.124-1.049c-1.576-1.099-2.547-2.904-3.106-4.758
					c-0.645-1.865-0.632-3.881-0.548-5.851c0.313-1.918,0.743-3.892,1.699-5.617c0.834-1.755,2.098-3.288,3.622-4.363
					c1.472-1.152,3.392-1.624,5.072-1.321c0.827,0.056,1.576,0.508,2.292,0.876c0.587,0.53,1.264,0.957,1.635,1.595
					c0.437,0.593,0.834,1.166,1.068,1.794c0.293,0.596,0.533,1.176,0.65,1.759c0.371,1.13,0.403,2.165,0.493,3.005
					c0.066,0.84-0.038,1.508-0.031,1.957C323.692,397.93,323.688,398.17,323.688,398.17z M323.688,398.17c0,0,0.006-0.24,0.02-0.693
					c-0.014-0.451,0.077-1.116,0.006-1.957c-0.109-0.833-0.156-1.865-0.54-2.979c-0.124-0.58-0.371-1.15-0.672-1.732
					c-0.234-0.622-0.663-1.166-1.104-1.729c-0.92-1.092-2.177-2.084-3.85-2.221c-1.563-0.212-3.321,0.283-4.663,1.426
					c-1.374,1.068-2.521,2.547-3.303,4.223c-0.871,1.632-1.249,3.497-1.536,5.376c-0.104,1.865-0.148,3.79,0.438,5.552
					c0.515,1.742,1.354,3.451,2.741,4.507c1.296,1.062,3.119,1.508,4.688,1.149c1.53-0.447,2.937-1.221,3.888-2.31
					c0.547-0.477,0.944-1.038,1.31-1.585c0.409-0.52,0.696-1.074,0.942-1.605c0.587-1.024,0.821-2.032,1.108-2.823
					c0.239-0.808,0.299-1.476,0.396-1.915C323.641,398.408,323.688,398.17,323.688,398.17z"/>
				<path fill="#FAF1DA" d="M336.378,390.76c0,0-0.039,0.238-0.117,0.684c-0.091,0.443-0.144,1.11-0.371,1.924
					c-0.273,0.798-0.495,1.814-1.066,2.853c-0.242,0.537-0.516,1.104-0.919,1.632c-0.372,0.554-0.749,1.144-1.282,1.647
					c-0.92,1.14-2.325,2.009-3.935,2.54c-1.688,0.433-3.563,0.097-5.125-1.049c-1.575-1.099-2.547-2.904-3.105-4.758
					c-0.645-1.865-0.632-3.881-0.547-5.852c0.313-1.918,0.742-3.891,1.7-5.616c0.833-1.756,2.097-3.289,3.62-4.363
					c1.472-1.152,3.393-1.625,5.072-1.322c0.827,0.056,1.575,0.508,2.292,0.876c0.586,0.53,1.265,0.958,1.636,1.596
					c0.435,0.593,0.833,1.165,1.066,1.794c0.293,0.596,0.534,1.176,0.65,1.758c0.371,1.13,0.403,2.166,0.496,3.006
					c0.064,0.84-0.039,1.508-0.032,1.957C336.385,390.519,336.378,390.76,336.378,390.76z M336.378,390.76
					c0,0,0.007-0.241,0.021-0.693c-0.014-0.453,0.077-1.117,0.007-1.957c-0.11-0.834-0.156-1.866-0.541-2.979
					c-0.123-0.579-0.371-1.149-0.67-1.732c-0.234-0.622-0.665-1.165-1.107-1.729c-0.918-1.091-2.175-2.084-3.849-2.221
					c-1.563-0.212-3.321,0.283-4.662,1.426c-1.374,1.068-2.521,2.546-3.302,4.224c-0.873,1.631-1.251,3.496-1.537,5.375
					c-0.105,1.866-0.149,3.79,0.437,5.552c0.516,1.741,1.354,3.45,2.741,4.507c1.296,1.061,3.119,1.508,4.688,1.147
					c1.531-0.444,2.938-1.221,3.89-2.309c0.547-0.475,0.942-1.038,1.309-1.585c0.411-0.519,0.697-1.075,0.945-1.605
					c0.586-1.024,0.82-2.031,1.104-2.823c0.242-0.807,0.302-1.475,0.398-1.914C336.332,390.998,336.378,390.76,336.378,390.76z"/>
				<path fill="#FAF1DA" d="M346.264,400.717c0,0-0.039,0.238-0.11,0.685c-0.099,0.441-0.149,1.109-0.371,1.924
					c-0.273,0.799-0.496,1.813-1.067,2.853c-0.248,0.537-0.521,1.104-0.925,1.632c-0.365,0.554-0.742,1.144-1.276,1.646
					c-0.925,1.141-2.331,2.01-3.939,2.541c-1.68,0.432-3.563,0.097-5.125-1.049c-1.569-1.099-2.539-2.904-3.101-4.758
					c-0.649-1.865-0.631-3.882-0.547-5.852c0.313-1.918,0.742-3.892,1.693-5.616c0.84-1.756,2.104-3.289,3.627-4.363
					c1.472-1.152,3.393-1.625,5.066-1.322c0.834,0.056,1.583,0.508,2.299,0.877c0.586,0.529,1.257,0.957,1.635,1.595
					c0.43,0.593,0.833,1.165,1.061,1.794c0.302,0.596,0.541,1.176,0.652,1.758c0.371,1.13,0.403,2.166,0.5,3.006
					c0.061,0.84-0.038,1.507-0.038,1.957C346.276,400.476,346.264,400.717,346.264,400.717z M346.264,400.717
					c0,0,0.006-0.241,0.021-0.692c-0.007-0.453,0.084-1.117,0.006-1.957c-0.104-0.834-0.156-1.866-0.541-2.979
					c-0.117-0.579-0.37-1.149-0.67-1.732c-0.234-0.622-0.657-1.165-1.107-1.729c-0.918-1.091-2.168-2.084-3.842-2.221
					c-1.569-0.212-3.327,0.283-4.662,1.427c-1.381,1.067-2.526,2.545-3.303,4.223c-0.879,1.631-1.25,3.496-1.536,5.375
					c-0.11,1.866-0.156,3.79,0.43,5.553c0.516,1.741,1.354,3.45,2.741,4.507c1.297,1.061,3.119,1.508,4.689,1.147
					c1.529-0.444,2.942-1.221,3.888-2.309c0.547-0.476,0.95-1.038,1.315-1.585c0.409-0.52,0.689-1.075,0.942-1.605
					c0.587-1.024,0.821-2.031,1.107-2.822c0.233-0.808,0.293-1.476,0.396-1.914C346.225,400.955,346.264,400.717,346.264,400.717z"
					/>
				<path fill="#FAF1DA" d="M358.74,395.058c0,0-0.014,0.241-0.032,0.693c-0.039,0.449-0.013,1.12-0.137,1.954
					c-0.184,0.823-0.28,1.858-0.729,2.959c-0.176,0.563-0.384,1.156-0.723,1.729c-0.301,0.594-0.605,1.222-1.074,1.784
					c-0.782,1.24-2.078,2.271-3.608,2.988c-1.621,0.629-3.528,0.515-5.216-0.439c-1.688-0.903-2.864-2.585-3.641-4.354
					c-0.865-1.778-1.087-3.781-1.237-5.748c0.085-1.939,0.287-3.949,1.029-5.775c0.619-1.843,1.693-3.516,3.08-4.761
					c1.327-1.318,3.178-2.015,4.878-1.911c0.833-0.042,1.628,0.32,2.383,0.6c0.646,0.459,1.361,0.805,1.812,1.394
					c0.502,0.537,0.964,1.058,1.27,1.653c0.365,0.557,0.678,1.104,0.86,1.671c0.492,1.077,0.649,2.1,0.845,2.924
					c0.158,0.827,0.139,1.501,0.189,1.95C358.728,394.816,358.74,395.058,358.74,395.058z M358.74,395.058
					c0,0-0.021-0.241-0.06-0.69c-0.063-0.449-0.052-1.119-0.228-1.943c-0.202-0.817-0.372-1.834-0.886-2.898
					c-0.188-0.557-0.502-1.094-0.873-1.641c-0.307-0.59-0.795-1.078-1.303-1.583c-1.042-0.974-2.402-1.813-4.076-1.755
					c-1.582-0.025-3.27,0.678-4.468,1.967c-1.236,1.225-2.2,2.83-2.78,4.584c-0.678,1.723-0.826,3.619-0.893,5.52
					c0.117,1.862,0.293,3.78,1.081,5.46c0.716,1.671,1.758,3.27,3.263,4.155c1.406,0.897,3.27,1.129,4.786,0.586
					c1.465-0.622,2.773-1.561,3.588-2.752c0.488-0.537,0.82-1.144,1.119-1.729c0.348-0.563,0.563-1.146,0.743-1.706
					c0.463-1.084,0.58-2.109,0.77-2.931c0.144-0.833,0.124-1.504,0.17-1.95C358.728,395.299,358.74,395.058,358.74,395.058z"/>
				<path fill="#FAF1DA" d="M322.638,417.635c0,0-0.021,0.24-0.059,0.689c-0.06,0.45-0.052,1.121-0.208,1.947
					c-0.209,0.817-0.346,1.85-0.827,2.934c-0.202,0.557-0.43,1.141-0.788,1.703c-0.326,0.58-0.65,1.199-1.141,1.746
					c-0.826,1.211-2.154,2.19-3.711,2.854c-1.642,0.57-3.542,0.392-5.196-0.625c-1.654-0.965-2.774-2.688-3.484-4.483
					c-0.794-1.808-0.949-3.818-1.027-5.785c0.155-1.941,0.422-3.939,1.229-5.738c0.689-1.819,1.822-3.454,3.249-4.646
					c1.374-1.273,3.25-1.901,4.949-1.735c0.834-0.014,1.615,0.377,2.357,0.684c0.625,0.481,1.335,0.851,1.759,1.455
					c0.48,0.558,0.931,1.091,1.211,1.699c0.345,0.57,0.631,1.127,0.795,1.7c0.462,1.095,0.579,2.123,0.742,2.953
					c0.129,0.833,0.084,1.505,0.123,1.954C322.631,417.394,322.638,417.635,322.638,417.635z M322.638,417.635
					c0,0-0.013-0.241-0.031-0.692c-0.054-0.449-0.015-1.121-0.156-1.951c-0.176-0.823-0.313-1.847-0.788-2.924
					c-0.169-0.566-0.463-1.113-0.814-1.675c-0.279-0.599-0.749-1.105-1.236-1.627c-1.011-1.013-2.338-1.897-4.019-1.897
					c-1.582-0.085-3.288,0.554-4.532,1.804c-1.282,1.179-2.299,2.748-2.937,4.483c-0.743,1.692-0.964,3.585-1.095,5.479
					c0.052,1.868,0.163,3.789,0.886,5.496c0.658,1.695,1.635,3.33,3.105,4.269c1.382,0.95,3.229,1.247,4.768,0.76
					c1.491-0.57,2.833-1.459,3.686-2.621c0.509-0.519,0.859-1.114,1.18-1.688c0.363-0.55,0.599-1.129,0.808-1.68
					c0.502-1.068,0.651-2.09,0.873-2.901c0.168-0.826,0.176-1.496,0.24-1.943C322.617,417.875,322.638,417.635,322.638,417.635z"/>
				<path fill="#FAF1DA" d="M335.668,426.602c0,0-0.02,0.241-0.059,0.69c-0.06,0.449-0.053,1.12-0.208,1.947
					c-0.208,0.816-0.346,1.849-0.827,2.934c-0.202,0.558-0.431,1.14-0.789,1.702c-0.324,0.58-0.65,1.199-1.139,1.746
					c-0.828,1.211-2.155,2.19-3.714,2.854c-1.64,0.569-3.541,0.392-5.194-0.625c-1.654-0.965-2.774-2.687-3.483-4.483
					c-0.795-1.808-0.951-3.818-1.029-5.785c0.156-1.941,0.424-3.939,1.23-5.737c0.69-1.819,1.823-3.454,3.25-4.646
					c1.374-1.272,3.249-1.901,4.949-1.735c0.833-0.014,1.613,0.377,2.356,0.685c0.625,0.481,1.335,0.85,1.758,1.454
					c0.481,0.558,0.932,1.093,1.212,1.7c0.346,0.569,0.632,1.126,0.795,1.7c0.462,1.094,0.579,2.122,0.741,2.953
					c0.131,0.834,0.085,1.504,0.124,1.953C335.662,426.361,335.668,426.602,335.668,426.602z M335.668,426.602
					c0,0-0.013-0.239-0.033-0.692c-0.051-0.449-0.012-1.119-0.154-1.95c-0.177-0.824-0.313-1.847-0.788-2.925
					c-0.169-0.566-0.462-1.113-0.813-1.673c-0.28-0.6-0.749-1.106-1.237-1.628c-1.01-1.014-2.338-1.898-4.019-1.898
					c-1.582-0.084-3.288,0.554-4.532,1.804c-1.282,1.18-2.299,2.748-2.937,4.483c-0.742,1.693-0.964,3.585-1.095,5.479
					c0.053,1.869,0.162,3.789,0.886,5.496c0.656,1.696,1.635,3.33,3.105,4.27c1.381,0.95,3.23,1.247,4.768,0.759
					c1.49-0.57,2.833-1.459,3.687-2.621c0.508-0.518,0.859-1.113,1.178-1.688c0.365-0.551,0.601-1.129,0.809-1.681
					c0.502-1.067,0.65-2.09,0.873-2.899c0.169-0.828,0.176-1.498,0.241-1.944C335.648,426.843,335.668,426.602,335.668,426.602z"/>
				<path fill="#FAF1DA" d="M349.981,426.602c0,0-0.021,0.241-0.06,0.69c-0.06,0.449-0.052,1.12-0.215,1.947
					c-0.208,0.816-0.338,1.849-0.827,2.934c-0.195,0.558-0.43,1.14-0.787,1.702c-0.318,0.58-0.646,1.199-1.14,1.746
					c-0.821,1.211-2.156,2.19-3.712,2.854c-1.644,0.569-3.543,0.392-5.197-0.625c-1.653-0.965-2.768-2.687-3.479-4.483
					c-0.802-1.808-0.949-3.818-1.027-5.785c0.148-1.941,0.423-3.939,1.229-5.737c0.685-1.819,1.817-3.454,3.25-4.646
					c1.367-1.272,3.248-1.901,4.942-1.735c0.833-0.014,1.615,0.377,2.364,0.685c0.625,0.481,1.328,0.85,1.758,1.454
					c0.48,0.558,0.925,1.093,1.211,1.7c0.346,0.569,0.632,1.126,0.795,1.7c0.456,1.094,0.579,2.122,0.742,2.953
					c0.13,0.834,0.084,1.504,0.124,1.953C349.969,426.361,349.981,426.602,349.981,426.602z M349.981,426.602
					c0,0-0.014-0.239-0.039-0.692c-0.046-0.449-0.014-1.119-0.157-1.95c-0.175-0.824-0.305-1.847-0.78-2.925
					c-0.169-0.566-0.462-1.113-0.813-1.673c-0.287-0.6-0.757-1.106-1.244-1.628c-1.003-1.014-2.338-1.898-4.013-1.898
					c-1.582-0.084-3.295,0.554-4.531,1.804c-1.289,1.18-2.307,2.748-2.943,4.483c-0.743,1.693-0.957,3.585-1.088,5.479
					c0.046,1.869,0.156,3.789,0.886,5.496c0.658,1.696,1.635,3.33,3.105,4.27c1.375,0.95,3.23,1.247,4.768,0.759
					c1.484-0.57,2.826-1.459,3.688-2.621c0.501-0.518,0.853-1.113,1.172-1.688c0.371-0.551,0.604-1.129,0.808-1.681
					c0.501-1.067,0.65-2.09,0.872-2.899c0.17-0.828,0.176-1.498,0.241-1.944C349.956,426.843,349.981,426.602,349.981,426.602z"/>
				<path fill="#FAF1DA" d="M357.998,413.239c0,0-0.021,0.241-0.059,0.689c-0.06,0.449-0.053,1.119-0.216,1.947
					c-0.209,0.816-0.339,1.849-0.826,2.934c-0.196,0.558-0.432,1.14-0.788,1.702c-0.319,0.579-0.646,1.198-1.141,1.745
					c-0.819,1.211-2.154,2.191-3.712,2.855c-1.641,0.569-3.543,0.391-5.196-0.625c-1.653-0.963-2.768-2.687-3.478-4.483
					c-0.801-1.808-0.95-3.819-1.028-5.786c0.149-1.939,0.423-3.938,1.229-5.735c0.685-1.82,1.815-3.455,3.25-4.646
					c1.368-1.273,3.25-1.902,4.942-1.735c0.833-0.014,1.614,0.378,2.363,0.685c0.625,0.48,1.329,0.85,1.758,1.455
					c0.482,0.557,0.927,1.091,1.212,1.7c0.346,0.568,0.633,1.126,0.794,1.698c0.456,1.095,0.58,2.123,0.742,2.953
					c0.131,0.834,0.084,1.504,0.124,1.953C357.985,412.998,357.998,413.239,357.998,413.239z M357.998,413.239
					c0,0-0.013-0.241-0.039-0.694c-0.046-0.449-0.013-1.119-0.156-1.949c-0.176-0.823-0.307-1.847-0.781-2.925
					c-0.17-0.565-0.463-1.113-0.813-1.673c-0.286-0.6-0.755-1.107-1.243-1.629c-1.003-1.012-2.338-1.897-4.012-1.897
					c-1.582-0.085-3.295,0.555-4.532,1.805c-1.29,1.18-2.306,2.748-2.943,4.482c-0.741,1.692-0.958,3.585-1.088,5.479
					c0.045,1.869,0.156,3.791,0.887,5.496c0.656,1.696,1.635,3.331,3.105,4.27c1.374,0.951,3.229,1.246,4.766,0.758
					c1.484-0.568,2.827-1.459,3.687-2.621c0.502-0.518,0.854-1.112,1.174-1.686c0.371-0.551,0.605-1.131,0.807-1.681
					c0.503-1.068,0.651-2.092,0.873-2.901c0.17-0.827,0.177-1.498,0.241-1.943C357.972,413.48,357.998,413.239,357.998,413.239z"/>
				<path fill="#FAF1DA" d="M311.99,400.789c0,0-0.162,0.702-0.562,1.891c-0.26,0.57-0.5,1.307-1.002,2.031
					c-0.437,0.756-1.063,1.547-1.875,2.264c-0.77,0.781-1.876,1.325-3.121,1.605c-1.288,0.198-2.662-0.187-3.763-1.169
					c-1.094-0.941-1.687-2.367-1.968-3.794c-0.338-1.441-0.175-2.946,0.04-4.408c0.385-1.4,0.866-2.836,1.72-4.051
					c0.754-1.24,1.83-2.282,3.053-2.956c1.199-0.739,2.669-0.935,3.902-0.566c1.229,0.28,2.194,1.26,2.722,2.165
					c0.555,0.938,0.872,1.904,0.983,2.771c0.183,0.866,0.129,1.635,0.129,2.263C312.134,400.082,311.99,400.789,311.99,400.789z
					 M311.99,400.789c0,0,0.131-0.711,0.222-1.957c-0.02-0.626,0.02-1.391-0.177-2.244c-0.137-0.85-0.455-1.813-1.054-2.687
					c-0.605-0.872-1.439-1.683-2.663-1.907c-1.127-0.268-2.449-0.029-3.511,0.713c-2.201,1.399-3.64,3.952-4.252,6.678
					c-0.222,1.357-0.41,2.766-0.124,4.101c0.241,1.312,0.717,2.627,1.642,3.51c0.84,0.869,2.142,1.354,3.314,1.218
					c1.159-0.198,2.259-0.654,3.047-1.378c0.841-0.645,1.466-1.436,1.914-2.172c0.515-0.709,0.769-1.432,1.042-1.995
					C311.814,401.488,311.99,400.789,311.99,400.789z"/>
				<path fill="#FAF1DA" d="M330.811,409.059c0,0-0.07,0.717-0.307,1.947c-0.188,0.6-0.332,1.36-0.736,2.146
					c-0.33,0.809-0.854,1.674-1.567,2.487c-0.658,0.873-1.688,1.558-2.879,1.992c-1.256,0.365-2.67,0.163-3.888-0.67
					c-1.212-0.791-1.979-2.129-2.436-3.506c-0.528-1.393-0.561-2.902-0.534-4.377c0.195-1.439,0.488-2.928,1.171-4.239
					c0.602-1.332,1.524-2.501,2.658-3.328c1.087-0.886,2.525-1.271,3.789-1.066c1.258,0.119,2.345,0.963,2.977,1.797
					c0.679,0.855,1.113,1.773,1.335,2.618c0.293,0.837,0.34,1.604,0.425,2.227C330.862,408.339,330.811,409.059,330.811,409.059z
					 M330.811,409.059c0,0,0.039-0.723-0.038-1.971c-0.093-0.618-0.15-1.38-0.464-2.2c-0.239-0.827-0.678-1.742-1.387-2.526
					c-0.716-0.788-1.646-1.484-2.892-1.551c-1.152-0.116-2.43,0.29-3.387,1.162c-2.006,1.674-3.1,4.391-3.354,7.17
					c-0.046,1.377-0.053,2.798,0.41,4.084c0.41,1.271,1.047,2.515,2.077,3.271c0.943,0.752,2.299,1.065,3.443,0.777
					c1.12-0.349,2.156-0.938,2.847-1.759c0.749-0.75,1.271-1.611,1.622-2.403c0.417-0.769,0.572-1.521,0.773-2.112
					C330.726,409.774,330.811,409.059,330.811,409.059z"/>
				<path fill="#FAF1DA" d="M347.93,410.406c0,0-0.063,0.717-0.306,1.946c-0.182,0.601-0.325,1.361-0.729,2.146
					c-0.339,0.808-0.859,1.674-1.568,2.487c-0.665,0.873-1.693,1.557-2.886,1.992c-1.258,0.364-2.663,0.163-3.882-0.671
					c-1.212-0.791-1.985-2.129-2.441-3.507c-0.521-1.39-0.553-2.9-0.533-4.376c0.201-1.438,0.488-2.927,1.179-4.239
					c0.594-1.332,1.518-2.501,2.65-3.326c1.087-0.888,2.526-1.273,3.796-1.068c1.257,0.12,2.338,0.964,2.977,1.797
					c0.672,0.856,1.106,1.775,1.335,2.618c0.294,0.837,0.331,1.604,0.416,2.228C347.982,409.688,347.93,410.406,347.93,410.406z
					 M347.93,410.406c0,0,0.04-0.724-0.031-1.971c-0.1-0.617-0.156-1.381-0.463-2.2c-0.246-0.827-0.684-1.742-1.394-2.526
					c-0.71-0.788-1.641-1.485-2.885-1.55c-1.152-0.118-2.43,0.29-3.388,1.162c-2.005,1.675-3.105,4.389-3.358,7.169
					c-0.046,1.378-0.046,2.799,0.41,4.084c0.408,1.27,1.048,2.514,2.077,3.269c0.943,0.753,2.305,1.068,3.45,0.778
					c1.12-0.348,2.148-0.938,2.839-1.758c0.749-0.749,1.271-1.611,1.622-2.403c0.417-0.769,0.572-1.521,0.774-2.113
					C347.852,411.123,347.93,410.406,347.93,410.406z"/>
				<path fill="#FAF1DA" d="M355.79,428.666c0,0-0.052,0.684-0.215,1.865c-0.162,0.576-0.241,1.315-0.579,2.084
					c-0.273,0.788-0.697,1.645-1.303,2.48c-0.566,0.872-1.492,1.632-2.645,2.048c-1.19,0.431-2.604-0.022-3.614-0.957
					c-2.051-1.872-2.571-4.93-2.532-7.685c0.147-1.377,0.371-2.784,0.925-4.083c0.469-1.306,1.275-2.479,2.278-3.363
					c0.965-0.922,2.409-1.374,3.602-1.031c1.179,0.296,2.13,1.162,2.618,2.048c0.565,0.869,0.897,1.774,1.093,2.582
					c0.269,0.801,0.269,1.541,0.365,2.13C355.816,427.982,355.79,428.666,355.79,428.666z M355.79,428.666
					c0,0,0.014-0.688-0.052-1.875c-0.11-0.59-0.124-1.322-0.404-2.11c-0.214-0.794-0.546-1.695-1.158-2.501
					c-0.561-0.853-1.438-1.565-2.533-1.787c-1.101-0.243-2.306,0.211-3.146,1.102c-1.744,1.751-2.598,4.392-2.76,7.06
					c-0.124,2.604,0.396,5.449,2.096,7.215c0.775,0.841,2.026,1.353,3.127,1.021c1.055-0.32,1.992-0.98,2.592-1.801
					c0.646-0.775,1.074-1.632,1.36-2.403c0.358-0.755,0.449-1.485,0.624-2.055C355.726,429.35,355.79,428.666,355.79,428.666z"/>
				<path fill="#FAF1DA" d="M323.511,381.447c0,0-0.155,0.703-0.554,1.892c-0.261,0.57-0.502,1.306-1.003,2.032
					c-0.438,0.755-1.068,1.547-1.882,2.263c-0.763,0.781-1.876,1.325-3.113,1.605c-1.296,0.198-2.663-0.186-3.764-1.169
					c-1.102-0.941-1.693-2.367-1.968-3.793c-0.338-1.443-0.176-2.947,0.039-4.409c0.386-1.4,0.866-2.836,1.714-4.051
					c0.762-1.24,1.829-2.282,3.061-2.956c1.191-0.738,2.67-0.935,3.9-0.566c1.23,0.279,2.194,1.26,2.716,2.165
					c0.56,0.938,0.873,1.905,0.989,2.771c0.183,0.866,0.123,1.635,0.123,2.264C323.66,380.74,323.511,381.447,323.511,381.447z
					 M323.511,381.447c0,0,0.13-0.71,0.221-1.957c-0.013-0.625,0.026-1.391-0.176-2.242c-0.138-0.851-0.448-1.814-1.056-2.688
					c-0.604-0.872-1.432-1.683-2.656-1.908c-1.133-0.267-2.447-0.029-3.51,0.714c-2.207,1.399-3.646,3.952-4.252,6.678
					c-0.229,1.358-0.418,2.765-0.124,4.1c0.241,1.312,0.717,2.628,1.635,3.51c0.839,0.869,2.148,1.354,3.321,1.218
					c1.152-0.199,2.252-0.654,3.041-1.377c0.847-0.645,1.472-1.437,1.921-2.172c0.515-0.71,0.769-1.433,1.042-1.996
					C323.334,382.147,323.511,381.447,323.511,381.447z"/>
				<path fill="#FAF1DA" d="M347.93,383.199c0,0-0.063,0.717-0.299,1.947c-0.188,0.6-0.325,1.361-0.729,2.146
					c-0.333,0.811-0.854,1.677-1.563,2.494c-0.658,0.872-1.687,1.556-2.879,1.999c-1.257,0.365-2.663,0.166-3.888-0.664
					c-1.211-0.791-1.985-2.123-2.441-3.504c-0.527-1.387-0.565-2.895-0.547-4.373c0.195-1.438,0.488-2.927,1.172-4.238
					c0.586-1.336,1.51-2.508,2.638-3.338c1.088-0.889,2.526-1.276,3.797-1.074c1.257,0.12,2.338,0.96,2.981,1.791
					c0.671,0.855,1.113,1.773,1.342,2.617c0.293,0.834,0.338,1.602,0.423,2.225C347.982,382.479,347.93,383.199,347.93,383.199z
					 M347.93,383.199c0,0,0.04-0.723-0.038-1.97c-0.098-0.619-0.155-1.381-0.463-2.201c-0.247-0.823-0.688-1.739-1.398-2.523
					c-0.718-0.785-1.647-1.479-2.893-1.54c-1.151-0.117-2.429,0.289-3.388,1.166c-1.998,1.68-3.086,4.398-3.339,7.179
					c-0.039,1.374-0.039,2.794,0.423,4.08c0.41,1.27,1.055,2.511,2.084,3.266c0.944,0.752,2.305,1.062,3.444,0.771
					c1.12-0.352,2.155-0.944,2.839-1.765c0.75-0.752,1.271-1.618,1.622-2.406c0.417-0.771,0.565-1.521,0.769-2.116
					C347.852,383.916,347.93,383.199,347.93,383.199z"/>
				<path fill="#FAF1DA" d="M310.649,425.469c0,0,0.006,0.719-0.118,1.967c-0.123,0.615-0.194,1.388-0.521,2.207
					c-0.254,0.834-0.689,1.748-1.32,2.629c-0.574,0.931-1.53,1.71-2.678,2.26c-1.218,0.484-2.638,0.417-3.934-0.296
					c-1.276-0.672-2.175-1.929-2.761-3.257c-0.658-1.331-0.834-2.834-0.957-4.305c0.064-1.453,0.207-2.957,0.769-4.331
					c0.462-1.38,1.269-2.638,2.317-3.567c0.997-0.987,2.391-1.512,3.673-1.428c1.263-0.003,2.423,0.732,3.14,1.502
					c0.748,0.787,1.271,1.66,1.574,2.48c0.379,0.801,0.489,1.563,0.633,2.176C310.635,424.749,310.649,425.469,310.649,425.469z
					 M310.649,425.469c0,0-0.034-0.723-0.223-1.957c-0.155-0.604-0.286-1.36-0.671-2.147c-0.325-0.799-0.847-1.668-1.628-2.381
					c-0.788-0.718-1.777-1.318-3.021-1.265c-1.166-0.006-2.396,0.521-3.263,1.482c-1.836,1.858-2.663,4.67-2.65,7.459
					c0.085,1.374,0.222,2.787,0.801,4.021c0.528,1.229,1.283,2.402,2.384,3.058c1.01,0.657,2.389,0.844,3.504,0.446
					c1.081-0.457,2.059-1.144,2.663-2.024c0.671-0.818,1.107-1.729,1.381-2.547c0.346-0.808,0.423-1.569,0.566-2.183
					C310.635,426.188,310.649,425.469,310.649,425.469z"/>
				<path fill="#FAF1DA" d="M302.112,419.553c0,0,0,0.498-0.079,1.363c-0.117,0.863-0.409,2.11-1.263,3.371
					c-0.391,0.654-1.056,1.207-1.856,1.604c-0.859,0.349-1.855,0.314-2.793-0.187c-1.843-1.016-2.546-3.292-2.664-5.317
					c0.046-2.008,0.678-4.265,2.207-5.547c0.718-0.69,1.707-1.053,2.619-0.979c0.872,0.006,1.706,0.537,2.188,1.077
					c0.515,0.56,0.879,1.165,1.088,1.734c0.26,0.562,0.332,1.091,0.43,1.515C302.098,419.055,302.112,419.553,302.112,419.553z
					 M302.112,419.553c0,0-0.026-0.502-0.163-1.356c-0.11-0.421-0.202-0.941-0.469-1.485c-0.229-0.55-0.593-1.153-1.14-1.638
					c-0.554-0.488-1.218-0.886-2.077-0.84c-0.788,0.006-1.615,0.371-2.195,1.03c-1.23,1.293-1.797,3.187-1.777,5.109
					c0.032,1.862,0.678,3.865,2.123,4.838c0.664,0.449,1.615,0.596,2.369,0.332c0.743-0.299,1.414-0.765,1.844-1.367
					c0.475-0.557,0.775-1.188,0.971-1.755c0.234-0.557,0.3-1.084,0.397-1.507C302.098,420.054,302.112,419.553,302.112,419.553z"/>
				<path fill="#FAF1DA" d="M330.882,378.168c0,0,0,0.499-0.078,1.365c-0.117,0.862-0.41,2.109-1.263,3.369
					c-0.392,0.655-1.056,1.209-1.857,1.605c-0.857,0.349-1.854,0.316-2.793-0.186c-1.843-1.016-2.546-3.292-2.663-5.316
					c0.047-2.01,0.679-4.266,2.208-5.549c0.717-0.69,1.706-1.052,2.617-0.98c0.873,0.007,1.706,0.538,2.188,1.078
					c0.515,0.561,0.879,1.166,1.087,1.735c0.261,0.561,0.332,1.091,0.431,1.515C330.869,377.67,330.882,378.168,330.882,378.168z
					 M330.882,378.168c0,0-0.024-0.501-0.162-1.357c-0.11-0.42-0.202-0.939-0.47-1.484c-0.228-0.551-0.592-1.152-1.14-1.638
					c-0.554-0.488-1.219-0.886-2.077-0.841c-0.788,0.007-1.615,0.372-2.194,1.033c-1.229,1.292-1.797,3.184-1.777,5.108
					c0.032,1.862,0.678,3.864,2.122,4.839c0.664,0.449,1.615,0.596,2.371,0.332c0.742-0.3,1.412-0.766,1.844-1.368
					c0.476-0.557,0.773-1.188,0.97-1.755c0.233-0.557,0.299-1.084,0.396-1.508C330.869,378.67,330.882,378.168,330.882,378.168z"/>
				<path fill="#FAF1DA" d="M355.816,381.418c0,0,0,0.498-0.078,1.364c-0.117,0.863-0.41,2.11-1.265,3.37
					c-0.391,0.654-1.055,1.208-1.854,1.605c-0.859,0.348-1.855,0.315-2.794-0.186c-1.843-1.016-2.546-3.292-2.663-5.317
					c0.046-2.009,0.677-4.266,2.208-5.548c0.716-0.69,1.706-1.052,2.617-0.98c0.873,0.007,1.706,0.537,2.188,1.078
					c0.516,0.56,0.879,1.165,1.087,1.735c0.262,0.56,0.332,1.091,0.431,1.514C355.804,380.92,355.816,381.418,355.816,381.418z
					 M355.816,381.418c0,0-0.026-0.501-0.163-1.357c-0.11-0.42-0.201-0.941-0.471-1.484c-0.227-0.551-0.592-1.153-1.139-1.639
					c-0.553-0.488-1.218-0.885-2.078-0.84c-0.787,0.007-1.615,0.371-2.192,1.032c-1.23,1.293-1.798,3.185-1.777,5.108
					c0.032,1.863,0.677,3.865,2.121,4.839c0.666,0.449,1.616,0.596,2.372,0.332c0.741-0.3,1.413-0.765,1.843-1.368
					c0.476-0.557,0.774-1.188,0.97-1.754c0.233-0.558,0.3-1.085,0.397-1.508C355.804,381.92,355.816,381.418,355.816,381.418z"/>
				<path fill="#FAF1DA" d="M321.713,431.457c0,0,0,0.498-0.078,1.363c-0.117,0.862-0.41,2.109-1.263,3.37
					c-0.392,0.654-1.056,1.208-1.856,1.604c-0.858,0.349-1.854,0.315-2.794-0.186c-1.843-1.018-2.546-3.292-2.663-5.317
					c0.047-2.009,0.679-4.266,2.207-5.547c0.718-0.691,1.707-1.053,2.617-0.981c0.874,0.008,1.707,0.538,2.189,1.078
					c0.515,0.561,0.879,1.165,1.087,1.735c0.261,0.561,0.333,1.091,0.431,1.514C321.699,430.958,321.713,431.457,321.713,431.457z
					 M321.713,431.457c0,0-0.024-0.502-0.162-1.358c-0.11-0.42-0.203-0.939-0.471-1.484c-0.227-0.55-0.591-1.152-1.139-1.638
					c-0.554-0.487-1.219-0.887-2.078-0.84c-0.787,0.006-1.613,0.371-2.193,1.031c-1.229,1.293-1.797,3.186-1.777,5.109
					c0.032,1.86,0.677,3.863,2.121,4.838c0.666,0.449,1.616,0.596,2.372,0.332c0.742-0.299,1.413-0.767,1.843-1.367
					c0.477-0.557,0.774-1.188,0.971-1.756c0.234-0.558,0.3-1.084,0.396-1.507C321.699,431.958,321.713,431.457,321.713,431.457z"/>
				<path fill="#FAF1DA" d="M335.896,413.32c0,0,0,0.498-0.078,1.363c-0.117,0.862-0.41,2.11-1.265,3.37
					c-0.391,0.654-1.055,1.208-1.854,1.605c-0.86,0.348-1.856,0.314-2.794-0.187c-1.844-1.016-2.546-3.292-2.663-5.316
					c0.045-2.009,0.676-4.267,2.207-5.548c0.717-0.69,1.706-1.053,2.617-0.98c0.873,0.007,1.707,0.537,2.188,1.078
					c0.515,0.56,0.88,1.166,1.088,1.734c0.261,0.561,0.332,1.092,0.43,1.515C335.883,412.822,335.896,413.32,335.896,413.32z
					 M335.896,413.32c0,0-0.026-0.502-0.163-1.357c-0.11-0.42-0.202-0.94-0.47-1.484c-0.228-0.551-0.593-1.152-1.14-1.639
					c-0.554-0.488-1.218-0.885-2.077-0.84c-0.788,0.007-1.616,0.371-2.194,1.032c-1.23,1.292-1.798,3.185-1.777,5.107
					c0.033,1.863,0.678,3.865,2.123,4.839c0.664,0.449,1.614,0.597,2.37,0.332c0.741-0.3,1.412-0.765,1.843-1.367
					c0.476-0.558,0.774-1.188,0.971-1.754c0.233-0.558,0.3-1.086,0.397-1.509C335.883,413.822,335.896,413.32,335.896,413.32z"/>
			</g>
		</g>
		<polygon fill="#E1A94D" points="494.998,814.774 210.345,650.084 510.054,476.778 794.746,641.397 		"/>
		<polygon fill="#F2EBE2" points="495.265,807.567 220.517,648.612 509.793,481.334 784.574,640.229 		"/>
		<g>
			<polygon opacity="0.3" fill="#2F302D" enable-background="new    " points="460.184,830.188 389.814,871.028 104.817,706.471 
				104.817,662.946 			"/>
			<polygon fill="#986B40" points="465.016,831.907 465.016,818.622 444.973,829.561 457.893,836.022 			"/>
			<polygon fill="#C08954" points="104.817,699.895 104.817,710.637 110.916,714.157 119.75,708.594 			"/>
			<polygon fill="#986B40" points="389.814,862.764 389.814,875.192 397.317,870.961 404.129,857.417 			"/>
			<polygon fill="#C08954" points="389.814,862.764 389.814,875.192 382.313,870.961 375.509,857.417 			"/>
			<polygon fill="#D3826E" points="389.814,771.422 134.701,624.079 194.879,589.434 449.902,736.815 			"/>
			<polygon fill="#A55130" points="465.016,728.235 389.814,771.422 389.814,866.583 465.016,823.165 			"/>
			<polygon fill="#A55130" points="389.814,754.075 374.863,762.768 374.863,693.502 389.814,684.891 			"/>
			<polygon fill="#CE7353" points="389.814,771.422 465.016,728.235 449.869,719.43 374.863,762.768 			"/>
			<polygon fill="#CE7353" points="119.77,615.342 194.97,572.155 179.823,563.35 104.817,606.688 			"/>
			<polygon fill="#BF6138" points="119.75,615.448 119.75,546.159 374.955,693.54 374.955,762.774 389.814,771.422 389.814,866.583 
				104.817,702.028 104.817,606.696 			"/>
			<polygon fill="#CE7353" points="374.863,693.502 119.75,546.159 134.792,537.512 389.814,684.891 			"/>
		</g>
		<g>
			<polygon fill="#D3D5D5" points="606.717,231.017 576.652,213.793 561.648,222.424 591.714,239.693 			"/>
			<polygon fill="#A8A7A7" points="606.717,386.83 576.652,369.605 561.648,378.237 591.714,395.507 			"/>
			<polygon fill="#B4B4B4" points="587.892,367.17 573.077,358.655 573.077,380.181 587.892,388.604 			"/>
			<polygon fill="#979696" points="587.892,367.17 595.289,362.892 595.289,384.391 587.892,388.604 			"/>
			<polygon fill="#C6C7C7" points="591.714,239.693 561.648,222.424 561.648,361.107 591.714,378.201 			"/>
			<polygon fill="#A8A7A7" points="591.714,239.693 606.717,231.017 606.717,369.654 591.714,378.201 			"/>
			<g>
				<polygon fill="#4E504E" points="586.778,230.909 565.575,218.644 559.369,222.35 581.126,234.846 				"/>
				<polygon fill="#3E3F3C" points="581.126,234.846 559.369,222.35 559.369,355.471 581.126,367.837 				"/>
				<polygon fill="#2C2D2A" points="581.126,234.846 586.778,230.909 586.778,363.998 581.126,367.837 				"/>
			</g>
		</g>
		<g>
			<polygon fill="#838383" points="753.01,462.688 670.119,439.832 670.119,441.149 729.443,476.116 			"/>
			<polygon fill="#5D5E5D" points="753.01,461.549 693.275,426.402 670.119,439.832 729.443,474.977 			"/>
			<path fill="#333531" d="M717.578,447.525c0,3.246-2.624,5.866-5.867,5.866l0,0c-3.229,0-5.861-2.62-5.861-5.866V420.08
				c0-3.246,2.633-5.867,5.861-5.867l0,0c3.243,0,5.867,2.621,5.867,5.867V447.525z"/>
			<g>
				<polygon fill="#535553" points="792.068,362.24 641.961,275.553 636.563,278.814 786.671,365.503 				"/>
				<polygon fill="#40423F" points="786.671,487.571 636.75,400.908 636.75,278.814 786.671,365.503 				"/>
				<polygon fill="#606160" points="779.357,471.418 643.771,393.039 643.771,293.73 779.357,372.135 				"/>
				
					<linearGradient id="SVGID_3_" gradientUnits="userSpaceOnUse" x1="691.8535" y1="643.6909" x2="727.1016" y2="491.7675" gradientTransform="matrix(1 0 0 -1 0 936.9463)">
					<stop  offset="0" style="stop-color:#292B28"/>
					<stop  offset="0.0686" style="stop-color:#262825"/>
					<stop  offset="0.6143" style="stop-color:#151615"/>
					<stop  offset="1" style="stop-color:#0F0F0F"/>
				</linearGradient>
				<polygon fill="url(#SVGID_3_)" points="779.357,469.477 645.607,392.199 645.607,294.832 779.357,372.135 				"/>
				<polygon fill="#2C2D2A" points="786.671,365.503 786.671,487.571 792.068,484.301 792.068,362.24 				"/>
			</g>
		</g>
		<polygon fill="#DFD8D1" points="585.144,711.02 359.893,581.067 449.811,529.254 675.543,659.178 		"/>
		<g>
			<polygon fill="#674F34" points="407.528,527.473 389.814,518.284 389.814,580.891 396.275,584.713 			"/>
			<polygon fill="#523E28" points="411.006,533.139 405.861,536.192 396.275,584.713 401.42,581.659 			"/>
			<polygon fill="#674F34" points="585.046,636.276 569.898,627.086 578.586,689.694 585.046,693.516 			"/>
			<polygon fill="#523E28" points="594.071,638.999 585.046,641.258 585.046,693.516 590.184,690.461 			"/>
			<polygon fill="#674F34" points="639.721,604.676 624.574,595.487 633.261,658.094 639.721,661.917 			"/>
			<polygon fill="#523E28" points="648.746,607.399 639.721,609.659 639.721,661.917 644.865,658.862 			"/>
			<polygon fill="#926943" points="585.326,567.092 359.893,511.303 359.893,520.299 585.318,650.254 585.318,650.147 			"/>
			<polygon fill="#825E3A" points="585.658,567.174 585.318,649.958 675.543,598.411 675.543,589.415 			"/>
			<polygon fill="#AF7B4C" points="585.318,641.258 359.893,511.303 449.811,459.49 675.543,589.415 			"/>
			<polygon fill="#8E653C" points="585.131,628.702 382.34,511.303 452.897,470.649 655.923,588.022 			"/>
		</g>
		<g>
			<polygon opacity="0.3" fill="#2F302D" enable-background="new    " points="705.063,810.68 822.729,742.116 752.021,701.405 
				634.348,769.971 			"/>
			<polygon fill="#986B40" points="809.619,745.313 819.12,748.858 824.831,745.377 824.831,734.481 			"/>
			<polygon fill="#C08954" points="630.082,771.342 630.082,759.174 644.077,767.926 635.221,774.491 			"/>
			<polygon fill="#986B40" points="704.873,802.118 704.873,814.545 712.375,810.315 719.181,796.77 			"/>
			<polygon fill="#C08954" points="704.873,802.118 704.873,814.545 697.371,810.315 690.56,796.77 			"/>
			<polygon fill="#BF6138" points="809.619,650.538 734.829,606.668 734.829,702.106 809.619,745.377 			"/>
			<polygon fill="#9D452C" points="809.619,650.538 824.831,641.032 824.831,736.469 809.619,745.377 			"/>
			<polygon fill="#CE7353" points="809.619,650.538 734.829,606.668 749.604,598.125 824.831,641.032 			"/>
			<polygon fill="#C3654B" points="690.566,719.147 780.1,667.348 719.947,632.895 630.414,684.696 			"/>
			<g>
				<path opacity="0.3" fill="#453A26" enable-background="new    " d="M686.952,703.434c0,0,25.469,8.99,57.944-10.914
					c0,0,6.05-26.939-21.861-55.961c0,0-28.242,5.5-45.396,16.309C677.641,652.868,672.424,679.653,686.952,703.434z"/>
				<path fill="#CD8824" d="M686.588,703.864c0,0,23.15,6.775,55.619-13.129c0,0-2.364-42.848-19.172-54.176
					c0,0-29.845,4.773-46.997,15.584C676.038,652.143,672.065,680.084,686.588,703.864z"/>
				<g>
					<path fill="#E6B552" d="M686.952,703.434c0,0,30.183,0.707,53.086-14.293c0,0-7.255-43.176-17.003-52.582
						c0,0-32.566,3.955-49.719,14.766C673.316,651.325,672.424,679.653,686.952,703.434z"/>
					<path fill="#FAF1DA" d="M722.898,697.827L722.898,697.827c-18.267,6.326-35.783,5.998-35.952,5.992l-0.216-0.004l-0.104-0.18
						c-14.418-23.609-13.701-52.037-13.695-52.324l0.007-0.201l0.177-0.111c3.927-2.477,8.984-4.795,15.05-6.893
						c16.254-5.629,34.644-7.904,34.826-7.928l0.182-0.023l0.131,0.125c9.729,9.387,16.813,51.031,17.113,52.799l0.039,0.248
						l-0.208,0.139C735.174,692.78,729.339,695.6,722.898,697.827z M687.166,703.059c2.026,0.01,18.424-0.051,35.479-5.955h0.007
						c6.291-2.182,11.995-4.92,16.965-8.146c-0.613-3.51-7.606-42.9-16.717-52.002c-1.953,0.262-19.171,2.576-34.48,7.875
						c-5.913,2.047-10.869,4.307-14.724,6.709C673.655,654.127,673.622,680.737,687.166,703.059z"/>
				</g>
				<path fill="#FAF1DA" d="M688.756,657.196c0,0,0.014,0.219,0.039,0.635c0.007,0.418,0.104,1.029,0.072,1.801
					c-0.078,0.771-0.065,1.73-0.365,2.781c-0.104,0.533-0.228,1.094-0.48,1.656c-0.216,0.57-0.438,1.18-0.803,1.738
					c-0.586,1.215-1.673,2.289-3.002,3.1c-1.419,0.74-3.171,0.83-4.806,0.127c-1.642-0.65-2.885-2.074-3.776-3.609
					c-0.971-1.537-1.374-3.352-1.713-5.133c-0.124-1.783-0.144-3.641,0.352-5.385c0.378-1.752,1.191-3.387,2.331-4.666
					c1.081-1.342,2.703-2.168,4.272-2.246c0.754-0.121,1.517,0.129,2.24,0.305c0.631,0.359,1.32,0.602,1.797,1.088
					c0.508,0.447,0.982,0.873,1.328,1.389c0.385,0.473,0.724,0.943,0.951,1.441c0.565,0.936,0.807,1.854,1.067,2.586
					c0.234,0.738,0.279,1.357,0.377,1.762C688.717,656.977,688.756,657.196,688.756,657.196z M688.756,657.196
					c0,0-0.045-0.219-0.13-0.625c-0.098-0.404-0.157-1.02-0.397-1.756c-0.272-0.727-0.533-1.641-1.105-2.559
					c-0.229-0.494-0.573-0.951-0.964-1.41c-0.34-0.512-0.834-0.912-1.354-1.318c-1.049-0.781-2.377-1.416-3.906-1.189
					c-1.447,0.135-2.925,0.949-3.884,2.25c-1.016,1.244-1.725,2.814-2.068,4.477c-0.449,1.641-0.397,3.393-0.261,5.135
					c0.299,1.693,0.649,3.428,1.544,4.885c0.825,1.455,1.934,2.813,3.397,3.471c1.381,0.68,3.113,0.699,4.44,0.049
					c1.276-0.721,2.378-1.711,3.002-2.879c0.392-0.541,0.633-1.127,0.848-1.693c0.261-0.553,0.397-1.107,0.514-1.637
					c0.313-1.043,0.308-1.99,0.398-2.762c0.045-0.771-0.039-1.387-0.039-1.801C688.77,657.415,688.756,657.196,688.756,657.196z"/>
				<path fill="#FAF1DA" d="M691.758,677.979c0,0,0.06,0.215,0.163,0.615c0.085,0.414,0.293,0.992,0.397,1.758
					c0.065,0.771,0.261,1.713,0.169,2.801c-0.006,0.543-0.032,1.119-0.177,1.719c-0.104,0.6-0.201,1.236-0.462,1.859
					c-0.352,1.299-1.219,2.557-2.37,3.604c-1.257,0.984-2.964,1.404-4.701,1.016c-1.732-0.334-3.225-1.5-4.377-2.848
					c-1.243-1.332-1.979-3.035-2.638-4.719c-0.456-1.734-0.819-3.553-0.656-5.359c0.044-1.791,0.533-3.555,1.419-5.018
					c0.813-1.52,2.254-2.631,3.783-2.998c0.717-0.264,1.512-0.16,2.26-0.117c0.684,0.23,1.414,0.336,1.961,0.732
					c0.586,0.342,1.14,0.674,1.567,1.117c0.47,0.393,0.888,0.787,1.199,1.24c0.729,0.807,1.146,1.666,1.537,2.342
					c0.364,0.686,0.527,1.279,0.696,1.66C691.68,677.774,691.758,677.979,691.758,677.979z M691.758,677.979
					c0,0-0.078-0.205-0.24-0.59c-0.176-0.381-0.346-0.973-0.724-1.65c-0.396-0.664-0.82-1.512-1.563-2.305
					c-0.313-0.443-0.729-0.832-1.204-1.213c-0.431-0.432-0.989-0.734-1.569-1.037c-1.185-0.58-2.604-0.951-4.063-0.447
					c-1.399,0.404-2.702,1.475-3.398,2.938c-0.763,1.41-1.179,3.08-1.205,4.783c-0.137,1.693,0.241,3.406,0.696,5.092
					c0.61,1.609,1.283,3.246,2.43,4.51c1.08,1.279,2.422,2.406,3.984,2.777c1.484,0.41,3.184,0.111,4.37-0.775
					c1.127-0.945,2.024-2.123,2.423-3.389c0.278-0.604,0.402-1.225,0.515-1.824c0.149-0.586,0.182-1.156,0.195-1.703
					c0.109-1.074-0.065-2.012-0.118-2.781c-0.104-0.77-0.299-1.355-0.377-1.764C691.816,678.194,691.758,677.979,691.758,677.979z"
					/>
				<path fill="#FAF1DA" d="M701.285,665.157c0,0,0.032,0.219,0.098,0.629c0.06,0.412,0.209,1.008,0.261,1.787
					c0.008,0.771,0.117,1.723-0.064,2.801c-0.052,0.539-0.117,1.115-0.313,1.691c-0.149,0.594-0.306,1.223-0.619,1.82
					c-0.454,1.268-1.411,2.445-2.655,3.393c-1.328,0.887-3.067,1.16-4.768,0.633c-1.7-0.482-3.087-1.762-4.129-3.201
					c-1.128-1.426-1.726-3.184-2.24-4.924c-0.313-1.76-0.526-3.604-0.215-5.395c0.189-1.773,0.834-3.49,1.829-4.883
					c0.938-1.447,2.469-2.434,4.02-2.674c0.735-0.201,1.518-0.033,2.26,0.068c0.664,0.287,1.374,0.453,1.9,0.895
					c0.548,0.389,1.068,0.762,1.467,1.238c0.43,0.43,0.813,0.863,1.094,1.334c0.657,0.869,1.003,1.758,1.335,2.463
					c0.305,0.709,0.423,1.324,0.559,1.715C701.219,664.944,701.285,665.157,701.285,665.157z M701.285,665.157
					c0,0-0.071-0.213-0.195-0.609c-0.144-0.387-0.267-0.992-0.579-1.703c-0.347-0.688-0.704-1.576-1.374-2.428
					c-0.272-0.467-0.665-0.887-1.102-1.307c-0.391-0.465-0.924-0.811-1.484-1.166c-1.126-0.67-2.514-1.158-4.011-0.773
					c-1.427,0.285-2.807,1.246-3.628,2.645c-0.872,1.346-1.426,2.977-1.595,4.666c-0.269,1.684-0.039,3.416,0.278,5.139
					c0.47,1.654,1.011,3.34,2.053,4.697c0.969,1.357,2.221,2.592,3.743,3.09c1.439,0.535,3.158,0.371,4.423-0.412
					c1.19-0.85,2.188-1.945,2.682-3.178c0.333-0.574,0.509-1.188,0.665-1.771c0.202-0.574,0.271-1.146,0.339-1.68
					c0.195-1.068,0.098-2.014,0.111-2.789c-0.039-0.777-0.189-1.373-0.235-1.783C701.317,665.377,701.285,665.157,701.285,665.157z"
					/>
				<path fill="#FAF1DA" d="M710.082,654.893c0,0,0.04,0.219,0.104,0.629c0.06,0.414,0.208,1.01,0.261,1.785
					c0.007,0.775,0.117,1.725-0.071,2.803c-0.046,0.541-0.11,1.113-0.306,1.689c-0.156,0.594-0.308,1.225-0.619,1.816
					c-0.456,1.271-1.42,2.449-2.656,3.395c-1.329,0.889-3.067,1.162-4.768,0.631c-1.699-0.479-3.095-1.758-4.136-3.197
					c-1.127-1.428-1.713-3.188-2.239-4.926c-0.307-1.758-0.521-3.604-0.216-5.393c0.202-1.777,0.841-3.492,1.836-4.883
					c0.933-1.445,2.464-2.436,4.013-2.676c0.735-0.203,1.528-0.033,2.26,0.068c0.67,0.285,1.381,0.455,1.901,0.891
					c0.554,0.389,1.073,0.766,1.466,1.244c0.436,0.43,0.82,0.859,1.1,1.332c0.658,0.869,1.002,1.758,1.335,2.461
					c0.308,0.713,0.424,1.326,0.562,1.713C710.024,654.678,710.082,654.893,710.082,654.893z M710.082,654.893
					c0,0-0.064-0.211-0.188-0.609c-0.145-0.391-0.268-0.998-0.587-1.705c-0.339-0.689-0.695-1.572-1.366-2.43
					c-0.28-0.461-0.664-0.881-1.102-1.303c-0.391-0.469-0.926-0.811-1.483-1.168c-1.128-0.67-2.515-1.156-4.013-0.775
					c-1.426,0.291-2.807,1.248-3.627,2.648c-0.873,1.344-1.426,2.975-1.596,4.666c-0.273,1.682-0.032,3.414,0.278,5.137
					c0.471,1.65,1.011,3.338,2.047,4.695c0.977,1.361,2.22,2.592,3.744,3.09c1.443,0.537,3.171,0.375,4.422-0.414
					c1.197-0.846,2.193-1.947,2.688-3.174c0.333-0.58,0.501-1.186,0.657-1.775c0.202-0.572,0.28-1.145,0.339-1.68
					c0.202-1.068,0.104-2.012,0.11-2.789c-0.032-0.773-0.183-1.369-0.229-1.781C710.122,655.112,710.082,654.893,710.082,654.893z"
					/>
				<path fill="#FAF1DA" d="M721.681,660.573c0,0,0.038,0.215,0.104,0.625c0.052,0.412,0.208,1.012,0.261,1.787
					c0,0.775,0.11,1.725-0.072,2.805c-0.045,0.539-0.116,1.111-0.306,1.695c-0.156,0.59-0.307,1.215-0.619,1.816
					c-0.462,1.264-1.419,2.449-2.663,3.389c-1.328,0.887-3.061,1.16-4.767,0.637c-1.701-0.482-3.08-1.762-4.129-3.205
					c-1.127-1.422-1.72-3.182-2.24-4.92c-0.307-1.764-0.527-3.607-0.215-5.395c0.194-1.777,0.84-3.49,1.837-4.885
					c0.931-1.445,2.46-2.436,4.011-2.676c0.736-0.201,1.524-0.033,2.26,0.072c0.664,0.281,1.381,0.449,1.901,0.895
					c0.554,0.385,1.075,0.762,1.466,1.238c0.438,0.426,0.82,0.857,1.094,1.33c0.664,0.873,1.003,1.762,1.342,2.467
					c0.306,0.709,0.416,1.32,0.554,1.711C721.615,660.358,721.681,660.573,721.681,660.573z M721.681,660.573
					c0,0-0.064-0.215-0.193-0.613c-0.146-0.387-0.263-0.992-0.58-1.699c-0.347-0.691-0.697-1.574-1.368-2.426
					c-0.279-0.473-0.671-0.893-1.106-1.305c-0.391-0.471-0.925-0.818-1.479-1.174c-1.133-0.67-2.521-1.154-4.012-0.768
					c-1.427,0.283-2.808,1.244-3.627,2.641c-0.88,1.342-1.427,2.977-1.603,4.662c-0.268,1.684-0.033,3.42,0.285,5.141
					c0.469,1.652,1.011,3.34,2.046,4.695c0.978,1.359,2.221,2.592,3.744,3.094c1.446,0.531,3.165,0.371,4.422-0.41
					c1.198-0.854,2.188-1.949,2.683-3.184c0.332-0.574,0.509-1.186,0.665-1.771c0.201-0.572,0.279-1.143,0.339-1.68
					c0.201-1.066,0.098-2.014,0.11-2.787c-0.04-0.775-0.183-1.375-0.233-1.785C721.714,660.79,721.681,660.573,721.681,660.573z"/>
				<path fill="#FAF1DA" d="M730.824,651.895c0,0,0.063,0.211,0.182,0.615c0.098,0.4,0.326,0.973,0.469,1.736
					c0.085,0.77,0.313,1.701,0.254,2.795c0.021,0.539,0.021,1.117-0.104,1.721c-0.085,0.602-0.156,1.244-0.404,1.871
					c-0.299,1.316-1.121,2.6-2.232,3.689c-1.219,1.033-2.911,1.508-4.669,1.182c-1.739-0.273-3.271-1.377-4.475-2.686
					c-1.29-1.287-2.084-2.959-2.807-4.623c-0.508-1.717-0.938-3.521-0.847-5.33c-0.014-1.795,0.417-3.568,1.25-5.07
					c0.756-1.547,2.148-2.705,3.666-3.131c0.71-0.287,1.51-0.209,2.247-0.197c0.695,0.205,1.425,0.291,1.999,0.666
					c0.593,0.318,1.151,0.633,1.596,1.057c0.488,0.375,0.925,0.756,1.25,1.195c0.762,0.785,1.205,1.625,1.615,2.289
					c0.391,0.668,0.578,1.26,0.754,1.635C730.739,651.69,730.824,651.895,730.824,651.895z M730.824,651.895
					c0,0-0.092-0.203-0.263-0.586c-0.188-0.371-0.384-0.955-0.78-1.615c-0.423-0.652-0.879-1.484-1.646-2.256
					c-0.326-0.428-0.763-0.799-1.25-1.166c-0.442-0.42-1.018-0.697-1.608-0.98c-1.191-0.533-2.632-0.854-4.076-0.295
					c-1.381,0.451-2.639,1.568-3.289,3.047c-0.703,1.441-1.063,3.125-1.035,4.824c-0.071,1.703,0.371,3.396,0.886,5.066
					c0.657,1.586,1.395,3.201,2.585,4.422c1.127,1.238,2.515,2.314,4.091,2.635c1.49,0.355,3.185-0.008,4.337-0.936
					c1.081-0.982,1.939-2.193,2.292-3.473c0.261-0.613,0.364-1.238,0.448-1.836c0.131-0.598,0.145-1.166,0.138-1.711
					c0.071-1.084-0.138-2.008-0.216-2.777c-0.13-0.768-0.352-1.344-0.441-1.748C730.883,652.106,730.824,651.895,730.824,651.895z"
					/>
				<path fill="#FAF1DA" d="M706.234,682.393c0,0,0.051,0.215,0.155,0.615c0.085,0.41,0.293,0.99,0.404,1.76
					c0.064,0.773,0.26,1.709,0.162,2.799c0,0.547-0.032,1.123-0.169,1.723c-0.104,0.596-0.209,1.234-0.47,1.855
					c-0.353,1.301-1.211,2.557-2.363,3.602c-1.257,0.99-2.963,1.406-4.708,1.02c-1.727-0.336-3.217-1.502-4.376-2.85
					c-1.236-1.328-1.979-3.031-2.638-4.717c-0.45-1.736-0.813-3.557-0.657-5.359c0.052-1.791,0.547-3.553,1.426-5.02
					c0.808-1.516,2.253-2.631,3.777-2.998c0.723-0.258,1.517-0.154,2.26-0.115c0.689,0.232,1.413,0.34,1.966,0.736
					c0.587,0.34,1.134,0.672,1.563,1.109c0.476,0.396,0.892,0.795,1.204,1.24c0.729,0.814,1.14,1.67,1.536,2.344
					c0.365,0.689,0.527,1.283,0.69,1.66C706.149,682.188,706.234,682.393,706.234,682.393z M706.234,682.393
					c0,0-0.085-0.205-0.241-0.592c-0.176-0.375-0.345-0.971-0.724-1.645c-0.402-0.664-0.82-1.52-1.557-2.311
					c-0.325-0.441-0.742-0.83-1.218-1.207c-0.423-0.438-0.982-0.738-1.569-1.047c-1.179-0.57-2.598-0.941-4.063-0.439
					c-1.396,0.404-2.689,1.475-3.394,2.934c-0.762,1.412-1.172,3.084-1.211,4.783c-0.131,1.695,0.247,3.404,0.709,5.092
					c0.601,1.611,1.277,3.25,2.417,4.514c1.087,1.275,2.43,2.406,3.991,2.777c1.485,0.412,3.185,0.109,4.37-0.775
					c1.126-0.945,2.019-2.119,2.416-3.391c0.286-0.598,0.41-1.223,0.514-1.818c0.157-0.59,0.184-1.164,0.196-1.703
					c0.117-1.082-0.06-2.014-0.111-2.787c-0.104-0.77-0.3-1.359-0.377-1.762C706.285,682.608,706.234,682.393,706.234,682.393z"/>
				<path fill="#FAF1DA" d="M720.268,686.264c0,0,0.054,0.217,0.15,0.619c0.091,0.408,0.293,0.99,0.41,1.756
					c0.059,0.777,0.254,1.713,0.156,2.799c0,0.549-0.026,1.125-0.17,1.721c-0.104,0.6-0.201,1.236-0.464,1.861
					c-0.352,1.299-1.217,2.553-2.368,3.602c-1.252,0.986-2.957,1.404-4.703,1.016c-1.731-0.336-3.217-1.5-4.383-2.846
					c-1.236-1.332-1.973-3.033-2.632-4.721c-0.454-1.736-0.818-3.553-0.655-5.359c0.046-1.787,0.539-3.549,1.426-5.018
					c0.808-1.521,2.253-2.631,3.776-2.998c0.724-0.262,1.519-0.16,2.253-0.115c0.69,0.232,1.413,0.34,1.967,0.736
					c0.594,0.336,1.141,0.668,1.569,1.109c0.47,0.391,0.887,0.789,1.197,1.238c0.73,0.816,1.147,1.674,1.538,2.344
					c0.364,0.688,0.526,1.283,0.696,1.66C720.184,686.059,720.268,686.264,720.268,686.264z M720.268,686.264
					c0,0-0.084-0.201-0.24-0.588c-0.183-0.379-0.353-0.971-0.724-1.65c-0.402-0.662-0.827-1.512-1.563-2.307
					c-0.319-0.441-0.743-0.83-1.211-1.211c-0.432-0.434-0.99-0.736-1.569-1.041c-1.186-0.576-2.604-0.941-4.063-0.439
					c-1.401,0.402-2.696,1.471-3.395,2.934c-0.768,1.41-1.179,3.08-1.211,4.783c-0.137,1.695,0.247,3.402,0.703,5.092
					c0.604,1.611,1.283,3.25,2.422,4.512c1.082,1.277,2.423,2.404,3.986,2.775c1.483,0.412,3.185,0.109,4.375-0.775
					c1.121-0.939,2.02-2.119,2.417-3.389c0.28-0.6,0.402-1.225,0.515-1.82c0.149-0.59,0.182-1.162,0.195-1.703
					c0.108-1.08-0.065-2.012-0.117-2.785c-0.098-0.771-0.3-1.355-0.378-1.764C720.313,686.481,720.268,686.264,720.268,686.264z"/>
				<path fill="#FAF1DA" d="M732.706,681.958c0,0,0.052,0.215,0.156,0.615c0.084,0.41,0.293,0.992,0.402,1.76
					c0.065,0.773,0.262,1.707,0.163,2.799c0,0.545-0.031,1.119-0.17,1.719c-0.109,0.602-0.201,1.238-0.469,1.859
					c-0.352,1.299-1.211,2.553-2.363,3.604c-1.257,0.988-2.963,1.4-4.708,1.02c-1.727-0.34-3.219-1.502-4.377-2.846
					c-1.235-1.332-1.973-3.035-2.637-4.725c-0.457-1.732-0.814-3.555-0.658-5.357c0.053-1.787,0.541-3.553,1.427-5.021
					c0.809-1.518,2.253-2.631,3.776-2.996c0.723-0.26,1.524-0.158,2.26-0.111c0.685,0.227,1.413,0.334,1.967,0.73
					c0.587,0.338,1.134,0.668,1.563,1.113c0.475,0.391,0.893,0.787,1.205,1.236c0.729,0.814,1.141,1.674,1.537,2.346
					c0.363,0.684,0.52,1.285,0.689,1.66C732.621,681.749,732.706,681.958,732.706,681.958z M732.706,681.958
					c0,0-0.085-0.205-0.234-0.592c-0.183-0.379-0.352-0.969-0.729-1.652c-0.397-0.66-0.828-1.51-1.563-2.305
					c-0.317-0.439-0.734-0.826-1.212-1.207c-0.422-0.438-0.989-0.736-1.567-1.043c-1.181-0.578-2.604-0.943-4.064-0.439
					c-1.4,0.4-2.695,1.475-3.398,2.936c-0.755,1.41-1.164,3.076-1.204,4.783c-0.132,1.691,0.247,3.4,0.702,5.092
					c0.606,1.611,1.283,3.246,2.431,4.51c1.081,1.279,2.422,2.404,3.983,2.775c1.484,0.416,3.187,0.111,4.369-0.775
					c1.128-0.938,2.021-2.123,2.418-3.391c0.286-0.604,0.409-1.229,0.515-1.82c0.155-0.586,0.183-1.162,0.194-1.705
					c0.117-1.074-0.064-2.01-0.109-2.779c-0.104-0.77-0.301-1.355-0.378-1.762C732.758,682.172,732.706,681.958,732.706,681.958z"/>
				<path fill="#FAF1DA" d="M735.649,667.928c0,0,0.059,0.215,0.161,0.617c0.078,0.408,0.295,0.986,0.397,1.756
					c0.065,0.775,0.26,1.713,0.17,2.797c-0.007,0.543-0.033,1.123-0.176,1.719c-0.105,0.602-0.203,1.238-0.47,1.863
					c-0.346,1.301-1.212,2.553-2.363,3.598c-1.257,0.992-2.963,1.406-4.708,1.021c-1.728-0.342-3.217-1.5-4.377-2.852
					c-1.236-1.328-1.974-3.035-2.638-4.723c-0.448-1.729-0.813-3.551-0.657-5.354c0.053-1.789,0.541-3.551,1.426-5.021
					c0.809-1.52,2.254-2.631,3.776-2.998c0.724-0.264,1.523-0.154,2.261-0.115c0.689,0.229,1.412,0.342,1.974,0.734
					c0.579,0.344,1.126,0.666,1.563,1.115c0.469,0.389,0.886,0.785,1.197,1.238c0.729,0.814,1.141,1.67,1.537,2.342
					c0.364,0.686,0.527,1.285,0.696,1.664C735.571,667.715,735.649,667.928,735.649,667.928z M735.649,667.928
					c0,0-0.085-0.209-0.235-0.596c-0.175-0.375-0.352-0.969-0.729-1.648c-0.396-0.664-0.819-1.514-1.557-2.305
					c-0.325-0.439-0.742-0.828-1.218-1.213c-0.423-0.436-0.983-0.734-1.563-1.041c-1.185-0.576-2.609-0.943-4.063-0.439
					c-1.407,0.404-2.703,1.475-3.399,2.934c-0.762,1.412-1.172,3.084-1.205,4.783c-0.137,1.695,0.241,3.406,0.704,5.092
					c0.599,1.611,1.275,3.246,2.422,4.514c1.081,1.275,2.423,2.402,3.985,2.773c1.484,0.41,3.185,0.111,4.376-0.777
					c1.12-0.939,2.018-2.117,2.409-3.391c0.286-0.598,0.41-1.221,0.521-1.813c0.15-0.594,0.177-1.166,0.196-1.707
					c0.11-1.08-0.065-2.014-0.117-2.787c-0.104-0.771-0.3-1.352-0.378-1.762C735.701,668.143,735.649,667.928,735.649,667.928z"/>
				<path fill="#FAF1DA" d="M691.9,670.956c0,0,0.078,0.658,0.092,1.813c-0.06,0.57-0.045,1.283-0.268,2.068
					c-0.148,0.787-0.456,1.664-0.95,2.533c-0.431,0.908-1.23,1.717-2.221,2.336c-1.067,0.559-2.377,0.637-3.628,0.113
					c-1.236-0.486-2.182-1.547-2.852-2.703c-0.729-1.156-1.042-2.51-1.296-3.846c-0.085-1.334-0.099-2.725,0.272-4.041
					c0.286-1.305,0.905-2.533,1.766-3.49c0.819-1,2.045-1.615,3.224-1.666c1.152-0.127,2.285,0.436,3.015,1.068
					c0.77,0.641,1.335,1.387,1.692,2.109c0.418,0.697,0.606,1.383,0.795,1.928C691.816,670.297,691.9,670.956,691.9,670.956z
					 M691.9,670.956c0,0-0.098-0.658-0.396-1.768c-0.201-0.541-0.396-1.219-0.827-1.896c-0.371-0.699-0.938-1.445-1.726-2.018
					c-0.787-0.58-1.758-1.035-2.885-0.863c-1.068,0.111-2.144,0.717-2.84,1.678c-1.498,1.885-1.979,4.539-1.687,7.088
					c0.215,1.25,0.469,2.529,1.125,3.605c0.606,1.063,1.414,2.066,2.481,2.557c0.99,0.502,2.272,0.531,3.25,0.059
					c0.943-0.518,1.766-1.244,2.232-2.117c0.541-0.811,0.848-1.686,1.016-2.457c0.229-0.775,0.235-1.482,0.308-2.053
					C691.96,671.616,691.9,670.956,691.9,670.956z"/>
				<path fill="#FAF1DA" d="M710.754,672.479c0,0,0.156,0.643,0.319,1.781c0.023,0.58,0.123,1.285,0.013,2.088
					c-0.053,0.803-0.241,1.711-0.619,2.637c-0.313,0.957-0.996,1.859-1.9,2.602c-0.983,0.693-2.272,0.943-3.581,0.586
					c-1.29-0.322-2.364-1.254-3.173-2.313c-0.879-1.051-1.359-2.357-1.783-3.646c-0.262-1.311-0.456-2.689-0.262-4.039
					c0.117-1.334,0.573-2.633,1.311-3.695c0.684-1.094,1.811-1.861,2.976-2.07c1.127-0.27,2.325,0.137,3.134,0.67
					c0.84,0.545,1.495,1.205,1.944,1.877c0.504,0.641,0.776,1.289,1.037,1.807C710.584,671.834,710.754,672.479,710.754,672.479z
					 M710.754,672.479c0,0-0.183-0.641-0.619-1.703c-0.272-0.508-0.553-1.152-1.067-1.773c-0.462-0.645-1.119-1.311-1.974-1.781
					c-0.853-0.467-1.875-0.795-2.977-0.475c-1.035,0.246-2.031,0.986-2.591,2.031c-1.245,2.057-1.374,4.746-0.763,7.244
					c0.377,1.207,0.802,2.445,1.589,3.426c0.735,0.979,1.667,1.869,2.787,2.217c1.048,0.367,2.324,0.234,3.229-0.365
					c0.873-0.641,1.589-1.461,1.947-2.383c0.423-0.879,0.611-1.783,0.683-2.578c0.131-0.793,0.04-1.492,0.04-2.072
					C710.903,673.124,710.754,672.479,710.754,672.479z"/>
				<path fill="#FAF1DA" d="M726.051,668.495c0,0,0.156,0.641,0.318,1.783c0.02,0.58,0.124,1.283,0.007,2.088
					c-0.046,0.801-0.241,1.713-0.612,2.633c-0.313,0.961-1.003,1.863-1.907,2.602c-0.982,0.697-2.267,0.945-3.574,0.584
					c-1.295-0.318-2.371-1.25-3.181-2.309c-0.87-1.055-1.354-2.357-1.782-3.645c-0.261-1.314-0.455-2.693-0.254-4.037
					c0.116-1.342,0.565-2.637,1.303-3.695c0.684-1.096,1.815-1.869,2.981-2.068c1.127-0.277,2.318,0.131,3.126,0.664
					c0.839,0.541,1.497,1.207,1.947,1.875c0.507,0.639,0.774,1.293,1.042,1.811C725.881,667.852,726.051,668.495,726.051,668.495z
					 M726.051,668.495c0,0-0.184-0.643-0.625-1.701c-0.274-0.514-0.548-1.154-1.067-1.777c-0.464-0.646-1.113-1.305-1.968-1.775
					c-0.858-0.475-1.875-0.797-2.977-0.477c-1.041,0.244-2.024,0.98-2.598,2.027c-1.237,2.063-1.374,4.75-0.756,7.244
					c0.37,1.213,0.802,2.445,1.582,3.43c0.742,0.979,1.667,1.865,2.786,2.213c1.05,0.371,2.326,0.236,3.236-0.359
					c0.867-0.643,1.59-1.465,1.941-2.389c0.43-0.875,0.618-1.777,0.689-2.572c0.13-0.791,0.039-1.494,0.032-2.072
					C726.193,669.141,726.051,668.495,726.051,668.495z"/>
				<path fill="#FAF1DA" d="M738.378,682.002c0,0,0.169,0.613,0.378,1.688c0.032,0.551,0.188,1.215,0.123,1.986
					c0,0.766-0.117,1.637-0.391,2.549c-0.229,0.928-0.802,1.867-1.674,2.576c-0.912,0.732-2.279,0.764-3.438,0.256
					c-2.346-1.008-3.719-3.51-4.514-5.918c-0.286-1.24-0.515-2.531-0.423-3.83c0.013-1.273,0.357-2.539,0.964-3.607
					c0.565-1.094,1.687-1.92,2.818-1.982c1.114-0.096,2.201,0.371,2.898,0.992c0.755,0.584,1.314,1.273,1.73,1.916
					c0.471,0.615,0.69,1.26,0.951,1.74C738.195,681.397,738.378,682.002,738.378,682.002z M738.378,682.002
					c0,0-0.196-0.602-0.604-1.615c-0.274-0.48-0.51-1.109-0.991-1.711c-0.422-0.629-0.989-1.311-1.757-1.824
					c-0.743-0.576-1.728-0.932-2.743-0.795c-1.027,0.121-1.947,0.879-2.408,1.908c-0.983,2.049-0.932,4.598-0.267,6.965
					c0.677,2.303,1.984,4.621,3.99,5.646c0.926,0.494,2.168,0.559,3.028-0.059c0.82-0.602,1.439-1.453,1.706-2.348
					c0.332-0.869,0.449-1.74,0.463-2.5c0.084-0.762-0.059-1.422-0.078-1.973C738.527,682.618,738.378,682.002,738.378,682.002z"/>
				<path fill="#FAF1DA" d="M696.095,650.667c0,0,0.079,0.666,0.091,1.814c-0.058,0.576-0.045,1.289-0.268,2.07
					c-0.148,0.789-0.454,1.664-0.949,2.533c-0.43,0.908-1.229,1.713-2.221,2.332c-1.068,0.563-2.37,0.641-3.627,0.117
					c-1.236-0.486-2.182-1.551-2.854-2.703c-0.729-1.152-1.041-2.51-1.295-3.846c-0.085-1.334-0.098-2.729,0.273-4.037
					c0.287-1.311,0.904-2.535,1.765-3.492c0.82-1.004,2.045-1.615,3.225-1.668c1.151-0.123,2.285,0.436,3.014,1.063
					c0.77,0.65,1.336,1.396,1.694,2.113c0.417,0.697,0.604,1.383,0.795,1.928C696.011,650.012,696.095,650.667,696.095,650.667z
					 M696.095,650.667c0,0-0.099-0.654-0.396-1.768c-0.202-0.533-0.397-1.211-0.827-1.895c-0.371-0.701-0.938-1.443-1.727-2.02
					c-0.788-0.578-1.759-1.027-2.885-0.855c-1.067,0.107-2.144,0.713-2.84,1.676c-1.491,1.883-1.979,4.533-1.687,7.09
					c0.215,1.246,0.469,2.525,1.127,3.598c0.604,1.07,1.412,2.07,2.479,2.559c0.99,0.504,2.273,0.533,3.25,0.064
					c0.943-0.521,1.765-1.25,2.233-2.113c0.54-0.818,0.847-1.697,1.016-2.469c0.229-0.771,0.234-1.48,0.306-2.051
					C696.154,651.333,696.095,650.667,696.095,650.667z"/>
				<path fill="#FAF1DA" d="M717.852,644.838c0,0,0.162,0.643,0.326,1.785c0.021,0.576,0.13,1.279,0.014,2.086
					c-0.047,0.805-0.234,1.713-0.606,2.635c-0.312,0.961-0.995,1.863-1.9,2.605c-0.983,0.697-2.268,0.951-3.574,0.596
					c-1.297-0.322-2.37-1.248-3.186-2.313c-0.879-1.045-1.361-2.346-1.791-3.639c-0.26-1.313-0.456-2.688-0.26-4.037
					c0.108-1.338,0.559-2.633,1.289-3.697c0.684-1.102,1.815-1.869,2.981-2.074c1.127-0.273,2.318,0.135,3.126,0.658
					c0.848,0.541,1.505,1.211,1.953,1.875c0.507,0.637,0.781,1.289,1.042,1.805C717.682,644.198,717.852,644.838,717.852,644.838z
					 M717.852,644.838c0,0-0.182-0.637-0.625-1.699c-0.272-0.512-0.547-1.156-1.066-1.773c-0.463-0.643-1.12-1.307-1.975-1.771
					c-0.854-0.467-1.875-0.791-2.976-0.473c-1.042,0.248-2.032,0.986-2.593,2.035c-1.236,2.064-1.36,4.754-0.742,7.248
					c0.377,1.207,0.802,2.441,1.596,3.418c0.736,0.98,1.667,1.865,2.787,2.217c1.055,0.361,2.331,0.225,3.236-0.367
					c0.866-0.646,1.583-1.475,1.935-2.393c0.431-0.879,0.612-1.787,0.685-2.58c0.13-0.793,0.038-1.494,0.031-2.07
					C718.002,645.483,717.852,644.838,717.852,644.838z"/>
				<path fill="#FAF1DA" d="M698.173,692.817c0,0,0.221,0.625,0.488,1.744c0.078,0.574,0.247,1.264,0.208,2.078
					c0.033,0.797-0.071,1.725-0.353,2.68c-0.222,0.986-0.813,1.947-1.653,2.77c-0.905,0.789-2.168,1.158-3.503,0.932
					c-1.315-0.195-2.476-1.023-3.388-2.006c-0.964-0.957-1.574-2.201-2.124-3.445c-0.383-1.287-0.708-2.639-0.637-3.998
					c-0.014-1.342,0.313-2.68,0.938-3.805c0.572-1.158,1.628-2.031,2.768-2.342c1.094-0.385,2.33-0.098,3.178,0.357
					c0.894,0.457,1.608,1.063,2.123,1.682c0.566,0.582,0.894,1.213,1.205,1.701C697.938,692.194,698.173,692.817,698.173,692.817z
					 M698.173,692.817c0,0-0.248-0.623-0.788-1.635c-0.318-0.479-0.658-1.098-1.225-1.668c-0.527-0.592-1.244-1.195-2.136-1.578
					c-0.898-0.389-1.947-0.609-3.01-0.189c-1.016,0.346-1.921,1.172-2.39,2.273c-1.035,2.164-0.912,4.861-0.052,7.279
					c0.48,1.172,1.026,2.361,1.9,3.256c0.827,0.908,1.844,1.703,2.995,1.945c1.074,0.266,2.331,0.01,3.186-0.672
					c0.794-0.725,1.438-1.611,1.698-2.561c0.34-0.918,0.443-1.836,0.432-2.631c0.063-0.807-0.101-1.494-0.157-2.066
					C698.374,693.444,698.173,692.817,698.173,692.817z"/>
				<path fill="#FAF1DA" d="M688.965,690.245c0,0,0.149,0.432,0.345,1.207c0.156,0.785,0.28,1.961-0.085,3.309
					c-0.143,0.689-0.547,1.371-1.133,1.957c-0.645,0.564-1.518,0.836-2.479,0.682c-1.908-0.328-3.204-2.096-3.914-3.822
					c-0.573-1.764-0.703-3.91,0.247-5.486c0.41-0.816,1.166-1.43,1.979-1.637c0.762-0.264,1.643-0.047,2.228,0.271
					c0.618,0.332,1.113,0.752,1.465,1.186c0.397,0.408,0.621,0.848,0.834,1.186C688.802,689.811,688.965,690.245,688.965,690.245z
					 M688.965,690.245c0,0-0.17-0.43-0.547-1.137c-0.222-0.33-0.463-0.756-0.86-1.146c-0.357-0.41-0.858-0.824-1.478-1.08
					c-0.639-0.258-1.33-0.404-2.059-0.104c-0.685,0.24-1.304,0.809-1.603,1.557c-0.677,1.494-0.599,3.314-0.007,4.979
					c0.587,1.611,1.751,3.156,3.309,3.568c0.71,0.189,1.576,0.033,2.155-0.426c0.553-0.486,1.003-1.092,1.191-1.742
					c0.24-0.629,0.313-1.268,0.313-1.816c0.039-0.557-0.071-1.035-0.104-1.434C689.107,690.684,688.965,690.245,688.965,690.245z"/>
				<path fill="#FAF1DA" d="M701.514,645.6c0,0,0.149,0.434,0.353,1.209c0.147,0.785,0.272,1.957-0.086,3.313
					c-0.148,0.689-0.554,1.365-1.134,1.955c-0.645,0.561-1.522,0.834-2.486,0.678c-1.907-0.328-3.203-2.094-3.913-3.822
					c-0.566-1.758-0.697-3.908,0.247-5.484c0.417-0.814,1.171-1.428,1.979-1.641c0.763-0.256,1.643-0.049,2.228,0.277
					c0.619,0.332,1.114,0.746,1.465,1.178c0.397,0.41,0.619,0.85,0.834,1.189C701.356,645.17,701.514,645.6,701.514,645.6z
					 M701.514,645.6c0,0-0.17-0.43-0.541-1.133c-0.228-0.332-0.469-0.756-0.858-1.148c-0.365-0.408-0.866-0.824-1.485-1.082
					c-0.632-0.256-1.329-0.402-2.058-0.104c-0.685,0.24-1.296,0.811-1.596,1.559c-0.685,1.496-0.605,3.309-0.007,4.977
					c0.579,1.607,1.752,3.154,3.303,3.564c0.71,0.193,1.574,0.033,2.154-0.42c0.555-0.484,1.003-1.094,1.191-1.748
					c0.248-0.625,0.317-1.264,0.313-1.816c0.039-0.555-0.063-1.029-0.104-1.43C701.663,646.04,701.514,645.6,701.514,645.6z"/>
				<path fill="#FAF1DA" d="M724.175,640.918c0,0,0.15,0.434,0.339,1.205c0.163,0.787,0.285,1.961-0.078,3.311
					c-0.144,0.688-0.554,1.369-1.133,1.957c-0.646,0.561-1.518,0.834-2.487,0.682c-1.907-0.33-3.203-2.098-3.914-3.822
					c-0.561-1.76-0.696-3.912,0.248-5.49c0.417-0.811,1.166-1.426,1.979-1.637c0.769-0.258,1.647-0.047,2.233,0.275
					c0.611,0.332,1.113,0.748,1.466,1.182c0.39,0.41,0.618,0.848,0.827,1.189C724.012,640.489,724.175,640.918,724.175,640.918z
					 M724.175,640.918c0,0-0.177-0.43-0.547-1.133c-0.228-0.332-0.462-0.758-0.86-1.148c-0.363-0.412-0.857-0.828-1.483-1.086
					c-0.625-0.254-1.321-0.4-2.059-0.104c-0.684,0.248-1.29,0.813-1.602,1.561c-0.678,1.494-0.6,3.307,0,4.979
					c0.586,1.607,1.752,3.154,3.302,3.568c0.709,0.188,1.582,0.029,2.154-0.428c0.561-0.484,1.004-1.094,1.192-1.744
					c0.247-0.625,0.318-1.268,0.318-1.818c0.032-0.557-0.064-1.031-0.109-1.432C724.313,641.356,724.175,640.918,724.175,640.918z"
					/>
				<path fill="#FAF1DA" d="M709.588,694.692c0,0,0.156,0.434,0.346,1.207c0.162,0.785,0.279,1.957-0.077,3.313
					c-0.145,0.689-0.562,1.367-1.142,1.957c-0.638,0.559-1.517,0.832-2.479,0.676c-1.908-0.328-3.204-2.092-3.914-3.82
					c-0.566-1.76-0.696-3.91,0.248-5.486c0.418-0.816,1.165-1.43,1.979-1.643c0.763-0.258,1.647-0.049,2.229,0.277
					c0.618,0.336,1.112,0.748,1.472,1.182c0.391,0.406,0.618,0.848,0.833,1.188C709.432,694.262,709.588,694.692,709.588,694.692z
					 M709.588,694.692c0,0-0.17-0.434-0.547-1.133c-0.223-0.332-0.457-0.76-0.854-1.15c-0.364-0.41-0.859-0.824-1.484-1.08
					c-0.632-0.258-1.322-0.404-2.059-0.105c-0.684,0.242-1.296,0.814-1.602,1.563c-0.679,1.494-0.6,3.305,0,4.975
					c0.586,1.609,1.751,3.156,3.301,3.566c0.71,0.189,1.576,0.031,2.155-0.42c0.554-0.486,1.004-1.096,1.192-1.75
					c0.247-0.621,0.318-1.264,0.313-1.816c0.039-0.553-0.064-1.029-0.104-1.43C709.738,695.131,709.588,694.692,709.588,694.692z"/>
				<path fill="#FAF1DA" d="M716.458,674.655c0,0,0.156,0.432,0.346,1.205c0.162,0.787,0.278,1.959-0.085,3.314
					c-0.144,0.684-0.555,1.363-1.133,1.953c-0.639,0.563-1.511,0.83-2.48,0.68c-1.908-0.328-3.204-2.096-3.914-3.822
					c-0.566-1.758-0.696-3.91,0.248-5.488c0.408-0.813,1.164-1.428,1.979-1.643c0.762-0.256,1.646-0.045,2.229,0.277
					c0.617,0.336,1.119,0.752,1.472,1.182c0.391,0.414,0.61,0.85,0.826,1.189C716.302,674.225,716.458,674.655,716.458,674.655z
					 M716.458,674.655c0,0-0.169-0.43-0.547-1.133c-0.222-0.332-0.456-0.76-0.854-1.15c-0.364-0.41-0.865-0.824-1.484-1.084
					c-0.632-0.254-1.321-0.4-2.059-0.104c-0.684,0.244-1.297,0.814-1.602,1.559c-0.678,1.494-0.6,3.309-0.007,4.975
					c0.593,1.613,1.757,3.158,3.308,3.57c0.71,0.191,1.583,0.031,2.156-0.424c0.559-0.482,1.003-1.094,1.19-1.746
					c0.241-0.625,0.313-1.266,0.313-1.816c0.039-0.557-0.065-1.027-0.104-1.432C716.602,675.09,716.458,674.655,716.458,674.655z"/>
			</g>
			<polygon fill="#BF6138" points="704.873,698.684 720.033,708.129 720.033,632.831 704.873,624.151 			"/>
			<polygon fill="#9D452C" points="810.056,580.891 720.033,632.831 720.014,796.491 810.056,745.313 			"/>
			<polygon fill="#CE7353" points="810.056,580.891 794.947,572.194 704.873,624.151 720.033,632.831 			"/>
			<polygon fill="#BF6138" points="704.873,711.18 630.082,667.311 630.082,762.749 704.873,806.022 			"/>
			<polygon fill="#9D452C" points="704.873,711.18 720.086,701.676 720.086,797.112 704.873,806.022 			"/>
			<polygon fill="#CE7353" points="704.873,711.18 630.082,667.311 644.858,658.768 720.086,701.676 			"/>
		</g>
		<g>
			<path fill="#323330" d="M610.352,581.395c-0.858,11.055-15.395,19.742-32.48,19.4c-17.089-0.346-30.235-9.586-29.396-20.641
				c0.859-11.047,15.4-19.734,32.481-19.395C598.044,561.104,611.198,570.344,610.352,581.395z"/>
			<path fill="#40423F" d="M598.434,580.672c-0.514,6.682-9.312,11.939-19.633,11.732c-10.335-0.209-18.292-5.797-17.785-12.484
				c0.521-6.682,9.313-11.934,19.647-11.729C590.998,568.401,598.955,573.989,598.434,580.672z"/>
			<g>
				<path fill="#E1A943" d="M565.549,572.241v8.338l0,0c0.039,2.352,2.897,4.271,6.584,4.344c3.822,0.078,7.078-1.869,7.273-4.344
					v-8.338H565.549z"/>
				<path fill="#E7BA6B" d="M579.406,572.52c-0.195,2.479-3.451,4.418-7.273,4.344c-3.829-0.078-6.771-2.146-6.584-4.623
					c0.188-2.475,3.445-4.416,7.274-4.342C576.652,567.975,579.589,570.045,579.406,572.52z"/>
				<path fill="#F7E9CC" d="M574.256,572.28c-0.053,0.635-0.886,1.133-1.869,1.113c-0.982-0.02-1.74-0.551-1.688-1.189
					c0.046-0.635,0.88-1.133,1.862-1.113C573.545,571.112,574.301,571.641,574.256,572.28z"/>
			</g>
			<g>
				<path fill="#E1A943" d="M579.928,563.27v17.309l0,0c0.039,2.352,2.897,4.271,6.583,4.344c3.823,0.078,7.079-1.869,7.274-4.344
					V563.27H579.928z"/>
				<path fill="#E7BA6B" d="M593.785,563.549c-0.195,2.479-3.451,4.418-7.274,4.344c-3.829-0.078-6.771-2.145-6.583-4.623
					c0.188-2.475,3.444-4.416,7.273-4.34C591.03,559.004,593.967,561.075,593.785,563.549z"/>
				<path fill="#F7E9CC" d="M588.635,563.309c-0.053,0.635-0.887,1.133-1.87,1.113c-0.982-0.02-1.737-0.551-1.687-1.189
					c0.046-0.635,0.88-1.133,1.862-1.111C587.924,562.139,588.68,562.67,588.635,563.309z"/>
			</g>
		</g>
		<g>
			<polygon fill="#40423F" points="517.119,569.737 517.119,552.268 547.063,534.799 547.063,552.268 			"/>
			<polygon fill="#4D4E4C" points="517.119,569.737 517.119,552.268 487.184,534.799 487.184,552.268 			"/>
			<g>
				<polygon fill="#5A4F3B" points="517.119,552.268 487.184,534.799 517.119,517.331 547.063,534.799 				"/>
				<path fill="#2F302D" d="M517.119,553.231l-31.59-18.432l31.59-18.432l31.596,18.432L517.119,553.231z M488.838,534.799
					l28.281,16.504l28.288-16.504l-28.288-16.506L488.838,534.799z"/>
			</g>
			<g>
				<g>
					<path fill="#72834A" d="M515.367,530.276c-0.287,0-0.579-0.035-0.872-0.113l-4.65-1.25c-0.981-0.264-1.79-0.967-2.193-1.902
						l-2.572-5.975c-0.73-1.693,0.053-3.652,1.745-4.383c1.681-0.709,3.652,0.053,4.383,1.746l1.935,4.492l3.087,0.83
						c1.777,0.48,2.832,2.309,2.356,4.088C518.181,529.295,516.832,530.276,515.367,530.276z"/>
					<path fill="#606C39" d="M515.367,530.694c-0.332,0-0.664-0.043-0.978-0.127l-4.648-1.252c-1.102-0.295-2.026-1.094-2.477-2.139
						l-2.57-5.975c-0.814-1.9,0.063-4.111,1.96-4.934c0.476-0.197,0.971-0.297,1.479-0.297c1.504,0,2.865,0.887,3.458,2.262
						l1.85,4.307l2.897,0.779c1.999,0.539,3.186,2.602,2.65,4.598C518.545,529.551,517.054,530.694,515.367,530.694z
						 M508.133,516.807c-0.396,0-0.783,0.078-1.146,0.23c-1.479,0.635-2.162,2.355-1.523,3.836l2.572,5.971
						c0.345,0.814,1.065,1.436,1.921,1.664l4.648,1.25c0.246,0.068,0.502,0.102,0.763,0.102c1.313,0,2.467-0.889,2.813-2.158
						c0.417-1.555-0.508-3.158-2.058-3.576l-3.289-0.883l-2.012-4.678C510.359,517.497,509.305,516.807,508.133,516.807z"/>
				</g>
				<g>
					<path fill="#849859" d="M512.117,535.551v-29.311c0-2.762,2.241-5.002,5.002-5.002s5.001,2.238,5.001,5.002v29.311
						C522.12,538.313,512.117,538.313,512.117,535.551z"/>
					<path fill="#62713B" d="M517.119,538.04c-2.696,0-5.418-0.77-5.418-2.488v-29.311c0-2.988,2.429-5.418,5.418-5.418
						s5.418,2.43,5.418,5.418v29.311C522.537,537.27,519.814,538.04,517.119,538.04z M517.119,501.657
						c-2.526,0-4.586,2.057-4.586,4.584v29.311c0,0.93,2.014,1.654,4.586,1.654s4.584-0.727,4.584-1.654v-29.311
						C521.703,503.713,519.646,501.657,517.119,501.657z"/>
				</g>
				<g>
					<path fill="#72834A" d="M519.477,523.745c-1.466,0-2.813-0.98-3.217-2.469c-0.477-1.777,0.579-3.607,2.357-4.086l3.086-0.83
						l1.935-4.492c0.729-1.697,2.702-2.463,4.384-1.746c1.691,0.729,2.475,2.689,1.744,4.383l-2.571,5.977
						c-0.404,0.936-1.212,1.639-2.195,1.9l-4.65,1.25C520.056,523.709,519.763,523.745,519.477,523.745z"/>
					<path fill="#606C39" d="M519.477,524.161c-1.687,0-3.178-1.143-3.62-2.777c-0.534-1.994,0.65-4.057,2.649-4.596l2.898-0.779
						l1.848-4.307c0.594-1.375,1.955-2.264,3.459-2.264c0.508,0,1.003,0.102,1.471,0.299c1.903,0.82,2.782,3.031,1.969,4.93
						l-2.572,5.98c-0.449,1.045-1.374,1.844-2.477,2.139l-4.647,1.25C520.141,524.12,519.809,524.161,519.477,524.161z
						 M526.711,510.272c-1.172,0-2.227,0.689-2.689,1.762l-2.012,4.678l-3.289,0.883c-1.55,0.416-2.475,2.021-2.058,3.574
						c0.346,1.271,1.498,2.16,2.813,2.16c0.262,0,0.516-0.033,0.763-0.102l4.648-1.25c0.854-0.229,1.576-0.85,1.921-1.664
						l2.572-5.975c0.639-1.475-0.045-3.197-1.522-3.832C527.493,510.35,527.108,510.272,526.711,510.272z"/>
				</g>
			</g>
		</g>
		<g>
			<polygon opacity="0.5" fill="#4A4B49" enable-background="new    " points="464.918,515.504 450.527,507.143 464.918,498.782 
				479.506,507.143 			"/>
			<polygon fill="#FCFCFB" points="464.912,514.567 449.986,505.893 464.912,497.217 480.046,505.893 			"/>
			<polygon fill="#D9DBDB" points="464.951,511.389 455.496,505.893 464.951,500.397 474.544,505.893 			"/>
		</g>
		<g>
			<polygon opacity="0.5" fill="#4A4B49" enable-background="new    " points="424.31,516.68 409.925,508.319 424.31,499.956 
				438.896,508.319 			"/>
			<polygon fill="#FCFCFB" points="424.31,515.741 409.385,507.067 424.31,498.393 439.443,507.067 			"/>
			<polygon fill="#D9DBDB" points="424.348,512.563 414.887,507.067 424.348,501.571 433.934,507.067 			"/>
		</g>
		<g>
			<polygon fill="#C6C7C7" points="797.546,500.129 782.521,491.661 782.521,509.237 797.546,517.706 			"/>
			<polygon fill="#A8A7A7" points="797.546,500.129 812.418,491.897 812.418,509.237 797.546,517.706 			"/>
			<polygon fill="#D3D5D5" points="797.546,500.129 812.418,491.897 797.396,483.084 782.521,491.661 			"/>
			<g>
				<polygon fill="#3B3D3A" points="793.358,500.985 781.115,494.077 781.115,511.653 793.358,518.561 				"/>
				<polygon fill="#2C2D2A" points="793.358,500.985 795.957,499.491 795.957,517.208 793.358,518.561 				"/>
				<polygon fill="#4D4E4C" points="793.358,500.985 795.957,499.491 784.014,492.418 781.115,494.077 				"/>
			</g>
		</g>
		<g>
			<polygon fill="#C6C7C7" points="617.273,396.5 602.25,388.031 602.25,405.607 617.273,414.076 			"/>
			<polygon fill="#A8A7A7" points="617.273,396.5 632.146,388.269 632.146,405.607 617.273,414.076 			"/>
			<polygon fill="#D3D5D5" points="617.273,396.5 632.146,388.269 617.124,379.455 602.25,388.031 			"/>
			<g>
				<polygon fill="#3B3D3A" points="613.087,397.356 600.844,390.447 600.844,408.023 613.087,414.932 				"/>
				<polygon fill="#2C2D2A" points="613.087,397.356 615.691,395.861 615.691,413.578 613.087,414.932 				"/>
				<polygon fill="#4D4E4C" points="613.087,397.356 615.691,395.861 603.748,388.789 600.844,390.447 				"/>
			</g>
		</g>
		<g>
			<polygon fill="#D3D5D5" points="859.462,377.074 829.396,359.851 814.393,368.482 844.458,385.752 			"/>
			<polygon fill="#A8A7A7" points="859.462,532.887 829.396,515.665 814.393,524.295 844.458,541.565 			"/>
			<polygon fill="#B4B4B4" points="840.635,513.227 825.821,504.713 825.821,526.239 840.635,534.663 			"/>
			<polygon fill="#979696" points="840.635,513.227 848.033,508.95 848.033,530.45 840.635,534.663 			"/>
			<polygon fill="#C6C7C7" points="844.458,385.752 814.393,368.482 814.393,507.165 844.458,524.26 			"/>
			<polygon fill="#A8A7A7" points="844.458,385.752 859.462,377.074 859.462,515.711 844.458,524.26 			"/>
			<g>
				<polygon fill="#4E504E" points="839.521,376.967 818.318,364.701 812.113,368.407 833.87,380.903 				"/>
				<polygon fill="#3E3F3C" points="833.87,380.903 812.113,368.407 812.113,501.53 833.87,513.895 				"/>
				<polygon fill="#2C2D2A" points="833.87,380.903 839.521,376.967 839.521,510.057 833.87,513.895 				"/>
			</g>
		</g>
	</g>
</g>
</svg>
