<?xml version="1.0" encoding="utf-8"?>
<!-- Generator: Adobe Illustrator 16.0.0, SVG Export Plug-In . SVG Version: 6.00 Build 0)  -->
<!DOCTYPE svg PUBLIC "-//W3C//DTD SVG 1.1//EN" "http://www.w3.org/Graphics/SVG/1.1/DTD/svg11.dtd">
<svg version="1.1" id="Capa_1" xmlns="http://www.w3.org/2000/svg" xmlns:xlink="http://www.w3.org/1999/xlink" x="0px" y="0px"
	 width="990.125px" height="1016.323px" viewBox="0 0 990.125 1016.323" enable-background="new 0 0 990.125 1016.323"
	 xml:space="preserve">
<g>
	<polygon fill="#F9F9E4" points="0.118,285.689 0.118,730.588 495.131,443.924 495.131,0 	"/>
	<polygon fill="#FEFEF5" points="990.063,285.816 495.131,0 495.131,443.924 990.063,730.653 	"/>
	<g>
		
			<line fill="none" stroke="#EEEDDC" stroke-width="0.25" stroke-miterlimit="10" x1="953.391" y1="261.301" x2="953.391" y2="708.954"/>
		
			<line fill="none" stroke="#EEEDDC" stroke-width="0.25" stroke-miterlimit="10" x1="971.727" y1="272.336" x2="971.727" y2="719.989"/>
		
			<line fill="none" stroke="#EEEDDC" stroke-width="0.25" stroke-miterlimit="10" x1="916.719" y1="239.778" x2="916.719" y2="687.43"/>
		
			<line fill="none" stroke="#EEEDDC" stroke-width="0.25" stroke-miterlimit="10" x1="935.055" y1="250.813" x2="935.055" y2="698.465"/>
		
			<line fill="none" stroke="#EEEDDC" stroke-width="0.25" stroke-miterlimit="10" x1="880.049" y1="218.641" x2="880.049" y2="666.293"/>
		
			<line fill="none" stroke="#EEEDDC" stroke-width="0.25" stroke-miterlimit="10" x1="898.383" y1="229.676" x2="898.383" y2="677.329"/>
		
			<line fill="none" stroke="#EEEDDC" stroke-width="0.25" stroke-miterlimit="10" x1="861.713" y1="208.793" x2="861.713" y2="656.446"/>
		
			<line fill="none" stroke="#EEEDDC" stroke-width="0.25" stroke-miterlimit="10" x1="825.04" y1="187.059" x2="825.04" y2="634.711"/>
		
			<line fill="none" stroke="#EEEDDC" stroke-width="0.25" stroke-miterlimit="10" x1="843.376" y1="198.18" x2="843.376" y2="645.833"/>
		
			<line fill="none" stroke="#EEEDDC" stroke-width="0.25" stroke-miterlimit="10" x1="806.704" y1="176.705" x2="806.704" y2="624.358"/>
		
			<line fill="none" stroke="#EEEDDC" stroke-width="0.25" stroke-miterlimit="10" x1="770.031" y1="155.651" x2="770.031" y2="603.303"/>
		
			<line fill="none" stroke="#EEEDDC" stroke-width="0.25" stroke-miterlimit="10" x1="788.368" y1="166.093" x2="788.368" y2="613.745"/>
		
			<line fill="none" stroke="#EEEDDC" stroke-width="0.25" stroke-miterlimit="10" x1="733.36" y1="134.598" x2="733.36" y2="582.25"/>
		
			<line fill="none" stroke="#EEEDDC" stroke-width="0.25" stroke-miterlimit="10" x1="751.696" y1="145.039" x2="751.696" y2="592.692"/>
		
			<line fill="none" stroke="#EEEDDC" stroke-width="0.25" stroke-miterlimit="10" x1="696.697" y1="113.119" x2="696.697" y2="560.772"/>
		
			<line fill="none" stroke="#EEEDDC" stroke-width="0.25" stroke-miterlimit="10" x1="715.031" y1="123.56" x2="715.031" y2="571.211"/>
		
			<line fill="none" stroke="#EEEDDC" stroke-width="0.25" stroke-miterlimit="10" x1="678.361" y1="102.427" x2="678.361" y2="550.079"/>
		
			<line fill="none" stroke="#EEEDDC" stroke-width="0.25" stroke-miterlimit="10" x1="641.689" y1="80.947" x2="641.689" y2="528.599"/>
		
			<line fill="none" stroke="#EEEDDC" stroke-width="0.25" stroke-miterlimit="10" x1="660.025" y1="91.389" x2="660.025" y2="539.041"/>
		
			<line fill="none" stroke="#EEEDDC" stroke-width="0.25" stroke-miterlimit="10" x1="623.354" y1="70.682" x2="623.354" y2="518.333"/>
		
			<line fill="none" stroke="#EEEDDC" stroke-width="0.25" stroke-miterlimit="10" x1="586.682" y1="49.201" x2="586.682" y2="496.854"/>
		
			<line fill="none" stroke="#EEEDDC" stroke-width="0.25" stroke-miterlimit="10" x1="605.018" y1="59.643" x2="605.018" y2="507.295"/>
		
			<line fill="none" stroke="#EEEDDC" stroke-width="0.25" stroke-miterlimit="10" x1="568.347" y1="38.765" x2="568.347" y2="486.416"/>
		
			<line fill="none" stroke="#EEEDDC" stroke-width="0.25" stroke-miterlimit="10" x1="531.675" y1="17.285" x2="531.675" y2="464.938"/>
		<line fill="none" stroke="#EEEDDC" stroke-width="0.25" stroke-miterlimit="10" x1="513.34" y1="6.76" x2="513.34" y2="454.412"/>
		
			<line fill="none" stroke="#EEEDDC" stroke-width="0.25" stroke-miterlimit="10" x1="550.011" y1="27.727" x2="550.011" y2="475.379"/>
		
			<line fill="none" stroke="#EEEDDC" stroke-width="0.25" stroke-miterlimit="10" x1="990.063" y1="709.379" x2="495.131" y2="423.678"/>
		
			<line fill="none" stroke="#EEEDDC" stroke-width="0.25" stroke-miterlimit="10" x1="990.063" y1="688.112" x2="495.131" y2="402.409"/>
		
			<line fill="none" stroke="#EEEDDC" stroke-width="0.25" stroke-miterlimit="10" x1="990.063" y1="666.93" x2="495.131" y2="381.229"/>
		
			<line fill="none" stroke="#EEEDDC" stroke-width="0.25" stroke-miterlimit="10" x1="990.063" y1="645.663" x2="495.131" y2="359.96"/>
		
			<line fill="none" stroke="#EEEDDC" stroke-width="0.25" stroke-miterlimit="10" x1="990.063" y1="624.645" x2="495.131" y2="338.942"/>
		
			<line fill="none" stroke="#EEEDDC" stroke-width="0.25" stroke-miterlimit="10" x1="990.063" y1="603.375" x2="495.131" y2="317.674"/>
		
			<line fill="none" stroke="#EEEDDC" stroke-width="0.25" stroke-miterlimit="10" x1="990.063" y1="582.194" x2="495.131" y2="296.492"/>
		
			<line fill="none" stroke="#EEEDDC" stroke-width="0.25" stroke-miterlimit="10" x1="990.063" y1="560.926" x2="495.131" y2="275.225"/>
		
			<line fill="none" stroke="#EEEDDC" stroke-width="0.25" stroke-miterlimit="10" x1="990.063" y1="539.927" x2="495.131" y2="254.227"/>
		
			<line fill="none" stroke="#EEEDDC" stroke-width="0.25" stroke-miterlimit="10" x1="990.063" y1="518.66" x2="495.131" y2="232.958"/>
		
			<line fill="none" stroke="#EEEDDC" stroke-width="0.25" stroke-miterlimit="10" x1="990.063" y1="497.479" x2="495.131" y2="211.777"/>
		
			<line fill="none" stroke="#EEEDDC" stroke-width="0.25" stroke-miterlimit="10" x1="990.063" y1="476.211" x2="495.131" y2="190.509"/>
		
			<line fill="none" stroke="#EEEDDC" stroke-width="0.25" stroke-miterlimit="10" x1="990.063" y1="455.359" x2="495.131" y2="169.658"/>
		
			<line fill="none" stroke="#EEEDDC" stroke-width="0.25" stroke-miterlimit="10" x1="990.063" y1="434.092" x2="495.131" y2="148.39"/>
		
			<line fill="none" stroke="#EEEDDC" stroke-width="0.25" stroke-miterlimit="10" x1="990.063" y1="412.91" x2="495.131" y2="127.209"/>
		
			<line fill="none" stroke="#EEEDDC" stroke-width="0.25" stroke-miterlimit="10" x1="990.063" y1="391.642" x2="495.131" y2="105.939"/>
		
			<line fill="none" stroke="#EEEDDC" stroke-width="0.25" stroke-miterlimit="10" x1="990.063" y1="370.616" x2="495.131" y2="84.914"/>
		
			<line fill="none" stroke="#EEEDDC" stroke-width="0.25" stroke-miterlimit="10" x1="990.063" y1="349.348" x2="495.131" y2="63.646"/>
		
			<line fill="none" stroke="#EEEDDC" stroke-width="0.25" stroke-miterlimit="10" x1="990.063" y1="328.166" x2="495.131" y2="42.465"/>
		
			<line fill="none" stroke="#EEEDDC" stroke-width="0.25" stroke-miterlimit="10" x1="990.063" y1="306.898" x2="495.131" y2="21.197"/>
	</g>
	<g>
		
			<line fill="none" stroke="#E5E3CE" stroke-width="0.25" stroke-miterlimit="10" x1="36.734" y1="261.301" x2="36.734" y2="708.954"/>
		
			<line fill="none" stroke="#E5E3CE" stroke-width="0.25" stroke-miterlimit="10" x1="18.398" y1="272.336" x2="18.398" y2="719.989"/>
		
			<line fill="none" stroke="#E5E3CE" stroke-width="0.25" stroke-miterlimit="10" x1="73.405" y1="239.778" x2="73.405" y2="687.43"/>
		
			<line fill="none" stroke="#E5E3CE" stroke-width="0.25" stroke-miterlimit="10" x1="55.07" y1="250.813" x2="55.07" y2="698.465"/>
		
			<line fill="none" stroke="#E5E3CE" stroke-width="0.25" stroke-miterlimit="10" x1="110.077" y1="218.641" x2="110.077" y2="666.293"/>
		
			<line fill="none" stroke="#E5E3CE" stroke-width="0.25" stroke-miterlimit="10" x1="91.741" y1="229.676" x2="91.741" y2="677.329"/>
		
			<line fill="none" stroke="#E5E3CE" stroke-width="0.25" stroke-miterlimit="10" x1="128.413" y1="208.793" x2="128.413" y2="656.446"/>
		
			<line fill="none" stroke="#E5E3CE" stroke-width="0.25" stroke-miterlimit="10" x1="165.085" y1="187.059" x2="165.085" y2="634.711"/>
		
			<line fill="none" stroke="#E5E3CE" stroke-width="0.25" stroke-miterlimit="10" x1="146.748" y1="198.18" x2="146.748" y2="645.833"/>
		
			<line fill="none" stroke="#E5E3CE" stroke-width="0.25" stroke-miterlimit="10" x1="183.422" y1="176.705" x2="183.422" y2="624.358"/>
		
			<line fill="none" stroke="#E5E3CE" stroke-width="0.25" stroke-miterlimit="10" x1="220.093" y1="155.651" x2="220.093" y2="603.303"/>
		
			<line fill="none" stroke="#E5E3CE" stroke-width="0.25" stroke-miterlimit="10" x1="201.757" y1="166.093" x2="201.757" y2="613.745"/>
		
			<line fill="none" stroke="#E5E3CE" stroke-width="0.25" stroke-miterlimit="10" x1="256.764" y1="134.598" x2="256.764" y2="582.25"/>
		
			<line fill="none" stroke="#E5E3CE" stroke-width="0.25" stroke-miterlimit="10" x1="238.428" y1="145.039" x2="238.428" y2="592.692"/>
		
			<line fill="none" stroke="#E5E3CE" stroke-width="0.25" stroke-miterlimit="10" x1="293.428" y1="113.119" x2="293.428" y2="560.772"/>
		
			<line fill="none" stroke="#E5E3CE" stroke-width="0.25" stroke-miterlimit="10" x1="275.092" y1="123.56" x2="275.092" y2="571.211"/>
		
			<line fill="none" stroke="#E5E3CE" stroke-width="0.25" stroke-miterlimit="10" x1="311.764" y1="102.427" x2="311.764" y2="550.079"/>
		
			<line fill="none" stroke="#E5E3CE" stroke-width="0.25" stroke-miterlimit="10" x1="348.436" y1="80.947" x2="348.436" y2="528.599"/>
		<line fill="none" stroke="#E5E3CE" stroke-width="0.25" stroke-miterlimit="10" x1="330.1" y1="91.389" x2="330.1" y2="539.041"/>
		
			<line fill="none" stroke="#E5E3CE" stroke-width="0.25" stroke-miterlimit="10" x1="366.771" y1="70.682" x2="366.771" y2="518.333"/>
		
			<line fill="none" stroke="#E5E3CE" stroke-width="0.25" stroke-miterlimit="10" x1="403.442" y1="49.201" x2="403.442" y2="496.854"/>
		
			<line fill="none" stroke="#E5E3CE" stroke-width="0.25" stroke-miterlimit="10" x1="385.107" y1="59.643" x2="385.107" y2="507.295"/>
		
			<line fill="none" stroke="#E5E3CE" stroke-width="0.25" stroke-miterlimit="10" x1="421.777" y1="38.765" x2="421.777" y2="486.416"/>
		
			<line fill="none" stroke="#E5E3CE" stroke-width="0.25" stroke-miterlimit="10" x1="458.449" y1="17.285" x2="458.449" y2="464.938"/>
		
			<line fill="none" stroke="#E5E3CE" stroke-width="0.25" stroke-miterlimit="10" x1="476.786" y1="6.76" x2="476.786" y2="454.412"/>
		
			<line fill="none" stroke="#E5E3CE" stroke-width="0.25" stroke-miterlimit="10" x1="440.113" y1="27.727" x2="440.113" y2="475.379"/>
		
			<line fill="none" stroke="#E5E3CE" stroke-width="0.25" stroke-miterlimit="10" x1="0.063" y1="709.379" x2="494.994" y2="423.678"/>
		
			<line fill="none" stroke="#E5E3CE" stroke-width="0.25" stroke-miterlimit="10" x1="0.063" y1="688.112" x2="494.994" y2="402.409"/>
		
			<line fill="none" stroke="#E5E3CE" stroke-width="0.25" stroke-miterlimit="10" x1="0.063" y1="666.93" x2="494.994" y2="381.229"/>
		
			<line fill="none" stroke="#E5E3CE" stroke-width="0.25" stroke-miterlimit="10" x1="0.063" y1="645.663" x2="494.994" y2="359.96"/>
		
			<line fill="none" stroke="#E5E3CE" stroke-width="0.25" stroke-miterlimit="10" x1="0.063" y1="624.645" x2="494.994" y2="338.942"/>
		
			<line fill="none" stroke="#E5E3CE" stroke-width="0.25" stroke-miterlimit="10" x1="0.063" y1="603.375" x2="494.994" y2="317.674"/>
		
			<line fill="none" stroke="#E5E3CE" stroke-width="0.25" stroke-miterlimit="10" x1="0.063" y1="582.194" x2="494.994" y2="296.492"/>
		
			<line fill="none" stroke="#E5E3CE" stroke-width="0.25" stroke-miterlimit="10" x1="0.063" y1="560.926" x2="494.994" y2="275.225"/>
		
			<line fill="none" stroke="#E5E3CE" stroke-width="0.25" stroke-miterlimit="10" x1="0.063" y1="539.927" x2="494.994" y2="254.227"/>
		
			<line fill="none" stroke="#E5E3CE" stroke-width="0.25" stroke-miterlimit="10" x1="0.063" y1="518.66" x2="494.994" y2="232.958"/>
		
			<line fill="none" stroke="#E5E3CE" stroke-width="0.25" stroke-miterlimit="10" x1="0.063" y1="497.479" x2="494.994" y2="211.777"/>
		
			<line fill="none" stroke="#E5E3CE" stroke-width="0.25" stroke-miterlimit="10" x1="0.063" y1="476.211" x2="494.994" y2="190.509"/>
		
			<line fill="none" stroke="#E5E3CE" stroke-width="0.25" stroke-miterlimit="10" x1="0.063" y1="455.359" x2="494.994" y2="169.658"/>
		
			<line fill="none" stroke="#E5E3CE" stroke-width="0.25" stroke-miterlimit="10" x1="0.063" y1="434.092" x2="494.994" y2="148.39"/>
		
			<line fill="none" stroke="#E5E3CE" stroke-width="0.25" stroke-miterlimit="10" x1="0.063" y1="412.91" x2="494.994" y2="127.209"/>
		
			<line fill="none" stroke="#E5E3CE" stroke-width="0.25" stroke-miterlimit="10" x1="0.063" y1="391.642" x2="494.994" y2="105.939"/>
		
			<line fill="none" stroke="#E5E3CE" stroke-width="0.25" stroke-miterlimit="10" x1="0.063" y1="370.616" x2="494.994" y2="84.914"/>
		
			<line fill="none" stroke="#E5E3CE" stroke-width="0.25" stroke-miterlimit="10" x1="0.063" y1="349.348" x2="494.994" y2="63.646"/>
		
			<line fill="none" stroke="#E5E3CE" stroke-width="0.25" stroke-miterlimit="10" x1="0.063" y1="328.166" x2="494.994" y2="42.465"/>
		
			<line fill="none" stroke="#E5E3CE" stroke-width="0.25" stroke-miterlimit="10" x1="0.063" y1="306.898" x2="494.994" y2="21.197"/>
	</g>
	<polygon fill="#DAEAF2" points="495.131,443.939 0.118,730.588 495.131,1016.323 990.063,730.653 	"/>
	<polygon fill="#BDD3DD" points="990.063,720.243 495.131,433.514 495.131,443.924 990.063,730.653 	"/>
	<polygon fill="#ADC9D3" points="0.118,719.766 0.118,730.588 495.131,443.924 495.131,433.514 	"/>
	<g>
		
			<line fill="none" stroke="#BAD3DD" stroke-width="0.25" stroke-miterlimit="10" x1="55.865" y1="698.465" x2="550.854" y2="984.075"/>
		
			<line fill="none" stroke="#BAD3DD" stroke-width="0.25" stroke-miterlimit="10" x1="110.316" y1="667.018" x2="605.304" y2="952.627"/>
		
			<line fill="none" stroke="#BAD3DD" stroke-width="0.25" stroke-miterlimit="10" x1="164.248" y1="634.135" x2="659.237" y2="919.745"/>
		
			<line fill="none" stroke="#BAD3DD" stroke-width="0.25" stroke-miterlimit="10" x1="218.699" y1="602.688" x2="713.688" y2="888.297"/>
		
			<line fill="none" stroke="#BAD3DD" stroke-width="0.25" stroke-miterlimit="10" x1="274.24" y1="570.766" x2="769.229" y2="856.377"/>
		
			<line fill="none" stroke="#BAD3DD" stroke-width="0.25" stroke-miterlimit="10" x1="328.69" y1="539.32" x2="823.679" y2="824.93"/>
		
			<line fill="none" stroke="#BAD3DD" stroke-width="0.25" stroke-miterlimit="10" x1="386.89" y1="508.533" x2="881.87" y2="794.143"/>
		
			<line fill="none" stroke="#BAD3DD" stroke-width="0.25" stroke-miterlimit="10" x1="440.44" y1="475.769" x2="935.422" y2="761.379"/>
	</g>
	<g>
		
			<line fill="none" stroke="#BAD3DD" stroke-width="0.25" stroke-miterlimit="10" x1="935.422" y1="698.465" x2="439.485" y2="984.338"/>
		
			<line fill="none" stroke="#BAD3DD" stroke-width="0.25" stroke-miterlimit="10" x1="880.971" y1="667.018" x2="385.035" y2="952.891"/>
		
			<line fill="none" stroke="#BAD3DD" stroke-width="0.25" stroke-miterlimit="10" x1="827.037" y1="634.135" x2="331.103" y2="920.006"/>
		
			<line fill="none" stroke="#BAD3DD" stroke-width="0.25" stroke-miterlimit="10" x1="772.588" y1="602.688" x2="276.651" y2="888.559"/>
		
			<line fill="none" stroke="#BAD3DD" stroke-width="0.25" stroke-miterlimit="10" x1="717.047" y1="570.766" x2="221.111" y2="856.639"/>
		
			<line fill="none" stroke="#BAD3DD" stroke-width="0.25" stroke-miterlimit="10" x1="662.596" y1="539.32" x2="166.661" y2="825.192"/>
		
			<line fill="none" stroke="#BAD3DD" stroke-width="0.25" stroke-miterlimit="10" x1="604.405" y1="508.533" x2="108.463" y2="794.405"/>
		
			<line fill="none" stroke="#BAD3DD" stroke-width="0.25" stroke-miterlimit="10" x1="550.854" y1="475.769" x2="54.91" y2="761.641"/>
	</g>
	<polygon fill="#AE8A5D" points="770.239,222.342 953.519,327.964 953.519,455.551 770.239,349.482 	"/>
	<polygon fill="#8E6C44" points="774.281,232.135 947.78,332.118 947.78,445.762 774.281,345.356 	"/>
	<polygon fill="#C8E1E4" points="776.781,233.738 947.78,332.289 947.78,443.096 776.781,344.135 	"/>
	<path fill="#E2EFEF" d="M875.679,290.734c-0.876,0.876-1.751,1.752-2.627,2.627c-22.491,22.482-44.972,44.969-67.454,67.45
		l32.867,19.021l70.129-70.129L875.679,290.734z"/>
	<path fill="#E2EFEF" d="M871.413,398.896l30.934,17.902c15.145-15.145,30.289-30.293,45.434-45.438v-39.071l-6.19-3.569
		L871.413,398.896z"/>
	<polygon fill="#8E6C44" points="816.215,256.3 813.332,254.621 813.332,367.99 816.215,369.621 	"/>
	<polygon fill="#AE8A5D" points="813.332,248.059 807.556,248.059 807.556,367.226 813.332,370.111 	"/>
	<polygon fill="#474846" points="385.067,338.871 568.338,444.473 568.338,613.993 385.067,508.139 	"/>
	<polygon fill="#808D50" points="392.166,351.047 558.104,446.657 558.104,600.145 553.687,603.176 387.757,354.078 	"/>
	<polygon fill="#99A969" points="387.757,354.078 553.687,449.689 553.687,603.176 387.757,507.335 	"/>
	<polygon fill="#EAEBEA" points="385.067,338.871 568.338,444.473 678.488,380.887 495.131,275.225 	"/>
	<polygon fill="#393A36" points="677.979,381.181 568.131,444.473 568.131,613.993 677.979,550.549 	"/>
	<g>
		<polygon opacity="0.5" fill="#424441" points="724.049,704 577.753,619.172 687.84,555.817 834.112,640.366 		"/>
		<path fill="#4D504D" d="M729.531,697.913c0,2.848-2.314,5.16-5.163,5.16l0,0c-2.842,0-5.157-2.313-5.157-5.16V680.03
			c0-2.85,2.315-5.156,5.157-5.156l0,0c2.849,0,5.163,2.307,5.163,5.156V697.913z"/>
		<path fill="#4D504D" d="M834.112,636.963c0,2.85-2.308,5.16-5.157,5.16l0,0c-2.849,0-5.156-2.311-5.156-5.16v-17.883
			c0-2.848,2.308-5.156,5.156-5.156l0,0c2.85,0,5.157,2.309,5.157,5.156V636.963z"/>
		<path fill="#4D504D" d="M588.066,616.418c0,2.85-2.308,5.162-5.157,5.162l0,0c-2.849,0-5.156-2.313-5.156-5.162v-17.881
			c0-2.85,2.308-5.158,5.156-5.158l0,0c2.85,0,5.157,2.309,5.157,5.158V616.418z"/>
		<polygon fill="#DCDEDD" points="724.049,513.574 577.753,428.747 687.84,365.392 834.112,449.939 		"/>
		<polygon fill="#6C706F" points="711.125,500.16 600.976,436.96 705.928,375.77 816.023,439.482 		"/>
		<path fill="#B9B9B9" d="M710.799,499.055L602.487,436.98l103.48-60.487c0,0,24.258,9.948,49.812,24.714
			c28.418,16.426,58.438,37.854,58.438,37.854L710.799,499.055z"/>
		<polygon fill="#B6B6B6" points="724.049,698.366 724.025,513.507 834.112,449.939 834.112,634.862 		"/>
		<polygon fill="#C1C1C1" points="724.01,698.366 724.025,513.507 577.753,428.747 577.753,613.877 		"/>
		<polygon fill="#CECFD0" points="612.889,449.064 612.889,634.09 688.881,677.993 688.881,493.098 		"/>
		<polygon fill="#D7D9D9" points="628.041,457.843 628.041,642.729 670.673,667.36 670.673,482.545 		"/>
		<polygon fill="#767777" points="724.01,539.236 724.025,537.851 577.753,453.092 577.753,454.746 		"/>
		<polygon fill="#767777" points="833.913,474.177 724.025,537.851 724.049,539.236 833.913,475.769 		"/>
		<g>
			<path fill="#DCDEDD" d="M683.192,478.379c-1.106-1.747-0.216-3.418,1.989-3.721c2.204-0.311,4.885,0.867,5.992,2.614
				c1.106,1.747,0.215,3.419-1.989,3.721C686.979,481.3,684.299,480.13,683.192,478.379z"/>
			<path fill="#6A7374" d="M683.215,475.032c0.486-0.401,1.146-0.664,1.911-0.772c2.339-0.33,5.204,0.928,6.39,2.798
				c0.836,1.321,0.692,2.687-0.365,3.558c-0.486,0.406-1.146,0.668-1.91,0.771c-2.34,0.33-5.205-0.923-6.383-2.793
				C682.022,477.272,682.157,475.904,683.215,475.032z M690.648,479.998c0.725-0.604,0.804-1.543,0.191-2.51
				c-1.034-1.637-3.55-2.727-5.603-2.432c-0.613,0.088-1.146,0.286-1.505,0.593c-0.739,0.608-0.819,1.548-0.206,2.519
				c1.034,1.627,3.54,2.718,5.603,2.428C689.748,480.508,690.274,480.305,690.648,479.998z"/>
		</g>
		<g>
			<path fill="#DCDEDD" d="M706.596,480.48c-1.559-2.459-0.301-4.808,2.803-5.233c3.104-0.438,6.876,1.218,8.428,3.677
				c1.56,2.455,0.303,4.807-2.795,5.232C711.928,484.586,708.148,482.943,706.596,480.48z"/>
			<path fill="#6A7374" d="M706.637,475.772c0.676-0.565,1.607-0.935,2.683-1.087c3.286-0.465,7.321,1.306,8.992,3.936
				c1.169,1.859,0.97,3.777-0.518,5.002c-0.684,0.573-1.607,0.943-2.689,1.086c-3.295,0.467-7.321-1.297-8.976-3.927
				C704.949,478.924,705.141,476.998,706.637,475.772z M717.086,482.756c1.019-0.848,1.138-2.168,0.271-3.529
				c-1.456-2.301-4.991-3.836-7.887-3.422c-0.859,0.123-1.608,0.406-2.117,0.836c-1.034,0.855-1.146,2.176-0.278,3.541
				c1.448,2.292,4.975,3.824,7.871,3.414C715.821,483.473,716.561,483.189,717.086,482.756z"/>
		</g>
		<g>
			<path fill="#DCDEDD" d="M672.36,472.521c-1.104-1.746-0.216-3.418,1.989-3.721c2.205-0.311,4.887,0.867,5.993,2.615
				c1.106,1.746,0.215,3.418-1.989,3.72C676.148,475.442,673.467,474.272,672.36,472.521z"/>
			<path fill="#6A7374" d="M672.385,469.176c0.485-0.402,1.145-0.665,1.909-0.772c2.339-0.331,5.204,0.927,6.391,2.798
				c0.836,1.32,0.694,2.686-0.365,3.557c-0.487,0.406-1.146,0.668-1.91,0.771c-2.34,0.33-5.205-0.923-6.383-2.793
				C671.19,471.416,671.326,470.047,672.385,469.176z M679.816,474.141c0.726-0.604,0.805-1.543,0.192-2.51
				c-1.035-1.637-3.55-2.727-5.604-2.432c-0.612,0.088-1.146,0.286-1.504,0.593c-0.74,0.608-0.819,1.548-0.208,2.519
				c1.035,1.627,3.543,2.718,5.605,2.428C678.918,474.65,679.443,474.447,679.816,474.141z"/>
		</g>
		<g>
			<path fill="#DCDEDD" d="M661.529,466.836c-1.106-1.748-0.215-3.418,1.989-3.721c2.205-0.311,4.887,0.867,5.993,2.613
				c1.106,1.748,0.215,3.419-1.989,3.721C665.316,469.756,662.636,468.586,661.529,466.836z"/>
			<path fill="#6A7374" d="M661.554,463.488c0.485-0.401,1.146-0.664,1.911-0.771c2.338-0.33,5.203,0.928,6.389,2.797
				c0.836,1.322,0.693,2.687-0.366,3.559c-0.485,0.405-1.146,0.668-1.91,0.771c-2.339,0.33-5.204-0.924-6.382-2.793
				C660.359,465.729,660.494,464.36,661.554,463.488z M668.986,468.455c0.724-0.605,0.804-1.544,0.19-2.511
				c-1.034-1.636-3.548-2.726-5.602-2.432c-0.612,0.088-1.147,0.286-1.505,0.593c-0.74,0.609-0.819,1.549-0.206,2.52
				c1.034,1.627,3.541,2.717,5.601,2.427C668.088,468.965,668.612,468.762,668.986,468.455z"/>
		</g>
		<g>
			<path fill="#DCDEDD" d="M650.697,461.086c-1.105-1.747-0.215-3.418,1.99-3.721c2.205-0.311,4.887,0.867,5.992,2.614
				c1.106,1.747,0.216,3.418-1.989,3.72C654.486,464.006,651.805,462.836,650.697,461.086z"/>
			<path fill="#6A7374" d="M650.722,457.739c0.486-0.401,1.146-0.665,1.909-0.772c2.341-0.33,5.207,0.928,6.392,2.798
				c0.836,1.321,0.692,2.686-0.366,3.558c-0.484,0.405-1.146,0.668-1.91,0.771c-2.339,0.33-5.204-0.924-6.382-2.793
				C649.528,459.979,649.662,458.61,650.722,457.739z M658.155,462.705c0.726-0.605,0.804-1.544,0.191-2.511
				c-1.035-1.636-3.55-2.726-5.604-2.431c-0.612,0.087-1.146,0.285-1.504,0.592c-0.741,0.609-0.819,1.549-0.208,2.52
				c1.035,1.627,3.543,2.717,5.604,2.427C657.256,463.215,657.781,463.012,658.155,462.705z"/>
		</g>
		<g>
			<path fill="#DCDEDD" d="M639.867,454.504c-1.106-1.746-0.215-3.418,1.989-3.721c2.204-0.311,4.887,0.867,5.991,2.615
				c1.107,1.746,0.216,3.418-1.988,3.72C643.655,457.425,640.974,456.255,639.867,454.504z"/>
			<path fill="#6A7374" d="M639.891,451.158c0.485-0.402,1.146-0.665,1.91-0.772c2.34-0.33,5.205,0.927,6.391,2.798
				c0.836,1.32,0.691,2.686-0.366,3.557c-0.485,0.406-1.146,0.668-1.911,0.771c-2.339,0.331-5.203-0.922-6.383-2.793
				C638.697,453.398,638.832,452.029,639.891,451.158z M647.324,456.123c0.725-0.604,0.805-1.543,0.19-2.51
				c-1.034-1.636-3.55-2.727-5.603-2.432c-0.613,0.088-1.146,0.287-1.504,0.593c-0.74,0.608-0.818,1.548-0.207,2.519
				c1.034,1.628,3.542,2.718,5.603,2.428C646.425,456.633,646.949,456.43,647.324,456.123z"/>
		</g>
		<path fill="#8B8B8A" d="M816.023,460.628c-0.088,0-0.176-0.024-0.255-0.067l-18.599-10.775
			c-0.326-0.263-26.127-21.571-54.235-37.861c-25.666-14.871-54.578-25.264-54.864-25.363l-18.583-10.76
			c-0.239-0.143-0.326-0.453-0.183-0.696c0.136-0.247,0.454-0.318,0.692-0.187l18.495,10.719
			c0.207,0.064,29.205,10.49,54.952,25.403c28.187,16.335,54.044,37.698,54.306,37.909l18.527,10.728
			c0.238,0.144,0.327,0.454,0.184,0.696C816.365,460.537,816.197,460.628,816.023,460.628z"/>
		<path fill="#8B8B8A" d="M759.193,493.854c-0.088,0-0.175-0.023-0.255-0.067l-146.281-84.76c-0.238-0.144-0.327-0.454-0.183-0.696
			c0.144-0.246,0.453-0.322,0.691-0.188l146.282,84.76c0.238,0.144,0.326,0.454,0.183,0.697
			C759.535,493.762,759.368,493.854,759.193,493.854z"/>
		<polygon fill="#D1E0E1" points="748.982,471.929 648.502,414.268 687.935,391.642 788.368,449.761 		"/>
		<path fill="#BFDBDE" d="M711.18,409.293l-22.64-13.1l-33.847,18.941l60.388,34.654C713.608,447.66,701.781,424.354,711.18,409.293
			z"/>
		<path fill="#848484" d="M748.982,472.438c-0.087,0-0.175-0.023-0.255-0.066l-100.481-57.662c-0.158-0.092-0.254-0.259-0.254-0.441
			c0-0.184,0.096-0.351,0.254-0.442L687.68,391.2c0.16-0.087,0.35-0.087,0.51,0l100.434,58.119c0.158,0.091,0.256,0.263,0.256,0.446
			c0,0.182-0.098,0.35-0.256,0.441l-39.386,22.168C749.158,472.418,749.07,472.438,748.982,472.438z M649.521,414.268l99.471,57.076
			l38.351-21.591l-99.407-57.522L649.521,414.268z"/>
		<polygon fill="#DCDEDD" points="701.09,461.161 665.524,440.752 679.482,432.742 715.031,453.314 		"/>
		<polygon fill="#DCDEDD" points="695.064,474.949 645.558,446.554 657.86,439.344 707.344,467.902 		"/>
		<polygon fill="#3E3F3C" points="694.811,473.902 647.196,446.598 658.066,440.227 705.666,467.675 		"/>
		<polygon fill="#B9B9B9" points="700.256,458.169 671.151,441.321 676.841,437.775 705.928,454.738 		"/>
		<g>
			<g>
				<path fill="#E5F0F0" d="M782.01,452.419c-0.088,0-0.175-0.021-0.254-0.067l-98.373-56.484c-0.247-0.139-0.326-0.449-0.19-0.695
					c0.143-0.247,0.452-0.331,0.699-0.188l98.372,56.484c0.239,0.139,0.327,0.449,0.184,0.695
					C782.352,452.328,782.185,452.419,782.01,452.419z"/>
				<path fill="#E5F0F0" d="M777.379,455.098c-0.089,0-0.176-0.021-0.256-0.068l-98.373-56.484c-0.244-0.139-0.325-0.449-0.19-0.695
					c0.144-0.247,0.454-0.334,0.701-0.188l98.372,56.484c0.238,0.139,0.326,0.449,0.182,0.695
					C777.72,455.006,777.553,455.098,777.379,455.098z"/>
				<path fill="#E5F0F0" d="M772.746,457.775c-0.087,0-0.175-0.021-0.255-0.068l-98.372-56.483c-0.238-0.14-0.326-0.45-0.183-0.696
					c0.135-0.247,0.453-0.334,0.692-0.188L773,456.824c0.246,0.139,0.327,0.449,0.192,0.696
					C773.096,457.684,772.922,457.775,772.746,457.775z"/>
				<path fill="#E5F0F0" d="M768.113,460.453c-0.087,0-0.174-0.02-0.253-0.068l-98.373-56.487c-0.239-0.14-0.326-0.45-0.183-0.696
					c0.136-0.246,0.454-0.334,0.692-0.188l98.372,56.488c0.246,0.139,0.326,0.449,0.19,0.696
					C768.465,460.361,768.29,460.453,768.113,460.453z"/>
				<path fill="#E5F0F0" d="M763.482,463.127c-0.087,0-0.175-0.02-0.255-0.068l-98.371-56.482c-0.239-0.141-0.327-0.45-0.184-0.697
					c0.135-0.246,0.453-0.33,0.692-0.188l98.372,56.484c0.247,0.139,0.326,0.449,0.19,0.696
					C763.832,463.035,763.657,463.127,763.482,463.127z"/>
				<path fill="#E5F0F0" d="M758.858,465.805c-0.087,0-0.175-0.02-0.254-0.067l-98.372-56.483c-0.247-0.14-0.326-0.45-0.191-0.697
					c0.144-0.246,0.453-0.334,0.7-0.187l98.372,56.483c0.239,0.14,0.327,0.449,0.184,0.697
					C759.201,465.713,759.033,465.805,758.858,465.805z"/>
				<path fill="#E5F0F0" d="M754.228,468.482c-0.088,0-0.176-0.02-0.255-0.067L655.6,411.932c-0.246-0.14-0.325-0.449-0.19-0.697
					c0.144-0.246,0.454-0.334,0.701-0.187l98.37,56.483c0.24,0.14,0.327,0.45,0.184,0.697
					C754.569,468.391,754.402,468.482,754.228,468.482z"/>
			</g>
		</g>
	</g>
	<g>
		<polygon opacity="0.5" fill="#424441" points="880,794.159 733.703,709.333 843.79,645.977 990.063,730.524 		"/>
		<path fill="#4D504D" d="M885.482,788.071c0,2.85-2.316,5.16-5.166,5.16l0,0c-2.84,0-5.155-2.311-5.155-5.16v-17.883
			c0-2.848,2.315-5.156,5.155-5.156l0,0c2.85,0,5.166,2.309,5.166,5.156V788.071z"/>
		<path fill="#4D504D" d="M990.063,727.124c0,2.848-2.307,5.16-5.157,5.16l0,0c-2.849,0-5.157-2.313-5.157-5.16v-17.883
			c0-2.85,2.309-5.158,5.157-5.158l0,0c2.851,0,5.157,2.309,5.157,5.158V727.124z"/>
		<path fill="#4D504D" d="M744.016,706.579c0,2.85-2.307,5.16-5.155,5.16l0,0c-2.85,0-5.157-2.311-5.157-5.16v-17.883
			c0-2.85,2.308-5.156,5.157-5.156l0,0c2.849,0,5.155,2.307,5.155,5.156V706.579z"/>
		<polygon fill="#F8FAF9" points="880,603.733 733.703,518.906 843.79,455.551 990.063,540.099 		"/>
		<polygon fill="#6C706F" points="880.39,582.442 770.239,519.24 861.879,465.928 971.974,529.642 		"/>
		<polygon fill="#EAEFEF" points="880.063,581.334 771.75,519.259 860.191,467.814 968.44,530.382 		"/>
		<polygon fill="#D4DDDF" points="880,788.524 879.976,603.667 990.063,540.099 990.063,725.022 		"/>
		<polygon fill="#E4EBEC" points="879.96,788.524 879.976,603.667 733.703,518.906 733.703,704.036 		"/>
		<polygon fill="#F1F5F5" points="768.84,539.224 768.84,724.25 844.832,768.151 844.832,583.256 		"/>
		<polygon fill="#FEFEFE" points="783.991,548.002 783.991,732.889 826.624,757.52 826.624,572.704 		"/>
		<polygon fill="#7F8788" points="879.96,774.446 879.976,773.061 733.703,688.301 733.703,689.958 		"/>
		<polygon fill="#767F7F" points="989.863,709.387 879.976,773.061 880,774.446 989.863,710.979 		"/>
		<polygon fill="#767F7F" points="989.863,600.897 879.976,664.571 880,665.956 989.863,602.489 		"/>
		<path fill="#535656" d="M853.228,696.022c-3.422,27.162-26.549,36.676-51.64,21.256c-25.102-15.41-42.649-49.965-39.203-77.131
			c3.438-27.15,26.549-36.672,51.648-21.225C839.118,634.333,856.658,668.875,853.228,696.022z"/>
		<path fill="#7C8284" d="M851.739,696.329c-3.39,26.875-26.276,36.289-51.1,21.029c-24.838-15.248-42.202-49.438-38.797-76.32
			c3.405-26.863,26.271-36.285,51.108-21.002C837.773,635.288,855.131,669.465,851.739,696.329z"/>
		<path fill="#B1BCC1" d="M849.894,695.194c-3.247,25.77-25.196,34.797-48.999,20.162c-23.819-14.619-40.468-47.402-37.197-73.18
			c3.263-25.762,25.188-34.797,49.007-20.143C836.5,636.661,853.148,669.434,849.894,695.194z"/>
		<path fill="#E1EAEB" d="M838.577,688.243c-2.396,19.004-18.583,25.662-36.139,14.873c-17.564-10.787-29.844-34.969-27.432-53.977
			c2.402-19,18.574-25.67,36.146-14.857C828.699,645.069,840.98,669.243,838.577,688.243z"/>
		<path fill="#AACDD4" d="M837.129,687.352c-2.285,18.137-17.732,24.486-34.491,14.193c-16.761-10.295-28.482-33.373-26.184-51.514
			c2.302-18.133,17.731-24.496,34.5-14.178C827.706,646.147,839.422,669.219,837.129,687.352z"/>
		<path fill="#BCDADF" d="M816.286,671.725c-1.321,10.492-10.267,14.17-19.96,8.213c-9.701-5.957-16.488-19.314-15.152-29.813
			c1.329-10.496,10.258-14.176,19.959-8.203C810.835,647.877,817.613,661.229,816.286,671.725z"/>
		<path fill="#CAE2E5" d="M805.199,662.303c-0.827,6.584-6.438,8.889-12.518,5.152c-6.088-3.736-10.346-12.117-9.51-18.701
			c0.835-6.582,6.438-8.895,12.525-5.146C801.777,647.344,806.036,655.721,805.199,662.303z"/>
		<g>
			<path fill="#7F8788" d="M879.976,604.991l-146.272-84.759v60.565l45.919,26.529c10.06-2.865,22.394-0.787,35.216,7.1
				c11.618,7.139,21.766,17.938,29.477,30.273l35.646,20.588L879.976,604.991z"/>
			<path fill="#C5D3D7" d="M879.976,603.667l-146.272-84.761v60.567l45.919,26.529c10.06-2.865,22.394-0.789,35.216,7.098
				c11.618,7.139,21.766,17.938,29.477,30.273l35.646,20.588L879.976,603.667z"/>
			<polygon fill="#B5C4CA" points="779.383,545.375 733.703,518.906 733.703,579.473 779.383,605.862 			"/>
			<polygon fill="#D9E5E9" points="879.96,606.057 879.976,603.667 733.703,518.906 733.703,521.568 			"/>
			<polygon fill="#3E3F3C" points="840.192,588.999 840.192,603.571 879.96,626.542 879.976,612.053 			"/>
			<g>
				<path fill="#656F6F" d="M818.204,596.282c-0.765,6.076-5.938,8.199-11.548,4.754c-5.618-3.449-9.543-11.178-8.771-17.254
					c0.772-6.072,5.938-8.205,11.556-4.746C815.052,582.481,818.976,590.209,818.204,596.282z"/>
				<path fill="#B4BEC4" d="M808.041,581.104c-1.981-1.217-3.868-1.576-5.477-1.254l-0.016-0.035l-0.158,0.08
					c-0.78,0.184-1.488,0.506-2.085,1.018l-1.998,0.977l0.565,1.07c-0.285,0.645-0.509,1.344-0.612,2.164
					c-0.653,5.145,2.666,11.691,7.425,14.611c0.875,0.537,1.727,0.863,2.555,1.09l0.819,1.564l3.844-2.066l-0.016-0.039
					c1.345-0.879,2.3-2.408,2.577-4.576C816.11,590.567,812.792,584.022,808.041,581.104z"/>
				<path fill="#EEF4F5" d="M812.657,597.264c-0.646,5.145-5.03,6.943-9.781,4.025c-4.751-2.92-8.077-9.465-7.425-14.611
					c0.652-5.141,5.029-6.947,9.78-4.018C809.982,585.577,813.31,592.124,812.657,597.264z"/>
			</g>
			<g>
				<path fill="#A0AAAD" d="M850.449,621.059c-0.245,1.93-1.893,2.605-3.668,1.512c-1.79-1.094-3.031-3.553-2.784-5.482
					c0.238-1.926,1.886-2.607,3.66-1.504C849.44,616.678,850.689,619.129,850.449,621.059z"/>
				<path fill="#6A7374" d="M848.422,623.469c-0.59,0-1.226-0.201-1.84-0.58c-1.894-1.162-3.222-3.779-2.96-5.85
					c0.184-1.455,1.099-2.359,2.388-2.359c0.597,0,1.233,0.203,1.847,0.582c1.894,1.16,3.222,3.783,2.96,5.844
					C850.633,622.563,849.719,623.469,848.422,623.469z M846.01,615.432c-0.899,0-1.512,0.637-1.648,1.707
					c-0.222,1.795,0.948,4.09,2.611,5.109c0.501,0.307,1.003,0.469,1.449,0.469c0.898,0,1.52-0.637,1.646-1.707
					c0.23-1.793-0.938-4.086-2.61-5.107C846.965,615.596,846.465,615.432,846.01,615.432z"/>
			</g>
			<g>
				<path fill="#A0AAAD" d="M859.021,626.02c-0.247,1.926-1.886,2.604-3.669,1.51c-1.782-1.096-3.031-3.551-2.786-5.48
					c0.248-1.93,1.888-2.609,3.67-1.508C858.019,621.635,859.269,624.09,859.021,626.02z"/>
				<path fill="#6A7374" d="M857,628.428c-0.59,0-1.226-0.203-1.838-0.576c-1.895-1.162-3.231-3.785-2.969-5.85
					c0.191-1.457,1.105-2.363,2.396-2.363c0.588,0,1.225,0.201,1.846,0.584c1.894,1.162,3.223,3.779,2.96,5.846
					C859.213,627.52,858.299,628.428,857,628.428z M854.59,620.391c-0.9,0-1.513,0.637-1.648,1.707
					c-0.223,1.797,0.947,4.09,2.61,5.113c0.502,0.301,1.003,0.465,1.448,0.465c0.898,0,1.512-0.637,1.647-1.707
					c0.231-1.791-0.939-4.082-2.61-5.109C855.544,620.553,855.033,620.391,854.59,620.391z"/>
			</g>
			<g>
				<path fill="#A0AAAD" d="M867.6,630.415c-0.245,1.93-1.885,2.605-3.668,1.508c-1.783-1.09-3.033-3.551-2.785-5.477
					c0.239-1.93,1.885-2.609,3.668-1.508C866.598,626.034,867.84,628.489,867.6,630.415z"/>
				<path fill="#6A7374" d="M865.578,632.825c-0.588,0-1.225-0.203-1.846-0.58c-1.886-1.162-3.223-3.785-2.96-5.85
					c0.184-1.453,1.106-2.359,2.396-2.359c0.589,0,1.226,0.203,1.847,0.58c1.894,1.162,3.214,3.785,2.96,5.846
					C867.792,631.918,866.876,632.825,865.578,632.825z M863.168,624.784c-0.899,0-1.513,0.641-1.647,1.711
					c-0.23,1.795,0.939,4.09,2.61,5.109c0.493,0.307,0.995,0.469,1.447,0.469c0.9,0,1.513-0.637,1.648-1.707
					c0.223-1.799-0.938-4.082-2.611-5.109C864.115,624.95,863.613,624.784,863.168,624.784z"/>
			</g>
			<g>
				<path fill="#A0AAAD" d="M876.18,635.54c-0.248,1.926-1.886,2.602-3.669,1.508c-1.782-1.09-3.032-3.549-2.785-5.48
					c0.239-1.93,1.886-2.605,3.66-1.504C875.169,631.155,876.419,633.61,876.18,635.54z"/>
				<path fill="#6A7374" d="M874.158,637.95c-0.589,0-1.227-0.207-1.847-0.58c-1.894-1.162-3.222-3.785-2.96-5.846
					c0.182-1.457,1.098-2.367,2.388-2.367c0.597,0,1.233,0.203,1.846,0.588c1.895,1.158,3.224,3.781,2.962,5.842
					C876.361,637.043,875.447,637.95,874.158,637.95z M871.739,629.909c-0.899,0-1.513,0.637-1.647,1.707
					c-0.223,1.803,0.946,4.09,2.61,5.113c0.501,0.303,1.002,0.469,1.456,0.469c0.891,0,1.514-0.637,1.647-1.707
					c0.223-1.795-0.947-4.086-2.61-5.109C872.693,630.071,872.192,629.909,871.739,629.909z"/>
			</g>
			<g>
				<path fill="#A0AAAD" d="M850.449,632.893c-0.245,1.93-1.893,2.605-3.668,1.512c-1.79-1.09-3.031-3.553-2.784-5.479
					c0.238-1.93,1.886-2.607,3.66-1.504C849.44,628.512,850.689,630.963,850.449,632.893z"/>
				<path fill="#6A7374" d="M848.422,635.309c-0.59,0-1.226-0.207-1.84-0.586c-1.894-1.162-3.222-3.779-2.96-5.846
					c0.184-1.455,1.099-2.363,2.388-2.363c0.597,0,1.233,0.203,1.847,0.586c1.894,1.156,3.222,3.783,2.96,5.84
					C850.633,634.397,849.719,635.309,848.422,635.309z M846.01,627.266c-0.899,0-1.512,0.637-1.648,1.707
					c-0.222,1.799,0.948,4.09,2.611,5.109c0.501,0.307,1.003,0.473,1.449,0.473c0.898,0,1.52-0.637,1.646-1.707
					c0.23-1.797-0.938-4.09-2.61-5.107C846.965,627.43,846.465,627.266,846.01,627.266z"/>
			</g>
			<g>
				<path fill="#A0AAAD" d="M859.021,637.854c-0.247,1.926-1.886,2.604-3.669,1.51c-1.782-1.092-3.031-3.551-2.786-5.477
					c0.248-1.93,1.888-2.609,3.67-1.508C858.019,633.469,859.269,635.924,859.021,637.854z"/>
				<path fill="#6A7374" d="M857,640.266c-0.59,0-1.226-0.207-1.838-0.58c-1.895-1.162-3.231-3.785-2.969-5.846
					c0.191-1.457,1.105-2.367,2.396-2.367c0.588,0,1.225,0.201,1.846,0.588c1.894,1.158,3.223,3.781,2.96,5.842
					C859.213,639.354,858.299,640.266,857,640.266z M854.59,632.225c-0.9,0-1.513,0.637-1.648,1.707
					c-0.223,1.803,0.947,4.094,2.61,5.113c0.502,0.301,1.003,0.469,1.448,0.469c0.898,0,1.512-0.637,1.647-1.707
					c0.231-1.795-0.939-4.086-2.61-5.109C855.544,632.387,855.033,632.225,854.59,632.225z"/>
			</g>
			<g>
				<path fill="#A0AAAD" d="M867.6,642.249c-0.245,1.93-1.885,2.605-3.668,1.512s-3.033-3.555-2.785-5.48
					c0.239-1.93,1.885-2.609,3.668-1.504C866.598,637.868,867.84,640.323,867.6,642.249z"/>
				<path fill="#6A7374" d="M865.578,644.663c-0.588,0-1.225-0.207-1.846-0.584c-1.886-1.162-3.223-3.781-2.96-5.846
					c0.184-1.457,1.106-2.363,2.396-2.363c0.589,0,1.226,0.203,1.847,0.584c1.894,1.158,3.214,3.785,2.96,5.846
					C867.792,643.752,866.876,644.663,865.578,644.663z M863.168,636.622c-0.899,0-1.513,0.637-1.647,1.707
					c-0.23,1.799,0.939,4.09,2.61,5.113c0.493,0.303,0.995,0.469,1.447,0.469c0.9,0,1.513-0.641,1.648-1.711
					c0.223-1.795-0.938-4.082-2.611-5.105C864.115,636.784,863.613,636.622,863.168,636.622z"/>
			</g>
			<g>
				<path fill="#A0AAAD" d="M876.18,647.377c-0.248,1.926-1.886,2.602-3.669,1.504c-1.782-1.09-3.032-3.545-2.785-5.477
					c0.239-1.93,1.886-2.609,3.66-1.508C875.169,642.989,876.419,645.448,876.18,647.377z"/>
				<path fill="#6A7374" d="M874.158,649.784c-0.589,0-1.227-0.203-1.847-0.58c-1.894-1.158-3.222-3.785-2.96-5.846
					c0.182-1.457,1.098-2.367,2.388-2.367c0.597,0,1.233,0.207,1.846,0.588c1.895,1.158,3.224,3.781,2.962,5.842
					C876.361,648.877,875.447,649.784,874.158,649.784z M871.739,641.743c-0.899,0-1.513,0.637-1.647,1.707
					c-0.223,1.803,0.946,4.094,2.61,5.113c0.501,0.307,1.002,0.469,1.456,0.469c0.891,0,1.514-0.637,1.647-1.707
					c0.223-1.795-0.947-4.086-2.61-5.109C872.693,641.909,872.192,641.743,871.739,641.743z"/>
			</g>
		</g>
	</g>
	<polyline fill="none" stroke="#6A743C" stroke-width="0.25" stroke-linecap="round" stroke-miterlimit="10" points="
		466.393,552.936 466.393,399.818 470.722,396.309 	"/>
	<path fill="#B6C2C6" d="M472.25,501.951c0.262,0,0.518-0.067,0.756-0.199l5.412-3.056c0.73-0.413,0.995-1.345,0.573-2.081
		c-0.414-0.736-1.347-0.994-2.078-0.577l-3.136,1.767v-17.684l4.624-2.554c0.74-0.41,1.012-1.337,0.597-2.077
		c-0.405-0.744-1.337-1.011-2.076-0.598l-5.412,2.992c-0.485,0.271-0.788,0.781-0.788,1.338v21.201c0,0.545,0.294,1.046,0.755,1.32
		C471.717,501.884,471.987,501.951,472.25,501.951z"/>
	<path fill="#B6C2C6" d="M453.977,491.566c0.264,0,0.518-0.068,0.756-0.199l5.412-3.057c0.734-0.414,0.996-1.345,0.574-2.081
		c-0.414-0.735-1.345-0.995-2.077-0.577l-3.136,1.768v-17.684l4.625-2.555c0.739-0.41,1.01-1.337,0.596-2.077
		c-0.406-0.744-1.337-1.011-2.078-0.597l-5.411,2.992c-0.484,0.271-0.788,0.779-0.788,1.337v21.2c0,0.546,0.295,1.047,0.757,1.322
		C453.444,491.498,453.715,491.566,453.977,491.566z"/>
	<g>
		<polygon fill="#C0C1C1" points="485.095,387.109 558.463,429.32 641.722,381.252 568.585,338.854 		"/>
		<polygon fill="#C0C1C1" points="411.449,344.74 475.202,381.105 558.463,333.037 494.939,296.484 		"/>
		<polygon fill="#D7D9D9" points="419.598,349.363 475.25,381.105 543.286,341.799 495.4,314.248 		"/>
		<polygon fill="#CCCDCD" points="543.286,341.799 494.939,314.248 494.939,296.484 558.463,333.037 		"/>
		<polygon fill="#CCCDCD" points="626.545,389.844 568.585,356.617 568.585,338.854 641.722,381.081 		"/>
		<polygon fill="#96C3D8" points="494.239,392.37 558.463,429.32 632.609,386.664 568.585,349.547 		"/>
		<polygon fill="#8FBDD1" points="617.425,395.426 568.585,367.64 568.585,349.547 632.609,386.664 		"/>
		<polygon fill="#9CC9DC" points="509.414,400.977 568.585,367.64 568.585,349.547 494.239,392.215 		"/>
	</g>
	<polygon fill="#F6F7F6" points="576.305,339.658 635.395,373.612 647.196,366.664 588.329,332.452 	"/>
	<g>
		<path fill="#A2ADB1" d="M619.016,346.674v6.764c0,1.771-2.729,3.212-6.094,3.212c-3.375,0-6.098-1.44-6.098-3.212v-6.764H619.016z
			"/>
		<path fill="#BCC8CB" d="M606.824,346.674c0,1.774,2.723,3.207,6.098,3.207c3.364,0,6.094-1.433,6.094-3.207
			c0-1.775-2.729-3.215-6.094-3.215C609.547,343.459,606.824,344.898,606.824,346.674z"/>
		<path fill="#A2ADB1" d="M595.482,332.477v4.094c0,1.07-1.645,1.941-3.691,1.941c-2.037,0-3.685-0.871-3.685-1.941v-4.094H595.482z
			"/>
		<path fill="#BCC8CB" d="M588.106,332.477c0,1.074,1.647,1.938,3.685,1.938c2.047,0,3.691-0.863,3.691-1.938
			s-1.645-1.946-3.691-1.946C589.754,330.53,588.106,331.402,588.106,332.477z"/>
		<path fill="#A2ADB1" d="M612.922,347.855c1.288,0,2.33-1.047,2.33-2.336v-20.875c0.063-0.752,0.485-8.869-4.139-12.454
			c-1.566-1.218-4.36-2.376-8.706-0.915c-4.647,1.492-13.378,7.62-12.987,20.099c0.04,1.285,1.113,2.28,2.403,2.26
			c1.297-0.04,2.308-1.114,2.268-2.407c-0.382-12.116,9.662-15.479,9.757-15.511c2.961-0.987,4.043-0.123,4.4,0.167
			c2.261,1.743,2.451,6.928,2.342,8.604l-0.009,21.033C610.581,346.809,611.631,347.855,612.922,347.855z"/>
		<path fill="#8B9698" d="M611.934,344.334c0,0,0.127-3.586,0.302-8.969c0.048-2.694,0.112-5.834,0.168-9.196
			c0.007-1.607,0.126-3.485-0.168-5.257c-0.255-1.782-0.756-3.648-1.949-5.204c-1.187-1.592-3.334-2.368-5.188-2.104
			c-1.87,0.183-3.598,0.855-5.038,1.818c-0.756,0.414-1.424,0.938-2.053,1.488c-0.669,0.497-1.234,1.086-1.728,1.711
			c-1.122,1.126-1.782,2.475-2.451,3.672c-0.685,1.194-0.813,2.491-1.169,3.534c-0.398,1.042-0.191,2.049-0.295,2.821
			c-0.063,1.571-0.096,2.471-0.096,2.471s0.096-0.891,0.271-2.451c0.167-0.76,0.032-1.751,0.51-2.75
			c0.43-0.99,0.628-2.229,1.33-3.346c0.682-1.127,1.359-2.388,2.481-3.418c0.494-0.577,1.05-1.11,1.711-1.553
			c0.621-0.488,1.241-0.994,1.974-1.377c1.369-0.891,2.977-1.468,4.632-1.615c1.647-0.183,3.271,0.45,4.25,1.771
			c1.026,1.285,1.552,3,1.806,4.688c0.304,1.73,0.216,3.342,0.232,5.101c0.063,3.362,0.117,6.502,0.166,9.196
			C611.814,340.748,611.934,344.334,611.934,344.334z"/>
		<path fill="#DEE5E6" d="M614.09,322.09c0,0,0.151-1.209-0.119-3.027c-0.311-1.771-1.099-4.302-3.121-5.996
			c-0.492-0.426-1.049-0.74-1.637-1.004c-0.551-0.326-1.194-0.373-1.76-0.557c-1.178-0.188-2.276-0.1-3.184,0.088
			c-0.923,0.084-1.607,0.497-2.108,0.645c-0.495,0.188-0.772,0.291-0.772,0.291s1.202-0.231,2.952-0.283
			c0.876-0.088,1.879,0.056,2.905,0.251c0.485,0.19,1.051,0.239,1.496,0.553c0.493,0.243,0.955,0.529,1.36,0.911
			c1.776,1.357,2.643,3.633,3.231,5.257C613.892,320.889,614.09,322.09,614.09,322.09z"/>
		<g>
			<path fill="#A2ADB1" d="M631.096,356.705v4.768c0,1.249-1.924,2.264-4.297,2.264c-2.371,0-4.297-1.015-4.297-2.264v-4.768
				H631.096z"/>
			<ellipse fill="#BCC8CB" cx="626.799" cy="356.705" rx="4.297" ry="2.26"/>
			<path fill="#808F8E" d="M623.281,354.76c-1.191,0.787-0.501,2.16,1.561,3.079c2.054,0.903,12.765,4.906,14.555,3.351
				c1.083-0.939-8.172-5.316-10.234-6.228C627.118,354.059,624.476,353.963,623.281,354.76z"/>
			<path fill="#E7EFEF" d="M623.281,354.059c-1.191,0.788-0.501,2.161,1.561,3.08c2.054,0.903,13.362,4.847,14.555,4.051
				c1.194-0.792-8.172-6.017-10.234-6.928C627.118,353.358,624.476,353.264,623.281,354.059z"/>
		</g>
		<g>
			<path fill="#A2ADB1" d="M594.29,341.354v4.768c0,1.249,1.925,2.264,4.298,2.264c2.371,0,4.297-1.015,4.297-2.264v-4.768H594.29z"
				/>
			<ellipse fill="#BCC8CB" cx="598.587" cy="341.354" rx="4.297" ry="2.26"/>
			<path fill="#808F8E" d="M602.104,339.754c1.194,0.788,0.502,2.16-1.56,3.08c-2.053,0.902-12.765,4.906-14.556,3.35
				c-1.082-0.938,8.173-5.315,10.234-6.227C598.27,339.054,600.91,338.958,602.104,339.754z"/>
			<path fill="#E7EFEF" d="M602.104,339.054c1.194,0.788,0.502,2.161-1.56,3.079c-2.053,0.904-13.361,4.848-14.556,4.051
				c-1.192-0.791,8.173-6.016,10.234-6.928C598.27,338.354,600.91,338.258,602.104,339.054z"/>
		</g>
	</g>
	<g>
		<g>
			<path fill="#93A3A8" d="M642.063,353.9c-0.349,0-0.7-0.092-1.011-0.271c-0.637-0.361-1.026-1.038-1.026-1.766v-21.544
				c0-1.126,0.915-2.037,2.037-2.037c1.13,0,2.036,0.911,2.036,2.037v17.993l15.232-8.9c0.965-0.577,2.215-0.243,2.786,0.732
				c0.565,0.971,0.239,2.216-0.732,2.785l-18.296,10.691C642.78,353.809,642.422,353.9,642.063,353.9z"/>
			<path fill="#ACBBC4" d="M644.1,346.387v-16.067c0-1.126-0.906-2.037-2.036-2.037c-1.122,0-2.037,0.911-2.037,2.037v16.067H644.1z
				"/>
			<path fill="#94A5AD" d="M647.061,346.586l-2.961,1.727v-1.52h-4.073v5.07c0,0.728,0.39,1.404,1.026,1.766
				c0.311,0.18,0.662,0.271,1.011,0.271c0.358,0,0.717-0.092,1.026-0.279l3.971-2.319V346.586z"/>
			<path fill="#DEB15F" d="M642.771,351.691c-0.143,1.135-1.107,1.532-2.156,0.887c-1.051-0.641-1.783-2.084-1.64-3.223
				c0.144-1.134,1.114-1.531,2.165-0.883C642.182,349.113,642.914,350.558,642.771,351.691z"/>
			<path fill="#E6B436" d="M643.544,352.157c-0.104,0.784-2.252,0.23-2.978-0.215c-0.724-0.442-2.713-2.265-2.609-3.048
				c0.096-0.784,2.244-0.235,2.969,0.215C641.648,349.551,643.64,351.373,643.544,352.157z"/>
		</g>
		<g>
			<path fill="#A2B0B6" d="M650.094,359.244c-0.351,0-0.7-0.092-1.019-0.271c-0.63-0.361-1.02-1.038-1.02-1.766v-21.543
				c0-1.127,0.909-2.038,2.038-2.038c1.121,0,2.037,0.911,2.037,2.038v17.993l15.224-8.901c0.962-0.577,2.221-0.242,2.785,0.732
				c0.573,0.971,0.239,2.217-0.731,2.785l-18.288,10.691C650.802,359.152,650.443,359.244,650.094,359.244z"/>
			<path fill="#ACBBC4" d="M652.131,351.731v-16.067c0-1.127-0.916-2.038-2.037-2.038c-1.129,0-2.038,0.911-2.038,2.038v16.067
				H652.131z"/>
			<path fill="#94A5AD" d="M655.082,351.93l-2.951,1.728v-1.521h-4.075v5.07c0,0.728,0.39,1.404,1.02,1.766
				c0.318,0.18,0.668,0.271,1.019,0.271c0.35,0,0.708-0.092,1.026-0.279l3.962-2.319V351.93z"/>
			<path fill="#DEB15F" d="M650.802,357.035c-0.144,1.135-1.114,1.532-2.157,0.888c-1.05-0.641-1.783-2.085-1.639-3.224
				c0.143-1.134,1.106-1.531,2.156-0.883C650.213,354.457,650.944,355.901,650.802,357.035z"/>
			<path fill="#E6B436" d="M651.564,357.501c-0.095,0.784-2.252,0.231-2.975-0.215c-0.725-0.442-2.707-2.265-2.61-3.048
				c0.095-0.784,2.244-0.234,2.968,0.215C649.672,354.895,651.669,356.717,651.564,357.501z"/>
		</g>
		<g>
			<path fill="#ACBBC4" d="M660.232,365.156c-0.352,0-0.701-0.091-1.011-0.27c-0.637-0.362-1.028-1.039-1.028-1.768v-21.543
				c0-1.126,0.917-2.037,2.039-2.037c1.129,0,2.037,0.911,2.037,2.037v17.994l15.232-8.901c0.963-0.577,2.213-0.243,2.785,0.731
				c0.565,0.972,0.239,2.217-0.732,2.786l-18.296,10.692C660.948,365.065,660.591,365.156,660.232,365.156z"/>
			<path fill="#ACBBC4" d="M662.27,357.645v-16.068c0-1.126-0.908-2.037-2.037-2.037c-1.122,0-2.039,0.911-2.039,2.037v16.068
				H662.27z"/>
			<path fill="#94A5AD" d="M665.229,357.844l-2.959,1.727v-1.52h-4.076v5.068c0,0.729,0.392,1.405,1.028,1.768
				c0.31,0.179,0.659,0.27,1.011,0.27c0.358,0,0.716-0.091,1.026-0.277l3.97-2.32V357.844z"/>
			<path fill="#DEB15F" d="M660.94,362.948c-0.142,1.134-1.106,1.532-2.157,0.888c-1.051-0.641-1.782-2.086-1.639-3.223
				c0.144-1.135,1.114-1.533,2.165-0.884C660.352,360.37,661.084,361.814,660.94,362.948z"/>
			<path fill="#E6B436" d="M661.713,363.414c-0.104,0.783-2.253,0.23-2.977-0.215c-0.725-0.441-2.714-2.264-2.61-3.049
				c0.096-0.783,2.244-0.234,2.969,0.216C659.818,360.808,661.808,362.63,661.713,363.414z"/>
		</g>
		<path fill="#7F7F7F" d="M694.931,321.673c0,0-28.689-2.726-45.8-12.471c-16.824-9.585-22.068-26.194-22.068-26.194v27.794
			c0,0,5.507,16.339,22.068,25.776c22.546,13.541,45.8,12.893,45.8,12.893v0.004l16.76-9.669v-27.798L694.931,321.673z"/>
		<path fill="#9B9B9B" d="M695.894,316.734c0,0-29.772-2.824-47.52-12.936c-17.46-9.948-22.903-6.021-22.903-6.021v7.68
			c0,0,5.714,16.951,22.903,26.743c23.39,14.051,47.52,13.379,47.52,13.379v0.004l17.388-10.031v-28.846L695.894,316.734z"/>
		<path fill="#EFF0EF" d="M696.848,341.596c0,0-25.084,0.701-49.404-13.906c-17.874-10.183-23.813-27.803-23.813-27.803V172.459
			c0,0,5.659,17.918,23.813,28.26c18.455,10.514,49.404,13.45,49.404,13.45V341.596z"/>
		<polygon fill="#DEE0DF" points="714.93,331.171 696.848,341.601 696.848,214.169 714.93,203.739 		"/>
		<path fill="#9B9B9B" d="M696.848,218.9c0,0-25.084,0.699-49.404-13.908c-17.874-10.182-23.813-27.802-23.813-27.802v-4.731
			c0,0,5.659,17.918,23.813,28.26c18.455,10.514,49.404,13.45,49.404,13.45V218.9z"/>
		<polygon fill="#878787" points="714.93,208.475 696.848,218.904 696.848,214.169 714.93,203.739 		"/>
		<path fill="#AAAAAA" d="M714.93,203.739l-73.638-41.538l-17.661,10.258c0,0,4.243,35.359,73.217,41.71L714.93,203.739z"/>
		<path fill="#898989" d="M692.799,208.229c0,0-20.551,0.572-40.478-11.393c-14.643-8.345-19.507-22.781-19.507-22.781v-3.875
			c0,0,4.642,14.683,19.507,23.154c15.121,8.611,40.478,11.018,40.478,11.018V208.229z"/>
		<polygon fill="#777777" points="707.615,199.688 692.799,208.232 692.799,204.352 707.615,195.809 		"/>
		<path fill="#BABABA" d="M707.615,195.809l-60.332-34.033l-14.469,8.404c0,0,3.479,28.968,59.984,34.172L707.615,195.809z"/>
		<path fill="#C6C7C7" d="M654.184,328.704c-1.178,0-2.436-0.274-3.716-0.815c-5.182-2.186-9.391-8.189-9.391-13.383V214.264
			c0-3.911,2.435-6.541,6.063-6.541c1.187,0,2.436,0.274,3.725,0.815c5.173,2.185,9.391,8.185,9.391,13.382v100.246
			C660.256,326.078,657.813,328.704,654.184,328.704z M647.141,208.741c-3.063,0-5.046,2.169-5.046,5.522v100.242
			c0,4.823,3.932,10.402,8.771,12.443c1.154,0.489,2.276,0.736,3.318,0.736c3.072,0,5.054-2.165,5.054-5.52V221.92
			c0-4.822-3.938-10.405-8.77-12.442C649.306,208.988,648.191,208.741,647.141,208.741z"/>
		<path fill="#98C1DC" d="M655.903,319.106c0,3.163-2.571,4.647-5.724,3.318l0,0c-3.174-1.341-5.736-4.981-5.736-8.149v-14.914
			c0-3.158,2.563-4.643,5.736-3.311l0,0c3.152,1.33,5.724,4.982,5.724,8.146V319.106z"/>
		<polygon fill="#393A36" points="652.783,302.184 647.555,299.191 647.555,316.285 652.783,319.277 		"/>
		<polygon fill="#C36044" points="652.783,302.184 647.555,299.191 647.555,302.879 652.783,305.871 		"/>
		<path fill="#FFFFFF" d="M657.645,225.159c0,1.257-1.018,1.687-2.274,0.955l-9.407-5.456c-1.257-0.728-2.276-2.34-2.276-3.597l0,0
			c0-1.257,1.02-1.687,2.276-0.955l9.407,5.456C656.627,222.29,657.645,223.902,657.645,225.159L657.645,225.159z"/>
		<path fill="#878787" d="M689.392,146.592c-1.321-2.436-3.199-3.745-5.086-3.916v-0.061h-14.778c0,0-9.502,1.111-9.502,17.919
			v20.245l0.111,0.024c-0.256,1.222-0.024,2.575,0.812,3.927c2.292,3.732,8.174,6.033,13.13,5.146
			c3.503-0.62,5.532-2.698,5.644-5.165l0.08,0.016V170.18v-5.802c0,0,0.048-2.403,4.504-1.659v-0.064
			c1.544,0.136,3.096-0.48,4.354-1.993C691.469,157.303,691.811,151,689.392,146.592z"/>
		<path fill="#777777" d="M668.031,151.911v35.41c1.641,0.378,3.358,0.474,4.966,0.183c3.199-0.564,5.046-2.459,5.149-4.707
			l0.071,0.012v-20.03c0,0,1.25-2.188,5.309-1.513v-0.055c1.408,0.123,2.825-0.442,3.971-1.818c1.615-1.926,2.332-4.915,2.094-7.867
			C682.794,151.557,674.819,151.828,668.031,151.911z"/>
		<path fill="#5E5E5E" d="M670.594,169.192c7.378,0,10.242-1.989,10.242-1.989v-1.887c0,0,0.063-1.253,1.72-1.75
			c0,0,3.119-2.24,3.119-11.373c0-9.641-3.119-10.059-3.119-10.059h-12.925c0,0-10.354,0.672-10.354,18.992v6.076
			C659.277,167.203,662.118,169.192,670.594,169.192z"/>
		<path fill="#939393" d="M662.063,165.456c0,0-0.326-2.05-0.573-5.125c-0.056-0.776-0.11-1.611-0.167-2.499
			c-0.048-0.915-0.023-1.882,0.088-2.877c0.223-1.985,0.787-4.106,1.822-6.057c0.525-0.971,1.194-1.873,1.949-2.67
			c0.757-0.819,1.688-1.404,2.587-1.941c1.903-0.907,3.836-1.213,5.428-1.15c1.607-0.043,2.841,0.256,3.756,0.307
			c0.892,0.127,1.409,0.199,1.409,0.199s-0.518,0.072-1.409,0.199c-0.883,0.111-2.22,0.219-3.685,0.441
			c-0.731,0.088-1.52,0.211-2.292,0.518c-0.812,0.191-1.535,0.68-2.323,1.051c-0.725,0.492-1.417,1.054-2.039,1.73
			c-0.611,0.676-1.152,1.444-1.59,2.283c-0.924,1.66-1.473,3.551-1.839,5.356c-0.143,0.911-0.319,1.795-0.382,2.642
			c-0.063,0.876-0.119,1.703-0.174,2.468C662.389,163.406,662.063,165.456,662.063,165.456z"/>
	</g>
	<g>
		<g>
			<path fill="#BBC9CF" d="M238.682,766.198c-0.699,0-1.392-0.18-2.021-0.537c-1.265-0.729-2.053-2.078-2.053-3.537V611.715
				c0-2.252,1.822-4.074,4.073-4.074c2.254,0,4.076,1.822,4.076,4.074v143.293l46.523-27.309l0.494-147.957
				c0.008-2.248,1.83-4.063,4.074-4.063h0.008c2.253,0.008,4.074,1.84,4.067,4.088l-0.502,150.279c0,1.439-0.764,2.773-2.014,3.502
				l-54.665,32.088C240.107,766.01,239.398,766.198,238.682,766.198z"/>
			<path fill="#9CA8AD" d="M238.682,722.249c-0.69,0-1.376-0.359-1.757-1.008c-0.565-0.971-0.239-2.215,0.731-2.789l54.665-32.088
				c0.955-0.557,2.213-0.254,2.786,0.729c0.572,0.971,0.246,2.217-0.725,2.789l-54.665,32.088
				C239.392,722.157,239.041,722.249,238.682,722.249z"/>
		</g>
		<path fill="#969F69" d="M421.777,656.417v6.455c0,0-0.182,11.941-13.368,19.545c-14.247,8.225-41.574,12.16-41.574,12.16
			l-73.534-21.229L54.935,535.921v-6.455L421.777,656.417z"/>
		<path fill="#BECC8A" d="M385.067,613.993l36.71,42.424c0,0-0.182,11.941-13.368,19.547c-14.247,8.225-41.574,12.16-41.574,12.16
			l-73.534-21.229L54.935,529.466l92.021-53.078L385.067,613.993z"/>
		<polygon fill="#969F69" points="54.935,529.466 146.748,476.434 146.748,455.359 54.935,508.394 		"/>
		<g>
			<path fill="#393A36" d="M414.044,699.428c-2.635,0-5.204-1.688-6.964-4.588c-5.292-8.758,1.099-23.48,1.376-24.105
				c2.372-8.814-2.616-14.023-3.741-15.063l-8.498,3.527l-0.39-0.939l9.064-3.766l0.239,0.188c0.071,0.057,7.138,5.822,4.279,16.391
				c-0.086,0.223-6.477,14.934-1.455,23.242c1.647,2.721,4.067,4.262,6.446,4.082c1.495-0.104,2.722-0.924,3.263-2.188
				c0.867-2.021-0.016-4.855-2.427-7.771c-0.073-0.088-7.179-8.898-1.075-21.727c0.024-0.047,2.516-5.73-0.071-9.717
				c-1.743-2.693-5.403-4.059-10.878-4.059c-0.009,0-0.017,0-0.017,0l-0.008-1.02c0,0,0.016,0,0.024,0
				c5.841,0,9.796,1.525,11.736,4.529c2.891,4.457,0.256,10.441,0.145,10.691c-5.825,12.236,0.859,20.568,0.931,20.648
				c2.657,3.223,3.598,6.438,2.579,8.824c-0.7,1.625-2.244,2.67-4.139,2.803C414.33,699.424,414.187,699.428,414.044,699.428z"/>
			<path fill="#F1F2F1" d="M403.141,615.778c0,0-7.282-18.221-19.92-28.533l-6.256,60.518l6.256,21.994l16.609-7.912l2.156-7.623
				c0,0,0.907-2.152,2.563-2.734C404.549,651.487,412.094,638.483,403.141,615.778z M401.326,640.051
				c-3.732,1.572-3.646,5.467-3.646,5.467c-0.5,1.576-3.731,3.18-3.731,3.18l1.681-34.746
				C405.297,622.801,401.326,640.051,401.326,640.051z"/>
			<polygon fill="#D7D9D9" points="368.435,662.573 368.435,657.333 384.335,662.573 383.221,669.756 			"/>
			<path fill="#D8AC69" d="M388.067,652.143c0,0,4.887-26.012,3.813-38.602c0,0-0.996-6.461,3.644-2.736
				c0,0,9.661,7.639,7.29,28.252c0,0-0.661,3.063-2.484,1.492c0,0,2.818-12.674-3.23-23.361c0,0,0.741,15.49-2.816,31.311
				L388.067,652.143z"/>
			<path fill="#909090" d="M398.596,606.563c0,0-7.059-1.477-4.647-7.107C393.948,599.456,397.769,605.059,398.596,606.563z"/>
			<path fill="#606160" d="M383.961,660.262l0.135-0.479c0.104-0.357,10.004-36.098,1.744-67.889
				c-0.041-0.131,0.039-0.27,0.175-0.301c0.134-0.037,0.271,0.043,0.302,0.178c7.775,29.92-0.461,63.301-1.615,67.67l13.688-5.328
				l0.954-3.525c0.16-3.115,2.03-4.17,2.109-4.215c2.65-1.094,2.683-5.613,2.683-5.662c1.472-20.715-6.741-32.131-6.821-32.246
				c-0.087-0.111-0.063-0.264,0.047-0.346c0.112-0.084,0.265-0.057,0.352,0.051c0.088,0.115,8.404,11.666,6.924,32.557
				c0,0.184-0.041,4.887-2.969,6.096c-0.048,0.025-1.688,0.969-1.838,3.842l-1.026,3.818l-0.12,0.045L383.961,660.262z"/>
			<path fill="#606160" d="M384.924,667.321l1.408-8.385c0.016-0.131,0.144-0.227,0.287-0.203c0.137,0.023,0.223,0.148,0.207,0.287
				l-1.249,7.445l13.321-6.264c0.12-0.057,0.271-0.004,0.327,0.123c0.055,0.127,0.007,0.271-0.12,0.326L384.924,667.321z"/>
			<path fill="#818181" d="M383.221,587.245c0,0,12.964,24.416-1.146,76.271c0,0-7.704,0.744-15.662-5.838
				C366.413,657.678,370.672,597.678,383.221,587.245z"/>
			<path fill="#A8A7A7" d="M382.6,587.245c0,0,10.066,24.602-2.856,75.305c0,0-7.703,0.744-15.662-5.842
				C364.081,656.708,370.049,597.678,382.6,587.245z"/>
			<path fill="#4D4E4C" d="M384.287,613.153c0.344,0.826,0.335,1.611-0.023,1.762c-0.367,0.152-0.932-0.393-1.273-1.217
				c-0.343-0.824-0.334-1.611,0.024-1.764C383.372,611.784,383.938,612.329,384.287,613.153z"/>
			<path fill="#4D4E4C" d="M383.817,619.583c0.343,0.824,0.335,1.611-0.023,1.764c-0.358,0.15-0.933-0.391-1.273-1.219
				c-0.342-0.82-0.327-1.611,0.032-1.762C382.902,618.217,383.476,618.758,383.817,619.583z"/>
			<path fill="#4D4E4C" d="M383.261,625.766c0.342,0.828,0.334,1.611-0.023,1.764c-0.358,0.15-0.925-0.398-1.272-1.219
				c-0.344-0.828-0.334-1.611,0.022-1.762C382.354,624.397,382.919,624.942,383.261,625.766z"/>
			<path fill="#4D4E4C" d="M382.672,632.141c0.343,0.824,0.334,1.615-0.024,1.762c-0.357,0.152-0.931-0.396-1.282-1.221
				c-0.341-0.82-0.325-1.607,0.033-1.764C381.757,630.772,382.329,631.317,382.672,632.141z"/>
			<path fill="#4D4E4C" d="M381.956,638.292c0.343,0.828,0.334,1.613-0.024,1.764s-0.931-0.395-1.273-1.217
				c-0.342-0.824-0.326-1.613,0.023-1.764C381.04,636.924,381.613,637.465,381.956,638.292z"/>
			<path fill="#4D4E4C" d="M381.057,644.413c0.35,0.824,0.334,1.611-0.025,1.762c-0.356,0.152-0.93-0.393-1.272-1.217
				s-0.334-1.611,0.024-1.768C380.148,643.043,380.715,643.588,381.057,644.413z"/>
			<path fill="#4D4E4C" d="M380.372,650.624c0.35,0.828,0.334,1.615-0.024,1.764c-0.357,0.154-0.932-0.395-1.272-1.215
				c-0.343-0.822-0.335-1.611,0.022-1.766C379.465,649.254,380.029,649.799,380.372,650.624z"/>
			<path fill="#4D4E4C" d="M384.09,606.659c0.341,0.828,0.333,1.615-0.025,1.762c-0.358,0.156-0.932-0.393-1.273-1.213
				c-0.342-0.824-0.334-1.611,0.023-1.768C383.173,605.29,383.746,605.834,384.09,606.659z"/>
			<path fill="#4D4E4C" d="M383.777,600.229c0.343,0.822,0.335,1.611-0.023,1.762s-0.931-0.395-1.273-1.217
				c-0.342-0.824-0.334-1.611,0.025-1.764C382.861,598.864,383.428,599.405,383.777,600.229z"/>
			<path fill="#4D4E4C" d="M373.582,611.079c-0.556,0.629-0.778,1.33-0.508,1.568c0.278,0.242,0.938-0.072,1.496-0.701
				c0.549-0.627,0.772-1.332,0.501-1.57C374.793,610.135,374.125,610.45,373.582,611.079z"/>
			<path fill="#4D4E4C" d="M372.078,616.917c-0.549,0.633-0.771,1.334-0.492,1.572c0.271,0.242,0.939-0.072,1.488-0.705
				c0.549-0.625,0.772-1.328,0.501-1.563C373.297,615.977,372.629,616.288,372.078,616.917z"/>
			<path fill="#4D4E4C" d="M371.148,623.036c-0.551,0.629-0.772,1.33-0.501,1.572c0.269,0.238,0.938-0.072,1.488-0.699
				c0.549-0.629,0.778-1.334,0.501-1.572C372.365,622.094,371.697,622.413,371.148,623.036z"/>
			<path fill="#4D4E4C" d="M369.62,629.387c-0.549,0.633-0.772,1.332-0.501,1.572c0.271,0.234,0.938-0.076,1.496-0.705
				c0.549-0.629,0.771-1.332,0.493-1.572C370.838,628.444,370.169,628.762,369.62,629.387z"/>
			<path fill="#4D4E4C" d="M368.427,635.057c-0.548,0.625-0.772,1.33-0.502,1.564c0.279,0.242,0.939-0.072,1.497-0.701
				c0.549-0.625,0.771-1.324,0.492-1.57C369.645,634.11,368.976,634.428,368.427,635.057z"/>
			<path fill="#4D4E4C" d="M367.806,640.934c-0.549,0.629-0.771,1.33-0.493,1.564c0.27,0.242,0.938-0.072,1.488-0.697
				c0.549-0.627,0.771-1.332,0.501-1.574C369.023,639.987,368.363,640.309,367.806,640.934z"/>
			<path fill="#4D4E4C" d="M367.232,646.887c-0.549,0.633-0.779,1.334-0.501,1.576c0.271,0.238,0.931-0.08,1.488-0.705
				c0.549-0.629,0.771-1.328,0.501-1.57C368.449,645.948,367.781,646.262,367.232,646.887z"/>
			<path fill="#4D4E4C" d="M375.374,605.079c-0.549,0.633-0.771,1.328-0.493,1.568c0.271,0.242,0.938-0.068,1.488-0.697
				c0.549-0.625,0.764-1.332,0.492-1.576C376.592,604.135,375.923,604.45,375.374,605.079z"/>
			<path fill="#4D4E4C" d="M377.563,599.471c-0.549,0.625-0.771,1.33-0.502,1.568c0.271,0.238,0.94-0.076,1.488-0.699
				c0.549-0.629,0.78-1.334,0.502-1.576C378.78,598.53,378.112,598.844,377.563,599.471z"/>
		</g>
		<g>
			<polygon fill="#694338" points="286.528,624.584 302.58,610.292 263.506,602.938 			"/>
			<polygon fill="#905F4E" points="323.486,598.5 146.049,497.754 118.728,515.871 255.682,599.09 253.804,600.276 211.896,600.28 
				189.063,607.319 189.063,654.938 196.791,661.84 196.791,667.639 211.761,674.985 211.761,627.649 215.516,623.053 
				260.139,633.768 272.299,640.971 293.73,623.188 272.322,608.155 303.679,614.934 			"/>
			<polygon fill="#7E4F41" points="198.256,665.526 198.256,622.495 195.573,658.637 			"/>
			<polygon fill="#BB8980" points="188.251,652.717 196.17,659.112 198.112,661.717 198.112,663.985 212.731,671.502 
				212.731,678.334 194.633,669.553 193.385,666.631 188.251,660.782 			"/>
			<path fill="#7E4F41" d="M267.963,586.055c0,0-7.976-4.473-19.937-11.182c-5.931-3.43-12.862-7.434-20.278-11.719
				c-7.377-4.354-15.248-8.998-23.126-13.641c-7.815-4.731-15.64-9.464-22.968-13.896c-7.298-4.5-14.103-8.703-19.936-12.299
				c-11.571-7.354-19.291-12.256-19.291-12.256s7.975,4.473,19.936,11.176c5.936,3.432,12.86,7.434,20.277,11.719
				c7.386,4.357,15.256,9.002,23.127,13.642c7.823,4.734,15.638,9.463,22.968,13.898c7.289,4.502,14.103,8.699,19.937,12.305
				C260.242,581.149,267.963,586.055,267.963,586.055z"/>
			<polygon fill="#7F5143" points="293.73,623.188 272.322,608.155 266.615,605.922 290.746,625.663 			"/>
			<path fill="#87544A" d="M277.894,630.987c0,0-16.132-10.119-24.313,1.205l6.558,1.576l9.088,5.385L277.894,630.987z"/>
			<polygon fill="#7B5145" points="272.299,640.971 293.73,623.188 288.256,619.34 267.963,638.405 			"/>
			<path fill="#87544A" d="M318.329,595.573l-18.885-10.721c0,0,2.578,16.49,11.683,18.086L318.329,595.573z"/>
			<polygon fill="#7B5145" points="303.679,614.934 323.486,598.5 315.766,594.116 296.723,613.426 			"/>
			<path fill="#989796" d="M303.885,612.006c0,0.795-0.708,1.439-1.575,1.439c-0.876,0-1.584-0.645-1.584-1.439
				s0.708-1.441,1.584-1.441C303.177,610.565,303.885,611.211,303.885,612.006z"/>
			<path fill="#7E4F41" d="M255.34,613.145c-3.375,0.004-6.742-0.072-10.099-0.268c-3.36-0.146-6.71-0.357-10.06-0.629
				c-6.686-0.564-13.37-1.244-20.023-2.195l0.55-0.148c-3.438,2.232-6.916,4.418-10.515,6.432c3.105-2.715,6.32-5.262,9.575-7.764
				l0.207-0.164l0.342,0.016c6.717,0.348,13.402,0.977,20.079,1.711c3.326,0.383,6.661,0.82,9.986,1.326
				C248.71,611.918,252.029,612.489,255.34,613.145z"/>
			<polygon fill="#976456" points="312.113,607.932 304.721,604.526 306.297,602.938 313.889,606.463 			"/>
			<polygon fill="#976456" points="285.971,630.151 280.178,626.745 281.753,625.157 287.745,628.682 			"/>
			<polygon fill="#976456" points="276.118,639.153 270.325,635.743 271.909,634.155 277.894,637.68 			"/>
			<polygon fill="#976456" points="321.043,601.012 313.148,596.268 314.724,594.682 322.817,599.54 			"/>
		</g>
	</g>
	<g>
		<path fill="#BAC7CD" d="M424.246,89.59c0,11.086-7.967,23.1-17.803,26.775c-9.805,3.697-17.787-2.292-17.787-13.401
			c0-11.09,7.982-23.091,17.787-26.771C416.279,72.492,424.246,78.504,424.246,89.59z"/>
		<path fill="#FFFFFF" d="M424.651,90.207c0,10.839-7.799,22.585-17.42,26.182c-9.583,3.617-17.389-2.24-17.389-13.106
			c0-10.843,7.806-22.577,17.389-26.179C416.853,73.482,424.651,79.363,424.651,90.207z"/>
		<path fill="#DFE9EB" d="M421.651,96.414c0,5.754-3.056,16.971-8.508,17.238c-3.216,0.154-14.347-7.211-9.669-17.365
			c5.229-11.349,19.307-5.205,20.986-3.18C425.535,94.408,421.651,94.162,421.651,96.414z"/>
		<path fill="#BAC7CD" d="M427.175,99.467c0,5.753-4.139,11.988-9.248,13.898c-5.085,1.918-9.224-1.189-9.224-6.959
			c0-5.754,4.139-11.982,9.224-13.896C423.036,90.589,427.175,93.713,427.175,99.467z"/>
		<path fill="#D6AB3F" d="M464.403,131.231c-0.764,0-1.536-0.235-2.308-0.688l-39.33-23.027c-2.093-1.213-3.653-3.812-3.629-6.036
			c0.023-2.853,2.921-4.405,5.619-2.833l39.329,23.035c2.093,1.229,3.652,3.828,3.621,6.045
			C467.682,129.787,466.321,131.231,464.403,131.231z M423.076,102.096c0.247,0.793,0.867,1.684,1.615,2.121l39.067,22.877
			c-0.247-0.789-0.867-1.684-1.607-2.117L423.076,102.096z"/>
		<path fill="#E6C25C" d="M461.299,127.487c-0.764,0-1.535-0.235-2.308-0.688l-39.329-23.027c-2.093-1.213-3.646-3.813-3.629-6.036
			c0.023-2.853,2.921-4.401,5.618-2.833l39.329,23.035c2.094,1.229,3.652,3.828,3.622,6.044
			C464.578,126.043,463.218,127.487,461.299,127.487z M419.98,98.352c0.238,0.792,0.859,1.684,1.607,2.121l39.067,22.876
			c-0.247-0.788-0.868-1.683-1.606-2.116L419.98,98.352z"/>
		<path fill="#E6C25C" d="M459.277,139.066c-0.763,0-1.535-0.234-2.308-0.688l-39.329-23.022c-2.092-1.219-3.646-3.816-3.629-6.041
			c0.023-2.854,2.92-4.4,5.619-2.833l39.329,23.035c2.093,1.229,3.652,3.831,3.621,6.044
			C462.557,137.622,461.196,139.066,459.277,139.066z M417.959,109.932c0.238,0.791,0.859,1.683,1.607,2.121l39.066,22.875
			c-0.246-0.783-0.867-1.683-1.606-2.113L417.959,109.932z"/>
		<path fill="#F2D982" d="M455.753,134.498c-0.765,0-1.544-0.234-2.316-0.688l-39.321-23.027c-2.093-1.214-3.652-3.813-3.629-6.041
			c0.023-2.854,2.921-4.4,5.609-2.833l39.331,23.039c2.101,1.229,3.661,3.828,3.629,6.044
			C459.031,133.054,457.662,134.498,455.753,134.498z M414.425,105.359c0.247,0.791,0.86,1.684,1.616,2.125l39.067,22.875
			c-0.247-0.787-0.876-1.683-1.607-2.116L414.425,105.359z"/>
	</g>
	<g>
		<g>
			<path fill="#865698" d="M298.593,338.154c0,0,9.701,2.71,44.495,23.935c0,0-4.426,32.092-24.123,28.354
				C318.965,390.443,302.666,375.51,298.593,338.154z"/>
			<path fill="#393A36" d="M356.091,380.791l-68.536-37.799v-10.273l29.318,4.524l15.231,7.684l23.986,25.929V380.791z
				 M289.592,341.791l64.462,35.546v-5.687l-23.317-25.203l-14.628-7.311l-26.517-4.047V341.791z"/>
			<path fill="#986AA3" d="M285.008,331.473l18.464,2.432c0,0,7.606,47.746,16.68,52.975c9.271,5.336,20.008-34.181,20.008-34.181
				l18.025,19.744V479.41l-73.177-42.107V331.473z"/>
			<polygon fill="#393A36" points="338.758,356.932 303.79,338.254 304.266,337.354 339.235,356.033 			"/>
			<path fill="#393A36" d="M323.686,342.802c-0.558,0-1.02-0.458-1.02-1.019v-11.615c0-0.227,0.049-2.264,1.544-3.37
				c0.954-0.716,2.213-0.839,3.749-0.374c1.773,0.541,4.759,2.232,4.759,7.48c0,0.562-0.454,1.02-1.019,1.02
				c-0.558,0-1.02-0.458-1.02-1.02c0-3.736-1.799-5.069-3.31-5.531c-0.876-0.266-1.528-0.242-1.942,0.057
				c-0.581,0.426-0.715,1.404-0.724,1.742v11.611C324.704,342.344,324.25,342.802,323.686,342.802z"/>
			<path fill="#835B93" d="M285.008,331.473l6.709,30.365v96.574c0,0-5.777-7.696-6.709-7.951c-0.931-0.254-6.533-4.074-6.533-4.074
				V344.521L285.008,331.473z"/>
			<polygon fill="#835B93" points="358.185,372.442 358.185,490.698 351.563,483.85 345.96,481.785 345.96,392.652 			"/>
		</g>
		<polygon fill="#E9C284" points="256.923,242.688 146.748,306.321 146.748,263.991 256.923,200.357 		"/>
		<path fill="#CB8E24" d="M403.992,329.838c-0.7,0-1.385-0.366-1.76-1.019l-35.971-62.262l-34.618,19.391
			c-0.964,0.537-2.188,0.206-2.754-0.753l-35.605-60.896l-34.952,20.207c-0.963,0.564-2.221,0.227-2.785-0.744
			c-0.566-0.975-0.232-2.221,0.748-2.781l36.703-21.221c0.963-0.569,2.212-0.235,2.777,0.735l35.621,60.921l34.635-19.398
			c0.963-0.541,2.204-0.207,2.753,0.76l36.975,64.004c0.564,0.976,0.23,2.221-0.748,2.782
			C404.692,329.75,404.343,329.838,403.992,329.838z"/>
		<path fill="#DCA138" d="M367.383,308.358c-0.699,0-1.385-0.366-1.758-1.019l-35.716-61.768l-34.778,20.237
			c-0.47,0.267-1.026,0.339-1.543,0.207c-0.527-0.14-0.973-0.481-1.242-0.951l-36.799-63.606c-0.566-0.971-0.232-2.221,0.748-2.781
			c0.955-0.568,2.212-0.234,2.777,0.744l35.771,61.836l34.778-20.238c0.47-0.267,1.019-0.342,1.552-0.207
			c0.525,0.14,0.971,0.482,1.24,0.951l35.717,61.776l34.843-20.118c0.979-0.569,2.229-0.235,2.785,0.744
			c0.564,0.975,0.23,2.22-0.748,2.781l-36.608,21.137C368.085,308.271,367.734,308.358,367.383,308.358z"/>
		<path fill="#B4B3B3" d="M256.485,372.156c-0.533,0-1.042-0.275-1.328-0.764c-0.422-0.732-0.168-1.668,0.564-2.09l110.564-63.662
			c0.74-0.426,1.663-0.167,2.085,0.561c0.422,0.732,0.167,1.668-0.559,2.09L257.25,371.953
			C257.003,372.092,256.74,372.156,256.485,372.156z"/>
		<path fill="#D1D2D3" d="M293.428,349.754c-0.351,0-0.692-0.184-0.884-0.51c-0.278-0.489-0.112-1.11,0.375-1.393l110.563-63.662
			c0.493-0.279,1.107-0.115,1.394,0.374c0.278,0.489,0.111,1.11-0.375,1.393l-110.563,63.662
			C293.777,349.709,293.603,349.754,293.428,349.754z"/>
		<path fill="#B4B3B3" d="M293.428,392.867c-0.525,0-1.042-0.274-1.321-0.764c-0.422-0.732-0.167-1.668,0.558-2.09l110.563-63.662
			c0.74-0.422,1.671-0.166,2.094,0.562c0.422,0.732,0.167,1.667-0.565,2.089l-110.563,63.662
			C293.953,392.804,293.69,392.867,293.428,392.867z"/>
		<path fill="#B4B3B3" d="M184.264,328.986c-0.524,0-1.042-0.274-1.32-0.764c-0.422-0.732-0.167-1.668,0.558-2.09l110.563-63.662
			c0.74-0.426,1.671-0.166,2.093,0.562c0.421,0.732,0.168,1.667-0.564,2.089l-110.564,63.662
			C184.79,328.923,184.527,328.986,184.264,328.986z"/>
		<path fill="#B4B3B3" d="M220.896,349.204c-0.525,0-1.043-0.274-1.321-0.764c-0.422-0.732-0.167-1.667,0.556-2.089l110.565-63.662
			c0.74-0.426,1.672-0.168,2.094,0.561c0.421,0.732,0.166,1.668-0.565,2.09L221.66,349.002
			C221.422,349.141,221.159,349.204,220.896,349.204z"/>
		<path fill="#D1D2D3" d="M256.923,328.477c-0.35,0-0.691-0.183-0.883-0.509c-0.278-0.489-0.112-1.11,0.374-1.393l110.564-63.662
			c0.486-0.278,1.098-0.12,1.393,0.374c0.277,0.489,0.111,1.109-0.374,1.393l-110.565,63.662
			C257.266,328.434,257.098,328.477,256.923,328.477z"/>
		<path fill="#D1D2D3" d="M220.085,307.102c-0.351,0-0.693-0.184-0.884-0.51c-0.278-0.489-0.111-1.11,0.374-1.393l110.564-63.662
			c0.493-0.279,1.105-0.115,1.392,0.374c0.279,0.489,0.112,1.11-0.373,1.393l-110.564,63.662
			C220.435,307.058,220.26,307.102,220.085,307.102z"/>
		<path fill="#D1D2D3" d="M182.864,287.213c-0.351,0-0.692-0.183-0.884-0.509c-0.278-0.489-0.111-1.11,0.374-1.393l110.564-63.662
			c0.493-0.278,1.105-0.116,1.393,0.374c0.278,0.489,0.111,1.109-0.374,1.393l-110.564,63.662
			C183.215,287.17,183.039,287.213,182.864,287.213z"/>
		<path fill="#CB8E24" d="M293.428,393.389c-0.7,0-1.385-0.366-1.759-1.019l-35.972-62.262l-34.619,19.391
			c-0.963,0.533-2.188,0.206-2.753-0.753l-35.604-60.896l-34.953,20.207c-0.963,0.561-2.219,0.23-2.785-0.744
			c-0.566-0.976-0.23-2.221,0.748-2.781l36.704-21.221c0.962-0.565,2.212-0.235,2.778,0.735l35.619,60.921l34.635-19.398
			c0.972-0.541,2.205-0.207,2.754,0.76l36.973,64.004c0.566,0.976,0.232,2.221-0.748,2.782
			C294.128,393.301,293.777,393.389,293.428,393.389z"/>
		<path fill="#DCA138" d="M256.819,371.909c-0.699,0-1.385-0.366-1.759-1.019l-35.717-61.768l-34.776,20.237
			c-0.472,0.267-1.027,0.339-1.545,0.207c-0.525-0.14-0.971-0.481-1.241-0.951l-36.799-63.606c-0.566-0.971-0.23-2.221,0.748-2.781
			c0.955-0.573,2.212-0.234,2.777,0.744l35.772,61.836l34.777-20.238c0.47-0.267,1.02-0.346,1.553-0.207
			c0.524,0.14,0.971,0.482,1.241,0.951l35.716,61.775l34.842-20.117c0.972-0.565,2.222-0.235,2.784,0.744
			c0.566,0.975,0.232,2.22-0.748,2.781l-36.605,21.137C257.521,371.822,257.17,371.909,256.819,371.909z"/>
		<path fill="#848484" d="M293.985,349.363c0,0.928-0.494,1.684-1.106,1.684c-0.604,0-1.099-0.756-1.099-1.684
			c0-0.931,0.494-1.688,1.099-1.688C293.491,347.676,293.985,348.433,293.985,349.363z"/>
		<path fill="#848484" d="M293.985,391.34c0,0.927-0.494,1.683-1.106,1.683c-0.604,0-1.099-0.756-1.099-1.683
			c0-0.932,0.494-1.688,1.099-1.688C293.491,389.652,293.985,390.408,293.985,391.34z"/>
		<path fill="#848484" d="M257.584,327.9c0,0.927-0.493,1.683-1.107,1.683c-0.604,0-1.096-0.756-1.096-1.683
			c0-0.932,0.492-1.688,1.096-1.688C257.091,326.213,257.584,326.969,257.584,327.9z"/>
		<path fill="#848484" d="M257.584,369.876c0,0.927-0.493,1.683-1.107,1.683c-0.604,0-1.096-0.756-1.096-1.683
			c0-0.931,0.492-1.687,1.096-1.687C257.091,368.189,257.584,368.945,257.584,369.876z"/>
		<path fill="#848484" d="M221.19,306.97c0,0.927-0.493,1.683-1.105,1.683c-0.605,0-1.099-0.756-1.099-1.683
			c0-0.931,0.493-1.687,1.099-1.687C220.697,305.283,221.19,306.039,221.19,306.97z"/>
		<path fill="#848484" d="M221.19,347.242c0,0.928-0.493,1.684-1.105,1.684c-0.605,0-1.099-0.756-1.099-1.684
			c0-0.931,0.493-1.687,1.099-1.687C220.697,345.556,221.19,346.312,221.19,347.242z"/>
		<path fill="#848484" d="M184.519,286.188c0,0.926-0.493,1.683-1.105,1.683c-0.605,0-1.099-0.757-1.099-1.683
			c0-0.932,0.493-1.688,1.099-1.688C184.025,284.5,184.519,285.256,184.519,286.188z"/>
		<path fill="#848484" d="M184.519,326.459c0,0.928-0.493,1.684-1.105,1.684c-0.605,0-1.099-0.756-1.099-1.684
			c0-0.931,0.493-1.687,1.099-1.687C184.025,324.772,184.519,325.528,184.519,326.459z"/>
	</g>
	<g>
		<path fill="#955330" d="M600.299,859.616c42.949,0,77.776-15.916,77.776-35.549c0-19.639-34.827-35.551-77.776-35.551
			c-42.967,0-77.784,15.912-77.784,35.551c0,0.664,0.134,1.313,0.223,1.969C524.98,844.747,558.78,859.616,600.299,859.616z"/>
		<path fill="#324E61" d="M616.883,794.075l11.437-0.611l11.437-1.357c0,0,5.817,7.672,6.588,9.072
			c0.781,1.396,6.742-3.215,6.742-3.215l9.939,3.477l8.723,14.898l-21.328,14.734l-21.909-3.104L616.883,794.075z"/>
		<g>
			<path fill="#BE4A3A" d="M548.053,804.708l5.236-10.082l9.891-3.881c0,0,14.931-1.746,15.513-2.908
				c0.58-1.162,8.531-6.398,8.531-6.398l18.605,2.523l11.054,5.371l7.171,9.168l9.692,15.121l8.531,12.215l-11.053,12.309
				l-17.055,6.803L548.053,804.708z"/>
			<polygon fill="#AE3B33" points="578.692,803.346 578.692,789.909 587.414,783.575 			"/>
			<polygon fill="#AE3B33" points="630.843,820.795 624.054,826.418 614.552,820.795 607.771,787.065 614.941,790.36 			"/>
		</g>
		<path fill="#A7B259" d="M525.427,838.407h-12.358c-0.709,0-1.377-0.318-1.815-0.867c-0.445-0.549-0.612-1.273-0.461-1.957
			l4.942-22.459c0.238-1.07,1.186-1.826,2.275-1.826h6.2c1.288,0,2.323,1.039,2.323,2.324s-1.035,2.328-2.323,2.328h-4.329
			l-3.924,17.807h9.47c1.281,0,2.324,1.041,2.324,2.326S526.708,838.407,525.427,838.407z"/>
		<path fill="#A7B259" d="M688.126,838.407h-12.36c-1.28,0-2.323-1.039-2.323-2.324s1.043-2.326,2.323-2.326h9.472l-3.925-17.807
			h-7.727c-1.281,0-2.323-1.043-2.323-2.328s1.042-2.324,2.323-2.324h9.598c1.091,0,2.038,0.756,2.276,1.826l4.942,22.459
			c0.151,0.684-0.023,1.408-0.462,1.957C689.503,838.088,688.834,838.407,688.126,838.407z"/>
		<g>
			<polygon fill="#90704C" points="610.867,841.153 651.391,819.905 657.59,821.961 671.938,814.588 676.595,820.795 
				674.463,844.948 655.306,854.364 623.664,861.702 			"/>
			<polygon fill="#7A5E40" points="641.507,838.633 650.42,821.961 655.306,823.124 			"/>
		</g>
		<g>
			<path fill="#EED77A" d="M618.626,832.625c0,0-17.077-9.307-18.327-10.273c-1.25-0.969-12.305-12.604-12.885-12.604
				c-0.582,0-6.788,0-8.531,0s-10.474-2.133-10.474-2.133l-9.303-6.588l-10.855,1.742l-10.663-5.623l-12.439,17.74l3.907,35.188
				l89.57,20.162l18.806-10.621l-10.664-16.908l-6.78,1.162L618.626,832.625z"/>
			<path fill="#DEC46A" d="M564.732,827.969c1.553-0.191,15.702-6.395,15.702-6.395l5.038-7.953l12.605,9.506l-14.93,3.68
				L564.732,827.969z"/>
			<polygon fill="#DEC46A" points="543.795,838.633 537.786,827.969 540.795,801.178 548.053,804.708 540.492,825.84 			"/>
			<path fill="#DEC46A" d="M578.692,854.34c0,0,22.879-0.582,23.843,0c0.971,0.58,15.12-9.393,15.12-9.393v-11.256l-4.065,6.883
				l-10.665,10.471L578.692,854.34z"/>
		</g>
		<path fill="#CBD883" d="M600.299,861.487c-40.955,0-74.299-14.668-76.526-33.131l-0.216,0.008l6.829,66.805h0.104
			c1.074,17.207,31.88,31.025,69.81,31.025c37.921,0,68.72-13.818,69.801-31.025h0.104l6.82-68.75
			C677.024,845.784,642.668,861.487,600.299,861.487z"/>
		<path fill="#AAB257" d="M600.299,859.616c-41.519,0-75.318-14.869-77.562-33.58l-0.223,0.004v9.279
			c0,0,4.297,28.594,77.784,31.447c39.457,1.531,77.075-19.971,77.776-31.447v-11.252
			C678.075,843.7,643.248,859.616,600.299,859.616z"/>
		<g>
			<polygon fill="#92C2D8" points="632.776,887.68 632.776,856.571 616.883,858.799 624.834,849.493 634.328,849.493 
				639.365,845.999 644.992,844.948 655.306,849.19 655.306,873.721 647.905,877.211 647.905,881.676 			"/>
			<polygon fill="#82B4C3" points="647.125,879.93 646.344,854.364 641.889,867.149 637.432,884.581 			"/>
		</g>
		<polygon fill="#25404B" points="638.783,794.434 645.381,803.346 642.277,821.961 638.783,806.741 636.095,806.741 		"/>
		<polygon fill="#25404B" points="655.306,817.309 660.503,804.127 665.739,811.592 		"/>
		<g>
			<path fill="#8E6CA1" d="M620.672,845.155c-1.632,0-2.515-0.607-2.579-0.652c-1.034-1.154-3.661-0.852-4.577-0.645
				c-0.053,0-0.11,0-0.157,0c-2.61,0-4.479-0.799-5.659-2.363c-2.371-3.127-1.13-8.213-0.907-9.025
				c-0.047-0.818,0.239-1.531,0.837-2.057c2.395-2.152,9.358-0.84,10.146-0.688c4.25,0.652,7.989-0.645,8.022-0.652l0.382,1.098
				c-0.167,0.055-4.019,1.373-8.612,0.703c-2.004-0.404-7.503-1.09-9.166,0.402c-0.352,0.311-0.486,0.693-0.446,1.203l0.016,0.111
				l-0.031,0.104c-0.016,0.047-1.48,5.236,0.692,8.102c0.955,1.271,2.53,1.912,4.671,1.912c0.032,0,0.057,0,0.088,0
				c0.287-0.078,3.916-0.822,5.476,0.936l0,0c0.04,0,2.348,1.465,6.804-1.424l0.637,0.975
				C623.935,844.733,622.04,845.155,620.672,845.155z"/>
			<path fill="#A988B7" d="M646.847,828.651c6.111-0.395,7.624-4.588,7.624-4.588l3.509,3.906c-4.56,0.195-7.074,2.91-7.074,2.91
				L646.847,828.651z"/>
			<polygon fill="#A988B7" points="630.843,844.948 628.511,847.842 623.664,849.397 619.987,852.784 617.655,857.053 
				616.883,860.739 613.39,856.274 617.655,849.198 620.179,844.948 625.12,841.348 			"/>
			<polygon fill="#A988B7" points="671.748,818.667 674.365,815.563 675.662,815.264 672.4,810.719 663.988,813.196 			"/>
			<path fill="#BFA2C8" d="M630.332,846.795c0,0,21.647-5.078,21.688-17.293c0,0-10.616-9.305-27.48,0
				C624.539,829.502,614.218,841.407,630.332,846.795z"/>
			<path fill="#BFA2C8" d="M654.987,828.651c0,0,17.444-2.129,17.835-11.342c0,0-3.55-7.465-13.066-5.717
				C659.756,811.592,647.133,816.043,654.987,828.651z"/>
		</g>
		<g>
			<path fill="#F4F5F4" d="M569.715,833.692c0,0,11.611,4.154,12.438,3.867c0.827-0.281,3.319,1.373,4.146,2.205
				c0.83,0.824,2.762,3.223,2.762,3.223l-6.35,4.238l-7.457,4.154c0,0,0.827,3.027-0.286,3.307
				c-1.106,0.281-5.253,1.424-5.253,1.424l-4.306,0.207v10.254c0,0,3.206,5.531,2.38,9.125s-4.433,7.453-5.531,8.01
				c-1.098,0.553-17.134,9.674-17.961,9.947c-0.828,0.279-9.726,5.082-10.785,2.217c-1.599-4.33,3.312-8.846,4.696-9.402
				c1.385-0.549,10.783-8.838,11.611-9.943c0.828-1.111,2.212-14.1,2.212-14.926c0-0.828,0-12.156,2.483-12.156
				c2.491,0,6.772-0.832,6.772-0.832l7.328-5.623L569.715,833.692z"/>
			<path fill="#47638D" d="M565.409,866.26c-0.898,0.359-1.75,0.852-2.696,1.461c-2.571,1.646-3.638,3.453-4.068,6.451
				c-0.389,2.773-0.572,5.422,0.971,7.938c0.47,0.771,1.02,1.484,1.584,2.172c0.542-0.297,0.914-0.504,1.059-0.576
				c1.099-0.557,4.705-4.416,5.531-8.01s-2.38-9.125-2.38-9.125V866.26z"/>
			<path fill="#47638D" d="M572.206,840.397c2.292,0.154,4.466,0.814,6.757,1.006c0.771,0.064,1.297,0.322,1.798,0.9
				c1.218,1.396,1.839,2.936,3.239,4.059l5.061-3.375c0,0-1.932-2.398-2.762-3.223c-0.826-0.832-3.318-2.486-4.146-2.205
				c-0.827,0.287-12.438-3.867-12.438-3.867l-0.796,6.705C570.018,840.36,571.115,840.329,572.206,840.397z"/>
			<path fill="#47638D" d="M539.235,885.811c0,0,4.479,4.734,4.192,8.232c0,0-7.702,4.738-10.115,2.734
				C533.313,896.778,530.728,889.407,539.235,885.811z"/>
		</g>
	</g>
	<g>
		<polygon fill="#F9ECBF" points="589.969,187.703 548.14,163.889 548.14,115.057 589.969,139.373 		"/>
		<polygon fill="#F5DF96" points="587.374,183.203 550.879,162.424 550.879,119.812 587.374,141.032 		"/>
		<polygon fill="#9DB4B4" points="568.625,132.405 552.223,122.867 552.223,124.662 568.625,134.005 		"/>
		<polygon fill="#9DB4B4" points="569.731,133.05 569.731,134.634 585.703,143.723 585.703,142.334 		"/>
		<polygon fill="#9DB4B4" points="568.625,135.183 552.223,125.645 552.223,127.439 568.625,136.782 		"/>
		<polygon fill="#9DB4B4" points="569.731,135.827 569.731,137.411 585.703,146.5 585.703,145.111 		"/>
		<polygon fill="#9DB4B4" points="568.625,137.96 552.223,128.422 552.223,130.217 568.625,139.56 		"/>
		<polygon fill="#9DB4B4" points="569.731,138.605 569.731,140.188 585.703,149.277 585.703,147.889 		"/>
		<polygon fill="#9DB4B4" points="568.625,140.742 552.223,131.203 552.223,132.998 568.625,142.342 		"/>
		<polygon fill="#9DB4B4" points="569.731,141.387 569.731,142.97 585.703,152.059 585.703,150.67 		"/>
		<polygon fill="#9DB4B4" points="568.625,143.52 552.223,133.98 552.223,135.775 568.625,145.119 		"/>
		<polygon fill="#9DB4B4" points="569.731,144.164 569.731,145.748 585.703,154.836 585.703,153.447 		"/>
		<polygon fill="#9DB4B4" points="568.625,146.297 552.223,136.758 552.223,138.553 568.625,147.896 		"/>
		<polygon fill="#9DB4B4" points="569.731,146.941 569.731,148.525 585.703,157.613 585.703,156.225 		"/>
		<polygon fill="#9DB4B4" points="568.625,149.074 552.223,139.536 552.223,141.33 568.625,150.674 		"/>
		<polygon fill="#9DB4B4" points="569.731,149.719 569.731,151.303 585.703,160.391 585.703,159.002 		"/>
		<polygon fill="#9DB4B4" points="568.625,151.855 552.223,142.317 552.223,144.111 568.625,153.455 		"/>
		<polygon fill="#9DB4B4" points="569.731,152.5 569.731,154.084 585.703,163.172 585.703,161.783 		"/>
		<polygon fill="#9DB4B4" points="568.625,154.633 552.223,145.095 552.223,146.889 568.625,156.232 		"/>
		<polygon fill="#9DB4B4" points="569.731,155.277 569.731,156.861 585.703,165.949 585.703,164.561 		"/>
		<polygon fill="#9DB4B4" points="568.625,157.41 552.223,147.872 552.223,149.667 568.625,159.01 		"/>
		<polygon fill="#9DB4B4" points="569.731,158.055 569.731,159.639 585.703,168.727 585.703,167.338 		"/>
		<polygon fill="#9DB4B4" points="568.625,160.188 552.223,150.649 552.223,152.444 568.625,161.787 		"/>
		<polygon fill="#9DB4B4" points="569.731,160.832 569.731,162.416 585.703,171.504 585.703,170.115 		"/>
		<polygon fill="#9DB4B4" points="569.731,163.613 569.731,165.197 585.703,174.285 585.703,172.896 		"/>
		<polygon fill="#9DB4B4" points="568.625,162.969 552.223,153.432 552.223,155.226 568.625,164.568 		"/>
		<polygon fill="#9DB4B4" points="568.625,165.746 552.223,156.209 552.223,158.003 568.625,167.346 		"/>
		<polygon fill="#9DB4B4" points="569.731,166.391 569.731,167.975 585.703,177.063 585.703,175.674 		"/>
		<polygon fill="#9DB4B4" points="569.731,169.168 569.731,170.752 585.703,179.84 585.703,178.451 		"/>
		<polygon fill="#9DB4B4" points="568.625,168.523 552.223,158.986 552.223,160.781 568.625,170.123 		"/>
	</g>
</g>
</svg>
