<?xml version="1.0" encoding="utf-8"?>
<!-- Generator: Adobe Illustrator 16.0.0, SVG Export Plug-In . SVG Version: 6.00 Build 0)  -->
<!DOCTYPE svg PUBLIC "-//W3C//DTD SVG 1.1//EN" "http://www.w3.org/Graphics/SVG/1.1/DTD/svg11.dtd">
<svg version="1.1" id="Capa_1" xmlns="http://www.w3.org/2000/svg" xmlns:xlink="http://www.w3.org/1999/xlink" x="0px" y="0px"
	 width="38.547px" height="50px" viewBox="0 0 38.547 50" enable-background="new 0 0 38.547 50" xml:space="preserve">
<path fill="#339999" d="M33.299,0c2.9,0,5.248,2.516,5.248,5.619v38.762c0,3.104-2.348,5.619-5.248,5.619H5.249
	C2.349,50,0,47.484,0,44.381V5.619C0,2.516,2.349,0,5.249,0H33.299 M33.299,2.811H5.249c-1.45,0-2.621,1.262-2.621,2.809v38.762
	c0,1.55,1.171,2.81,2.621,2.81h28.05c1.451,0,2.621-1.26,2.621-2.81V5.619C35.918,4.072,34.75,2.811,33.299,2.811L33.299,2.811z
	 M8.938,13.035c-1.205,0-1.873,0.662-1.873,1.639v6.451c0,0.625,0.291,1.344,1.488,1.344h21.813c1.199,0,1.319-0.738,1.319-1.178
	v-6.459c0-0.939-0.354-1.797-1.56-1.797H8.938z M8.938,26.049c-0.712,0-1.513-0.031-1.513,1.412v5c0,1.141,0.302,1.689,1.343,1.689
	h7.888c1.476,0,1.344-0.945,1.344-1.521v-5.037c0-1.211-0.404-1.545-1.28-1.545L8.938,26.049L8.938,26.049z M21.676,26.205
	c-0.713,0-1.514,0.152-1.514,1.299V41.34c0,1.584,0.303,1.701,1.344,1.701h8.306c0.78,0,0.927,0.078,0.927-1.127V28.053
	c0-1.531-0.396-1.854-1.268-1.854h-7.795V26.205z M8.855,35.305c-0.711,0-1.505-0.031-1.505,1.412v5.008
	c0,1.144,0.302,1.691,1.336,1.691h7.895c1.477,0,1.338-0.947,1.338-1.527v-5.033c0-1.211-0.399-1.551-1.269-1.551H8.855z
	 M23.504,16.75v2.201c0,0.496-0.024,0.863-0.082,1.09c-0.051,0.227-0.164,0.441-0.334,0.637c-0.176,0.203-0.385,0.348-0.625,0.43
	c-0.238,0.086-0.51,0.133-0.807,0.133c-0.391,0-0.726-0.047-0.984-0.133c-0.264-0.096-0.465-0.24-0.623-0.43
	c-0.151-0.195-0.266-0.396-0.328-0.613c-0.063-0.215-0.095-0.549-0.095-1.014V16.75c0-0.605,0.05-1.068,0.152-1.361
	c0.102-0.305,0.314-0.549,0.624-0.727c0.31-0.184,0.687-0.277,1.129-0.277c0.357,0,0.687,0.063,0.972,0.189
	c0.283,0.125,0.498,0.283,0.644,0.467c0.14,0.174,0.233,0.383,0.283,0.611C23.48,15.879,23.504,16.252,23.504,16.75L23.504,16.75z
	 M22.61,16.107c0-0.385-0.063-0.627-0.189-0.719c-0.125-0.096-0.422-0.141-0.883-0.141c-0.453,0-0.763,0.045-0.908,0.146
	c-0.139,0.107-0.213,0.34-0.213,0.713v3.498c0,0.418,0.068,0.67,0.201,0.758c0.133,0.088,0.43,0.133,0.883,0.133
	c0.455,0,0.758-0.057,0.901-0.152c0.14-0.1,0.208-0.328,0.208-0.682V16.107z M29.211,16.75v2.201c0,0.496-0.024,0.863-0.082,1.09
	c-0.057,0.227-0.164,0.441-0.34,0.637c-0.17,0.203-0.379,0.348-0.619,0.43c-0.238,0.086-0.51,0.133-0.813,0.133
	c-0.391,0-0.719-0.047-0.979-0.133c-0.264-0.096-0.467-0.24-0.623-0.43c-0.158-0.195-0.266-0.396-0.328-0.613
	c-0.07-0.215-0.102-0.549-0.102-1.014V16.75c0-0.605,0.051-1.068,0.157-1.361c0.106-0.305,0.313-0.549,0.617-0.727
	c0.315-0.184,0.688-0.277,1.136-0.277c0.359,0,0.688,0.063,0.965,0.189c0.291,0.125,0.506,0.283,0.645,0.467
	c0.139,0.174,0.238,0.383,0.289,0.611C29.187,15.879,29.211,16.252,29.211,16.75L29.211,16.75z M28.317,16.107
	c0-0.385-0.063-0.627-0.188-0.719c-0.127-0.096-0.424-0.141-0.891-0.141c-0.453,0-0.757,0.045-0.896,0.146
	c-0.145,0.107-0.221,0.34-0.221,0.713v3.498c0,0.418,0.069,0.67,0.201,0.758c0.139,0.088,0.436,0.133,0.883,0.133
	c0.455,0,0.752-0.057,0.896-0.152c0.139-0.1,0.214-0.328,0.214-0.682L28.317,16.107L28.317,16.107z M15.875,31.262h-2.264v2.316
	H11.65v-2.316H9.36v-1.961h2.29v-2.244h1.968v2.244h2.256L15.875,31.262L15.875,31.262z M15.673,40.457H9.764v-2.244h5.909V40.457z
	 M28.279,33.268h-5.907v-2.244h5.907V33.268z M28.331,37.014h-5.902v-2.246h5.902V37.014z"/>
</svg>
