<?xml version="1.0" encoding="utf-8"?>
<!-- Generator: Adobe Illustrator 16.0.0, SVG Export Plug-In . SVG Version: 6.00 Build 0)  -->
<!DOCTYPE svg PUBLIC "-//W3C//DTD SVG 1.1//EN" "http://www.w3.org/Graphics/SVG/1.1/DTD/svg11.dtd">
<svg version="1.1" id="Capa_1" xmlns="http://www.w3.org/2000/svg" xmlns:xlink="http://www.w3.org/1999/xlink" x="0px" y="0px"
	 width="50px" height="48.631px" viewBox="0 0 50 48.631" enable-background="new 0 0 50 48.631" xml:space="preserve">
<g>
	<g>
		<polygon fill="#FFFFFF" points="50,24.774 0,24.774 0,27.587 2.212,27.587 2.212,48.631 6.305,48.631 6.305,27.587 42.456,27.587 
			42.456,48.631 46.55,48.631 46.55,27.587 50,27.587 		"/>
		<path fill="#FFFFFF" d="M2.563,25.126l0.478-0.055h16.438v-2.3h-2.519v-1.229H13.66v1.229H3.296
			C2.865,17.751,2.204,5.801,5.353,2.802c1.723-1.648,3.874-2.227,5.903-1.584c1.714,0.541,3.063,1.858,3.583,3.434l-1.446,0.141
			l0.216,2.238L11.37,7.247l-1.255,6.936l12.063-1.168L19.61,6.449l-1.939,0.189l-0.219-2.241l-1.646,0.159
			c-0.563-1.954-2.183-3.599-4.261-4.254C9.173-0.446,6.675,0.208,4.689,2.104C1.232,5.4,1.878,17.576,2.327,22.769H0.521v2.299
			h2.036C2.56,25.089,2.563,25.116,2.563,25.126z"/>
		<path fill="#FFFFFF" d="M15.845,14.791c0.989-0.095,1.714-0.976,1.618-1.964c-1.087,0.107-1.878,0.184-3.584,0.349
			C13.976,14.161,14.854,14.889,15.845,14.791z"/>
		<path fill="#FFFFFF" d="M21.656,24.774H49.11v-1.227h-1.188l-0.174-3.119l-0.354,0.141c-1.049,0.41-2.086,0.609-3.165,0.609
			c-1.613,0-2.992-0.443-4.209-0.838c-1.043-0.337-1.927-0.618-2.682-0.529c-1.106,0.135-1.657,0.987-1.931,1.847
			c-0.277-0.859-0.827-1.712-1.932-1.847c-0.753-0.092-1.642,0.192-2.683,0.529c-1.217,0.395-2.596,0.838-4.209,0.838
			c-1.081,0-2.117-0.199-3.166-0.609l-0.354-0.141l-0.175,3.119h-1.231v1.227H21.656z M37.402,20.355
			c0.651-0.082,1.472,0.189,2.449,0.505c1.192,0.385,2.679,0.866,4.377,0.866c1.03,0,2.02-0.169,3.014-0.521l0.116,2.063H35.686
			C35.716,22.539,35.939,20.533,37.402,20.355z M23.569,21.206c0.993,0.352,1.982,0.521,3.01,0.521c1.7,0,3.187-0.481,4.376-0.866
			c0.979-0.315,1.8-0.587,2.45-0.505c1.461,0.175,1.686,2.181,1.718,2.914H23.451L23.569,21.206z"/>
	</g>
</g>
</svg>
