<?xml version="1.0" encoding="utf-8"?>
<!-- Generator: Adobe Illustrator 16.0.0, SVG Export Plug-In . SVG Version: 6.00 Build 0)  -->
<!DOCTYPE svg PUBLIC "-//W3C//DTD SVG 1.1//EN" "http://www.w3.org/Graphics/SVG/1.1/DTD/svg11.dtd">
<svg version="1.1" id="Capa_1" xmlns="http://www.w3.org/2000/svg" xmlns:xlink="http://www.w3.org/1999/xlink" x="0px" y="0px"
	 width="25px" height="26.093px" viewBox="0 0 25 26.093" enable-background="new 0 0 25 26.093" xml:space="preserve">
<g>
	<g id="Layer_1_1_">
		<g>
			<path fill="#FFFFFF" d="M2.851,21.385V2.852h14.968v15.565l2.852-2.355V1.426C20.67,0.639,20.034,0,19.247,0H1.425
				C0.638,0,0,0.639,0,1.426V22.81c0,0.788,0.638,1.427,1.425,1.427h12.441l-2.016-2.852H2.851z"/>
			<path fill="#FFFFFF" d="M24.776,15.329c-0.262-0.249-0.666-0.26-0.941-0.033L17.295,20.7l-4.359-2.614
				c-0.287-0.174-0.658-0.121-0.889,0.128c-0.229,0.245-0.254,0.619-0.059,0.895l4.723,6.684c0.131,0.187,0.346,0.299,0.576,0.301
				h0.006c0.227,0,0.439-0.106,0.574-0.291l6.996-9.535C25.075,15.979,25.038,15.575,24.776,15.329z"/>
			<path fill="#FFFFFF" d="M14.614,4.99H6.059c-0.788,0-1.426,0.639-1.426,1.426c0,0.788,0.639,1.426,1.426,1.426h8.553
				c0.787,0,1.426-0.638,1.426-1.426C16.038,5.629,15.401,4.99,14.614,4.99z"/>
			<path fill="#FFFFFF" d="M14.614,9.267H6.059c-0.788,0-1.426,0.638-1.426,1.425c0,0.788,0.639,1.426,1.426,1.426h8.553
				c0.787,0,1.426-0.637,1.426-1.426C16.038,9.904,15.401,9.267,14.614,9.267z"/>
			<path fill="#FFFFFF" d="M14.614,13.543H6.059c-0.788,0-1.426,0.639-1.426,1.426c0,0.788,0.639,1.426,1.426,1.426h8.553
				c0.787,0,1.426-0.638,1.426-1.426C16.038,14.182,15.401,13.543,14.614,13.543z"/>
		</g>
	</g>
</g>
</svg>
