<?xml version="1.0" encoding="utf-8"?>
<!-- Generator: Adobe Illustrator 16.0.0, SVG Export Plug-In . SVG Version: 6.00 Build 0)  -->
<!DOCTYPE svg PUBLIC "-//W3C//DTD SVG 1.1//EN" "http://www.w3.org/Graphics/SVG/1.1/DTD/svg11.dtd">
<svg version="1.1" id="Capa_1" xmlns="http://www.w3.org/2000/svg" xmlns:xlink="http://www.w3.org/1999/xlink" x="0px" y="0px"
	 width="50px" height="30.723px" viewBox="0 0 50 30.723" enable-background="new 0 0 50 30.723" xml:space="preserve">
<g>
	<path fill="#FFFFFF" d="M48.192,0H1.808C0.811,0,0,0.809,0,1.807v27.11c0,0.997,0.811,1.806,1.808,1.806h46.385
		c0.998,0,1.808-0.809,1.808-1.806V1.807C50,0.809,49.19,0,48.192,0z M40.206,6.801h2.823v2.824h-2.823V6.801z M40.206,10.313h2.823
		v2.822h-2.823V10.313z M40.206,13.818h2.823v2.825h-2.823V13.818z M36.598,6.801h2.825v2.824h-2.825V6.801z M36.598,10.313h2.825
		v2.822h-2.825V10.313z M33.435,27.109h-3.126c0.494-0.279,0.843-0.937,0.843-1.699h-5.876c3.005-1.835,4.975-4.85,4.975-8.265
		H6.751c0,3.415,1.968,6.43,4.972,8.265H5.85c0,0.765,0.346,1.42,0.838,1.699H3.613V3.613h29.821V27.109L33.435,27.109z
		 M36.598,13.818h2.825v2.825h-2.825V13.818z M41.543,26.18c-1.706,0-3.088-1.382-3.088-3.085c0-1.706,1.382-3.087,3.088-3.087
		c1.703,0,3.086,1.381,3.086,3.087C44.629,24.798,43.246,26.18,41.543,26.18z M46.637,16.644h-2.824v-2.825h2.824V16.644z
		 M46.637,13.136h-2.824v-2.822h2.824V13.136z M46.637,9.625h-2.824V6.801h2.824V9.625z"/>
</g>
</svg>
