<?xml version="1.0" encoding="utf-8"?>
<!-- Generator: Adobe Illustrator 16.0.0, SVG Export Plug-In . SVG Version: 6.00 Build 0)  -->
<!DOCTYPE svg PUBLIC "-//W3C//DTD SVG 1.1//EN" "http://www.w3.org/Graphics/SVG/1.1/DTD/svg11.dtd">
<svg version="1.1" id="Capa_1" xmlns="http://www.w3.org/2000/svg" xmlns:xlink="http://www.w3.org/1999/xlink" x="0px" y="0px"
	 width="24.992px" height="50px" viewBox="0 0 24.992 50" enable-background="new 0 0 24.992 50" xml:space="preserve">
<g>
	<path fill="none" d="M3.128,46.872h18.737V6.255H3.128V46.872z M6.24,18.753h12.511v24.988H6.24V18.753z"/>
	<path fill="#336535" d="M18.751,18.753H6.24v24.988h12.511V18.753z M14.432,30.698v5.478h-3.872v-5.572H8.672l3.871-3.776
		l3.777,3.871H14.432z"/>
	<path fill="#336535" d="M21.88,3.129h-3.129V0H6.256v3.129H3.112C1.385,3.129,0,4.531,0,6.271v40.584C0,48.598,1.415,50,3.112,50
		H21.88c1.724,0,3.111-1.402,3.111-3.146V6.271C24.992,4.531,23.589,3.129,21.88,3.129z M21.865,46.872H3.128V6.255h18.737V46.872z"
		/>
</g>
</svg>
