<?xml version="1.0" encoding="utf-8"?>
<!-- Generator: Adobe Illustrator 16.0.0, SVG Export Plug-In . SVG Version: 6.00 Build 0)  -->
<!DOCTYPE svg PUBLIC "-//W3C//DTD SVG 1.1//EN" "http://www.w3.org/Graphics/SVG/1.1/DTD/svg11.dtd">
<svg version="1.1" id="Capa_1" xmlns="http://www.w3.org/2000/svg" xmlns:xlink="http://www.w3.org/1999/xlink" x="0px" y="0px"
	 width="60px" height="31.092px" viewBox="0 0 60 31.092" enable-background="new 0 0 60 31.092" xml:space="preserve">
<g>
	<path fill="#424141" d="M12.891,15.509l0.002,0.044v2.681H47.11v-2.721c0.086-3.096,2.045-5.667,4.781-6.656
		C50.45,3.748,45.758,0,40.186,0h-20.37C14.245,0,9.553,3.746,8.111,8.856C10.848,9.846,12.805,12.416,12.891,15.509z"/>
	<path fill="#424141" d="M54.399,10.348c-3.043,0-5.516,2.425-5.6,5.445l-0.002,4.366H11.205l-0.002-4.366
		c-0.086-3.021-2.559-5.445-5.6-5.445C2.51,10.348,0,12.856,0,15.951c0,3.094,2.51,5.603,5.604,5.603c0.1,0,0.189-0.003,0.287-0.008
		c0,0,0.004,3.112,0.004,3.17c0,2.516,2.039,4.555,4.555,4.555h1.004v1.315c0,0.28,0.227,0.506,0.506,0.506h3.37
		c0.28,0,0.506-0.226,0.506-0.506v-1.315h28.332v1.315c0,0.28,0.227,0.506,0.506,0.506h3.369c0.281,0,0.506-0.226,0.506-0.506
		v-1.315h1.002c2.516,0,4.557-2.039,4.557-4.555c0-0.023-0.004-0.046-0.004-0.068v-3.102c0.1,0.005,0.197,0.008,0.297,0.008
		c3.094,0,5.602-2.509,5.602-5.603C60,12.856,57.493,10.348,54.399,10.348z"/>
</g>
</svg>
