<?xml version="1.0" encoding="utf-8"?>
<!-- Generator: Adobe Illustrator 16.0.0, SVG Export Plug-In . SVG Version: 6.00 Build 0)  -->
<!DOCTYPE svg PUBLIC "-//W3C//DTD SVG 1.1//EN" "http://www.w3.org/Graphics/SVG/1.1/DTD/svg11.dtd">
<svg version="1.1" id="Capa_1" xmlns="http://www.w3.org/2000/svg" xmlns:xlink="http://www.w3.org/1999/xlink" x="0px" y="0px"
	 width="20px" height="20px" viewBox="0 0 20 20" enable-background="new 0 0 20 20" xml:space="preserve">
<g>
	<g>
		<rect x="6.25" y="15" fill="#F7F7F8" width="6.25" height="1.25"/>
		<path fill="#F7F7F8" d="M5,1.25h10v2.5h1.25v-2.5C16.25,0.561,15.689,0,15,0H5C4.309,0,3.75,0.561,3.75,1.25v2.5H5V1.25z"/>
		<rect x="6.25" y="12.5" fill="#F7F7F8" width="7.5" height="1.25"/>
		<path fill="#F7F7F8" d="M18.75,5H1.25C0.559,5,0,5.561,0,6.25v7.5C0,14.441,0.559,15,1.25,15h2.5v3.75C3.75,19.441,4.309,20,5,20
			h10c0.689,0,1.25-0.559,1.25-1.25V15h2.5c0.689,0,1.25-0.559,1.25-1.25v-7.5C20,5.561,19.439,5,18.75,5z M15,18.75H5v-7.5h10
			V18.75L15,18.75z M17.5,8.75c-0.691,0-1.25-0.559-1.25-1.25c0-0.689,0.559-1.25,1.25-1.25c0.689,0,1.25,0.561,1.25,1.25
			C18.75,8.191,18.189,8.75,17.5,8.75z"/>
	</g>
</g>
</svg>
